<svg width="84" height="84" viewBox="0 0 84 84" fill="none" xmlns="http://www.w3.org/2000/svg">
<path fill-rule="evenodd" clip-rule="evenodd" d="M4.5026 50.333C6.80379 50.333 8.66927 52.1985 8.66927 54.4997V71.1663C8.66927 72.2714 9.10826 73.3312 9.88966 74.1126C10.6711 74.894 11.7309 75.333 12.8359 75.333H71.1693C72.2743 75.333 73.3342 74.894 74.1156 74.1126C74.897 73.3312 75.3359 72.2714 75.3359 71.1663V54.4997C75.3359 52.1985 77.2014 50.333 79.5026 50.333C81.8038 50.333 83.6693 52.1985 83.6693 54.4997V71.1663C83.6693 74.4816 82.3523 77.661 80.0081 80.0052C77.6639 82.3494 74.4845 83.6663 71.1693 83.6663H12.8359C9.52073 83.6663 6.34131 82.3494 3.9971 80.0052C1.6529 77.661 0.335938 74.4816 0.335938 71.1663V54.4997C0.335938 52.1985 2.20142 50.333 4.5026 50.333Z" fill="#B6BDCC"/>
<path fill-rule="evenodd" clip-rule="evenodd" d="M42.0013 0.333252C40.9345 0.332915 39.8676 0.739711 39.0537 1.55364L18.2204 22.387C16.5932 24.0142 16.5932 26.6523 18.2204 28.2795C19.8476 29.9067 22.4858 29.9067 24.1129 28.2795L37.8359 14.5565V54.4999C37.8359 56.8011 39.7014 58.6666 42.0026 58.6666C44.3038 58.6666 46.1693 56.8011 46.1693 54.4999V14.5617L59.8871 28.2795C61.5142 29.9067 64.1524 29.9067 65.7796 28.2795C67.4068 26.6523 67.4068 24.0142 65.7796 22.387L45.0354 1.64275C44.2756 0.836539 43.1979 0.333252 42.0026 0.333252C42.0022 0.333252 42.0018 0.333252 42.0013 0.333252Z" fill="#B6BDCC"/>
</svg>
