<svg xmlns="http://www.w3.org/2000/svg" viewBox="0 0 88 98.33"><defs><style>.cls-1{fill:#2f3361;}.cls-2{fill:#3d4180;}.cls-3{fill:#191b45;}.cls-4{fill:#e4eef7;}.cls-5{fill:#c8d9e8;}.cls-6{fill:#d3e3f0;}.cls-7{fill:#232844;}.cls-8{fill:#e35d20;}.cls-9{fill:#25222f;}.cls-10{fill:#db571a;}.cls-11{fill:#00a8f2;}.cls-12{fill:#c24911;}.cls-13{fill:#1e577a;}.cls-14{fill:#ede695;}.cls-15{fill:#fff;}.cls-16{fill:#f99b79;}.cls-17{fill:#ebc89f;}.cls-18{fill:#070e18;}.cls-19{fill:#faab8b;}.cls-20{fill:#f8dab8;}.cls-21{fill:#354067;}.cls-22{fill:#f2bd5b;}.cls-23{fill:#eca91b;}.cls-24{fill:#6079a6;}.cls-25{fill:#fbe8c5;}</style></defs><title>5_1</title><g id="Capa_2" data-name="Capa 2"><g id="Capa_1-2" data-name="Capa 1"><path class="cls-1" d="M75.77,79.3,72.7,81.07,70,82.64l-24,13.88a2.17,2.17,0,0,1-.63.24,3.36,3.36,0,0,1-1.34,0,2.28,2.28,0,0,1-.63-.24L31.67,89.78l.43-.25L12.64,78.3l-.43.25L.54,71.81a1.23,1.23,0,0,1-.37-.31A.77.77,0,0,1,0,71.06a.76.76,0,0,1,0-.15,1.11,1.11,0,0,1,.53-.6L30.37,53.08a1.9,1.9,0,0,1,.63-.23,3.13,3.13,0,0,1,1.14,0l.2,0a2,2,0,0,1,.63.23L75.77,77.8a1.35,1.35,0,0,1,.37.3.82.82,0,0,1,.17.47.62.62,0,0,1,0,.13h0A1.11,1.11,0,0,1,75.77,79.3ZM56.31,87.53l15.63-9,.32-.19L32.05,55.12,16.1,64.32l.33.19Z"/><path class="cls-2" d="M67.67,84h0l8.1-4.68a1.11,1.11,0,0,0,.52-.59h0v1.34a.78.78,0,0,1,0,.14.67.67,0,0,1-.17.32,1.2,1.2,0,0,1-.35.28l-5.41,3.13L45.94,98v-1.5Z"/><path class="cls-3" d="M0,72.56a1,1,0,0,0,0,.16A.79.79,0,0,0,.19,73a1.31,1.31,0,0,0,.35.27L43.34,98a2.28,2.28,0,0,0,.63.24,3.36,3.36,0,0,0,1.34,0,2.17,2.17,0,0,0,.63-.24v-1.5a2.17,2.17,0,0,1-.63.24,3.36,3.36,0,0,1-1.34,0,2.28,2.28,0,0,1-.63-.24L31.67,89.78v.75L12.21,79.3v-.75L.54,71.81a1.23,1.23,0,0,1-.37-.31A.77.77,0,0,1,0,71.06H0v1.5Z"/><polygon class="cls-3" points="12.64 78.3 12.21 79.3 31.67 90.53 31.67 89.78 32.1 89.53 12.64 78.3"/><polygon class="cls-3" points="13.51 77.8 32.97 89.03 45.2 81.98 25.74 70.74 13.51 77.8"/><polygon class="cls-3" points="16.1 64.32 56.31 87.53 72.26 78.33 32.05 55.12 16.1 64.32"/><path class="cls-3" d="M76.14,78.1a1.35,1.35,0,0,0-.37-.3L33,53.08a2,2,0,0,0-.63-.23l-.2,0a2.07,2.07,0,0,1-.1-.33,2.71,2.71,0,0,1-.08-.69c0-.12,0-.23,0-.35l7.73-37.73a1.43,1.43,0,0,1,.43-.81,1,1,0,0,1,.39-.21.67.67,0,0,1,.28,0,1.1,1.1,0,0,1,.53.16L84.17,37.53a1.78,1.78,0,0,1,.5.45,2.55,2.55,0,0,1,.49,1.27,2.49,2.49,0,0,1,0,.67L77.41,77.66a1.63,1.63,0,0,1-.28.63,1,1,0,0,1-.43.35l-.09,0a1,1,0,0,1-.3,0v-.14A.82.82,0,0,0,76.14,78.1ZM33.83,52a1.87,1.87,0,0,0,.47.42L75.25,76a1.41,1.41,0,0,0,.49.16,1,1,0,0,0,.64-.2,1.33,1.33,0,0,0,.43-.75l1-4.5.24-1.1,6.19-29a1.91,1.91,0,0,0,0-.63,2.16,2.16,0,0,0-.47-1.17,1.47,1.47,0,0,0-.48-.42L42.33,14.8a1.09,1.09,0,0,0-.49-.16,1,1,0,0,0-.65.2,1.34,1.34,0,0,0-.42.75L34.53,44.78l-.17.81-1,4.58a2.19,2.19,0,0,0,0,.63A2.32,2.32,0,0,0,33.83,52Z"/><path class="cls-4" d="M33.38,50.17a2.19,2.19,0,0,0,0,.63A2.32,2.32,0,0,0,33.83,52a1.87,1.87,0,0,0,.47.42L75.25,76a1.41,1.41,0,0,0,.49.16,1,1,0,0,0,.64-.2,1.33,1.33,0,0,0,.43-.75l1-4.5.24-1.1,6.19-29a1.91,1.91,0,0,0,0-.63,2.16,2.16,0,0,0-.47-1.17,1.47,1.47,0,0,0-.48-.42L42.33,14.8a1.09,1.09,0,0,0-.49-.16,1,1,0,0,0-.65.2,1.34,1.34,0,0,0-.42.75L34.53,44.78l-.17.81Z"/><path class="cls-1" d="M85.16,39.25a2.49,2.49,0,0,1,0,.67l.62-.16a2,2,0,0,0,0-.68,2.46,2.46,0,0,0-.49-1.26,1.82,1.82,0,0,0-.5-.46L42,12.65l-.19-.09a1.2,1.2,0,0,0-.42-.07.64.64,0,0,0-.2,0h0l-.6.16h0a.67.67,0,0,1,.28,0,1.1,1.1,0,0,1,.53.16L84.17,37.53a1.78,1.78,0,0,1,.5.45A2.55,2.55,0,0,1,85.16,39.25Z"/><path class="cls-2" d="M76.7,78.64l-.09,0,.6-.16a.85.85,0,0,0,.3-.15,1.11,1.11,0,0,0,.42-.54,2.07,2.07,0,0,0,.1-.33l7.72-37.73-.62.16L77.41,77.66a1.63,1.63,0,0,1-.28.63A1,1,0,0,1,76.7,78.64Z"/><polygon class="cls-1" points="29.64 57.24 32.13 58.69 34.46 57.35 31.97 55.9 29.64 57.24"/><polygon class="cls-1" points="32.93 59.16 35.42 60.61 37.76 59.26 35.26 57.81 32.93 59.16"/><polygon class="cls-1" points="36.22 61.07 38.71 62.52 41.05 61.17 38.55 59.72 36.22 61.07"/><polygon class="cls-1" points="39.52 62.98 42.01 64.43 44.34 63.09 41.85 61.64 39.52 62.98"/><polygon class="cls-1" points="42.81 64.9 45.3 66.34 47.63 65 45.14 63.55 42.81 64.9"/><polygon class="cls-1" points="46.1 66.81 48.59 68.26 50.92 66.91 48.43 65.47 46.1 66.81"/><polygon class="cls-1" points="49.39 68.72 51.89 70.17 54.22 68.83 51.72 67.38 49.39 68.72"/><polygon class="cls-1" points="52.69 70.64 55.18 72.08 57.51 70.74 55.02 69.29 52.69 70.64"/><polygon class="cls-1" points="55.98 72.55 58.47 74 60.8 72.65 58.31 71.21 55.98 72.55"/><polygon class="cls-1" points="59.27 74.47 61.76 75.91 64.09 74.57 61.6 73.12 59.27 74.47"/><polygon class="cls-1" points="62.57 76.38 65.06 77.83 67.39 76.48 64.9 75.03 62.57 76.38"/><polygon class="cls-1" points="65.86 78.29 68.35 79.74 70.68 78.39 68.19 76.94 65.86 78.29"/><polygon class="cls-1" points="26.8 58.97 31.14 61.49 33.47 60.15 29.13 57.62 26.8 58.97"/><polygon class="cls-1" points="31.63 61.77 34.12 63.22 36.45 61.88 33.96 60.43 31.63 61.77"/><polygon class="cls-1" points="34.92 63.69 37.41 65.14 39.74 63.79 37.25 62.34 34.92 63.69"/><polygon class="cls-1" points="38.22 65.6 40.71 67.05 43.03 65.7 40.54 64.26 38.22 65.6"/><polygon class="cls-1" points="41.51 67.51 44 68.96 46.33 67.62 43.83 66.17 41.51 67.51"/><polygon class="cls-1" points="44.8 69.43 47.29 70.88 49.62 69.53 47.13 68.08 44.8 69.43"/><polygon class="cls-1" points="48.09 71.34 50.58 72.79 52.91 71.44 50.42 70 48.09 71.34"/><polygon class="cls-1" points="51.39 73.25 53.88 74.7 56.2 73.36 53.71 71.91 51.39 73.25"/><polygon class="cls-1" points="54.68 75.17 57.17 76.62 59.5 75.27 57.01 73.83 54.68 75.17"/><polygon class="cls-1" points="57.98 77.09 60.47 78.54 62.79 77.2 60.3 75.75 57.98 77.09"/><polygon class="cls-3" points="60.46 78.53 60.47 79 62.79 77.66 62.79 77.19 60.46 78.53"/><polygon class="cls-3" points="25.48 62.53 25.48 63 28.64 61.18 28.64 60.71 25.48 62.53"/><polygon class="cls-1" points="27.11 62.52 29.61 63.97 31.93 62.62 29.44 61.17 27.11 62.52"/><polygon class="cls-1" points="20.66 62.43 25.08 64.99 27.41 63.65 25.48 62.53 28.64 60.71 26.15 59.26 20.66 62.43"/><polygon class="cls-1" points="17.67 64.15 20.16 65.6 22.49 64.26 20 62.81 17.67 64.15"/><polygon class="cls-1" points="25.57 65.28 28.06 66.72 30.38 65.38 27.89 63.93 25.57 65.28"/><polygon class="cls-1" points="20.96 66.07 23.46 67.52 25.78 66.17 23.29 64.72 20.96 66.07"/><polygon class="cls-1" points="30.4 64.43 32.9 65.88 35.22 64.53 32.73 63.09 30.4 64.43"/><polygon class="cls-1" points="28.86 67.19 31.35 68.64 33.68 67.29 31.19 65.84 28.86 67.19"/><polygon class="cls-1" points="24.25 67.98 26.75 69.43 29.07 68.08 26.58 66.64 24.25 67.98"/><polygon class="cls-1" points="33.7 66.34 36.19 67.79 38.52 66.45 36.02 65 33.7 66.34"/><polygon class="cls-1" points="32.15 69.1 34.64 70.55 36.97 69.21 34.48 67.76 32.15 69.1"/><polygon class="cls-1" points="27.55 69.89 30.04 71.34 32.37 70 29.88 68.55 27.55 69.89"/><polygon class="cls-1" points="36.99 68.26 39.48 69.7 41.81 68.36 39.32 66.91 36.99 68.26"/><polygon class="cls-1" points="40.28 70.17 42.77 71.62 45.1 70.28 42.61 68.83 40.28 70.17"/><polygon class="cls-1" points="43.57 72.08 46.07 73.53 48.4 72.19 45.9 70.74 43.57 72.08"/><polygon class="cls-1" points="46.87 74 49.36 75.44 51.69 74.1 49.2 72.65 46.87 74"/><polygon class="cls-1" points="50.16 75.91 52.65 77.36 54.98 76.02 52.49 74.57 50.16 75.91"/><polygon class="cls-1" points="35.44 71.02 37.94 72.46 40.26 71.12 37.77 69.67 35.44 71.02"/><polygon class="cls-1" points="38.73 72.93 41.23 74.38 43.55 73.03 41.06 71.58 38.73 72.93"/><polygon class="cls-1" points="42.03 74.84 44.52 76.29 46.85 74.95 44.36 73.5 42.03 74.84"/><polygon class="cls-1" points="45.32 76.76 47.81 78.2 50.14 76.86 47.65 75.41 45.32 76.76"/><polygon class="cls-1" points="48.62 78.67 51.11 80.12 53.43 78.77 50.94 77.33 48.62 78.67"/><polygon class="cls-1" points="30.84 71.81 46.5 80.91 48.83 79.56 33.17 70.46 30.84 71.81"/><polygon class="cls-1" points="53.45 77.83 55.95 79.27 58.27 77.93 55.78 76.48 53.45 77.83"/><polygon class="cls-1" points="51.91 80.58 54.4 82.03 56.73 80.69 54.23 79.24 51.91 80.58"/><polygon class="cls-1" points="47.3 81.38 49.8 82.82 52.12 81.48 49.63 80.03 47.3 81.38"/><polygon class="cls-1" points="61.05 78.87 65.39 81.4 67.72 80.05 63.38 77.53 61.05 78.87"/><polygon class="cls-1" points="56.75 79.74 62.53 83.1 64.86 81.76 59.08 78.39 56.75 79.74"/><polygon class="cls-1" points="55.23 82.51 59.37 84.92 61.71 83.58 57.56 81.17 55.23 82.51"/><polygon class="cls-1" points="50.6 83.29 53.09 84.74 55.42 83.39 52.93 81.94 50.6 83.29"/><polygon class="cls-1" points="53.89 85.2 56.38 86.65 58.71 85.31 56.22 83.86 53.89 85.2"/><polygon class="cls-3" points="12.21 78.55 12.21 79.29 12.64 78.29 12.21 78.55"/><path class="cls-5" d="M69.47,49.17l18,10.4c.29.16.53.06.53-.23V33.87a1.07,1.07,0,0,0-.53-.82l-18-10.4c-.29-.16-.52-.07-.52.22V48.35A1.06,1.06,0,0,0,69.47,49.17Z"/><path class="cls-6" d="M87.42,36.17a.55.55,0,0,0-.24-.34L69.5,25.62l0,22.73a.58.58,0,0,0,.24.33L87.45,58.89Z"/><path class="cls-7" d="M69.49,24a.88.88,0,0,0,.44.69c.24.14.43.06.43-.18a.91.91,0,0,0-.43-.69C69.68,23.7,69.49,23.78,69.49,24Z"/><path class="cls-7" d="M70.6,24.67a.92.92,0,0,0,.44.69c.24.14.43.06.43-.18a.89.89,0,0,0-.43-.69C70.8,24.35,70.6,24.43,70.6,24.67Z"/><path class="cls-7" d="M71.71,25.32a.92.92,0,0,0,.44.69c.24.14.44.06.44-.18a.9.9,0,0,0-.44-.69C71.91,25,71.71,25.08,71.71,25.32Z"/><polygon class="cls-8" points="83.37 39.2 82.47 37.33 82.85 37.3 83.53 38.71 84.71 37 85.12 37.44 83.77 39.41 83.37 39.2"/><polygon points="80.69 36.63 71.47 31.31 71.47 30.38 80.69 35.7 80.69 36.63"/><polygon class="cls-8" points="83.37 43.85 82.47 41.98 82.85 41.94 83.53 43.35 84.71 41.64 85.12 42.08 83.77 44.05 83.37 43.85"/><polygon points="80.69 41.28 71.47 35.95 71.47 35.03 80.69 40.35 80.69 41.28"/><polygon class="cls-8" points="83.37 48.49 82.47 46.62 82.85 46.59 83.53 48 84.71 46.29 85.12 46.73 83.77 48.7 83.37 48.49"/><polygon points="80.69 45.92 71.47 40.6 71.47 39.67 80.69 44.99 80.69 45.92"/><polygon class="cls-8" points="83.37 53.14 82.47 51.27 82.85 51.23 83.53 52.65 84.71 50.93 85.12 51.37 83.77 53.34 83.37 53.14"/><polygon points="80.69 50.57 71.47 45.24 71.47 44.32 80.69 49.64 80.69 50.57"/><path class="cls-5" d="M30.87,30.06,52,42.29c.34.19.62.08.62-.26V13.29a1.29,1.29,0,0,0-.62-1L30.87.1c-.34-.2-.61-.08-.61.26V29.09A1.26,1.26,0,0,0,30.87,30.06Z"/><path class="cls-6" d="M52,16a.73.73,0,0,0-.28-.39L30.9,3.59l0,25.5a.68.68,0,0,0,.28.39L52,41.49Z"/><path class="cls-7" d="M30.89,1.71a1.06,1.06,0,0,0,.52.81c.28.16.51.07.51-.22a1.09,1.09,0,0,0-.51-.81C31.12,1.33,30.89,1.43,30.89,1.71Z"/><path class="cls-7" d="M32.2,2.47a1.06,1.06,0,0,0,.52.81c.28.16.51.07.51-.22a1.09,1.09,0,0,0-.51-.81C32.43,2.09,32.2,2.19,32.2,2.47Z"/><path class="cls-7" d="M33.51,3.23A1.05,1.05,0,0,0,34,4c.29.17.52.07.52-.21A1,1,0,0,0,34,3C33.74,2.85,33.51,3,33.51,3.23Z"/><path class="cls-9" d="M33.58,26.79h0c-.37-.22-.67-.09-.67.28h0a1.41,1.41,0,0,0,.67,1.05h0c.37.21.66.08.66-.28h0A1.36,1.36,0,0,0,33.58,26.79Z"/><path class="cls-9" d="M47.44,34.85l-11.2-6.53c-.37-.21-.66-.08-.66.28h0a1.39,1.39,0,0,0,.66,1.06l11.2,6.52c.37.21.66.08.66-.28h0A1.36,1.36,0,0,0,47.44,34.85Z"/><path class="cls-9" d="M33.58,24.11h0c-.37-.21-.67-.08-.67.28h0a1.37,1.37,0,0,0,.67,1.05h0c.37.22.66.09.66-.28h0A1.36,1.36,0,0,0,33.58,24.11Z"/><path class="cls-9" d="M47.44,32.17l-11.2-6.52c-.37-.21-.66-.09-.66.28h0A1.36,1.36,0,0,0,36.24,27l11.2,6.52c.37.22.66.09.66-.28h0A1.36,1.36,0,0,0,47.44,32.17Z"/><path class="cls-9" d="M33.58,21.44h0c-.37-.21-.67-.09-.67.28h0a1.37,1.37,0,0,0,.67,1.05h0c.37.21.66.09.66-.28h0A1.36,1.36,0,0,0,33.58,21.44Z"/><path class="cls-9" d="M47.44,29.5,36.24,23c-.37-.22-.66-.09-.66.28h0a1.39,1.39,0,0,0,.66,1l11.2,6.52c.37.21.66.09.66-.28h0A1.36,1.36,0,0,0,47.44,29.5Z"/><path class="cls-9" d="M33.58,18.93h0c-.37-.21-.67-.09-.67.28h0a1.37,1.37,0,0,0,.67,1.05h0c.37.21.66.09.66-.28h0A1.36,1.36,0,0,0,33.58,18.93Z"/><path class="cls-9" d="M47.44,27l-11.2-6.52c-.37-.21-.66-.09-.66.28h0a1.36,1.36,0,0,0,.66,1.05l11.2,6.52c.37.21.66.09.66-.28h0A1.36,1.36,0,0,0,47.44,27Z"/><path class="cls-9" d="M33.58,16.26h0c-.37-.22-.67-.09-.67.28h0a1.37,1.37,0,0,0,.67,1.05h0c.37.21.66.08.66-.28h0A1.36,1.36,0,0,0,33.58,16.26Z"/><path class="cls-9" d="M47.44,24.32l-11.2-6.53c-.37-.21-.66-.08-.66.29h0a1.39,1.39,0,0,0,.66,1.05l11.2,6.52c.37.21.66.09.66-.28h0A1.36,1.36,0,0,0,47.44,24.32Z"/><path class="cls-9" d="M33.58,13.58h0c-.37-.21-.67-.08-.67.28h0a1.37,1.37,0,0,0,.67,1.05h0c.37.22.66.09.66-.28h0A1.38,1.38,0,0,0,33.58,13.58Z"/><path class="cls-9" d="M47.44,21.64l-11.2-6.52c-.37-.21-.66-.09-.66.28h0a1.36,1.36,0,0,0,.66,1L47.44,23c.37.22.66.09.66-.28h0A1.39,1.39,0,0,0,47.44,21.64Z"/><path class="cls-10" d="M46.73,17.79a.89.89,0,0,1-.45-.13l-11.2-6.53a1.61,1.61,0,0,1-.79-1.26.58.58,0,0,1,.58-.63.94.94,0,0,1,.46.14L46.52,15.9a1.64,1.64,0,0,1,.79,1.26.66.66,0,0,1-.15.45.57.57,0,0,1-.43.18Z"/><path class="cls-5" d="M45.3,56.55l24.77,14.3c.4.23.73.09.73-.3v-35a1.5,1.5,0,0,0-.73-1.14L45.3,20.06c-.39-.23-.72-.1-.72.3V55.41A1.52,1.52,0,0,0,45.3,56.55Z"/><path class="cls-6" d="M70,38.65a.81.81,0,0,0-.33-.45L45.34,24.15l0,31.26a.78.78,0,0,0,.33.46L70,69.92Z"/><path class="cls-7" d="M45.33,22a1.24,1.24,0,0,0,.6.94c.33.19.6.08.6-.25a1.25,1.25,0,0,0-.6-.95C45.6,21.5,45.33,21.61,45.33,22Z"/><path class="cls-7" d="M46.86,22.84a1.24,1.24,0,0,0,.6.94c.33.2.6.08.6-.25a1.25,1.25,0,0,0-.6-1C47.13,22.39,46.86,22.5,46.86,22.84Z"/><path class="cls-7" d="M48.39,23.73a1.25,1.25,0,0,0,.6.95c.33.19.6.08.6-.26a1.24,1.24,0,0,0-.6-.94C48.66,23.28,48.39,23.4,48.39,23.73Z"/><polygon class="cls-5" points="34.59 82.81 34.59 84.1 47.11 91.37 47.11 90.09 34.59 82.81"/><polygon class="cls-4" points="47.11 90.09 47.11 91.37 64.36 81.48 64.36 80.2 47.11 90.09"/><polygon class="cls-6" points="34.59 82.81 47.11 90.09 64.36 80.2 51.84 72.92 34.59 82.81"/><path class="cls-5" d="M62.16,80.21l.08,0a.53.53,0,0,0,.28,0l0,0c.11-.07.11-.17,0-.23a.45.45,0,0,0-.28-.06.34.34,0,0,0-.14,0C62,80,62,80.14,62.16,80.21Z"/><path class="cls-5" d="M61.33,79.73l.08,0a.44.44,0,0,0,.28,0l.05,0c.11-.07.12-.17,0-.23a.43.43,0,0,0-.27-.06l-.15,0A.13.13,0,0,0,61.33,79.73Z"/><path class="cls-5" d="M60.51,79.25a.19.19,0,0,0,.08,0,.39.39,0,0,0,.28,0l.05,0a.12.12,0,0,0,0-.23.42.42,0,0,0-.27,0,.33.33,0,0,0-.15,0C60.39,79.08,60.39,79.18,60.51,79.25Z"/><path class="cls-5" d="M59.68,78.77a.13.13,0,0,0,.08,0,.45.45,0,0,0,.28,0l.05,0c.11-.06.12-.16,0-.23a.42.42,0,0,0-.27-.05.38.38,0,0,0-.15.05A.12.12,0,0,0,59.68,78.77Z"/><path class="cls-5" d="M58.86,78.29l.08,0a.53.53,0,0,0,.28,0l.05,0a.12.12,0,0,0,0-.23A.5.5,0,0,0,59,78a.33.33,0,0,0-.15,0C58.74,78.12,58.74,78.23,58.86,78.29Z"/><path class="cls-5" d="M58,77.82l.08,0a.53.53,0,0,0,.28,0l0,0c.11-.07.12-.17,0-.23a.48.48,0,0,0-.28-.06.44.44,0,0,0-.15,0C57.92,77.64,57.92,77.75,58,77.82Z"/><path class="cls-5" d="M57.21,77.34l.08,0a.45.45,0,0,0,.28,0l0,0a.12.12,0,0,0,0-.23.42.42,0,0,0-.27,0,.33.33,0,0,0-.15,0A.13.13,0,0,0,57.21,77.34Z"/><path class="cls-5" d="M56.38,76.86l.08,0a.39.39,0,0,0,.28,0l0,0c.12-.06.12-.16,0-.23a.47.47,0,0,0-.28,0,.42.42,0,0,0-.15,0A.13.13,0,0,0,56.38,76.86Z"/><path class="cls-5" d="M55.56,76.38a.11.11,0,0,0,.08,0,.45.45,0,0,0,.28,0l0,0a.12.12,0,0,0,0-.23.42.42,0,0,0-.27-.05.33.33,0,0,0-.15.05A.12.12,0,0,0,55.56,76.38Z"/><path class="cls-5" d="M54.74,75.91l.08,0a.5.5,0,0,0,.27,0l.06,0c.11-.07.11-.17,0-.23a.48.48,0,0,0-.28-.06.34.34,0,0,0-.14,0C54.62,75.73,54.62,75.84,54.74,75.91Z"/><path class="cls-5" d="M53.91,75.43l.08,0a.44.44,0,0,0,.28,0l0,0c.11-.07.12-.17,0-.23a.43.43,0,0,0-.27-.06l-.15,0A.13.13,0,0,0,53.91,75.43Z"/><path class="cls-5" d="M53.09,75l.08,0a.45.45,0,0,0,.28,0l0,0a.12.12,0,0,0,0-.23.45.45,0,0,0-.28,0,.33.33,0,0,0-.14,0C53,74.78,53,74.88,53.09,75Z"/><path class="cls-5" d="M52.26,74.47a.11.11,0,0,0,.08,0,.39.39,0,0,0,.28,0l.05,0c.11-.06.12-.16,0-.23a.42.42,0,0,0-.27,0,.33.33,0,0,0-.15,0C52.15,74.3,52.15,74.41,52.26,74.47Z"/><path class="cls-5" d="M51.44,74a.2.2,0,0,0,.08,0,.53.53,0,0,0,.28,0l.05,0a.12.12,0,0,0,0-.23.52.52,0,0,0-.28-.05.34.34,0,0,0-.14.05C51.32,73.82,51.32,73.93,51.44,74Z"/><path class="cls-11" d="M51.58,73.71s0-.1.05-.14l0-.07.13-.26c.05-.08.1-.16.16-.24a2.51,2.51,0,0,1,.7-.64l.08,0a.91.91,0,0,1,.87-.06.74.74,0,0,1,.33.68,2,2,0,0,1-.34,1l-.24-.14a1.78,1.78,0,0,0,.3-.88.46.46,0,0,0-.19-.44.46.46,0,0,0-.21,0,1,1,0,0,0-.46.15,1.93,1.93,0,0,0-.6.54l-.16.24c-.05.09-.09.17-.13.26l0,.12a.8.8,0,0,0-.05.26.48.48,0,0,1-.29,0A2,2,0,0,1,51.58,73.71Z"/><path class="cls-11" d="M52.4,74.19l.06-.15a.09.09,0,0,1,0-.06,1.23,1.23,0,0,1,.12-.26c0-.08.1-.16.16-.24a2.37,2.37,0,0,1,.7-.64l.09,0a.89.89,0,0,1,.86-.06.74.74,0,0,1,.33.68,1.91,1.91,0,0,1-.34,1l-.23-.14a1.81,1.81,0,0,0,.3-.88.48.48,0,0,0-.19-.44.41.41,0,0,0-.21,0,1,1,0,0,0-.47.15,2.18,2.18,0,0,0-.6.54l-.16.24a1.23,1.23,0,0,0-.12.26.31.31,0,0,0,0,.12,1.14,1.14,0,0,0-.06.25.39.39,0,0,1-.28,0A1.88,1.88,0,0,1,52.4,74.19Z"/><path class="cls-11" d="M53.23,74.67s0-.1.05-.15l0-.06a2.1,2.1,0,0,1,.13-.26L53.6,74a2.24,2.24,0,0,1,.7-.64l.08,0a.91.91,0,0,1,.87,0,.74.74,0,0,1,.33.67,2,2,0,0,1-.34,1L55,74.77a1.75,1.75,0,0,0,.3-.88.47.47,0,0,0-.19-.43.36.36,0,0,0-.21,0,1,1,0,0,0-.46.15,1.93,1.93,0,0,0-.6.54,2,2,0,0,0-.16.24,2.1,2.1,0,0,0-.13.26.43.43,0,0,0,0,.12,1.14,1.14,0,0,0-.06.25.39.39,0,0,1-.28,0A1.73,1.73,0,0,1,53.23,74.67Z"/><path class="cls-11" d="M54,75.46a.54.54,0,0,0,.28,0,1,1,0,0,1,.06-.25.34.34,0,0,1,0-.12,1.58,1.58,0,0,1,.13-.26,1.43,1.43,0,0,1,.16-.24l-.24-.14a2,2,0,0,0-.16.24,1,1,0,0,0-.12.26.09.09,0,0,0,0,.06l-.06.15A1.13,1.13,0,0,0,54,75.46Z"/><path class="cls-11" d="M54.42,74.44l.24.14a2.4,2.4,0,0,1,.6-.55,1,1,0,0,1,.47-.14.41.41,0,0,1,.21,0,.46.46,0,0,1,.19.43,1.71,1.71,0,0,1-.31.88l.24.14a1.88,1.88,0,0,0,.34-1,.71.71,0,0,0-.33-.67.86.86,0,0,0-.86,0l-.09,0A2.24,2.24,0,0,0,54.42,74.44Z"/><path class="cls-11" d="M54.88,75.62s0-.09,0-.14l0-.07c0-.09.08-.17.13-.26s.1-.16.16-.24a2.51,2.51,0,0,1,.7-.64l.08,0a.91.91,0,0,1,.87-.06.76.76,0,0,1,.33.68,2,2,0,0,1-.34,1l-.24-.14a1.78,1.78,0,0,0,.3-.88.49.49,0,0,0-.19-.44.46.46,0,0,0-.21,0,1,1,0,0,0-.46.15,2.22,2.22,0,0,0-.6.54,1.67,1.67,0,0,0-.16.24,1.58,1.58,0,0,0-.13.26.61.61,0,0,0-.05.12,1.22,1.22,0,0,0-.06.26.45.45,0,0,1-.28,0A2.22,2.22,0,0,1,54.88,75.62Z"/><path class="cls-11" d="M55.7,76.1l.06-.15a.14.14,0,0,1,0-.06c0-.09.08-.17.13-.26s.1-.16.16-.24a2.51,2.51,0,0,1,.7-.64l.08,0a.91.91,0,0,1,.87-.06.74.74,0,0,1,.33.68,2,2,0,0,1-.34,1l-.24-.14a1.71,1.71,0,0,0,.31-.88.48.48,0,0,0-.19-.44.54.54,0,0,0-.21,0,1,1,0,0,0-.47.15,2,2,0,0,0-.6.54c-.06.08-.11.16-.16.24s-.09.17-.13.26l-.05.12a2.38,2.38,0,0,0,0,.26.45.45,0,0,1-.28,0A1.21,1.21,0,0,1,55.7,76.1Z"/><path class="cls-11" d="M56.53,76.58l0-.15,0-.06a1.26,1.26,0,0,1,.13-.26,1.67,1.67,0,0,1,.16-.24,2.46,2.46,0,0,1,.69-.64l.09,0a.91.91,0,0,1,.87-.06.76.76,0,0,1,.33.68,2,2,0,0,1-.34,1l-.24-.14a1.81,1.81,0,0,0,.3-.88.48.48,0,0,0-.19-.44.36.36,0,0,0-.21-.05.92.92,0,0,0-.46.15,1.93,1.93,0,0,0-.6.54.91.91,0,0,0-.16.24,1.26,1.26,0,0,0-.13.26.61.61,0,0,0-.05.12,1.14,1.14,0,0,0-.06.25.39.39,0,0,1-.28,0A2,2,0,0,1,56.53,76.58Z"/><path class="cls-11" d="M57.35,77.06a.94.94,0,0,1,.06-.15.14.14,0,0,1,0-.06,2.1,2.1,0,0,1,.13-.26,2,2,0,0,1,.16-.24,2.24,2.24,0,0,1,.7-.64l.08,0a.91.91,0,0,1,.87,0,.71.71,0,0,1,.33.67,2,2,0,0,1-.34,1l-.24-.14a1.68,1.68,0,0,0,.31-.88.47.47,0,0,0-.19-.43.41.41,0,0,0-.21,0,1,1,0,0,0-.47.15,2,2,0,0,0-.6.54,2,2,0,0,0-.16.24,2.1,2.1,0,0,0-.13.26s0,.08-.05.12a1.11,1.11,0,0,0,0,.25.39.39,0,0,1-.28,0A1.13,1.13,0,0,1,57.35,77.06Z"/><path class="cls-11" d="M58.17,77.54a.94.94,0,0,0,.06-.15.36.36,0,0,1,0-.07,1.58,1.58,0,0,1,.13-.26,1.06,1.06,0,0,1,.16-.23,2.5,2.5,0,0,1,.69-.65l.09,0a.86.86,0,0,1,.86,0,.72.72,0,0,1,.34.67,2,2,0,0,1-.34,1L60,77.64a1.78,1.78,0,0,0,.3-.88.46.46,0,0,0-.19-.43.36.36,0,0,0-.21,0,1,1,0,0,0-.46.14,2.1,2.1,0,0,0-.6.55,1,1,0,0,0-.17.24,1.57,1.57,0,0,0-.12.26.33.33,0,0,0,0,.12,1,1,0,0,0-.06.25.53.53,0,0,1-.28,0C58.12,77.75,58.15,77.64,58.17,77.54Z"/><path class="cls-11" d="M59,78a.84.84,0,0,1,.06-.14.19.19,0,0,1,0-.07c0-.09.08-.17.13-.26s.1-.16.16-.24a2.51,2.51,0,0,1,.7-.64l.08,0a.91.91,0,0,1,.87-.06.74.74,0,0,1,.33.68,2,2,0,0,1-.34,1l-.24-.14a1.71,1.71,0,0,0,.31-.88.48.48,0,0,0-.19-.44.54.54,0,0,0-.22,0,1,1,0,0,0-.46.15,2.22,2.22,0,0,0-.6.54c-.06.08-.11.16-.16.24s-.09.17-.13.26l0,.12a1.19,1.19,0,0,0-.05.26.45.45,0,0,1-.28,0A1.3,1.3,0,0,1,59,78Z"/><path class="cls-11" d="M59.82,78.49l.06-.15s0,0,0-.06A2.06,2.06,0,0,1,60,78a1.77,1.77,0,0,1,.17-.24,2.62,2.62,0,0,1,.69-.64l.09,0a.89.89,0,0,1,.86-.06.74.74,0,0,1,.33.68,2,2,0,0,1-.33,1l-.24-.14a1.81,1.81,0,0,0,.3-.88.48.48,0,0,0-.19-.44.46.46,0,0,0-.21,0,1,1,0,0,0-.47.15,2,2,0,0,0-.59.54,1.77,1.77,0,0,0-.17.24c0,.09-.09.17-.12.26a.61.61,0,0,0,0,.12,1.29,1.29,0,0,0-.06.25.39.39,0,0,1-.28,0C59.77,78.7,59.8,78.6,59.82,78.49Z"/><path class="cls-11" d="M60.65,79s0-.1.05-.15l0-.06a2.1,2.1,0,0,1,.13-.26c0-.08.1-.16.16-.24a2.37,2.37,0,0,1,.7-.64l.08,0a.91.91,0,0,1,.87-.06.74.74,0,0,1,.33.68,2,2,0,0,1-.34,1l-.24-.14a1.74,1.74,0,0,0,.31-.88.48.48,0,0,0-.19-.44.42.42,0,0,0-.22-.05,1,1,0,0,0-.46.15,1.93,1.93,0,0,0-.6.54,2,2,0,0,0-.16.24,2.1,2.1,0,0,0-.13.26s0,.08,0,.12a.74.74,0,0,0-.05.25.39.39,0,0,1-.28,0A1.21,1.21,0,0,1,60.65,79Z"/><path class="cls-11" d="M61.47,79.45l.06-.15s0,0,0-.06a1.57,1.57,0,0,1,.12-.26,1.31,1.31,0,0,1,.17-.24,2.33,2.33,0,0,1,.69-.64l.09,0a.86.86,0,0,1,.86,0,.71.71,0,0,1,.33.67,2,2,0,0,1-.33,1l-.24-.14a1.78,1.78,0,0,0,.3-.88.47.47,0,0,0-.19-.43.36.36,0,0,0-.21,0,1,1,0,0,0-.47.15,2,2,0,0,0-.59.54,1,1,0,0,0-.17.24,1.23,1.23,0,0,0-.12.26.33.33,0,0,0,0,.12,1.14,1.14,0,0,0-.06.25.39.39,0,0,1-.28,0A1.7,1.7,0,0,1,61.47,79.45Z"/><path class="cls-11" d="M62.3,79.93c0-.05,0-.1.05-.15l0-.07.13-.26.16-.24a2.51,2.51,0,0,1,.7-.64l.08,0a.88.88,0,0,1,.87,0,.71.71,0,0,1,.33.67,2,2,0,0,1-.34,1L64.07,80a1.78,1.78,0,0,0,.3-.88.38.38,0,0,0-.4-.48.92.92,0,0,0-.46.14,2.1,2.1,0,0,0-.6.55,1.88,1.88,0,0,0-.16.23,2.24,2.24,0,0,0-.13.27,1.17,1.17,0,0,0,0,.11.8.8,0,0,0,0,.26.57.57,0,0,1-.29,0A1.73,1.73,0,0,1,62.3,79.93Z"/><path class="cls-6" d="M64.31,80.17c-2.83,1.72-5.7,3.36-8.55,5S50,88.5,47.11,90.09c2.83-1.72,5.71-3.36,8.56-5S61.41,81.76,64.31,80.17Z"/><path class="cls-12" d="M10.94,71.65,35.51,57.39l.28-.39L11.06,71.35A.35.35,0,0,1,10.94,71.65Z"/><path class="cls-8" d="M10.74,70.67a1.19,1.19,0,0,1,.32.68L35.79,57l-.28-.71Z"/><path class="cls-12" d="M10.1,70.4a.45.45,0,0,1,.39.07,1.16,1.16,0,0,1,.25.2L35.51,56.29,35,56Z"/><polygon class="cls-13" points="7.33 72.72 7.28 72.79 7.33 72.93 7.44 72.99 7.49 72.92 7.44 72.78 7.33 72.72"/><path class="cls-3" d="M7.33,72.72l.78-.67,0,0a.17.17,0,0,1,.19,0,.52.52,0,0,1,.26.41.15.15,0,0,1-.07.14L7.47,73c-.15,0-.21,0-.21-.14A.14.14,0,0,1,7.33,72.72Z"/><path class="cls-14" d="M10,70.44l.06,0A.09.09,0,0,0,10,70.44Z"/><path class="cls-6" d="M10,70.47l.08,0a.66.66,0,0,1,.58,0c.1.06.14.15.1.23a.21.21,0,0,1,.1,0,.61.61,0,0,1,.25.54.5.5,0,0,1,0,.12.35.35,0,0,1-.12.3l0,0-2.36.92a.15.15,0,0,0,.07-.14.52.52,0,0,0-.26-.41.17.17,0,0,0-.19,0Z"/><path class="cls-15" d="M45.94,96.52c4.93-3,9.91-5.8,14.86-8.7s10-5.73,15-8.52c-4.93,2.94-9.91,5.79-14.86,8.7S51,93.73,45.94,96.52Z"/><path class="cls-15" d="M62.71,45.41v0a1.55,1.55,0,0,1,0,.22,4,4,0,0,1,0,.5,2.4,2.4,0,0,1-.1.48,2.77,2.77,0,0,1-1.12,1.68,2.34,2.34,0,0,1-.47.25,3,3,0,0,1-.93.2h-.6l-.34,0-.07,0a6.78,6.78,0,0,1-2.11-.82c-.12-.07-.24-.14-.35-.22a5,5,0,0,1-.56-.38l-.14-.1c-.23-.17-.45-.36-.67-.55l-.2-.19a5,5,0,0,1-.41-.39l-.17-.18a3.8,3.8,0,0,1-.33-.37c-.13-.13-.23-.26-.34-.39l0,0a10.82,10.82,0,0,1-2.59-6.33c0-2.85,2.06-4,4.78-3a7.86,7.86,0,0,1,1,.5c.17.1.34.2.5.31a2.48,2.48,0,0,1,.26.19,10.67,10.67,0,0,1,1.51,1.28,13.42,13.42,0,0,1,1.42,1.68,0,0,0,0,1,0,0c.05.08.11.16.16.25v0a.06.06,0,0,1,0,.05,10.7,10.7,0,0,1,1.85,4.73h0c0,.14,0,.28,0,.42A.92.92,0,0,1,62.71,45.41Z"/><path class="cls-16" d="M56.57,47.6v.06a5,5,0,0,1-.56-.38l-.14-.1c-.23-.17-.45-.36-.67-.55l-.2-.19a5,5,0,0,1-.41-.39l-.17-.18,0,0a2.1,2.1,0,0,1,.24-.27l.06,0a.12.12,0,0,1,.05,0l.23-.1h0a1.16,1.16,0,0,1,.41-.13.69.69,0,0,1,.25,0l.11.07.15.1h0a1.08,1.08,0,0,1,.28.4,1.83,1.83,0,0,1,.16.45s0,.05,0,.08,0,.2,0,.3,0,.21,0,.31h0A4.37,4.37,0,0,1,56.57,47.6Z"/><path class="cls-17" d="M56,46.23v1.05l-.14-.1c-.23-.17-.45-.36-.67-.55l-.2-.19a5,5,0,0,1-.41-.39l-.17-.18a3.8,3.8,0,0,1-.33-.37c-.13-.13-.23-.26-.34-.39l0,0a.52.52,0,0,1,.11-.1l.31.17.58.34,0,0,.25.15h0l.91.52Z"/><path class="cls-18" d="M60.22,41.42a5.67,5.67,0,0,0-.5,1.57,8.82,8.82,0,0,1-.29-1.18A8.32,8.32,0,0,0,60.22,41.42Z"/><path class="cls-19" d="M60.5,44.21s-.06.46-.2,1.18c0,.27-.12.57-.19.91,0,.15-.07.31-.11.48-.09.35-.18.72-.29,1.1s-.17.58-.27.88l-.34,0-.07,0a6.78,6.78,0,0,1-2.11-.82c-.12-.07-.24-.14-.35-.22a5,5,0,0,1-.56-.38l-.14-.1c0-.35,0-.69.06-1h0c0-.26,0-.5.06-.73h0s0-.09,0-.13a6.07,6.07,0,0,1,.1-.71h0c0-.09,0-.17.07-.25s.41-.35.83-.76c.6-.58,1-1.76,2.2-1.73h0l.21,0h.06s0,.07,0,.17h0s0,.05,0,.07a6.09,6.09,0,0,0,.2.74h0a4.11,4.11,0,0,0,.34.84h0A1.45,1.45,0,0,0,60.5,44.21Z"/><path class="cls-19" d="M61.54,44.64l-.15,0-.24.1-.25.14-.12.08-.21.15a2.91,2.91,0,0,0-.27.24l-.09.09a1.55,1.55,0,0,0-.24.27,1.39,1.39,0,0,0-.21.27,4,4,0,0,0-.27.44c-.06.12-.12.24-.17.36l0,.08a1.72,1.72,0,0,0-.07.21l0,0a.74.74,0,0,1,0,.14c0,.1,0,.2,0,.3a1.21,1.21,0,0,0,0,.19v.93l-.07,0a6.78,6.78,0,0,1-2.11-.82c-.12-.07-.24-.14-.35-.22a5,5,0,0,1-.56-.38l-.14-.1c-.23-.17-.45-.36-.67-.55l-.2-.19v-.58a.92.92,0,0,1,0-.16v0c0-.06,0-.12,0-.18s0-.08,0-.12h0a1.7,1.7,0,0,1,.06-.31c0-.1.06-.2.1-.3l0,0v0l.09-.16.12-.15a.24.24,0,0,1,.08-.06.42.42,0,0,1,.14-.09l0-.06.07,0,0,0a2.53,2.53,0,0,0,.37.4h0c0,.2-.08.44-.11.71,0,0,0,.08,0,.13h0c0,.23,0,.47-.06.73l.09.06.41.06a10.65,10.65,0,0,1,1.51.23,11,11,0,0,0,1-1.24c.44-.58.89-1.2,1.08-1.45l.06-.09,0,0h0l0,0,1.26.86Z"/><path class="cls-20" d="M55.67,44.22a.42.42,0,0,0-.14.09.24.24,0,0,0-.08.06l-.12.15-.09.16v0l0,0c0,.1-.07.2-.1.3a1.7,1.7,0,0,0-.06.31s0,.08,0,.12,0,.12,0,.18v0a.92.92,0,0,0,0,.16v.58a5,5,0,0,1-.41-.39l-.17-.18a3.8,3.8,0,0,1-.33-.37c-.13-.13-.23-.26-.34-.39l0-.06,0-.07.38-.19.27-.11,0,0,.43-.19.31-.14.16-.07h0l.21-.09Z"/><path class="cls-20" d="M62.71,45.41v0a1.55,1.55,0,0,1,0,.22,4,4,0,0,1,0,.5,2.4,2.4,0,0,1-.1.48,2.77,2.77,0,0,1-1.12,1.68,2.34,2.34,0,0,1-.47.25,3,3,0,0,1-.93.2h-.6l-.34,0v-.93a1.21,1.21,0,0,1,0-.19c0-.1,0-.2,0-.3a.74.74,0,0,0,0-.14l0,0a1.72,1.72,0,0,1,.07-.21l0-.08c0-.12.11-.24.17-.36a4,4,0,0,1,.27-.44,1.39,1.39,0,0,1,.21-.27,1.55,1.55,0,0,1,.24-.27l.09-.09a2.91,2.91,0,0,1,.27-.24l.21-.15.12-.08.25-.14.24-.1.15,0,.09,0a0,0,0,0,0,0,0h0l.3.22h0l.59.44.12.08Z"/><path class="cls-16" d="M56.22,44.67a2.43,2.43,0,0,0,0,.27,3.33,3.33,0,0,0,1.9-.68A3.24,3.24,0,0,0,58.91,43,2.81,2.81,0,0,1,58,44.06C57.24,44.39,56.44,44.82,56.22,44.67Z"/><path class="cls-20" d="M61.63,44.62l-.56.66-.29.34-.21.31-.57.85-.2.29-.09.81-.1.89h-.17l-.34,0-.07,0a6.78,6.78,0,0,1-2.11-.82c-.12-.07-.24-.14-.35-.22a5,5,0,0,1-.56-.38l-.14-.1c-.23-.17-.45-.36-.67-.55l-.2-.19a5,5,0,0,1-.41-.39l.11-.5,0-.06.23-1,.31-.14.16-.07h0l.27-.12a0,0,0,0,1,0,0l0,0a2.53,2.53,0,0,0,.37.4h0l0,0h0s0,0,0,0h0v0a1.62,1.62,0,0,0,0,.23h0c.06,1.35.64,1.39.7,1.39a2.58,2.58,0,0,0,2-1.06A8.38,8.38,0,0,0,60,43.83l.06-.09,0,0h0l0,0Z"/><path class="cls-21" d="M55.43,44.24h0l-.11.2s0,.13-.07.22v0c0,.18-.11.42-.16.63s0,.22,0,.31,0,0,0,0a.92.92,0,0,0,0,.16v.58a5,5,0,0,1-.41-.39l-.17-.18a3.8,3.8,0,0,1-.33-.37,2.67,2.67,0,0,1,0-.35,2.41,2.41,0,0,1,.07-.35l.27-.12,0,0Z"/><path class="cls-21" d="M62.67,45.38h-.33a1.57,1.57,0,0,0-1,.33,3.16,3.16,0,0,0-.54.44A3,3,0,0,0,60,47.79v1h-.58l-.34,0v-.93a1.21,1.21,0,0,1,0-.19c0-.1,0-.2,0-.3a.74.74,0,0,0,0-.14l0,0a1.72,1.72,0,0,1,.07-.21l0-.08c0-.12.11-.24.17-.36a4,4,0,0,1,.27-.44,1.39,1.39,0,0,1,.21-.27,1.55,1.55,0,0,1,.24-.27l.09-.09a2.91,2.91,0,0,1,.27-.24l.21-.15.12-.09.25-.13.24-.1.15,0,.09,0a0,0,0,0,0,0,0h0l.3.22h0l.59.44Z"/><path class="cls-18" d="M54.59,39.22a4.09,4.09,0,0,0,.24,1.42c.21.24.17-1.73.17-1.73Z"/><path class="cls-19" d="M54.73,40.81a3,3,0,0,1,.21,1,5.05,5.05,0,0,0,.76,2.32s0,.05,0,.05a1.91,1.91,0,0,0,.39.43.16.16,0,0,0,.06,0l.05,0h0c.22.15,1-.3,1.72-.63A2.79,2.79,0,0,0,59,43a8.73,8.73,0,0,0,.49-.92c.51-.33.09-.61,1.18-2.15-.42-3.53-3-3.13-3-3.13C54.47,36.92,54.73,40.81,54.73,40.81Z"/><path class="cls-18" d="M54.59,39.22a.43.43,0,0,1,.47.06c.14.09.24.23.38.32a1.52,1.52,0,0,0,1.32.08c.49-.14,1.16-.48,1.77-.2a.52.52,0,0,1,.2.34c.07.37,0,.76.09,1.13a2.59,2.59,0,0,1,.06.56l.5-.31.63.72a12.73,12.73,0,0,0,.8-2,3.24,3.24,0,0,0-.94-2.58,3.1,3.1,0,0,0-2.33-.75,2.78,2.78,0,0,0-2.91,2.31A2.16,2.16,0,0,0,54.59,39.22Z"/><path class="cls-19" d="M59.08,41.66a3.81,3.81,0,0,0,.08-.59c0-.26.11-.71.6-.67.69.05.15,1.55-.08,1.71s-.6-.45-.6-.45Z"/><path class="cls-22" d="M54.2,39.23a10.87,10.87,0,0,0,3.46.87h0a2.6,2.6,0,0,0,.5-.1,5.45,5.45,0,0,0,1.41-.74.62.62,0,0,1,.37-.13.78.78,0,0,1,.19.12,2.42,2.42,0,0,1,.4,1.23s.19,0,.24-.13a8.82,8.82,0,0,0,0-1.69c0-.13,0-.27,0-.41s0,0,0,0a3.11,3.11,0,0,0-2.22-2.7l-.08,0a3.63,3.63,0,0,0-1.94,0c-1.47.43-2,2.3-2.08,2.77a2.12,2.12,0,0,1-.27.49C54.05,38.92,53.94,39.15,54.2,39.23Z"/><path class="cls-23" d="M57.69,40.1a2.6,2.6,0,0,0,.5-.1,5.45,5.45,0,0,0,1.41-.74.62.62,0,0,1,.37-.13.78.78,0,0,1,.19.12,2.42,2.42,0,0,1,.4,1.23s.19,0,.24-.13a8.82,8.82,0,0,0,0-1.69c0-.13,0-.27,0-.41s0,0,0,0a3.11,3.11,0,0,0-2.22-2.7,2.09,2.09,0,0,1,.63.83,3.15,3.15,0,0,1-.53,2.77A2.76,2.76,0,0,1,57.69,40.1Z"/><path class="cls-24" d="M62,46.71A6.05,6.05,0,0,0,61,48.57a3,3,0,0,1-.93.2,7.3,7.3,0,0,1,1.36-2.61Z"/><path class="cls-24" d="M62.71,45.41v0a1.55,1.55,0,0,1,0,.22,4,4,0,0,1,0,.5,2.44,2.44,0,0,0-.64.55l-.62-.55a3.43,3.43,0,0,1,.33-.33h0a2.85,2.85,0,0,1,.59-.43h0l.2-.09a.44.44,0,0,1,.15,0A.92.92,0,0,1,62.71,45.41Z"/><path class="cls-24" d="M61.08,46.38A6,6,0,0,0,60,48.3a3.86,3.86,0,0,0-.16.48h-.42l-.34,0-.07,0c0-.08,0-.16.07-.23a7.93,7.93,0,0,1,1-2.17,4.42,4.42,0,0,1,.35-.47l.11.1.27.23Z"/><path class="cls-24" d="M62.71,45.41v0a1.55,1.55,0,0,1,0,.22,1.15,1.15,0,0,0-.26,0,1.38,1.38,0,0,0-.69.19h0a2.47,2.47,0,0,0-.65.55l-.24-.22-.27-.23-.11-.1a3.1,3.1,0,0,1,.61-.55,2.37,2.37,0,0,1,.88-.42h0a2,2,0,0,1,.48-.06l.24,0h0c0,.14,0,.28,0,.42A.92.92,0,0,1,62.71,45.41Z"/><path class="cls-25" d="M62.56,46.64a2.77,2.77,0,0,1-1.12,1.68A3.09,3.09,0,0,1,62.56,46.64Z"/><path class="cls-24" d="M62.71,45.41v0a1.55,1.55,0,0,1,0,.22,1.15,1.15,0,0,0-.26,0,1.38,1.38,0,0,0-.69.19h0a2.47,2.47,0,0,0-.65.55l-.24-.22-.27-.23-.11-.1a3.1,3.1,0,0,1,.61-.55,2.37,2.37,0,0,1,.88-.42h0a2,2,0,0,1,.48-.06l.24,0h0c0,.14,0,.28,0,.42A.92.92,0,0,1,62.71,45.41Z"/><path class="cls-3" d="M63.94,56.7,50.28,48.92C49.83,48.67,49,49.54,49,50v-.11a1.68,1.68,0,0,0,.81,1.28L63.4,59.07c.45.26,1.22-.31,1.22-.76v-.58A1.16,1.16,0,0,0,63.94,56.7Z"/><path class="cls-6" d="M50.26,50.63a.7.7,0,0,0,.25.23c.16.08.27.06.31,0s0-.19-.15-.33-.26-.33-.21-.48.25-.2.48-.07a.8.8,0,0,1,.25.2l-.08.09A.56.56,0,0,0,50.9,50c-.16-.09-.25,0-.28,0s0,.19.17.34.24.33.19.48-.24.23-.52.07a.84.84,0,0,1-.28-.23Z"/><path class="cls-6" d="M52.29,51.32a.47.47,0,0,1-.74.26.7.7,0,0,1-.35-.84.47.47,0,0,1,.74-.25A.68.68,0,0,1,52.29,51.32Zm-.93-.49a.54.54,0,0,0,.23.64.36.36,0,0,0,.54-.23.53.53,0,0,0-.23-.64C51.64,50.45,51.45,50.59,51.36,50.83Z"/><path class="cls-6" d="M52.52,52.1l.15-.45-.16-.82.17.09.07.39c0,.11,0,.19,0,.29h0a1.57,1.57,0,0,1,.19-.15l.27-.2.18.1-.61.38-.16.46Z"/><path class="cls-6" d="M54.36,52.54l-.46-.26-.13.38.51.29,0,.12-.66-.38L54,51.63l.64.36,0,.11-.49-.27-.12.34.46.26Z"/><path class="cls-6" d="M54.48,53a1.09,1.09,0,0,0,.25.22c.16.09.28.07.31,0s0-.19-.15-.34-.26-.32-.21-.47.26-.21.49-.08a.89.89,0,0,1,.24.2l-.08.09a.67.67,0,0,0-.21-.18c-.16-.09-.25,0-.28,0s0,.19.17.33.25.33.19.49-.24.23-.52.07a.84.84,0,0,1-.28-.24Z"/><path class="cls-6" d="M55.68,52.61l.3.15a.73.73,0,0,1,.3.27.35.35,0,0,1,0,.28.28.28,0,0,1-.17.18.55.55,0,0,1-.41-.09l-.12-.08-.15.43-.15-.09Zm0,.6a.36.36,0,0,0,.12.08c.19.11.33.09.38-.06s0-.27-.21-.36a.61.61,0,0,0-.15-.07Z"/><path class="cls-6" d="M57,54l-.47-.25-.13.38.51.29,0,.11-.67-.37.37-1.06.64.35,0,.12-.49-.27-.12.33.46.26Z"/><path class="cls-6" d="M58,55.1a.86.86,0,0,1-.34-.12.73.73,0,0,1-.4-.87c.12-.33.45-.42.82-.21a.68.68,0,0,1,.26.21l-.07.09A.74.74,0,0,0,58,54c-.28-.16-.52-.1-.61.18a.55.55,0,0,0,.31.68A.86.86,0,0,0,58,55Z"/><path class="cls-6" d="M58.66,54.27l-.37,1.06-.16-.09.37-1.06Z"/><path class="cls-6" d="M58.86,55.25l-.24.27-.15-.09.77-.84.18.11,0,1.29-.17-.1v-.4Zm.43.11V55a1.55,1.55,0,0,1,0-.22h0a1,1,0,0,1-.13.16l-.22.24Z"/><path class="cls-6" d="M60,55l.15.09-.32.94.5.29,0,.11-.66-.37Z"/><path class="cls-6" d="M61,55.57l-.37,1.06-.16-.08.37-1.06Z"/><path class="cls-6" d="M60.92,56.61a1.09,1.09,0,0,0,.25.22c.16.09.28.06.31,0s0-.2-.15-.34-.26-.33-.21-.48.26-.2.49-.07a.74.74,0,0,1,.24.2l-.08.09a.67.67,0,0,0-.21-.18c-.16-.09-.25,0-.28,0s0,.19.17.34.25.33.19.48-.24.23-.52.08a1.16,1.16,0,0,1-.28-.24Z"/><path class="cls-6" d="M62.31,56.45l-.37-.2,0-.12.88.49,0,.12-.36-.2-.33.94L62,57.4Z"/><path class="cls-6" d="M62.8,57.46l-.24.26-.15-.08.77-.84.18.1,0,1.29-.17-.09v-.4Zm.43.11V57h0a1.83,1.83,0,0,1-.13.16l-.22.24Z"/></g></g></svg>