<svg xmlns="http://www.w3.org/2000/svg" viewBox="0 0 99.22 183.62"><defs><style>.cls-1{isolation:isolate;}.cls-2{fill:#191b45;}.cls-3{fill:#2f3361;}.cls-4{fill:#3d4180;}.cls-5{fill:#fff;}.cls-6{fill:#e4eef7;}.cls-7{fill:#c8d9e8;}.cls-8{fill:#ffb400;}.cls-9{fill:#f99b79;}.cls-10{fill:#ebc89f;}.cls-11{fill:#070e18;}.cls-12{fill:#faab8b;}.cls-13{fill:#f8dab8;}.cls-14{fill:#354067;}.cls-15{fill:#f2bd5b;}.cls-16{fill:#eca91b;}.cls-17{fill:#6079a6;}.cls-18{fill:#fbe8c5;}.cls-19{fill:#e35d20;}.cls-20{fill:#ffbaa5;}.cls-21{fill:#ffcabf;}.cls-22{fill:#111525;}.cls-23{fill:#66d0ff;}.cls-24{fill:#00a8f2;}.cls-25{fill:#ffd9cc;}.cls-26{fill:#3e4057;}</style></defs><title>16_1</title><g id="Capa_2" data-name="Capa 2"><g id="Capa_1-2" data-name="Capa 1"><g class="cls-1"><path class="cls-2" d="M36,132.76l19.6-11.39a.57.57,0,0,0,.21.24L36.18,133A.63.63,0,0,1,36,132.76Z"/><path class="cls-2" d="M35.91,132.47,55.5,121.08a.56.56,0,0,0,.07.29L36,132.76A.48.48,0,0,1,35.91,132.47Z"/><polygon class="cls-3" points="36.18 133 55.78 121.61 77.56 134.18 57.96 145.57 36.18 133"/><path class="cls-4" d="M78.26,136.52l-19.6,11.39a.69.69,0,0,0,.29-.64,2.18,2.18,0,0,0-1-1.7l19.6-11.39a2.17,2.17,0,0,1,1,1.71A.69.69,0,0,1,78.26,136.52Z"/><polygon class="cls-3" points="39.87 103.81 59.47 92.43 55.51 121.08 35.91 132.47 39.87 103.81"/><path class="cls-2" d="M38.9,102a.71.71,0,0,1,.14.1,2.1,2.1,0,0,1,.83,1.77l-4,28.65a.48.48,0,0,0,.06.29.63.63,0,0,0,.21.24L58,145.57a2.18,2.18,0,0,1,1,1.7c0,.64-.45.88-1,.57L36.17,135.26a4.86,4.86,0,0,1-1.7-1.87A4.14,4.14,0,0,1,34,131l4-28.65C38,101.85,38.42,101.68,38.9,102Z"/></g><g class="cls-1"><path class="cls-3" d="M92.26,15.8a.55.55,0,0,0-.26-.06,1,1,0,0,0-.56.16L3.78,64.1a2.9,2.9,0,0,0-1,1.54,4,4,0,0,0-.25,1.21L2.78,142a1,1,0,0,0,.06.36.56.56,0,0,0,.12.27.38.38,0,0,0,.18.15l-2.6-1.5a.86.86,0,0,1-.35-.79L0,65.36a4.06,4.06,0,0,1,.25-1.23,3,3,0,0,1,1-1.54l87.66-48.2a.84.84,0,0,1,.87-.07Z"/><path class="cls-4" d="M92.88,90a2.7,2.7,0,0,1-1.21,2.1L4.13,142.65l-.14.09a.84.84,0,0,1-.85.08.54.54,0,0,1-.18-.15.56.56,0,0,1-.12-.27,1,1,0,0,1-.06-.36L2.57,66.85a4,4,0,0,1,.25-1.21,2.9,2.9,0,0,1,1-1.54L91.44,15.9a1,1,0,0,1,.56-.16.58.58,0,0,1,.26.06.81.81,0,0,1,.41.78Z"/><path class="cls-5" d="M3.78,64.1C18.32,55.93,33,47.93,47.53,39.84s29.23-16,43.91-23.94C76.91,24.07,62.28,32.07,47.7,40.16S18.47,56.2,3.78,64.1Z"/><path class="cls-6" d="M5,68.6s.06-2.45.08-2.47L90.26,19.37l.2,65.83S5.18,134.43,5.18,134.43Z"/></g><path class="cls-2" d="M3.14,142.82l-2.6-1.5a.86.86,0,0,1-.35-.79L0,65.36a4.06,4.06,0,0,1,.25-1.23l2.57,1.42v.09a4,4,0,0,0-.25,1.21L2.78,142a1,1,0,0,0,.06.36.56.56,0,0,0,.12.27A.54.54,0,0,0,3.14,142.82Z"/><path class="cls-7" d="M85.05,81,16.51,120.66c-.6.35-1.09.15-1.09-.46V41.54a2.27,2.27,0,0,1,1.09-1.72L85.05.17c.6-.35,1.09-.14,1.09.46V79.29A2.28,2.28,0,0,1,85.05,81Z"/><path class="cls-5" d="M16.62,46.33a1.15,1.15,0,0,1,.49-.69L85,6.37l0,72.92a1.23,1.23,0,0,1-.5.69L16.56,119.26Z"/><path class="cls-4" d="M85,3a1.91,1.91,0,0,1-.91,1.44c-.5.29-.91.12-.91-.39a1.89,1.89,0,0,1,.91-1.43C84.6,2.36,85,2.53,85,3Z"/><path class="cls-4" d="M82.69,4.38a1.91,1.91,0,0,1-.91,1.44c-.5.29-.91.12-.91-.39A1.89,1.89,0,0,1,81.78,4C82.28,3.71,82.69,3.88,82.69,4.38Z"/><path class="cls-4" d="M80.37,5.74a1.89,1.89,0,0,1-.91,1.43c-.5.29-.91.12-.91-.38a1.91,1.91,0,0,1,.91-1.44C80,5.06,80.37,5.23,80.37,5.74Z"/><path class="cls-4" d="M77.63,42.85,72,46.11v5.65l5.65-3.26V42.85Z"/><path class="cls-4" d="M67,54,26.67,77.27c-1.19.68-2.14.27-2.14-.91h0A4.44,4.44,0,0,1,26.67,73L67,49.67c1.18-.68,2.14-.28,2.14.91h0A4.47,4.47,0,0,1,67,54Z"/><path class="cls-8" d="M72.31,38,32,61.26c-1.18.68-2.14.28-2.14-.91h0A4.43,4.43,0,0,1,32,57L72.31,33.66c1.18-.68,2.14-.27,2.14.91h0A4.45,4.45,0,0,1,72.31,38Z"/><path class="cls-4" d="M77.63,50.09,72,53.35V59l5.65-3.26V50.09Z"/><path class="cls-4" d="M67,61.2,26.67,84.51c-1.19.68-2.14.28-2.14-.91h0a4.41,4.41,0,0,1,2.14-3.37L67,56.92c1.18-.69,2.14-.28,2.14.9h0A4.45,4.45,0,0,1,67,61.2Z"/><path class="cls-4" d="M77.63,57.34,72,60.6v5.65L77.63,63V57.34Z"/><path class="cls-4" d="M67,68.44,26.67,91.75c-1.19.69-2.14.28-2.14-.9h0a4.42,4.42,0,0,1,2.14-3.38L67,64.16c1.18-.68,2.14-.28,2.14.9h0A4.43,4.43,0,0,1,67,68.44Z"/><path class="cls-4" d="M77.63,64.58,72,67.84v5.65l5.65-3.26V64.58Z"/><path class="cls-4" d="M67,75.69,26.67,99c-1.19.68-2.14.28-2.14-.91h0a4.44,4.44,0,0,1,2.14-3.38L67,71.4c1.18-.68,2.14-.27,2.14.91h0A4.47,4.47,0,0,1,67,75.69Z"/><path class="cls-4" d="M77.63,71.82,72,75.09v5.64l5.65-3.26V71.82Z"/><path class="cls-4" d="M67,82.93,26.67,106.24c-1.19.68-2.14.28-2.14-.9h0A4.41,4.41,0,0,1,26.67,102L67,78.65c1.18-.69,2.14-.28,2.14.9h0A4.45,4.45,0,0,1,67,82.93Z"/><path class="cls-9" d="M51,43.57v.06c.19-.11.38-.24.56-.37l.13-.1c.23-.17.45-.36.66-.55a1.62,1.62,0,0,0,.2-.18A5,5,0,0,0,53,42l.16-.17,0,0a1.49,1.49,0,0,0-.23-.27l-.06,0a.12.12,0,0,0-.05,0l-.23-.1h0a1.07,1.07,0,0,0-.4-.13.69.69,0,0,0-.25,0l-.11.07a.85.85,0,0,0-.14.1h0a1.08,1.08,0,0,0-.28.4,1.62,1.62,0,0,0-.16.44s0,0,0,.08,0,.2,0,.29,0,.21,0,.31h0A4.33,4.33,0,0,0,51,43.57Z"/><path class="cls-10" d="M51.54,42.22v1l.13-.1c.23-.17.45-.36.66-.55a1.62,1.62,0,0,0,.2-.18A5,5,0,0,0,53,42l.16-.17a3.8,3.8,0,0,0,.33-.37c.13-.13.23-.26.33-.38l0,0a.94.94,0,0,0-.1-.1l-.31.17-.57.33,0,0-.25.15h0l-.89.51Z"/><path class="cls-11" d="M47.39,37.48A5.23,5.23,0,0,1,47.88,39a8.94,8.94,0,0,0,.29-1.16A8.09,8.09,0,0,1,47.39,37.48Z"/><path class="cls-12" d="M47.12,40.23s.06.45.2,1.16c0,.27.12.56.18.9,0,.15.07.3.11.47.09.35.18.71.29,1.09l.26.86.34,0h.07a6.84,6.84,0,0,0,2.08-.81,2.84,2.84,0,0,0,.34-.22c.19-.11.38-.24.56-.37l.13-.1c0-.35,0-.68,0-1h0c0-.26,0-.49-.06-.72h0s0-.09,0-.13a6.19,6.19,0,0,0-.1-.7h0c0-.09-.05-.16-.07-.24S51,40,50.56,39.6c-.59-.57-1-1.74-2.17-1.71h0l-.21,0h-.05s0,.07,0,.17h0s0,0,0,.07a6,6,0,0,1-.2.73h0a4.26,4.26,0,0,1-.34.83h0A1.37,1.37,0,0,1,47.12,40.23Z"/><path class="cls-12" d="M46.09,40.65l.15,0,.24.1.25.14.11.08.21.15a1.84,1.84,0,0,1,.27.23.76.76,0,0,1,.09.09,2,2,0,0,1,.23.27,1.33,1.33,0,0,1,.21.26,4,4,0,0,1,.27.44c.05.12.11.23.16.35l0,.08a1.72,1.72,0,0,1,.07.21l0,0a.5.5,0,0,0,0,.13c0,.1,0,.2.05.3a1.21,1.21,0,0,1,0,.19v.91h.07a6.84,6.84,0,0,0,2.08-.81,2.84,2.84,0,0,0,.34-.22c.19-.11.38-.24.56-.37l.13-.1c.23-.17.45-.36.66-.55a1.62,1.62,0,0,0,.2-.18v-.57a.92.92,0,0,0,0-.16v0c0-.06,0-.12,0-.18s0-.08,0-.12h0a1.59,1.59,0,0,0-.06-.3l-.09-.3,0,0s0,0,0,0l-.09-.16-.12-.14a.24.24,0,0,0-.08-.06.42.42,0,0,0-.14-.09l0-.06-.07,0,0,.05a2.4,2.4,0,0,1-.36.39h0c0,.2.08.44.11.7,0,0,0,.08,0,.13h0c0,.23,0,.46.06.72l-.09.06-.41.06a10.46,10.46,0,0,0-1.49.23,11.22,11.22,0,0,1-1-1.23c-.44-.57-.88-1.18-1.07-1.43l-.06-.08,0,0h0l0,0-1.24.84Z"/><path class="cls-13" d="M51.88,40.24a.42.42,0,0,1,.14.09.24.24,0,0,1,.08.06l.12.14.09.16s0,0,0,0l0,0,.09.3a1.59,1.59,0,0,1,.06.3s0,.08,0,.12,0,.12,0,.18v0a.92.92,0,0,1,0,.16v.57A5,5,0,0,0,53,42l.16-.17a3.8,3.8,0,0,0,.33-.37c.13-.13.23-.26.33-.38l0-.06a.43.43,0,0,0,0-.07s-.15-.07-.38-.19l-.27-.11,0,0-.43-.19-.3-.13-.16-.07h0l-.21-.09Z"/><path class="cls-13" d="M44.94,41.41v0a1.55,1.55,0,0,0,0,.22,3.89,3.89,0,0,0,0,.49,2.17,2.17,0,0,0,.1.47,2.74,2.74,0,0,0,1.1,1.66,2.34,2.34,0,0,0,.47.25,2.89,2.89,0,0,0,.91.19h.59l.34,0v-.91a1.21,1.21,0,0,0,0-.19c0-.1,0-.2-.05-.3a.5.5,0,0,1,0-.13l0,0a1.72,1.72,0,0,0-.07-.21l0-.08c-.05-.12-.11-.23-.16-.35a4,4,0,0,0-.27-.44,1.33,1.33,0,0,0-.21-.26,2,2,0,0,0-.23-.27l-.09-.09a1.84,1.84,0,0,0-.27-.23L46.84,41l-.11-.08-.25-.14-.24-.1-.15,0-.08,0h0l-.3.22h0l-.58.43-.12.08Z"/><path class="cls-9" d="M51.34,40.68a1.2,1.2,0,0,1,0,.27,3.41,3.41,0,0,1-1.87-.67A3.3,3.3,0,0,1,48.68,39a2.75,2.75,0,0,0,.94,1C50.33,40.41,51.12,40.83,51.34,40.68Z"/><path class="cls-13" d="M46,40.63l.55.65.28.34.21.3.56.84.2.29.09.8.1.87h.16l.34,0h.07a6.84,6.84,0,0,0,2.08-.81,2.84,2.84,0,0,0,.34-.22c.19-.11.38-.24.56-.37l.13-.1c.23-.17.45-.36.66-.55a1.62,1.62,0,0,0,.2-.18A5,5,0,0,0,53,42l-.11-.49,0-.06-.23-1-.3-.13-.16-.07h0l-.27-.12h0l0,.05a2.4,2.4,0,0,1-.36.39h0l0,0s0,0,0,0,0,0,0,0h0v0a1.62,1.62,0,0,1,0,.23h0c-.06,1.33-.63,1.37-.69,1.37a2.54,2.54,0,0,1-2-1,7.87,7.87,0,0,1-1.07-1.43l-.06-.08,0,0h0l0,0Z"/><path class="cls-14" d="M52.12,40.26h0l.11.19c0,.05,0,.13.07.22s0,0,0,0c0,.18.1.42.15.62s0,.22.05.31,0,0,0,0a.92.92,0,0,1,0,.16v.57A5,5,0,0,0,53,42l.16-.17a3.8,3.8,0,0,0,.33-.37,2.33,2.33,0,0,0,0-.34,2.41,2.41,0,0,0-.07-.35l-.27-.12,0,0C52.76,40.54,52.47,40.42,52.12,40.26Z"/><path class="cls-14" d="M45,41.38h.33a1.52,1.52,0,0,1,.94.33,2.7,2.7,0,0,1,.53.43,2.89,2.89,0,0,1,.81,1.61v1h.57l.34,0v-.91a1.21,1.21,0,0,0,0-.19c0-.1,0-.2-.05-.3a.5.5,0,0,1,0-.13l0,0a1.72,1.72,0,0,0-.07-.21l0-.08c-.05-.12-.11-.23-.16-.35a4,4,0,0,0-.27-.44,1.33,1.33,0,0,0-.21-.26,2,2,0,0,0-.23-.27l-.09-.09a1.84,1.84,0,0,0-.27-.23L46.84,41l-.11-.09-.25-.13-.24-.1-.15,0-.08,0h0l-.3.22h0l-.58.43Z"/><path class="cls-11" d="M52.94,35.31a4,4,0,0,1-.24,1.4c-.2.24-.16-1.7-.16-1.7Z"/><path class="cls-12" d="M52.81,36.87a2.94,2.94,0,0,0-.21,1,5,5,0,0,1-.75,2.28s0,0,0,0a1.7,1.7,0,0,1-.39.43s0,0-.05,0l0,0h0c-.23.15-1-.29-1.7-.62a2.85,2.85,0,0,1-1-1,8.88,8.88,0,0,1-.47-.91c-.51-.33-.1-.6-1.17-2.12.41-3.49,3-3.09,3-3.09C53.06,33,52.81,36.87,52.81,36.87Z"/><path class="cls-11" d="M52.94,35.31a.43.43,0,0,0-.46,0c-.13.1-.24.23-.38.33a1.54,1.54,0,0,1-1.3.08c-.48-.14-1.14-.48-1.74-.21a.55.55,0,0,0-.2.34c-.07.37,0,.75-.09,1.12a2.43,2.43,0,0,0-.06.54l-.49-.3L47.6,38a12.29,12.29,0,0,1-.79-2,3.15,3.15,0,0,1,.93-2.54A3,3,0,0,1,50,32.72,2.77,2.77,0,0,1,52.91,35S52.93,35.16,52.94,35.31Z"/><path class="cls-12" d="M48.51,37.72a5.93,5.93,0,0,1-.07-.59c0-.25-.11-.7-.6-.66-.68.05-.14,1.53.09,1.68s.58-.43.58-.43Z"/><path class="cls-15" d="M53.33,35.32a10.9,10.9,0,0,1-3.41.86h0a2,2,0,0,1-.49-.09A5.29,5.29,0,0,1,48,35.35a.52.52,0,0,0-.36-.12.43.43,0,0,0-.18.11,2.25,2.25,0,0,0-.4,1.21s-.19,0-.24-.13a8.4,8.4,0,0,1,0-1.66c0-.14,0-.27,0-.41v0A3,3,0,0,1,49,31.66l.07,0a3.66,3.66,0,0,1,1.92,0c1.45.43,2,2.27,2,2.74a2,2,0,0,0,.27.47C53.47,35,53.58,35.24,53.33,35.32Z"/><path class="cls-16" d="M49.88,36.17a2,2,0,0,1-.49-.09A5.29,5.29,0,0,1,48,35.35a.52.52,0,0,0-.36-.12.43.43,0,0,0-.18.11,2.25,2.25,0,0,0-.4,1.21s-.19,0-.24-.13a8.4,8.4,0,0,1,0-1.66c0-.14,0-.27,0-.41v0A3,3,0,0,1,49,31.66a1.86,1.86,0,0,0-.62.81,3.09,3.09,0,0,0,.52,2.73A2.81,2.81,0,0,0,49.88,36.17Z"/><path class="cls-17" d="M45.62,42.69a6,6,0,0,1,1,1.84,2.89,2.89,0,0,0,.91.19,7.16,7.16,0,0,0-1.34-2.57Z"/><path class="cls-17" d="M44.94,41.41v0a1.55,1.55,0,0,0,0,.22,3.89,3.89,0,0,0,0,.49,2.56,2.56,0,0,1,.63.54l.61-.54a2.42,2.42,0,0,0-.32-.32h0a3.09,3.09,0,0,0-.58-.43h0l-.2-.09a.44.44,0,0,0-.15,0A.92.92,0,0,0,44.94,41.41Z"/><path class="cls-17" d="M46.55,42.37a5.83,5.83,0,0,1,1,1.89,4.34,4.34,0,0,1,.16.47h.41l.34,0h.07c0-.08,0-.16-.07-.23a7.72,7.72,0,0,0-1-2.14,2.74,2.74,0,0,0-.34-.46l-.11.09-.27.23Z"/><path class="cls-17" d="M44.94,41.41v0a1.55,1.55,0,0,0,0,.22,1.15,1.15,0,0,1,.26,0,1.38,1.38,0,0,1,.68.19h0a2.36,2.36,0,0,1,.64.54l.23-.22.27-.23.11-.09a3.37,3.37,0,0,0-.6-.55,2.47,2.47,0,0,0-.87-.41h0a2,2,0,0,0-.47-.06l-.24,0h0c0,.14,0,.28,0,.41A.92.92,0,0,0,44.94,41.41Z"/><path class="cls-18" d="M45.09,42.62a2.74,2.74,0,0,0,1.1,1.66A3,3,0,0,0,45.09,42.62Z"/><path class="cls-17" d="M44.94,41.41v0a1.55,1.55,0,0,0,0,.22,1.15,1.15,0,0,1,.26,0,1.38,1.38,0,0,1,.68.19h0a2.36,2.36,0,0,1,.64.54l.23-.22.27-.23.11-.09a3.37,3.37,0,0,0-.6-.55,2.47,2.47,0,0,0-.87-.41h0a2,2,0,0,0-.47-.06l-.24,0h0c0,.14,0,.28,0,.41A.92.92,0,0,0,44.94,41.41Z"/><polygon class="cls-19" points="75.01 48.37 71.98 46.43 73.26 45.31 75.55 46.78 79.5 39.56 80.89 39.48 76.34 47.77 75.01 48.37"/><polygon class="cls-19" points="75.01 56.2 71.98 54.26 73.26 53.15 75.55 54.61 79.5 47.4 80.89 47.31 76.34 55.6 75.01 56.2"/><polygon class="cls-19" points="75.01 71.7 71.98 69.76 73.26 68.64 75.55 70.11 79.5 62.89 80.89 62.81 76.34 71.1 75.01 71.7"/><path class="cls-20" d="M98.65,130.58a21.26,21.26,0,0,1,.33,4.1c-.22.56-1.36,3.38-2.21,3.88a4.57,4.57,0,0,1-2.15.44L93.41,138v-6.81L95.78,129l2.26.7Z"/><path class="cls-21" d="M90.12,93.54a4.79,4.79,0,0,0,.27,1.85l-7.23,4.27s-.2-3.22-.31-4.26c0-.38-.56-.68-.56-.68a8.13,8.13,0,0,1-1.3,0,15.4,15.4,0,0,1-2.24-7.32c0-.27,0-.54,0-.79.13-3.86,2.55-6.37,6.92-6.37,4,0,5.6,3.82,6.11,6.38s-.77,3.83-1.38,5.54A4.72,4.72,0,0,0,90.12,93.54Z"/><path class="cls-22" d="M95,170.42a28.74,28.74,0,0,1,0,4.41A2.16,2.16,0,0,1,92.07,176s-1.92-1.35-2-1.5a7.53,7.53,0,0,1-.2-1s-.81-.15-2.53-.65-4.62-2.47-4.48-2.85A3.36,3.36,0,0,1,85,168.7H91Z"/><path class="cls-22" d="M71.63,179a4.92,4.92,0,0,0,2.53,2.75,7.07,7.07,0,0,0,4.31.8,10.77,10.77,0,0,1,2.67,0,2.64,2.64,0,0,0,.09.72c.07.11,3.74.84,4.91-.08s.3-5.25-.09-5.46c-1-.5-4.46-1.1-5.34-.47s-5.56,1.22-7.6.91S71.63,179,71.63,179Z"/><path class="cls-2" d="M95.77,156.64a16,16,0,0,0-.38-3.53,59.94,59.94,0,0,1-1.26-11.86c0-5.62-.72-7.4-.72-7.4l-6.85-2.06s-3.49,6.4,0,16.76S88.37,170,88.37,170a1.85,1.85,0,0,0,1.08,1.52,5.82,5.82,0,0,0,5.24,0A1.84,1.84,0,0,0,95.78,170S95.7,160.34,95.77,156.64Z"/><path class="cls-4" d="M86.56,153.69c.08-3.1,1-14.6.9-14.71l-10.17-5.49c-1.77,7.55-.72,12.64,1.32,20s.54,24.18.54,24.18h0a1.85,1.85,0,0,0,1.08,1.52,5.82,5.82,0,0,0,5.24,0,1.83,1.83,0,0,0,1.07-1.48h0c0,.17.38-7.07.91-13S86.47,156.79,86.56,153.69Z"/><path class="cls-23" d="M98.5,129.28a1.06,1.06,0,0,1,0,2,3.81,3.81,0,0,1-3.45,0,1.05,1.05,0,0,1,0-2A3.81,3.81,0,0,1,98.5,129.28Z"/><path class="cls-23" d="M94.61,96.06a4.34,4.34,0,0,1,3.67,4.39c.21,4.2.94,29.83.94,29.83H94.33s-.92-21.29-.92-25.75A33.41,33.41,0,0,1,94.61,96.06Z"/><path class="cls-24" d="M96.58,106.07c-.66,4.31-2.2,16.79-2,19.47s0,8.76-.08,9.11l0,.62c0,1.29-.92,2.59-2.63,3.58a14.3,14.3,0,0,1-11.43.62,9.89,9.89,0,0,1-1.31-.62,6.4,6.4,0,0,1-1.84-1.54h0a4.18,4.18,0,0,1-.48-.76l-.06-.14c0-.13-.1-.28-.14-.41s0-.12,0-.18a4.52,4.52,0,0,1-.06-.53h0S76.15,126,75.92,118c-.14-4.69-.26-9-.26-10.72,0-3.13,5.33-6.86,5.33-6.86l2.88-1.26,7.86-3.44s3.08,0,4.27.78S97,103.2,96.58,106.07Z"/><path class="cls-22" d="M92.5,85.25a20.78,20.78,0,0,1-2.36,8,9.49,9.49,0,0,1-3.91.75l-.34,0a3.9,3.9,0,0,1-1.3-.38,5,5,0,0,1-.7-.42A19.74,19.74,0,0,1,83,89.2c.32-1.24.11-2.32-1.39-2.47s-.89,2.57-.89,2.57l-1.23-.12-.1-1.61A4.58,4.58,0,0,0,78.21,85a1,1,0,0,1-.18-.52,10.87,10.87,0,0,1,.72-3.37.21.21,0,0,1,0-.06c.87-1.44,2.71-2.84,6.52-2.9a9.42,9.42,0,0,1,4.14.71C93,80.44,92.5,84.27,92.5,85.25Z"/><path class="cls-5" d="M90.7,94.37s-.28-.5-.34-.5-7.31,2.17-8,5.45l7.54-3.9Z"/><path class="cls-25" d="M71.84,140.31A6.24,6.24,0,0,0,71,144a8.38,8.38,0,0,0,.84,3.25s2,1.22,2.28,1a8.74,8.74,0,0,1,1.54-.5V147a1.85,1.85,0,0,1-1.29-1.09c-.25-.84,1.09-3,.5-5.08S71.84,140.31,71.84,140.31Z"/><path class="cls-26" d="M82.85,112a2.59,2.59,0,0,1-.23,1.13C82.77,112.43,82.85,112,82.85,112Z"/><path class="cls-23" d="M82.85,112s-.08.42-.23,1.13c-.56,2.72-1.81,10-3.16,14.32-1,3.15-2.08,6.36-2.86,8.53a31.42,31.42,0,0,0-1,4.29h0a1.39,1.39,0,0,1-.69.79,3.77,3.77,0,0,1-3.46,0,1.21,1.21,0,0,1-.71-1,1,1,0,0,1,0-.24c.3-1.74,2.68-13,3.45-17.52.82-4.77,1.36-14.5,1.36-14.5a4.22,4.22,0,0,1,0-.52,1.72,1.72,0,0,1,1.16-1.48,3.14,3.14,0,0,1,2.42.47A7.53,7.53,0,0,1,82.85,112Z"/><path class="cls-23" d="M91.73,95.75s-.78-1.57-1-1.57a15.65,15.65,0,0,0-5.15,2.15A19.82,19.82,0,0,0,81,100.45a52.87,52.87,0,0,0,8.39-2.23C92.29,97,91.73,95.75,91.73,95.75Z"/></g></g></svg>