<svg xmlns="http://www.w3.org/2000/svg" viewBox="0 0 210 50"><defs><style>.cls-1{fill:#0d6efd;}.cls-2{fill:#212938;}.cls-3{fill:#fff;}</style></defs><title>Recurso 6</title><g id="Capa_2" data-name="Capa 2"><g id="Capa_1-2" data-name="Capa 1"><path class="cls-1" d="M81.72,7.49V35.9c0,4.25,0,7-.13,8.2a6.31,6.31,0,0,1-1.2,3.3,5.43,5.43,0,0,1-2.89,2A19.77,19.77,0,0,1,72,50H66.46V42.57c.67,0,1.15.08,1.45.08a2.8,2.8,0,0,0,1.86-.58,2.16,2.16,0,0,0,.79-1.42,31.73,31.73,0,0,0,.11-3.26V7.49Z"/><path class="cls-1" d="M105.1,7.49h-16L83.49,50H94.91l.67-7.64h4l.6,7.64h11.3ZM95.44,34.82q.44-5.64,2.12-17.85.85,10.63,1.69,17.85Z"/><rect class="cls-1" x="113.3" y="7.49" width="11.05" height="42.51"/><path class="cls-1" d="M152.17,13.49a6.87,6.87,0,0,0-1.65-3.23,7.71,7.71,0,0,0-3.65-2,25.8,25.8,0,0,0-7-.72H128.79V50h11.05V32.88h3a14.46,14.46,0,0,0,5.86-1A5.72,5.72,0,0,0,151.77,29a15.53,15.53,0,0,0,.83-5.94v-3.7A28.42,28.42,0,0,0,152.17,13.49Zm-8.81,8.26a5.54,5.54,0,0,1-.58,3.11,2.57,2.57,0,0,1-2.12.75c-.23,0-.49,0-.82,0V14.77a4.3,4.3,0,0,1,2.85.65c.45.44.67,1.39.67,2.84Z"/><path class="cls-1" d="M178.78,30c-.74-.91-2.22-1.64-4.4-2.19q3.62-.33,4.85-2t1.24-6.67c0-3.63-.59-6.26-1.75-7.91A7.28,7.28,0,0,0,174.2,8.1a59.75,59.75,0,0,0-10.59-.61h-7.83V50h11.06V30.83c1.53,0,2.46.28,2.82.82s.54,2,.54,4.22V50h10.27V38.79a40,40,0,0,0-.28-6.29A6.3,6.3,0,0,0,178.78,30Zm-8.58-9.61c0,1.87-.26,3-.75,3.31a4.77,4.77,0,0,1-2.61.52V14.77a4.08,4.08,0,0,1,2.63.62,3.58,3.58,0,0,1,.73,2.66Z"/><path class="cls-1" d="M209.69,16.44a9.36,9.36,0,0,0-2-4.66,10,10,0,0,0-4.36-3.22,16.72,16.72,0,0,0-6.14-1.07,16.36,16.36,0,0,0-6.3,1.14,10,10,0,0,0-4.29,3.25,9.51,9.51,0,0,0-1.89,4.67,86,86,0,0,0-.3,8.71v7a86.12,86.12,0,0,0,.31,8.82,9.4,9.4,0,0,0,2,4.66,10,10,0,0,0,4.36,3.21A16.66,16.66,0,0,0,197.21,50a16.38,16.38,0,0,0,6.31-1.13,10.1,10.1,0,0,0,4.29-3.25,9.5,9.5,0,0,0,1.89-4.68,85.65,85.65,0,0,0,.3-8.7v-7A86,86,0,0,0,209.69,16.44ZM199,37.58a19.3,19.3,0,0,1-.32,4.56,1.35,1.35,0,0,1-1.44,1,1.31,1.31,0,0,1-1.4-.83,17.45,17.45,0,0,1-.31-4.39V18.83c0-2.1.15-3.36.47-3.79a1.5,1.5,0,0,1,1.32-.64,1.31,1.31,0,0,1,1.35.79,12.08,12.08,0,0,1,.33,3.64Z"/><rect class="cls-2" x="8.26" y="7.49" width="42.5" height="42.51"/><polygon class="cls-1" points="58.41 29.97 50.76 38.26 29.44 18.6 8.27 41.4 0 33.73 21.16 10.95 28.84 2.69 31.34 0 39.59 7.67 37.13 10.33 58.41 29.97"/><path class="cls-3" d="M40.15,34.54a.54.54,0,0,1-.73-.15A5.14,5.14,0,0,0,39,34a3.57,3.57,0,0,0-4.53-.4c-.21.14-.4.3-.6.46s-.67.39-1,0-.57-.34-.74.12a3.72,3.72,0,0,1-.4.75.43.43,0,0,0-.08.24c0,1.31.24,11.81.3,14.83H27.06c.13-1.4.2-2.82.37-4.22.16-1.21.2-2.43.31-3.65.24-2.33.31-4.67.46-7,0-.21,0-.42-.19-.49s-.3-.16-.33-.29c-.17-.7-.47-.75-.88-.1a.37.37,0,0,1-.24.09c-.94,0-1.89,0-2.84,0-.32,0-.45-.28-.45-.59,0-1,0-2.11,0-3.16,0-.5.34-.66.75-.67.72,0,1.43,0,2.15,0a1,1,0,0,1,.9.47c.15.26.36.36.56,0a.89.89,0,0,1,.9-.42h2.29a1.7,1.7,0,0,1,1.48.49.54.54,0,0,0,.75.07c.78-.83,1.41-.48,2.47-.19a7.47,7.47,0,0,1,4.55,3.55C40.19,34.1,40.39,34.4,40.15,34.54Z"/><path class="cls-3" d="M18.82,50h-2a4.26,4.26,0,0,1-.14-.62,28,28,0,0,1-.78-3.61.39.39,0,0,0-.41-.38.24.24,0,0,0-.12,0c-.16,0-.14.27-.15.43A18.15,18.15,0,0,1,14,50H12c.08-.26.19-.61.32-1a1.42,1.42,0,0,1,.05-.16s0,0,0-.06c.2-.62.41-1.28.54-1.64,0-.14.11-.33,0-.42-.5-.38-.17-.68,0-.79l.08-.06a1.8,1.8,0,0,0,.29-.19h0s.06-.06.06-.09a.11.11,0,0,0,0,0,.34.34,0,0,1,.16-.1s.29-.1.29-.1.17-.1.13-.22a.88.88,0,0,0-.09-.21,1.62,1.62,0,0,1-.24-.71v0a1.28,1.28,0,0,1,0-.43,1,1,0,0,0,0-.49A5.67,5.67,0,0,1,13.53,41v0a.34.34,0,0,1,0-.1,9.57,9.57,0,0,1,1.21-3s0,0,0,0l.52-1h.95A9.3,9.3,0,0,1,17.86,41a4.24,4.24,0,0,1-.12,2,.86.86,0,0,0-.1.44,4.47,4.47,0,0,1-.06,1.37c-.1.41-.47.6-.47.75s.13.12.18.12c.54,0,1,.75,1,.75.22,0,.5.35,0,.39-.23.57.17,1.46.34,2.1A6.51,6.51,0,0,0,18.82,50Z"/><path class="cls-3" d="M40.12,46.86c-.28.28-.5.6-.77.9a7.15,7.15,0,0,0-.61.81,1.06,1.06,0,0,0-.09.28V50H35.4l0-2.2a2.89,2.89,0,0,0-.27-1.13c-.39-.92-.8-1.81-1.12-2.74a4.3,4.3,0,0,1,.36-3.85,4.09,4.09,0,0,1,3.1-1.47c.5,0,.9,0,1.55,0-.94.93-1.74,1.73-2.55,2.5a1,1,0,0,0,0,1.49l1,1a.88.88,0,0,0,1.41,0c.74-.73,2.36-2.34,2.52-2.46a5.11,5.11,0,0,1-1.18,4.28c-.17.19-.42.37-.38.56s.18.18.32.29S40.44,46.54,40.12,46.86Z"/><path class="cls-3" d="M46.48,40.56a23.41,23.41,0,0,0-1,6c0,.15,0,.29,0,.43a2.21,2.21,0,0,1-.08.46.66.66,0,0,1-.43.28c.11.31-.26.66-.26.66-.31,0-.22.21-.22.21l.1,0a1.65,1.65,0,0,1,.58.49l0,.83H42.68l0-.25c0-.44,0-.91.62-1a.21.21,0,0,0,.15-.12c.07,0,.11-.1.08-.12a.67.67,0,0,1-.34-.32,2,2,0,0,1-.07-.5.67.67,0,0,1,0-.16.42.42,0,0,1-.21-.12.68.68,0,0,1-.07-.51c0-.13.06-.26.09-.38a18.66,18.66,0,0,0,.13-5.33,14.34,14.34,0,0,1,.05-3A3.71,3.71,0,0,1,44,36.42c.77-.92,1.95-.64,2.39.57A6.12,6.12,0,0,1,46.48,40.56Z"/><path class="cls-3" d="M21,44.08a.09.09,0,0,0-.09.1.1.1,0,0,0,.09.1.1.1,0,0,0,.1-.1A.09.09,0,0,0,21,44.08Zm0,0a.09.09,0,0,0-.09.1.1.1,0,0,0,.09.1.1.1,0,0,0,.1-.1A.09.09,0,0,0,21,44.08Zm0,0a.09.09,0,0,0-.09.1.1.1,0,0,0,.09.1.1.1,0,0,0,.1-.1A.09.09,0,0,0,21,44.08Zm1.2-.15a.09.09,0,0,0-.1.1.1.1,0,0,0,.1.09c.05,0,.11,0,.11-.09A.1.1,0,0,0,22.15,43.93Zm1.58-2a.1.1,0,0,0-.1.1c0,.06,0,.09.1.09a.08.08,0,0,0,.09-.09A.1.1,0,0,0,23.73,41.91Zm0,0a.1.1,0,0,0-.1.1c0,.06,0,.09.1.09a.08.08,0,0,0,.09-.09A.1.1,0,0,0,23.73,41.91Zm-1.58,2a.09.09,0,0,0-.1.1.1.1,0,0,0,.1.09c.05,0,.11,0,.11-.09A.1.1,0,0,0,22.15,43.93Zm-1.2.15a.09.09,0,0,0-.09.1.1.1,0,0,0,.09.1.1.1,0,0,0,.1-.1A.09.09,0,0,0,21,44.08Zm3.69-3.61A4.08,4.08,0,0,0,24,39c-.36-.53-.63-.65-1.21-.35a13.51,13.51,0,0,0-1.75,1,1,1,0,0,1-1,.17c-.23-.12-.22-.06-.29.15a2.69,2.69,0,0,0-.09.7,10.74,10.74,0,0,0,.88,3.77c0,.05.09.11.22.1l1.76-.27a.39.39,0,0,0,.23-.14c.59-.91,1.18-1.82,1.76-2.75A1.21,1.21,0,0,0,24.64,40.47ZM21,44.38A.2.2,0,1,1,21,44a.2.2,0,1,1,0,.39Zm1.2-.16A.21.21,0,0,1,22,44a.21.21,0,0,1,.2-.21.2.2,0,0,1,.2.21A.19.19,0,0,1,22.15,44.22Zm1.58-2a.21.21,0,0,1-.2-.21.2.2,0,0,1,.2-.2.19.19,0,0,1,.19.2A.2.2,0,0,1,23.73,42.22Zm.05-1.5a4.17,4.17,0,0,1-2.05,1.63,1.87,1.87,0,0,1-.41.09A.76.76,0,0,1,20.6,42a.73.73,0,0,1,.2-.88,1.22,1.22,0,0,1,.52-.26A2.68,2.68,0,0,0,22.77,40a1.49,1.49,0,0,1,.5-.36.51.51,0,0,1,.69.6A1.58,1.58,0,0,1,23.78,40.72Zm-.05,1.19a.1.1,0,0,0-.1.1c0,.06,0,.09.1.09a.08.08,0,0,0,.09-.09A.1.1,0,0,0,23.73,41.91Zm-1.58,2a.09.09,0,0,0-.1.1.1.1,0,0,0,.1.09c.05,0,.11,0,.11-.09A.1.1,0,0,0,22.15,43.93Zm-1.2.15a.09.09,0,0,0-.09.1.1.1,0,0,0,.09.1.1.1,0,0,0,.1-.1A.09.09,0,0,0,21,44.08Zm0,0a.09.09,0,0,0-.09.1.1.1,0,0,0,.09.1.1.1,0,0,0,.1-.1A.09.09,0,0,0,21,44.08Zm1.2-.15a.09.09,0,0,0-.1.1.1.1,0,0,0,.1.09c.05,0,.11,0,.11-.09A.1.1,0,0,0,22.15,43.93Zm0,0a.09.09,0,0,0-.1.1.1.1,0,0,0,.1.09c.05,0,.11,0,.11-.09A.1.1,0,0,0,22.15,43.93Zm-1.2.15a.09.09,0,0,0-.09.1.1.1,0,0,0,.09.1.1.1,0,0,0,.1-.1A.09.09,0,0,0,21,44.08Z"/><path class="cls-3" d="M25.21,49.59c-.19.12-.34.22-.54.33l.14.08H21.68c-.22-1.29-.46-2.57-.69-3.86-.09-.48-.16-1-.25-1.5l1.79-.28a.57.57,0,0,0,.32-.21c.56-.84,1.1-1.68,1.64-2.53.07-.13.14-.17.26-.09s.27.17.44.26l-.53.33c.18.12.33.22.52.33l-.52.33.53.32-.53.33.53.32c-.18.11-.33.21-.53.32l.53.32-.53.34c.19.11.34.21.54.31l-.53.33.52.33-.52.32.52.33c-.18.1-.33.21-.52.31.18.12.33.22.53.33-.18.11-.33.21-.53.32.19.12.34.23.53.33l-.53.33.53.32-.53.33.54.33a5.1,5.1,0,0,0-.53.33Z"/></g></g></svg>