<svg xmlns="http://www.w3.org/2000/svg" viewBox="0 0 210 50"><defs><style>.cls-1{fill:#fff;}.cls-2{fill:#0d6efd;}</style></defs><title>Recurso 10</title><g id="Capa_2" data-name="Capa 2"><g id="Capa_1-2" data-name="Capa 1"><path class="cls-1" d="M81.72,7.49V35.9c0,4.25,0,7-.13,8.2a6.31,6.31,0,0,1-1.2,3.3,5.43,5.43,0,0,1-2.89,2A19.77,19.77,0,0,1,72,50H66.46V42.57c.67,0,1.15.08,1.45.08a2.8,2.8,0,0,0,1.86-.58,2.16,2.16,0,0,0,.79-1.42,31.49,31.49,0,0,0,.11-3.25V7.49Z"/><path class="cls-1" d="M105.1,7.49h-16L83.49,50H94.91l.67-7.64h4l.6,7.64h11.3ZM95.44,34.83q.44-5.66,2.12-17.85.85,10.64,1.69,17.85Z"/><rect class="cls-1" x="113.3" y="7.49" width="11.05" height="42.51"/><path class="cls-1" d="M152.17,13.49a6.87,6.87,0,0,0-1.65-3.23,7.71,7.71,0,0,0-3.65-2,26.22,26.22,0,0,0-7-.72H128.79V50h11.05V32.88h3a14.46,14.46,0,0,0,5.86-1A5.69,5.69,0,0,0,151.77,29a15.51,15.51,0,0,0,.83-5.93V19.39A28.42,28.42,0,0,0,152.17,13.49Zm-8.81,8.26a5.54,5.54,0,0,1-.58,3.11,2.57,2.57,0,0,1-2.12.76l-.82,0V14.77a4.24,4.24,0,0,1,2.85.66c.45.43.67,1.38.67,2.83Z"/><path class="cls-1" d="M178.78,30c-.74-.91-2.22-1.64-4.4-2.19q3.62-.33,4.85-2c.83-1.13,1.24-3.36,1.24-6.67,0-3.63-.59-6.26-1.75-7.91A7.28,7.28,0,0,0,174.2,8.1a59.75,59.75,0,0,0-10.59-.61h-7.83V50h11.06V30.83c1.53,0,2.46.28,2.82.82s.54,2,.54,4.23V50h10.27V38.79a40.07,40.07,0,0,0-.28-6.29A6.37,6.37,0,0,0,178.78,30Zm-8.58-9.61c0,1.87-.26,3-.75,3.31a4.77,4.77,0,0,1-2.61.52V14.77a4,4,0,0,1,2.63.63,3.54,3.54,0,0,1,.73,2.65Z"/><path class="cls-1" d="M209.69,16.44a9.36,9.36,0,0,0-2-4.66,10,10,0,0,0-4.36-3.22,16.72,16.72,0,0,0-6.14-1.07,16.36,16.36,0,0,0-6.3,1.14,10.1,10.1,0,0,0-4.29,3.25,9.5,9.5,0,0,0-1.89,4.68,85.65,85.65,0,0,0-.3,8.7v7a86,86,0,0,0,.31,8.82,9.36,9.36,0,0,0,2,4.66,10,10,0,0,0,4.36,3.22A16.87,16.87,0,0,0,197.21,50a16.38,16.38,0,0,0,6.31-1.13,10.1,10.1,0,0,0,4.29-3.25,9.5,9.5,0,0,0,1.89-4.68,85.65,85.65,0,0,0,.3-8.7v-7A86,86,0,0,0,209.69,16.44ZM199,37.58a19.3,19.3,0,0,1-.32,4.56,1.35,1.35,0,0,1-1.44,1,1.31,1.31,0,0,1-1.4-.83,17.35,17.35,0,0,1-.31-4.38V18.83c0-2.1.15-3.36.47-3.79a1.53,1.53,0,0,1,1.32-.64,1.31,1.31,0,0,1,1.35.79,12.08,12.08,0,0,1,.33,3.64Z"/><path class="cls-1" d="M16.69,49.38a5.7,5.7,0,0,0,.15.62H14a17.34,17.34,0,0,0,1.22-4.15c0-.17,0-.38.16-.44l.11,0a.4.4,0,0,1,.42.38A29.72,29.72,0,0,0,16.69,49.38Z"/><path class="cls-1" d="M21,44a.2.2,0,1,0,0,.39.19.19,0,0,0,.2-.2A.19.19,0,0,0,21,44Zm0,.29a.11.11,0,0,1-.1-.1.1.1,0,0,1,.1-.1.09.09,0,0,1,.1.1A.1.1,0,0,1,21,44.28Z"/><path class="cls-1" d="M22.15,43.82a.2.2,0,1,0,.2.2A.2.2,0,0,0,22.15,43.82Zm0,.3a.1.1,0,0,1-.1-.1c0-.06,0-.09.1-.09a.09.09,0,0,1,.1.09A.11.11,0,0,1,22.15,44.12Z"/><path class="cls-1" d="M23.72,41.81a.2.2,0,0,0-.19.19.21.21,0,0,0,.19.22.21.21,0,0,0,.2-.22A.19.19,0,0,0,23.72,41.81Zm0,.29a.09.09,0,0,1-.09-.1.1.1,0,0,1,.09-.09.11.11,0,0,1,.1.09A.09.09,0,0,1,23.72,42.1Z"/><path class="cls-1" d="M20.59,42a.74.74,0,0,1,.2-.88,1.15,1.15,0,0,1,.53-.26A2.63,2.63,0,0,0,22.77,40a1.37,1.37,0,0,1,.5-.35.52.52,0,0,1,.69.6,1.47,1.47,0,0,1-.19.5,4.18,4.18,0,0,1-2.05,1.63,1.79,1.79,0,0,1-.4.09A.78.78,0,0,1,20.59,42Z"/><path class="cls-1" d="M8.26,7.49V50H12c.07-.26.19-.61.31-1a1,1,0,0,1,.05-.16s0,0,0-.06c.21-.62.42-1.28.54-1.64,0-.14.12-.33.06-.42-.5-.38-.17-.69,0-.79l.09-.06a2.43,2.43,0,0,0,.29-.19h0s.06-.06.06-.09a.11.11,0,0,0,0,0,.27.27,0,0,1,.16-.11l.29-.09c.1,0,.16-.1.13-.22a.88.88,0,0,0-.09-.21,1.5,1.5,0,0,1-.24-.71v0a1.28,1.28,0,0,1,0-.43,1.35,1.35,0,0,0,0-.49A5.48,5.48,0,0,1,13.53,41v0a.34.34,0,0,1,0-.1,9.57,9.57,0,0,1,1.21-3s0,0,0,0l.52-1h.95A9.29,9.29,0,0,1,17.85,41a4.1,4.1,0,0,1-.11,2,.83.83,0,0,0-.1.43,4.53,4.53,0,0,1-.06,1.38c-.11.41-.47.6-.47.75s.12.12.18.12c.53,0,1,.75,1,.75.22,0,.5.35,0,.39-.23.57.16,1.46.34,2.09A5,5,0,0,0,18.82,50h2.85c-.22-1.29-.45-2.57-.68-3.86-.09-.48-.17-1-.25-1.5.62-.09,1.21-.18,1.79-.29a.5.5,0,0,0,.31-.2c.56-.84,1.11-1.68,1.65-2.53.07-.13.13-.18.26-.09s.27.17.43.26l-.53.33.52.33-.51.33c.18.1.34.2.52.32l-.52.33.52.31c-.17.12-.33.22-.52.33l.52.32-.52.34.53.31-.52.33.51.33-.51.32.51.32c-.17.11-.33.22-.51.32.18.12.33.22.52.33l-.52.32.52.33c-.17.12-.33.21-.52.33l.52.32-.52.33.53.32-.52.33.52.32-.53.33.14.08h2.24c.14-1.41.21-2.83.38-4.22.16-1.22.19-2.43.31-3.65.23-2.33.31-4.67.45-7,0-.21,0-.43-.18-.49s-.31-.16-.34-.29c-.16-.7-.46-.75-.88-.1a.34.34,0,0,1-.23.09c-.95,0-1.89,0-2.84,0-.32,0-.46-.28-.46-.59V30.56c0-.51.34-.66.76-.67.71,0,1.43,0,2.14,0a1,1,0,0,1,.9.46c.16.27.37.37.56,0a.92.92,0,0,1,.9-.41h2.29a1.68,1.68,0,0,1,1.48.49.55.55,0,0,0,.76.07c.78-.83,1.41-.48,2.47-.19a7.42,7.42,0,0,1,4.54,3.55c.13.21.32.51.08.66a.54.54,0,0,1-.72-.15A3.79,3.79,0,0,0,39,34a3.57,3.57,0,0,0-4.53-.4,6.8,6.8,0,0,0-.6.46c-.35.31-.68.39-1,0s-.57-.34-.73.12a3.71,3.71,0,0,1-.41.75.48.48,0,0,0-.07.24c0,1.31.24,11.81.3,14.83H35.4l0-2.2a2.71,2.71,0,0,0-.28-1.13c-.38-.92-.8-1.82-1.12-2.74a4.31,4.31,0,0,1,.37-3.85,4,4,0,0,1,3.09-1.47c.51,0,.9,0,1.56,0-.95.93-1.74,1.73-2.55,2.5a1,1,0,0,0,0,1.49l1,1a.9.9,0,0,0,1.42,0c.74-.74,2.35-2.34,2.52-2.47a5.16,5.16,0,0,1-1.18,4.29c-.17.19-.43.37-.39.56s.19.18.32.29.29.33,0,.64-.49.6-.76.9a8.26,8.26,0,0,0-.61.82.86.86,0,0,0-.1.28V50h4l0-.26c.05-.43,0-.9.62-1a.2.2,0,0,0,.16-.13c.06,0,.1-.09.07-.11s-.3-.19-.33-.32a2,2,0,0,1-.07-.5.67.67,0,0,1,0-.16.45.45,0,0,1-.21-.12.69.69,0,0,1-.07-.52c0-.12.06-.26.09-.37a18.66,18.66,0,0,0,.13-5.33,14.34,14.34,0,0,1,.05-3A3.62,3.62,0,0,1,44,36.42c.76-.92,1.94-.64,2.39.57a6.2,6.2,0,0,1,.13,3.57,23.69,23.69,0,0,0-1,6c0,.16,0,.3,0,.44a2.21,2.21,0,0,1-.08.46.71.71,0,0,1-.43.28c.1.31-.27.66-.27.66-.3,0-.22.21-.22.21l.11,0a1.84,1.84,0,0,1,.58.48l0,.84h5.64V7.49ZM24,39a3.86,3.86,0,0,1,.64,1.52,1.16,1.16,0,0,1-.14.91c-.58.92-1.17,1.84-1.76,2.75a.43.43,0,0,1-.23.14l-1.76.27c-.14,0-.22,0-.23-.1a10.73,10.73,0,0,1-.87-3.77,2.37,2.37,0,0,1,.09-.71c.07-.2.06-.27.28-.14a1,1,0,0,0,1-.17,13.51,13.51,0,0,1,1.75-1C23.37,38.3,23.64,38.42,24,39Z"/><polygon class="cls-2" points="58.41 29.97 50.76 38.26 29.44 18.6 8.27 41.4 0 33.73 21.16 10.95 28.84 2.69 31.34 0 39.59 7.67 37.13 10.33 58.41 29.97"/></g></g></svg>