<svg xmlns="http://www.w3.org/2000/svg" viewBox="0 0 87.77 113.31"><defs><style>.cls-1{isolation:isolate;}.cls-2{fill:#4d4d4d;}.cls-3,.cls-5{fill:#fff;}.cls-4{fill:#25c9e6;}.cls-5{opacity:0.3;}.cls-6{fill:#fff1db;}.cls-7{fill:#005f6f;}.cls-8{fill:#00525a;}.cls-9{fill:#ffb294;}.cls-10{fill:#ba2b2b;}.cls-11,.cls-13{fill:#453535;}.cls-12{fill:#ff4a51;}.cls-13{opacity:0.5;}.cls-13,.cls-14,.cls-17{mix-blend-mode:multiply;}.cls-14{fill:#e54349;opacity:0.75;}.cls-15{fill:#006374;}.cls-16{fill:#00889d;}.cls-17{fill:#ffc8b3;}.cls-18{fill:#7da651;}.cls-19{fill:#95ca62;}.cls-20{fill:#d0f6a8;}.cls-21{fill:#5f7d3d;}.cls-22{fill:#f6f6f6;}.cls-23{fill:#c6c6c6;}.cls-24{fill:#f50d1b;}.cls-25{fill:#c00a15;}.cls-26{fill:none;}.cls-27{fill:#070e18;}.cls-28{fill:#faab8b;}.cls-29{fill:#f99b79;}.cls-30{fill:#f8dab8;}.cls-31{fill:#f2bd5b;}.cls-32{fill:#eca91b;}</style></defs><title>4_1</title><g class="cls-1"><g id="Capa_2" data-name="Capa 2"><g id="Capa_1-2" data-name="Capa 1"><path d="M56.07,6V67.51a5.87,5.87,0,0,0,2.65,4.59L83.85,86.61l.79,2.27L87,87.52a1.85,1.85,0,0,0,.78-1.71V20.19a5.87,5.87,0,0,0-2.65-4.59L58.72.36a1.88,1.88,0,0,0-1.84-.2L54.53,1.52Z"/><path class="cls-2" d="M85.51,21.5V87.12c0,1.69-1.18,2.37-2.65,1.53L66.65,79.28,56.47,73.41a5.88,5.88,0,0,1-2.66-4.6V3.19c0-1.69,1.19-2.37,2.66-1.53L82.86,16.91A5.83,5.83,0,0,1,85.51,21.5Z"/><path class="cls-3" d="M54.94,3.85v61.4a3.35,3.35,0,0,0,1.52,2.64l26.4,15.24a1,1,0,0,0,1.21,0,1.13,1.13,0,0,0,.31-.88V20.84a3.36,3.36,0,0,0-1.52-2.63L56.46,3a1.22,1.22,0,0,0-.74-.2C55.25,2.8,54.94,3.19,54.94,3.85Z"/><path class="cls-4" d="M55.41,3.65V65.06a3.35,3.35,0,0,0,1.52,2.63L83.32,82.94a1.24,1.24,0,0,0,.75.19,1.13,1.13,0,0,0,.31-.88V20.84a3.36,3.36,0,0,0-1.52-2.63L56.46,3a1.22,1.22,0,0,0-.74-.2A1.14,1.14,0,0,0,55.41,3.65Z"/><polygon class="cls-5" points="65.4 8.8 73.47 13.46 83.8 34.54 83.8 45.53 65.4 8.8"/><polygon class="cls-5" points="83.8 60.96 83.8 67.31 55.99 13.11 55.99 6.91 83.8 60.96"/><path class="cls-5" d="M83.8,69.83V82.25a1,1,0,0,1,0,.26l-.15-.08-6.94-4L56,35.87V15.15Z"/><path class="cls-6" d="M72.86,81.4l-6.4-3.7a2.7,2.7,0,0,1-1.22-2.11c0-.78.55-1.09,1.22-.71l6.4,3.7a2.72,2.72,0,0,1,1.22,2.11C74.08,81.47,73.53,81.79,72.86,81.4Z"/><path class="cls-7" d="M69.46,25.71,65.28,28.6l-4.66,3.23a11.26,11.26,0,0,1-2.38,1.25l-2.05.77-4.81,1.8L50,32.91l7.66-4.17,8.65-7.34Z"/><path class="cls-8" d="M65.28,26.11V28.6l-4.66,3.23a11.26,11.26,0,0,1-2.38,1.25l-2.05.77,4.12-2.63Z"/><polygon class="cls-9" points="27.77 44.74 28.98 44.12 30.98 43.71 31.94 43.71 30.48 44.58 27.77 44.74"/><path class="cls-10" d="M15.45,52.44l3-.89,5-3L26.85,46c1.3.57,1.07,2.64,1,4.06-2.58,2.83-6.6,5.53-9.49,5.89l-.76.19Z"/><polygon class="cls-9" points="18.33 53.25 17.51 46.69 13.15 45.1 12.53 50.57 18.33 53.25"/><path d="M12.5,96.3S14,97,14.29,97.55a2.64,2.64,0,0,1-.23,1.63A8,8,0,0,1,13,100.87a5.09,5.09,0,0,1-1.47.77s-.69,1.85-1.63,2.1a2,2,0,0,1-2.3-.95c-.46-.86.64-3.26.64-3.26Z"/><path d="M31,102.88v3.37s-.4,1.76.27,2.45,1.46.5,2.39.19,2.85-2.56,2.85-2.56a6.07,6.07,0,0,0,2-1.29,4.18,4.18,0,0,0,1-2.54,2.21,2.21,0,0,0-.91-1.68c-1-.74-1.77-.31-4.17,1.2l-1.29-1Z"/><path class="cls-11" d="M8.22,99.53a2.5,2.5,0,0,0,3.51,1A2.8,2.8,0,0,0,13,99c.62-3.59,2.84-9.15,4.74-15.28a46.9,46.9,0,0,0,1.54-4.78c1.44,1,3.14,1.48,4.86,2.35l4.19,5.45C27.06,91,28,98.06,29.83,106c2.35.75,4.33.63,5-2.4a50.27,50.27,0,0,1-.65-7.24c-.13-4.35.09-8.28-.5-11.63-.84-5.2-2.35-9.93-5.15-13.79-.36-.49-.74-1-1.15-1.45l-2.61-3.83H15.21l-2.14,4.6c-.79,2.16-1.31,4.79-.51,6.75l.49,4.17C10.18,85.44,8.88,92,8.22,99.53Z"/><path class="cls-12" d="M12.88,66.31c.41,1.47-.37,5.73-.37,5.73,3.35,2.77,9.64,4.32,13.37,2.25a5.46,5.46,0,0,0,2.67-3.39,38.37,38.37,0,0,0-2.81-12.1,12.45,12.45,0,0,0-2.51-3.92l-6.58-3.65a16.73,16.73,0,0,0-4.32-1.69L10.07,49C7,49,6.62,53.86,8.34,57.94,8.34,57.94,12.47,64.85,12.88,66.31Z"/><path class="cls-9" d="M17.3,49.54,18.36,49a2.81,2.81,0,0,0,1.43-1.92c.31-1.48.58-3.87-.34-5.51-1.41-2.54-3.09-3-5.6-1.85s-3.33,3.19-2.3,6S13.27,48,13.27,48Z"/><path d="M19.8,42.37l-1.17,2-.3,1.55-.39.67-.12,1a1.56,1.56,0,0,1-1.47,1.35,6.14,6.14,0,0,1-3.52-.91s-1.09-.59-1.72-3.18a4.38,4.38,0,0,1,1.42-4.66c.67-.45,4.26-2.56,6.39-1C21.28,40.83,19.8,42.37,19.8,42.37Z"/><path class="cls-9" d="M17.91,44.81a.54.54,0,0,0-.34.23,1.4,1.4,0,0,0-.14.39A3.37,3.37,0,0,0,17.5,47a1,1,0,0,0,.18.38.46.46,0,0,0,.36.17.49.49,0,0,0,.32-.22,1.32,1.32,0,0,0,.13-.38C18.58,46.51,18.87,44.69,17.91,44.81Z"/><path class="cls-13" d="M25.88,74.29c3.59,2.23,5.74,6.53,6.8,12.4,0,0,.35,7.54,1.52,9.61-.13-4.34.09-8.27-.5-11.62-.84-5.2-2.35-9.93-5.15-13.79A5.45,5.45,0,0,1,25.88,74.29Z"/><path class="cls-14" d="M21.54,59.48c2.81,3.07,4.31,7.94,4.34,14.81a5.46,5.46,0,0,0,2.67-3.39,38.37,38.37,0,0,0-2.81-12.1Z"/><path class="cls-13" d="M11.73,100.5A2.8,2.8,0,0,0,13,99c.62-3.59,2.84-9.15,4.74-15.28a46.9,46.9,0,0,0,1.54-4.78l-2.56-1.06a11.53,11.53,0,0,1-.51,5.89A64,64,0,0,0,11.73,100.5Z"/><path d="M68.17,70.92a4.87,4.87,0,0,1,.38,2.7c-.27,1.23-1.42,1.18-2.39,1.38-1.87.37-2.75,1.83-5.26,1.93-1.49.06-2.5-.21-2.86-1.15a1.61,1.61,0,0,1,.68-1.35s3.36-1.68,3.44-1.74a17.73,17.73,0,0,0,1.6-1.37l.47-2.77,3.69-.16Z"/><path class="cls-7" d="M63.19,70.53c2.15,1.17,5.25,2.13,5.5.57.09-.47.16-.93.24-1.4.7-4.45.94-8.68,0-12.36l1.76-7.09.49-2c-.17-5-6.09-6.92-6.48-6.79-.53,5.81-.15,2.36-1.68,15.18C62.65,60.8,63.74,66.93,63.19,70.53Z"/><path d="M76.26,77.5a3.77,3.77,0,0,1,.16,2.23,11.34,11.34,0,0,0-.55,1.18c-.24.72-.26,1.94-1.38,2.62-1.34,1-3.84.9-4.58-.22A5.8,5.8,0,0,1,71,80.7l1.37-2.3,0-2.21,3.68-.64Z"/><path class="cls-15" d="M64.66,41.5c0,5.3,2.37,7.39,4.69,9.54.53,4.28.91,9,1.74,13.24a65.36,65.36,0,0,1,1.12,13.66,4.53,4.53,0,0,0,3.63.27A2.31,2.31,0,0,0,77.19,77c.07-2,.15-3.91.18-5.75.07-3.84,0-7.14-.83-8.65l.85-19.15-.11,0C71.43,42.46,70.7,42.48,64.66,41.5Z"/><path class="cls-8" d="M75.2,62.91c1.93,4.8,1.44,10,.64,15.3A2.31,2.31,0,0,0,77.19,77c.07-2,.15-3.91.18-5.75.07-3.84,0-7.14-.83-8.65l.85-19.15-.11,0L66,43.13c1.63,1.28,2,3.63,5.3,4.76C75.53,49.37,75.49,58.84,75.2,62.91Z"/><path class="cls-7" d="M79.21,26.17l-.65,8.6L78.46,36l-.27,3.54c0,.29,0,.59,0,.88s0,.58.06.86c0,0,0,0,0,.08a3.55,3.55,0,0,1-1.72,3.29,2.72,2.72,0,0,1-.57.27c-.65.23-1.33.41-2,.58a12.34,12.34,0,0,1-8.21-2A4,4,0,0,1,64.46,42a4.7,4.7,0,0,1-.28-.9,4.38,4.38,0,0,1,0-1.49c.06-.42.13-.82.18-1.19.34-2.35,0-12,0-12,.32-2.41.77-4.21,2.79-5.64l5.22-.25A32.84,32.84,0,0,1,79.21,26.17Z"/><path class="cls-8" d="M78.28,41.28s0,0,0,.08a3.55,3.55,0,0,1-1.72,3.29,2.72,2.72,0,0,1-.57.27c-.65.23-1.33.41-2,.58a12.34,12.34,0,0,1-8.21-2A4,4,0,0,1,64.46,42a4.7,4.7,0,0,1-.28-.9,4.38,4.38,0,0,1,0-1.49,36.79,36.79,0,0,1,5.3-2.47c1.48-.36,5.77-6.84,5.77-6.84L78.46,36l-.27,3.54c0,.29,0,.59,0,.88S78.25,41,78.28,41.28Z"/><path class="cls-16" d="M71.7,19.92l2.37,1.76c1.28,3.5-1.57,5.05-3.4,7.09l-1.21-3.06-2.73.63.84-5.08Z"/><path class="cls-17" d="M68.69,26.87c2.17.27,3.86-6.34,3.86-6.34L67.9,21C67.79,23.69,67.27,26.7,68.69,26.87Z"/><polygon class="cls-18" points="35.69 54.69 24.33 48.08 24.34 51.01 35.7 57.61 35.69 54.69"/><polygon class="cls-19" points="62.51 39.2 35.69 54.69 24.33 48.08 42.06 37.85 51.15 32.6 52.66 33.48 53.97 34.24 54.99 34.83 62.51 39.2"/><polygon class="cls-20" points="58.94 39.2 51.15 34.67 27.9 48.09 35.7 52.62 58.94 39.2"/><polygon class="cls-21" points="35.69 54.69 35.7 57.61 62.52 42.13 62.51 39.2 35.69 54.69"/><path class="cls-19" d="M39.3,40.24c-1.9,1.09-1.19,3.27,1.57,4.87s6.55,2,8.44.91,1.2-3.28-1.57-4.87S41.19,39.14,39.3,40.24Z"/><polygon class="cls-22" points="35.95 41.37 47.31 47.98 51.04 45.82 51.58 45.51 52.67 44.88 41.3 38.28 40.22 38.91 39.68 39.22 35.95 41.37"/><polygon class="cls-23" points="47.31 47.98 47.32 50.9 51.04 48.75 51.59 48.44 52.67 47.81 52.67 44.88 51.59 45.51 51.04 45.82 47.31 47.98"/><polygon class="cls-24" points="40.01 39.02 51.38 45.63 51.38 48.56 51.92 48.24 51.92 45.32 40.55 38.71 40.01 39.02"/><polygon class="cls-25" points="51.38 45.63 51.38 48.56 51.92 48.24 51.92 45.32 51.38 45.63"/><polygon class="cls-24" points="36.77 40.9 48.13 47.5 48.13 50.43 48.67 50.12 48.67 47.19 37.3 40.59 36.77 40.9"/><polygon class="cls-25" points="48.13 47.5 48.13 50.43 48.67 50.12 48.67 47.19 48.13 47.5"/><path class="cls-19" d="M34.8,45.47a.7.7,0,0,0,0,1.33,2.58,2.58,0,0,0,2.3,0,.7.7,0,0,0,0-1.33A2.52,2.52,0,0,0,34.8,45.47Z"/><path class="cls-19" d="M48.84,38.55a.7.7,0,0,0,0,1.33,2.52,2.52,0,0,0,2.3,0c.64-.36.64-1,0-1.33A2.58,2.58,0,0,0,48.84,38.55Z"/><polygon class="cls-19" points="41.07 46.01 35.55 49.2 34.69 48.7 40.21 45.51 41.07 46.01"/><polygon class="cls-19" points="41.8 46.91 37.44 49.43 36.77 49.04 41.12 46.52 41.8 46.91"/><path class="cls-9" d="M26.9,45.86a3.66,3.66,0,0,1,.86-1.12l1.92-.39,1.86.54c.53.2.42.76,0,.74l-1.79-.09c-.46.89-1.56,1-2.58,1C26.75,46.48,26.72,46.27,26.9,45.86Z"/><path class="cls-9" d="M39.71,54.62l1.45-1.89.45-1.23.74-.71L43.78,50c.54-.29.94.09.31.55l-.55.5.08.63,1.38.52,1.25-.65,0,.67-.49.83-.27.67-.75.53-1.11.43-1.33.74-2.17,1.1Z"/><path class="cls-12" d="M20.41,53.89l12,2.36,8.76-3.52c1.19.64,1.3,1.84,1,3.23-3,2.61-7.12,4.87-10,5-4.1.73-7.59.32-12.42-.41C16.41,60.35,16.87,53.84,20.41,53.89Z"/><path class="cls-9" d="M64.66,43.83c.71-.14.14-2.41-.56-2.33l-.49.21a17.49,17.49,0,0,0-2.2-.6l-1.92.51-1,.52-.45.13c-.58.09-.52.58,0,.71l.84,0,1.16-.44.5.24-1.94,1.48-1.46,1,.6.15.44.29.58.25a8.29,8.29,0,0,0,2.47-.39l2.31-1.14Z"/><path class="cls-7" d="M64.1,41.5,72.92,36l2.91-7.25s1.24-3.09,3.38-2.61c.83.72,1.53,2.7.92,5a34.09,34.09,0,0,1-3.93,8c-2.67,2.25-6.42,3.42-11.54,4.64A2.6,2.6,0,0,0,64.1,41.5Z"/><path class="cls-9" d="M48.61,33.07a5.06,5.06,0,0,0-2.68,2.55l1.73-1a1.19,1.19,0,0,1,0,.91,1.34,1.34,0,0,0,0,1s.46.39.56-.36a14.62,14.62,0,0,1,1.16-2.51l1-.58A2.86,2.86,0,0,0,48.61,33.07Z"/><path class="cls-26" d="M82.86,18.21,56.46,3a1.22,1.22,0,0,0-.74-.2,1.14,1.14,0,0,0-.31.88V23.89L12.53,30.67,0,49.43l2.46,55.39,31.86,8.49,13-7,1.8-10,9-27.91,10.78,6.23,14.4,8.32a1.24,1.24,0,0,0,.75.19,1.13,1.13,0,0,0,.31-.88V20.84A3.36,3.36,0,0,0,82.86,18.21Z"/><path class="cls-27" d="M73.71,18.32a7,7,0,0,0-.64,2,12.51,12.51,0,0,1-.38-1.52A8.82,8.82,0,0,0,73.71,18.32Z"/><path class="cls-28" d="M73.52,21.26l0,0-.08.12A10.37,10.37,0,0,1,72,23.28a3.3,3.3,0,0,1-2.56,1.37c-.08,0-.83-.06-.9-1.79h0a1.43,1.43,0,0,1,0-.29V22.5h0s0,0,0,0l0,0a0,0,0,0,0,0,0h0v0c0-.11.07-.21.1-.32s.53-.45,1.06-1c.78-.75,1.27-2.27,2.83-2.23h0l.27,0h.08s0,.1,0,.22v0s0,.06,0,.09a7.88,7.88,0,0,0,.24.91s0,0,0,0,0,0,0,0v0A5.21,5.21,0,0,0,73.52,21.26Z"/><path class="cls-28" d="M73.42,21.42A10.37,10.37,0,0,1,72,23.28C72.6,22.54,73.18,21.74,73.42,21.42Z"/><path class="cls-29" d="M72,20.36s0,.14-.12.29h0v0A4.22,4.22,0,0,1,71,22a4.36,4.36,0,0,1-2.44.88h0a1.43,1.43,0,0,1,0-.29V22.5l0,0h0a.07.07,0,0,0,.06,0h0a7.71,7.71,0,0,0,2.08-.83A3.55,3.55,0,0,0,72,20.36Z"/><path class="cls-30" d="M68.57,22.85h0a1.43,1.43,0,0,1,0-.29A2.71,2.71,0,0,0,68.57,22.85Z"/><path class="cls-27" d="M66.46,15.48a5.43,5.43,0,0,0,.32,1.84c.27.31.21-2.23.21-2.23Z"/><path class="cls-28" d="M74.25,16.41a1.6,1.6,0,0,0-.16.23,7.31,7.31,0,0,0-.55.9,7.15,7.15,0,0,0-.41,1.07h0a.84.84,0,0,1-.33.48h0l0,0h0a10.93,10.93,0,0,1-.62,1.19c-.06.1-.13.19-.2.29h0v0a3.05,3.05,0,0,1-1,1c-.86.4-1.8.93-2.15.83h0a0,0,0,0,1,0,0h-.08l0,0h0a0,0,0,0,0,0,0l-.06,0,0,0h0s0,0,0,0h0l0,0a2.26,2.26,0,0,1-.47-.52.14.14,0,0,0,0-.05v0a6.5,6.5,0,0,1-1-3,3.89,3.89,0,0,0-.27-1.28,3.67,3.67,0,0,1,0-.53h0a6,6,0,0,1,.13-1.21c0-.1,0-.22.07-.33s.05-.21.09-.32a3.51,3.51,0,0,1,3.38-2.76,3.33,3.33,0,0,1,2.27.61A4.7,4.7,0,0,1,74.25,16.41Z"/><path class="cls-27" d="M66.46,15.48a.59.59,0,0,1,.61.08c.17.12.31.3.49.42a2,2,0,0,0,1.7.11c.63-.18,1.49-.63,2.27-.27a.76.76,0,0,1,.27.44c.08.48,0,1,.11,1.46a3.42,3.42,0,0,1,.08.71l.64-.39.81.92a16.09,16.09,0,0,0,1-2.56,4.14,4.14,0,0,0-1.22-3.32,4,4,0,0,0-3-1,3.6,3.6,0,0,0-3.75,3C66.5,15.15,66.48,15.3,66.46,15.48Z"/><path class="cls-28" d="M72.25,18.63a6.56,6.56,0,0,0,.09-.76c0-.34.14-.92.78-.87.89.07.19,2-.11,2.2s-.76-.57-.76-.57Z"/><path class="cls-31" d="M66,15.51c1.3.41,3.08,1.2,4.46,1.11h0a3.46,3.46,0,0,0,.64-.13,7,7,0,0,0,1.82-.95.68.68,0,0,1,.46-.16.91.91,0,0,1,.25.15,3,3,0,0,1,.51,1.58s.25,0,.32-.17a11.67,11.67,0,0,0,0-2.17,4.71,4.71,0,0,0,0-.53s0,0,0-.06a4,4,0,0,0-2.86-3.46l-.1,0a4.66,4.66,0,0,0-2.49,0c-1.91.56-2.55,3-2.69,3.57a2.53,2.53,0,0,1-.35.62C65.77,15.1,65.63,15.4,66,15.51Z"/><path class="cls-32" d="M70.46,16.62a3.46,3.46,0,0,0,.64-.13,7,7,0,0,0,1.82-.95.68.68,0,0,1,.46-.16.91.91,0,0,1,.25.15,3,3,0,0,1,.51,1.58s.25,0,.32-.17a11.67,11.67,0,0,0,0-2.17,4.71,4.71,0,0,0,0-.53s0,0,0-.06a4,4,0,0,0-2.86-3.46,2.5,2.5,0,0,1,.81,1.07,4,4,0,0,1-.68,3.55A3.7,3.7,0,0,1,70.46,16.62Z"/></g></g></g></svg>