<svg xmlns="http://www.w3.org/2000/svg" viewBox="0 0 138.88 239.72"><defs><style>.cls-1{fill:#f2f2f2;}.cls-2{fill:#ccc;}.cls-3{fill:#e6e6e6;}.cls-4{fill:#a6a6a6;}.cls-5{isolation:isolate;}.cls-6{fill:#595959;}.cls-7{fill:#bfbfbf;}.cls-8{fill:#333;}.cls-9{fill:#d9d9d9;}.cls-10{fill:#7981f2;}.cls-11{fill:#2a33b8;}.cls-12{fill:#4d4d4d;}.cls-13{fill:#737373;}.cls-14{fill:#1f2125;}.cls-15{fill:#733118;}.cls-16{fill:#ab512e;}.cls-17{fill:#8c3c1d;}.cls-18{fill:#fff;}.cls-19{fill:#ffb78c;}</style></defs><title>1</title><g id="Capa_2" data-name="Capa 2"><g id="Capa_1-2" data-name="Capa 1"><path class="cls-1" d="M38.81,217.18.51,195.05c-.76-.44-.66-1.21.22-1.71l2.7-1.57a3.32,3.32,0,0,1,3-.12l38.3,22.13c.76.44.67,1.21-.21,1.71l-2.71,1.57A3.32,3.32,0,0,1,38.81,217.18Z"/><path class="cls-1" d="M138.48,202.22l-45.07-26,7.32-4.23c1.17-.67,1.3-1.69.29-2.27L59,145.56a4.39,4.39,0,0,0-3.95.17l-7.25,4.18L5,125.24a2.58,2.58,0,0,0-2.32.09l-1.5.87c-.69.39-.76,1-.17,1.34l42.78,24.67-12.75,7.37c-1.17.67-1.3,1.69-.29,2.28l42,24.15a4.39,4.39,0,0,0,3.95-.16l12.69-7.33,45.06,26a2.55,2.55,0,0,0,2.32-.09l1.5-.87C139,203.16,139.07,202.56,138.48,202.22Z"/><path class="cls-2" d="M96.25,165.47l-.4,2-1,2-2.37,1.73-1.69,1.24-7.7,4.3-9.83,6.19L35.69,161.22h0a.52.52,0,0,1-.15-.38,1.44,1.44,0,0,1,.66-1.14l18.13-10.5.81-.47a6.51,6.51,0,0,0,2.51-2.84,4.6,4.6,0,0,0,.41-3.32L47.57,112.33l1.25-1.2,37.54,21.7-.14,2.83,4.32,11.6,3.37,10,2.15,5.71Z"/><path class="cls-3" d="M92.45,171.2l-1.69,1.24-7.7,4.3-9.83,6.19L35.69,161.22h0a.52.52,0,0,1-.15-.38,1.44,1.44,0,0,1,.66-1.14l18.13-10.5Z"/><path class="cls-4" d="M92.65,172l-18.91,11c-.37.21-.66,0-.66-.37h0a1.44,1.44,0,0,1,.66-1.14l18.94-11a6.51,6.51,0,0,0,2.51-2.84,4.6,4.6,0,0,0,.41-3.32L85.11,134l1.25-1.2,10.49,30.23a6.52,6.52,0,0,1-.53,4.63A9.36,9.36,0,0,1,92.65,172Z"/><g class="cls-5"><path class="cls-6" d="M135.35,74.64,6.77.4A2.07,2.07,0,0,0,4.68.2L2.1,1.7a2,2,0,0,1,2.09.2L132.78,76.14a6.43,6.43,0,0,1,2.92,5.07l-.28,98.7a2,2,0,0,1-.85,1.88l2.57-1.49a2.06,2.06,0,0,0,.86-1.89l.28-98.7A6.46,6.46,0,0,0,135.35,74.64Z"/><path class="cls-7" d="M138.05,161.11l-.05,17.3a2.06,2.06,0,0,1-.86,1.89l-2.57,1.5a2.05,2.05,0,0,0,.85-1.89l.06-17.31Z"/><path class="cls-8" d="M135.7,81.21l-.28,98.7c0,1.86-1.32,2.61-2.94,1.68L3.9,107.35A6.42,6.42,0,0,1,1,102.28L1.24,3.57c0-1.85,1.33-2.61,3-1.67L132.78,76.14A6.43,6.43,0,0,1,135.7,81.21Z"/></g><path class="cls-9" d="M135.48,162.61l-.06,17.3c0,1.86-1.32,2.61-2.94,1.68L3.9,107.35A6.42,6.42,0,0,1,1,102.28L1,85Z"/><polygon class="cls-10" points="132.16 154.91 5.64 81.66 5.64 8.46 132.16 81.71 132.16 154.91"/><polygon class="cls-11" points="39.45 28.03 39.45 33.61 6.9 14.82 6.9 9.18 39.45 28.03"/><polygon class="cls-11" points="80.15 51.59 80.15 57.1 47.59 38.31 47.59 32.74 80.15 51.59"/><polygon class="cls-11" points="120.83 75.15 120.83 80.59 88.29 61.81 88.29 56.3 120.83 75.15"/><polygon class="cls-11" points="132.16 81.7 132.16 87.15 128.97 85.3 128.97 79.85 132.16 81.7"/><polygon class="cls-11" points="39.45 80.31 6.9 61.51 6.9 24.16 39.45 42.95 39.45 80.31"/><polygon class="cls-11" points="80.14 103.8 47.59 85 47.59 47.65 80.14 66.44 80.14 103.8"/><polygon class="cls-11" points="132.16 96.48 132.16 133.84 128.97 131.99 128.97 94.63 132.16 96.48"/><polygon class="cls-11" points="39.45 89.65 39.45 101.24 6.9 82.39 6.9 70.85 39.45 89.65"/><polygon class="cls-11" points="80.15 113.14 80.15 124.8 47.59 105.94 47.59 94.34 80.15 113.14"/><polygon class="cls-11" points="120.83 136.63 120.83 148.35 88.29 129.5 88.29 117.83 120.83 136.63"/><polygon class="cls-11" points="132.16 143.17 132.16 154.91 128.97 153.06 128.97 141.34 132.16 143.17"/><path class="cls-1" d="M78.5,239.53l-26.33-15.2c-.5-.3-.44-.81.14-1.14l25.87-14.94a2.18,2.18,0,0,1,2-.08l26.33,15.2c.51.29.44.8-.14,1.14L80.47,239.44A2.19,2.19,0,0,1,78.5,239.53Z"/><polygon class="cls-1" points="79.48 224.98 54.32 210.45 79.33 196.01 104.49 210.54 79.48 224.98"/><polygon class="cls-3" points="79.47 223.4 57.06 210.46 79.33 197.6 101.75 210.54 79.47 223.4"/><polygon class="cls-7" points="79.48 237.75 79.48 224.98 104.49 210.54 104.49 223.31 79.48 237.75"/><polygon class="cls-3" points="54.32 210.45 54.32 223.22 79.48 237.75 79.48 224.98 54.32 210.45"/><g class="cls-5"><polygon class="cls-12" points="62.52 213.61 60.75 212.59 60.45 208.5 59.82 199.75 61.58 200.6 62.09 207.55 62.52 213.61"/><polygon class="cls-13" points="61.58 200.6 59.82 199.75 81.77 187.07 83.53 187.93 61.58 200.6"/><polygon class="cls-14" points="85.43 214.13 75.92 219.62 74.43 220.48 74.3 220.56 74.29 220.4 73.34 219.85 71.57 218.84 70.64 218.3 68.87 217.28 67.93 216.74 66.16 215.71 65.24 215.18 63.45 214.15 62.52 213.61 62.09 207.55 61.58 200.6 83.54 187.92 83.62 189.18 83.76 190.97 83.85 192.22 83.85 192.23 83.98 194.02 84.06 195.28 84.2 197.07 84.29 198.32 84.42 200.11 84.45 200.55 84.5 201.37 84.64 203.17 85.43 214.13"/></g><g class="cls-5"><polygon class="cls-12" points="65.24 215.18 63.45 214.15 62.94 207.06 62.52 201.36 64.3 202.21 64.57 206.12 65.24 215.18"/><polygon class="cls-13" points="64.29 202.21 62.53 201.36 84.48 188.69 86.24 189.54 64.29 202.21"/><polygon class="cls-14" points="88.15 215.73 77.18 222.07 76.06 221.43 74.43 220.48 74.3 220.56 74.29 220.4 73.34 219.85 71.57 218.84 70.64 218.3 68.87 217.28 67.93 216.74 66.16 215.71 65.24 215.18 64.57 206.12 64.3 202.21 83.76 190.97 86.24 189.53 86.33 190.8 86.46 192.59 86.55 193.83 86.68 195.64 86.78 196.88 86.9 198.68 86.99 199.93 86.99 199.94 87.13 201.72 87.13 201.73 87.16 202.11 88.15 215.73"/></g><g class="cls-5"><polygon class="cls-12" points="67.93 216.74 66.16 215.71 65.43 205.63 65.24 202.97 67 203.82 67.06 204.69 67.93 216.74"/><polygon class="cls-13" points="67 203.82 65.24 202.97 87.19 190.29 88.95 191.15 67 203.82"/><polygon class="cls-14" points="90.81 216.85 79.48 223.4 77.18 222.07 76.06 221.43 74.43 220.48 74.3 220.56 74.29 220.4 73.34 219.85 71.57 218.84 70.64 218.3 68.87 217.28 67.93 216.74 67.06 204.69 67 203.82 83.98 194.02 88.95 191.15 89.04 192.4 89.18 194.19 89.27 195.44 89.27 195.45 89.39 197.24 89.48 198.49 89.62 200.29 89.86 203.67 90.81 216.85"/></g><g class="cls-5"><polygon class="cls-12" points="70.64 218.3 68.87 217.28 67.94 204.57 69.71 205.43 70.64 218.3"/><polygon class="cls-13" points="69.71 205.43 67.95 204.58 89.9 191.91 91.66 192.76 69.71 205.43"/><polygon class="cls-14" points="93.31 215.41 90.81 216.85 79.48 223.4 77.18 222.07 76.06 221.43 74.43 220.48 74.3 220.56 74.29 220.4 73.34 219.85 71.57 218.84 70.64 218.3 69.71 205.43 81.31 198.74 84.2 197.07 86.68 195.64 89.18 194.19 91.67 192.76 91.75 194.01 91.89 195.8 91.98 197.05 92.11 198.86 92.57 205.24 93.31 215.41"/></g><g class="cls-5"><polygon class="cls-12" points="73.34 219.85 71.57 218.84 70.66 206.18 72.42 207.04 73.34 219.85"/><polygon class="cls-13" points="72.42 207.04 70.66 206.19 92.61 193.51 94.37 194.37 72.42 207.04"/><polygon class="cls-14" points="95.8 213.97 93.31 215.41 90.81 216.85 79.48 223.4 77.18 222.07 76.06 221.43 74.43 220.48 74.3 220.56 74.29 220.4 73.34 219.85 72.42 207.04 84.05 200.33 84.42 200.11 86.9 198.68 89.39 197.24 91.89 195.8 94.37 194.37 94.46 195.62 94.59 197.41 94.59 197.42 95.27 206.8 95.8 213.97"/></g><g class="cls-5"><polygon class="cls-12" points="76.06 221.43 74.43 220.48 74.3 220.56 74.29 220.4 73.37 207.8 75.13 208.66 75.92 219.62 76.06 221.43"/><polygon class="cls-13" points="75.13 208.65 73.36 207.8 95.32 195.13 97.08 195.98 75.13 208.65"/><polygon class="cls-14" points="98.28 212.53 95.8 213.97 93.31 215.41 90.81 216.85 79.48 223.4 77.18 222.07 76.06 221.43 75.92 219.62 75.13 208.66 84.64 203.17 86.82 201.91 87.13 201.73 89.34 200.45 89.62 200.29 92.11 198.86 94.59 197.42 97.08 195.98 97.97 208.36 98.28 212.53"/></g><g class="cls-5"><polygon class="cls-15" points="5.49 197.56 9.22 195.91 13.17 176.02 9.43 177.67 5.49 197.56"/><polygon class="cls-15" points="9.84 175.61 13.58 173.96 17.63 153.52 13.89 155.17 9.84 175.61"/><polygon class="cls-15" points="14.3 153.11 18.04 151.46 22.09 131.02 18.35 132.67 14.3 153.11"/><polygon class="cls-16" points="40.1 193.03 43.84 191.39 13.58 173.96 9.84 175.61 40.1 193.03"/><polygon class="cls-15" points="18.76 130.61 22.5 128.96 26.55 108.52 22.81 110.17 18.76 130.61"/><polygon class="cls-16" points="44.56 170.53 48.3 168.89 18.04 151.46 14.3 153.11 44.56 170.53"/><polygon class="cls-16" points="27.19 88.1 30.92 86.45 27.55 84.45 23.81 86.1 27.19 88.1"/><polygon class="cls-15" points="23.22 108.12 26.95 106.47 30.92 86.45 27.19 88.1 23.22 108.12"/><polygon class="cls-16" points="49.02 148.04 52.76 146.39 22.5 128.96 18.76 130.61 49.02 148.04"/><polygon class="cls-16" points="53.48 125.54 57.22 123.89 26.95 106.47 23.22 108.12 53.48 125.54"/><polygon class="cls-15" points="39.13 216.99 42.86 215.34 64.56 105.88 60.82 107.53 39.13 216.99"/><path class="cls-17" d="M2.11,195.56l3.38,2,3.94-19.89L39.7,195.09l-4,19.89,3.38,2L60.82,107.53l-3.37-2-4,20L23.22,108.12l4-20-3.38-2ZM49,148,18.76,130.61l4-20.44L53.08,127.6Zm-4.46,22.5L14.3,153.11l4.05-20.44,30.27,17.42ZM9.84,175.61l4.05-20.44,30.27,17.42-4,20.44Z"/><polygon class="cls-16" points="60.82 107.53 64.56 105.88 61.19 103.88 57.45 105.53 60.82 107.53"/></g><g class="cls-5"><polygon class="cls-7" points="75.59 71.38 77.84 69.88 80.14 103.8 77.89 105.31 75.59 71.38"/><polygon class="cls-18" points="44.76 53.58 47.01 52.07 77.84 69.88 75.59 71.38 44.76 53.58"/><polygon class="cls-9" points="75.59 71.38 77.89 105.31 47.06 87.51 44.76 53.58 75.59 71.38"/></g><path class="cls-19" d="M59.26,71.27c0-.13-.06-.28-.19-.33a.39.39,0,0,0-.33.1,2.61,2.61,0,0,0-.87,1.1,9.19,9.19,0,0,1,.2-1.74c.15-.57.3-1.15.43-1.72a6.06,6.06,0,0,0,.13-2.74,1,1,0,0,0-.59-.81.59.59,0,0,0-.72.64c-.21,0-.46-.08-.6.08a.56.56,0,0,0-.09.36c0,.56,0,1.12,0,1.67-.15-.19-.4-.37-.62-.27s-.25.4-.23.64a21.32,21.32,0,0,1,.1,3.29A7.51,7.51,0,0,1,55.55,73a16.4,16.4,0,0,1-2.07,3.93,14.18,14.18,0,0,1-3.8,2.17c-2.22.94-4.54,1.63-6.84,2.38-1.29.42-2.58.85-3.84,1.36a1.64,1.64,0,0,1-1,0,18.81,18.81,0,0,1-5.24-2,11.83,11.83,0,0,1-2-1.49c-.86-.79-1.41-1.92-2.4-2.53-1.15-.71-2.59-1.17-3.68-.05a3,3,0,0,0-.25,3.45,8.45,8.45,0,0,0,2.58,2.61c3.54,2.65,7.34,5.18,11.67,6.08a.78.78,0,0,0,.4,0,.75.75,0,0,0,.47-.48c.11.13.22.26.34.38a.67.67,0,0,0,.34.22.77.77,0,0,0,.42-.1c1.44-.69,2.88-1.38,4.29-2.14a49.08,49.08,0,0,0,5-3.16c.81-.58,6-4.29,6.8-4.78a8.77,8.77,0,0,0,.89-.61,1.48,1.48,0,0,0,.27-.29,1.34,1.34,0,0,0,.13-.4c.11-.54.27-1.08.33-1.63a10.37,10.37,0,0,1,.47-2.77c.12-.3.28-.58.39-.89A2.37,2.37,0,0,0,59.26,71.27Z"/><path class="cls-12" d="M30.83,78.56a47.31,47.31,0,0,0,6.06,3.89.19.19,0,0,1,.13.3A9.7,9.7,0,0,1,34,87a3.29,3.29,0,0,1-1.51.68,1.51,1.51,0,0,1-.76-.07c-.2-.1-.23-.24-.32-.45a13.25,13.25,0,0,0-.6-1.19,14.36,14.36,0,0,0-1.49-2.14,36.89,36.89,0,0,1-3-3.6,3.82,3.82,0,0,1-.61-1.51,2.33,2.33,0,0,1,.2-1.35,2.48,2.48,0,0,0,.2-1.22.24.24,0,0,1,0-.16s.14,0,.22,0a7.59,7.59,0,0,1,2.41.88A14.83,14.83,0,0,1,30.18,78C30.39,78.21,30.61,78.39,30.83,78.56Z"/><path class="cls-14" d="M13.41,179.31a2.43,2.43,0,0,0,.94,2.07,2.27,2.27,0,0,0,1.15.27,5.8,5.8,0,0,0,2.15-.38c.74-.28,1.42-.72,2.14-1,3.1-1.32,6.76-.26,10-1.23.76-.24,1.6-.71,1.68-1.51a1.85,1.85,0,0,0-.51-1.32,5.35,5.35,0,0,0-2.62-1.57,18.41,18.41,0,0,0-3.06-.49c-2.06-.24-4.12-.56-6.2-.65a8.85,8.85,0,0,0-3.79.47c-.48.19-.84.36-1,.86-.21.67-.43,1.35-.59,2A9.44,9.44,0,0,0,13.41,179.31Z"/><path class="cls-7" d="M23.7,112.58a15.14,15.14,0,0,0,0-5.07c-.14-.69-.33-1.91-1-2.21a5.33,5.33,0,0,0-2.62-.38,9,9,0,0,0-3,.93,12.18,12.18,0,0,0-4.25,3.42,10.85,10.85,0,0,0-2.17,8.51,42.29,42.29,0,0,0,1.24,4.3,13.63,13.63,0,0,1,.41,4.27c-.06,1.82-.34,3.64-.54,5.45a92.16,92.16,0,0,0-.47,10.37c0,1.76,0,3.52.08,5.28a26,26,0,0,1-.76,5.26c-.66,3.69.18,7.21,1.08,10.77.94,3.78,1.56,7.62,2.26,11.45a1.48,1.48,0,0,0,.2.59,1.2,1.2,0,0,0,.53.35A5.43,5.43,0,0,0,18,176a16.26,16.26,0,0,0,3.13-1.19A68.68,68.68,0,0,1,19.59,162c-.11-2.61-.12-5.23-.13-7.85,0-1.31,0-2.61,0-3.92a13.37,13.37,0,0,1,0-1.79l0-.22c.1-.5.27-1,.37-1.49a2.24,2.24,0,0,0-.38-2l0,0a16.51,16.51,0,0,0,1.8-.86.83.83,0,0,0,.23-.19.67.67,0,0,0,.1-.28,29.18,29.18,0,0,0,.51-8.13c-.1-1.28-.41-2.51-.53-3.79a27,27,0,0,1,0-4.22C21.81,122.28,23.05,117.47,23.7,112.58Z"/><path class="cls-14" d="M38.44,180.13c-.43-1-2.27-1.25-3.09-1.51a33.4,33.4,0,0,0-3.24-.82,40.44,40.44,0,0,0-6.67-.76,11.31,11.31,0,0,0-4,.38,1.83,1.83,0,0,0-1.16.78,10,10,0,0,0-.46,1.53,13.52,13.52,0,0,0-.5,2.25,4,4,0,0,0,.09,1.73,2.8,2.8,0,0,0,2.62,1.81,11.65,11.65,0,0,0,2.09-.39,19.49,19.49,0,0,1,4.64.07,21.56,21.56,0,0,0,3.41-.11,12.05,12.05,0,0,0,3.34-.57,4.64,4.64,0,0,0,3-3.89A.93.93,0,0,0,38.44,180.13Z"/><path class="cls-1" d="M33.14,107.37c-.81,1.24-2.52,1.47-4,1.32a16.75,16.75,0,0,1-7.82-3.16,6.08,6.08,0,0,0-2.11-1.13c-2.28-.52-3.11,1.75-4,3.3a24.07,24.07,0,0,0-3,7,13.7,13.7,0,0,0,.93,8.42A41.38,41.38,0,0,1,15,126.82c.79,2.37.46,5,.16,7.42a78.22,78.22,0,0,0-.7,13.84,23.06,23.06,0,0,0,.18,3.42l.36,3.57a45.93,45.93,0,0,0,1.63,8.72c.75,2.5,1.75,4.92,2.3,7.47s.66,5.41,1,8.12a.67.67,0,0,0,.12.39.71.71,0,0,0,.4.21,7.29,7.29,0,0,0,5.35-.76A2.16,2.16,0,0,0,27,177.64a2.3,2.3,0,0,0-.14-.81,65.7,65.7,0,0,1-1.94-23,17.81,17.81,0,0,1,1.54-5c.69-1.75,1.35-3.52,2-5.31a59.66,59.66,0,0,0,2.68-11c.49-3.75.5-7.56,1-11.32.52-4.1,1.61-8.17,1.53-12.3A2,2,0,0,0,33.14,107.37Z"/><path class="cls-14" d="M14.78,92.13c1,3.41,2.77,6.82,2.09,10.3A14.51,14.51,0,0,1,14,108a1.22,1.22,0,0,0-.27.53,1.16,1.16,0,0,0,.15.62A11.38,11.38,0,0,0,20,114.52,25.77,25.77,0,0,0,28.27,116a9.36,9.36,0,0,0,4.76-.68,143.13,143.13,0,0,0,1.6-17.05A9.59,9.59,0,0,1,35,95.32c.52-1.38,1.73-2.52,1.88-4a5.62,5.62,0,0,0-1.52-3.78,97.33,97.33,0,0,0-11-11.65,24.31,24.31,0,0,0-3.63-3,2,2,0,0,0-2.35.08,4.78,4.78,0,0,0-1.24,1.37,16.67,16.67,0,0,0-1.48,3l-.06.14A22.78,22.78,0,0,0,14.78,92.13Z"/><path class="cls-19" d="M17.79,73.17a1.42,1.42,0,0,0,.12,1.16,1.8,1.8,0,0,0,1.2.52,9,9,0,0,1,5.24,2.94,10.6,10.6,0,0,0,1.53,1.74,1.53,1.53,0,0,0,1.07.36c1-.14.53-1.07.54-1.69a18.83,18.83,0,0,1,.37-2.67c.28-1.78.65-3.54,1.08-5.29a7.54,7.54,0,0,1-2.07-1c-1-.61-2-1.21-3-1.91a8.8,8.8,0,0,0-1.72-1.13,4.83,4.83,0,0,0-2.06-.33c-.59,0-1.19-.08-1.44.59a2.53,2.53,0,0,0-.1,1,19.26,19.26,0,0,1-.24,3.64,15,15,0,0,1-.47,1.78Z"/><path class="cls-19" d="M33.66,62.17a1.61,1.61,0,0,1,0,.87,5,5,0,0,0-.23.53,1.23,1.23,0,0,0,.22.84L35,66.84c-.38.52-1.21.52-1.62,1a1.94,1.94,0,0,0-.34.91l-.72,4c-1.32.31-2.65.55-4,.73a1.94,1.94,0,0,1-1,0,1.83,1.83,0,0,1-.64-.51,9.13,9.13,0,0,1-1.18-1.69,1.66,1.66,0,0,0-.58-.72,1.66,1.66,0,0,0-.83-.09,8.11,8.11,0,0,1-7.55-4.41A7.66,7.66,0,0,1,18,57.52,9.68,9.68,0,0,1,24.25,55a11.89,11.89,0,0,1,4.87.69,9.44,9.44,0,0,1,2.21,1.19A4.17,4.17,0,0,1,32.7,59,19.39,19.39,0,0,1,33.66,62.17Z"/><path class="cls-15" d="M25.41,65.48c-1,.54-.1,2,.24,2.72a11.2,11.2,0,0,1,.92,2.5,4.36,4.36,0,0,1,0,2.24,2.69,2.69,0,0,1-1.13,1.16,6.4,6.4,0,0,1-1.73.77,10.16,10.16,0,0,1-11.35-4.11,3.78,3.78,0,0,1-.91-2.25,17.06,17.06,0,0,1,.74-3.06A20.19,20.19,0,0,1,15,59.09a12.41,12.41,0,0,1,5.3-4.41c3.16-1.3,6.93-1.58,9.79.57a4.16,4.16,0,0,1,1.3,1.44c.74,1.48-.12,3.94-.79,5.32a5.46,5.46,0,0,1-3.88,3.18A3.84,3.84,0,0,0,25.41,65.48Z"/><path class="cls-19" d="M65.45,72.69a.41.41,0,0,0-.19-.22.18.18,0,0,0-.25.09,11.46,11.46,0,0,0-.13-3.36.73.73,0,0,0-.15-.41.32.32,0,0,0-.39-.11c-.11.06-.16.21-.28.26s-.2,0-.3,0c-.36,0-.62.34-.81.66a41.3,41.3,0,0,0-3.68,8.66,9.29,9.29,0,0,0-.37,2.34,1.87,1.87,0,0,1,0,.53,1.54,1.54,0,0,1-.15.35c-.17.34-9.59,10-10.41,10.52l-.35.23c-1.38-.67-2.9-1.08-4.3-1.72-2.74-1.26-4.92-3.44-7.29-5.31a17,17,0,0,0-4.71-2.78,8.25,8.25,0,0,0-2.55-.55,1.8,1.8,0,0,0-1.37.69A7.09,7.09,0,0,0,26,84.92a4.48,4.48,0,0,0-.27,3.29,7.06,7.06,0,0,0,1.82,2.69,17.16,17.16,0,0,0,3.64,2.47,71.13,71.13,0,0,0,15.62,6.35,4.2,4.2,0,0,0,1.89.21c2.27-.43,10.33-11.59,12.86-15a10.48,10.48,0,0,0,2.46-3.57c.27-.68.47-1.38.67-2.08.29-1.07.58-2.15.85-3.23a7.27,7.27,0,0,0,.28-1.73A3.34,3.34,0,0,0,65.45,72.69Z"/><path class="cls-12" d="M35.69,95.57a25.73,25.73,0,0,0,3.15-3.76c.65-1,1.8-2.8,1.18-4a1.43,1.43,0,0,0-.35-.42,32.13,32.13,0,0,0-7.91-5.57,9.4,9.4,0,0,0-1.75-.7,7.32,7.32,0,0,0-3.42.06,3.61,3.61,0,0,0-1.1.39C23.42,82.72,23.41,86,24,88a10.17,10.17,0,0,0,4.45,5.43,19,19,0,0,0,6.72,2.36.45.45,0,0,0,.23,0A.54.54,0,0,0,35.69,95.57Z"/></g></g></svg>