<svg xmlns="http://www.w3.org/2000/svg" xmlns:xlink="http://www.w3.org/1999/xlink" viewBox="0 0 97.75 102.92"><defs><style>.cls-1{fill:none;}.cls-2{isolation:isolate;}.cls-3{fill:#2f3361;}.cls-4{fill:#3d4180;}.cls-5{fill:#191b45;}.cls-6{fill:#e4eef7;}.cls-7{fill:#db571a;}.cls-8{fill:#c8d9e8;}.cls-9{fill:#f5b28a;}.cls-10{fill:#d3e3f0;}.cls-11{fill:#c24911;}.cls-12{clip-path:url(#clip-path);}.cls-13{fill:#fff;}.cls-14{fill:#232844;}.cls-15{fill:#e35d20;}.cls-16{fill:#36c1ff;}.cls-17{fill:#96a7d9;}.cls-18{fill:#24222e;}.cls-19{fill:#d8e0fb;}.cls-20{fill:#f99b79;}.cls-21{fill:#202842;}.cls-22{fill:#ebc89f;}.cls-23{fill:#070e18;}.cls-24{fill:#faab8b;}.cls-25{fill:#3b3e53;}.cls-26{fill:#9da0bf;opacity:0.18;}.cls-26,.cls-33{mix-blend-mode:color-burn;}.cls-27{fill:#f8dab8;}.cls-28{fill:#354067;}.cls-29{fill:#2b3659;}.cls-30{fill:#f2bd5b;}.cls-31{fill:#eca91b;}.cls-32{fill:#fbe8c5;}.cls-33{fill:#002bb4;opacity:0.15;}.cls-34{fill:#8f8f8f;opacity:0.25;mix-blend-mode:color-dodge;}</style><clipPath id="clip-path" transform="translate(0 -4.63)"><path class="cls-1" d="M33.21,49.06a2.58,2.58,0,0,0,0,.79,2.82,2.82,0,0,0,.6,1.45,1.94,1.94,0,0,0,.59.52L85.43,81.31a1.42,1.42,0,0,0,.61.2,1.2,1.2,0,0,0,.81-.25,1.67,1.67,0,0,0,.52-.93l1.2-5.62.3-1.37L96.59,37.2a2.61,2.61,0,0,0,0-.79A2.89,2.89,0,0,0,96,35a2.07,2.07,0,0,0-.59-.52L44.37,4.94a1.51,1.51,0,0,0-.61-.2A1.24,1.24,0,0,0,43,5a1.54,1.54,0,0,0-.43.6c0,.11-7.92-5.7-8-5.59L33.32,7.12l1.51,31.33v3l-.4,1.86Z"/></clipPath></defs><title>3</title><g class="cls-2"><g id="Capa_2" data-name="Capa 2"><g id="Capa_1-2" data-name="Capa 1"><path class="cls-3" d="M84.51,84.09l-3.43,2-3,1.76L51.23,103.3a2.29,2.29,0,0,1-.69.26,3.45,3.45,0,0,1-1.5,0,2.46,2.46,0,0,1-.7-.26l-13-7.52.48-.28L14.1,83l-.48.28L.6,75.73a1.21,1.21,0,0,1-.41-.34A.88.88,0,0,1,0,74.9a.5.5,0,0,1,0-.17,1.19,1.19,0,0,1,.58-.67L33.87,54.85a2.46,2.46,0,0,1,.7-.26,3.45,3.45,0,0,1,1.28,0l.22,0a2.46,2.46,0,0,1,.7.26L84.51,82.42a1.3,1.3,0,0,1,.41.33.92.92,0,0,1,.19.53.78.78,0,0,1,0,.14h0A1.28,1.28,0,0,1,84.51,84.09Zm-21.7,9.18,17.42-10,.36-.21L35.75,57.12,18,67.38l.36.21Z" transform="translate(0 -4.63)"/><path class="cls-4" d="M75.47,89.31h0l9-5.22a1.28,1.28,0,0,0,.58-.66h0v1.49a.88.88,0,0,1,0,.16.9.9,0,0,1-.19.36,1.71,1.71,0,0,1-.39.32l-6,3.48L51.23,105V103.3Z" transform="translate(0 -4.63)"/><path class="cls-5" d="M0,76.57a1.1,1.1,0,0,0,0,.18,1.14,1.14,0,0,0,.19.34,1.44,1.44,0,0,0,.39.31L48.34,105a2.46,2.46,0,0,0,.7.26,3.45,3.45,0,0,0,1.5,0,2.29,2.29,0,0,0,.69-.26V103.3a2.29,2.29,0,0,1-.69.26,3.45,3.45,0,0,1-1.5,0,2.46,2.46,0,0,1-.7-.26l-13-7.52v.83L13.62,84.09v-.84L.6,75.73a1.21,1.21,0,0,1-.41-.34A.88.88,0,0,1,0,74.9H0v1.67Z" transform="translate(0 -4.63)"/><polygon class="cls-5" points="14.1 78.34 13.62 79.46 35.32 91.99 35.32 91.15 35.8 90.87 14.1 78.34"/><polygon class="cls-5" points="15.07 77.79 36.77 90.32 50.41 82.45 28.71 69.92 15.07 77.79"/><polygon class="cls-5" points="17.96 62.75 62.81 88.65 80.59 78.38 35.74 52.49 17.96 62.75"/><path class="cls-5" d="M84.92,82.75a1.3,1.3,0,0,0-.41-.33L36.77,54.85a2.46,2.46,0,0,0-.7-.26l-.22,0a2.65,2.65,0,0,1-.12-.37,2.84,2.84,0,0,1-.08-.77,2.58,2.58,0,0,1,0-.39l8.62-42.08a1.55,1.55,0,0,1,.47-.9,1.09,1.09,0,0,1,.45-.24.8.8,0,0,1,.31,0,1.13,1.13,0,0,1,.59.18L93.87,37.51a1.89,1.89,0,0,1,.56.5A2.89,2.89,0,0,1,95,39.42a2.66,2.66,0,0,1,0,.75L86.33,82.26A1.73,1.73,0,0,1,86,83a1.2,1.2,0,0,1-.48.38l-.1,0a1.24,1.24,0,0,1-.33,0v-.15A.92.92,0,0,0,84.92,82.75ZM37.73,53.61a1.78,1.78,0,0,0,.53.46L83.92,80.44a1.37,1.37,0,0,0,.55.18,1,1,0,0,0,.72-.23,1.39,1.39,0,0,0,.47-.83l1.08-5L87,73.31,93.9,41a2,2,0,0,0,0-.7A2.56,2.56,0,0,0,93.4,39a1.8,1.8,0,0,0-.53-.46L47.21,12.15a1.31,1.31,0,0,0-.55-.17,1,1,0,0,0-.72.22,1.42,1.42,0,0,0-.47.83L38.52,45.59l-.2.91-1.09,5.1a2.05,2.05,0,0,0,0,.7A2.52,2.52,0,0,0,37.73,53.61Z" transform="translate(0 -4.63)"/><path class="cls-6" d="M37.23,51.6a2.05,2.05,0,0,0,0,.7,2.52,2.52,0,0,0,.53,1.31,1.78,1.78,0,0,0,.53.46L83.92,80.44a1.37,1.37,0,0,0,.55.18,1,1,0,0,0,.72-.23,1.39,1.39,0,0,0,.47-.83l1.08-5L87,73.31,93.9,41a2,2,0,0,0,0-.7A2.56,2.56,0,0,0,93.4,39a1.8,1.8,0,0,0-.53-.46L47.21,12.15a1.31,1.31,0,0,0-.55-.17,1,1,0,0,0-.72.22,1.42,1.42,0,0,0-.47.83L38.52,45.59l-.2.91Z" transform="translate(0 -4.63)"/><path class="cls-3" d="M95,39.42a2.66,2.66,0,0,1,0,.75l.7-.18a2.42,2.42,0,0,0,0-.76,2.77,2.77,0,0,0-.55-1.41,1.87,1.87,0,0,0-.55-.5L46.83,9.76l-.22-.1a1,1,0,0,0-.46-.08.91.91,0,0,0-.23,0h0l-.68.18h0a.8.8,0,0,1,.31,0,1.13,1.13,0,0,1,.59.18L93.87,37.51a1.89,1.89,0,0,1,.56.5A2.89,2.89,0,0,1,95,39.42Z" transform="translate(0 -4.63)"/><path class="cls-4" d="M85.54,83.35l-.1,0,.67-.18a1,1,0,0,0,.34-.17,1.37,1.37,0,0,0,.47-.6c0-.12.08-.25.11-.37L95.64,40l-.7.18L86.33,82.26A1.73,1.73,0,0,1,86,83,1.2,1.2,0,0,1,85.54,83.35Z" transform="translate(0 -4.63)"/><polygon class="cls-3" points="33.06 54.86 35.83 56.48 38.43 54.98 35.66 53.36 33.06 54.86"/><polygon class="cls-3" points="36.73 57 39.51 58.61 42.11 57.11 39.33 55.49 36.73 57"/><polygon class="cls-3" points="40.4 59.13 43.18 60.74 45.78 59.24 43 57.63 40.4 59.13"/><polygon class="cls-3" points="44.07 61.27 46.85 62.88 49.45 61.38 46.67 59.76 44.07 61.27"/><polygon class="cls-3" points="47.74 63.4 50.52 65.01 53.12 63.51 50.34 61.9 47.74 63.4"/><polygon class="cls-3" points="51.42 65.53 54.2 67.15 56.8 65.65 54.02 64.03 51.42 65.53"/><polygon class="cls-3" points="55.09 67.67 57.87 69.28 60.47 67.78 57.69 66.17 55.09 67.67"/><polygon class="cls-3" points="58.76 69.8 61.54 71.42 64.14 69.91 61.36 68.3 58.76 69.8"/><polygon class="cls-3" points="62.43 71.94 65.21 73.55 67.81 72.05 65.03 70.43 62.43 71.94"/><polygon class="cls-3" points="66.11 74.07 68.88 75.68 71.48 74.18 68.7 72.57 66.11 74.07"/><polygon class="cls-3" points="69.78 76.2 72.56 77.82 75.16 76.32 72.38 74.7 69.78 76.2"/><polygon class="cls-3" points="73.45 78.34 76.23 79.95 78.83 78.45 76.05 76.84 73.45 78.34"/><polygon class="cls-3" points="29.89 56.79 34.73 59.6 37.33 58.1 32.49 55.29 29.89 56.79"/><polygon class="cls-3" points="35.28 59.91 38.05 61.53 40.65 60.03 37.87 58.42 35.28 59.91"/><polygon class="cls-3" points="38.95 62.05 41.73 63.66 44.32 62.17 41.55 60.55 38.95 62.05"/><polygon class="cls-3" points="42.62 64.18 45.4 65.8 48 64.3 45.22 62.69 42.62 64.18"/><polygon class="cls-3" points="46.29 66.32 49.07 67.93 51.67 66.44 48.89 64.82 46.29 66.32"/><polygon class="cls-3" points="49.96 68.45 52.74 70.06 55.34 68.57 52.56 66.95 49.96 68.45"/><polygon class="cls-3" points="53.64 70.59 56.41 72.2 59.01 70.7 56.23 69.09 53.64 70.59"/><polygon class="cls-3" points="57.31 72.72 60.09 74.33 62.68 72.84 59.91 71.22 57.31 72.72"/><polygon class="cls-3" points="60.98 74.86 63.76 76.47 66.36 74.97 63.58 73.36 60.98 74.86"/><polygon class="cls-3" points="64.66 77 67.44 78.61 70.03 77.12 67.25 75.5 64.66 77"/><polygon class="cls-5" points="67.44 78.6 67.44 79.13 70.03 77.63 70.03 77.11 67.44 78.6"/><polygon class="cls-5" points="28.42 60.76 28.42 61.28 31.94 59.25 31.94 58.73 28.42 60.76"/><polygon class="cls-3" points="30.24 60.74 33.02 62.36 35.61 60.86 32.83 59.24 30.24 60.74"/><polygon class="cls-3" points="23.05 60.64 27.97 63.51 30.57 62.01 28.42 60.76 31.94 58.73 29.16 57.11 23.05 60.64"/><polygon class="cls-3" points="19.71 62.57 22.49 64.18 25.08 62.69 22.3 61.07 19.71 62.57"/><polygon class="cls-3" points="28.51 63.82 31.29 65.44 33.89 63.94 31.11 62.32 28.51 63.82"/><polygon class="cls-3" points="23.38 64.7 26.16 66.32 28.76 64.82 25.97 63.2 23.38 64.7"/><polygon class="cls-3" points="33.91 62.88 36.69 64.49 39.28 62.99 36.5 61.38 33.91 62.88"/><polygon class="cls-3" points="32.19 65.95 34.96 67.57 37.56 66.07 34.78 64.46 32.19 65.95"/><polygon class="cls-3" points="27.05 66.84 29.83 68.45 32.42 66.95 29.65 65.34 27.05 66.84"/><polygon class="cls-3" points="37.58 65.01 40.36 66.63 42.96 65.13 40.18 63.51 37.58 65.01"/><polygon class="cls-3" points="35.86 68.09 38.64 69.7 41.23 68.2 38.45 66.59 35.86 68.09"/><polygon class="cls-3" points="30.72 68.97 33.5 70.59 36.1 69.09 33.32 67.47 30.72 68.97"/><polygon class="cls-3" points="41.26 67.15 44.03 68.76 46.63 67.26 43.85 65.65 41.26 67.15"/><polygon class="cls-3" points="44.93 69.28 47.71 70.89 50.3 69.4 47.52 67.78 44.93 69.28"/><polygon class="cls-3" points="48.6 71.41 51.38 73.03 53.98 71.53 51.19 69.91 48.6 71.41"/><polygon class="cls-3" points="52.27 73.55 55.05 75.16 57.64 73.66 54.87 72.05 52.27 73.55"/><polygon class="cls-3" points="55.94 75.68 58.72 77.3 61.32 75.8 58.54 74.18 55.94 75.68"/><polygon class="cls-3" points="39.53 70.22 42.31 71.84 44.91 70.34 42.12 68.72 39.53 70.22"/><polygon class="cls-3" points="43.2 72.36 45.98 73.97 48.58 72.47 45.8 70.86 43.2 72.36"/><polygon class="cls-3" points="46.87 74.49 49.65 76.11 52.25 74.61 49.47 72.99 46.87 74.49"/><polygon class="cls-3" points="50.55 76.63 53.33 78.24 55.92 76.74 53.14 75.13 50.55 76.63"/><polygon class="cls-3" points="54.22 78.76 57 80.37 59.59 78.88 56.82 77.26 54.22 78.76"/><polygon class="cls-3" points="34.4 71.11 51.86 81.26 54.46 79.76 36.99 69.61 34.4 71.11"/><polygon class="cls-3" points="59.62 77.82 62.39 79.43 64.99 77.93 62.21 76.32 59.62 77.82"/><polygon class="cls-3" points="57.89 80.89 60.67 82.51 63.27 81.01 60.48 79.39 57.89 80.89"/><polygon class="cls-3" points="52.76 81.78 55.54 83.39 58.13 81.89 55.35 80.28 52.76 81.78"/><polygon class="cls-3" points="68.09 78.98 72.93 81.8 75.53 80.3 70.69 77.49 68.09 78.98"/><polygon class="cls-3" points="63.29 79.95 69.74 83.7 72.34 82.2 65.89 78.45 63.29 79.95"/><polygon class="cls-3" points="61.59 83.05 66.22 85.73 68.82 84.23 64.2 81.54 61.59 83.05"/><polygon class="cls-3" points="56.43 83.91 59.21 85.53 61.8 84.03 59.03 82.41 56.43 83.91"/><polygon class="cls-3" points="60.1 86.04 62.88 87.66 65.48 86.16 62.7 84.54 60.1 86.04"/><polygon class="cls-5" points="13.62 78.62 13.62 79.45 14.1 78.34 13.62 78.62"/><path class="cls-7" d="M9.07,74.83l0,0,.05,0a.38.38,0,0,0,.19.14l.12,0h0l.22,0,.7,0L31,73.93h0a.39.39,0,0,1-.22-.11l-.13-.13h0s0,0,0-.06a1.11,1.11,0,0,1-.12-.44.66.66,0,0,1,0-.14s-.05-.07-.05-.11a.56.56,0,0,1,0-.13l0-.13a.61.61,0,0,1,0-.13.68.68,0,0,1,.13-.27l.05-.06,0,0,.09-.05h0l.05,0h0L14,73c-.05.1-.1.21-.16.31l0,0a.36.36,0,0,1-.18.07h-.19a.5.5,0,0,1-.17,0,.85.85,0,0,1-.3-.15.69.69,0,0,1-.11-.13L10,73.29l-.87,0a.7.7,0,0,0-.15.19.77.77,0,0,0-.1.25,1.76,1.76,0,0,0,0,.33,1.49,1.49,0,0,0,.07.47.58.58,0,0,0,0,.14Z" transform="translate(0 -4.63)"/><path class="cls-6" d="M13.85,73.31,14,73v0a.14.14,0,0,0,0-.06.25.25,0,0,0,0-.12l0,0a.32.32,0,0,0-.11-.12.73.73,0,0,0-.3-.16l-.17.33a.87.87,0,0,1,.3.16.41.41,0,0,1,.11.12.54.54,0,0,1,0,.11A.25.25,0,0,1,13.85,73.31Z" transform="translate(0 -4.63)"/><path class="cls-7" d="M8.92,73.76l21.54-1.23a.7.7,0,0,1,.14-.27s0,0,0-.05l0,0s0,0,.08-.06h0l.05,0h.05L14,73l-.15.31,0,0a.3.3,0,0,1-.18.08h-.19l-.16,0a.77.77,0,0,1-.3-.15.45.45,0,0,1-.11-.13l-2.83.15-.87,0a.58.58,0,0,0-.16.19A.82.82,0,0,0,8.92,73.76Z" transform="translate(0 -4.63)"/><path class="cls-6" d="M8.16,73.14l0,0a.24.24,0,0,1,.18-.07l4.88-.26a.43.43,0,0,1,.16,0,.87.87,0,0,1,.3.16.41.41,0,0,1,.11.12.54.54,0,0,1,0,.11.25.25,0,0,1,0,.12L14,73v0a.14.14,0,0,0,0-.06.25.25,0,0,0,0-.12l0,0a.32.32,0,0,0-.11-.12.73.73,0,0,0-.3-.16.43.43,0,0,0-.16,0l-4.88.26H8.47a.24.24,0,0,0-.11.06l0,0C8.27,72.93,8.22,73,8.16,73.14Z" transform="translate(0 -4.63)"/><path class="cls-8" d="M13.64,73.42a.3.3,0,0,0,.18-.08l0,0a.25.25,0,0,0,0-.12.54.54,0,0,0,0-.11A.32.32,0,0,0,13.7,73a.73.73,0,0,0-.3-.16.43.43,0,0,0-.16,0l-4.88.26a.24.24,0,0,0-.18.07s0,0,0,0a.25.25,0,0,0,0,.12s0,0,0,0a.16.16,0,0,0,0,.07l.13.21.37,0-.13-.21,4.32-.23a.32.32,0,0,0,.11.12.67.67,0,0,0,.3.16l.16,0Z" transform="translate(0 -4.63)"/><path class="cls-9" d="M30.65,72.2l.1-.07-.08.05S30.65,72.19,30.65,72.2Z" transform="translate(0 -4.63)"/><path class="cls-6" d="M30.58,73.67a.76.76,0,0,0,.11.14l0,0a.05.05,0,0,0,0,0,.36.36,0,0,0,.17.07l.1,0h0l2.17-.8h0l.11,0a.79.79,0,0,0,.19-.11h0a.07.07,0,0,0,0-.06s0,0,0-.07l-.19-.08h0l-.11,0h0L31,72.11h-.22l-.1.07-.06,0a.9.9,0,0,0-.13.28c0,.09,0,.17-.06.25a.56.56,0,0,0,0,.13.33.33,0,0,0,0,.14.62.62,0,0,0,0,.13,1.61,1.61,0,0,0,.1.36l0,.08Z" transform="translate(0 -4.63)"/><path class="cls-6" d="M30.46,72.53l2.83.26.24,0,0,0-.19-.08h0l-.11,0h0L31,72.11h-.22l-.1.07-.06,0A.9.9,0,0,0,30.46,72.53Z" transform="translate(0 -4.63)"/><path class="cls-10" d="M30.6,73.7a.28.28,0,0,0,.09.1c.13-.06,2.18-.65,2.89-.86l.21-.07-.19,0Z" transform="translate(0 -4.63)"/><path class="cls-5" d="M33.31,73l0,0h.07l.41-.15h0s0-.07,0-.08h0l-.43-.11h0s0,0,0,0h0s0,0,0,.05,0,0,0,0v.07s0,0,0,.07h0Z" transform="translate(0 -4.63)"/><path class="cls-11" d="M30.69,73.81l-.05,0a.17.17,0,0,1,0-.06L9.08,74.83l0,.06,0,0Z" transform="translate(0 -4.63)"/><g class="cls-12"><path class="cls-8" d="M39.31,69,66.93,84.86c.26.15.46.06.46-.19V21.3a.94.94,0,0,0-.46-.73L39.31,4.7c-.25-.15-.46-.06-.46.19V68.26A1,1,0,0,0,39.31,69Z" transform="translate(0 -4.63)"/><path class="cls-13" d="M66.89,23.31a.5.5,0,0,0-.21-.29L39.34,7.31l0,20a.46.46,0,0,0,.21.29L66.91,43.26Z" transform="translate(0 -4.63)"/><path class="cls-8" d="M40.7,25.41V12.89A.9.9,0,0,1,42,12.11l9.58,5.51a.89.89,0,0,1,.45.78V30.91a.89.89,0,0,1-1.35.78l-9.57-5.5A.91.91,0,0,1,40.7,25.41Z" transform="translate(0 -4.63)"/><path class="cls-14" d="M39.33,5.9a.79.79,0,0,0,.38.61c.21.12.39,0,.39-.16a.8.8,0,0,0-.39-.61C39.5,5.62,39.33,5.69,39.33,5.9Z" transform="translate(0 -4.63)"/><path class="cls-14" d="M40.31,6.47a.82.82,0,0,0,.38.61c.21.12.38,0,.38-.17a.79.79,0,0,0-.38-.6C40.48,6.19,40.31,6.26,40.31,6.47Z" transform="translate(0 -4.63)"/><path class="cls-14" d="M41.28,7a.81.81,0,0,0,.39.61c.21.12.38,0,.38-.17a.79.79,0,0,0-.38-.6C41.45,6.76,41.28,6.83,41.28,7Z" transform="translate(0 -4.63)"/><path class="cls-10" d="M55.54,22.65a1.37,1.37,0,0,1,.65,1c0,.36-.29.5-.65.29a1.41,1.41,0,0,1-.67-1C54.87,22.56,55.17,22.44,55.54,22.65Z" transform="translate(0 -4.63)"/><path class="cls-15" d="M55.57,20.16l8.91,5.15a1.31,1.31,0,0,1,.65,1c0,.35-.28.49-.65.28l-8.91-5.15a1.36,1.36,0,0,1-.66-1C54.91,20.07,55.2,20,55.57,20.16Z" transform="translate(0 -4.63)"/><path class="cls-10" d="M55.57,25.18l8.91,5.15a1.31,1.31,0,0,1,.65,1c0,.35-.28.49-.65.28l-8.91-5.15a1.36,1.36,0,0,1-.66-1C54.91,25.09,55.2,25,55.57,25.18Z" transform="translate(0 -4.63)"/><path class="cls-10" d="M57.54,23.81l6.91,4a1.37,1.37,0,0,1,.68,1.05c0,.35-.3.48-.68.26l-6.91-4a1.42,1.42,0,0,1-.7-1.06C56.84,23.7,57.15,23.58,57.54,23.81Z" transform="translate(0 -4.63)"/><path class="cls-10" d="M55.54,30.41a1.36,1.36,0,0,1,.65,1c0,.36-.29.49-.65.28a1.37,1.37,0,0,1-.67-1C54.87,30.32,55.17,30.2,55.54,30.41Z" transform="translate(0 -4.63)"/><path class="cls-10" d="M55.57,27.92l8.91,5.14a1.33,1.33,0,0,1,.65,1c0,.36-.28.5-.65.29l-8.91-5.15a1.36,1.36,0,0,1-.66-1C54.91,27.83,55.2,27.7,55.57,27.92Z" transform="translate(0 -4.63)"/><path class="cls-10" d="M55.57,32.94l8.91,5.15a1.31,1.31,0,0,1,.65,1c0,.36-.28.5-.65.29l-8.91-5.15a1.36,1.36,0,0,1-.66-1C54.91,32.85,55.2,32.73,55.57,32.94Z" transform="translate(0 -4.63)"/><path class="cls-10" d="M57.54,31.57l6.91,4a1.37,1.37,0,0,1,.68,1c0,.36-.3.49-.68.27l-6.91-4a1.42,1.42,0,0,1-.7-1.06C56.84,31.46,57.15,31.34,57.54,31.57Z" transform="translate(0 -4.63)"/><path class="cls-13" d="M66.89,43.82a.5.5,0,0,0-.21-.29L39.34,27.81l0,20a.46.46,0,0,0,.21.29L66.91,63.77Z" transform="translate(0 -4.63)"/><path class="cls-8" d="M40.7,45.92V33.4A.9.9,0,0,1,42,32.62l9.58,5.5a.9.9,0,0,1,.45.78V51.42a.9.9,0,0,1-1.35.78l-9.57-5.5A.91.91,0,0,1,40.7,45.92Z" transform="translate(0 -4.63)"/><path class="cls-10" d="M55.54,43.16a1.36,1.36,0,0,1,.65,1c0,.36-.29.49-.65.28a1.37,1.37,0,0,1-.67-1C54.87,43.07,55.17,43,55.54,43.16Z" transform="translate(0 -4.63)"/><path class="cls-16" d="M55.57,40.67l8.91,5.14a1.33,1.33,0,0,1,.65,1c0,.36-.28.5-.65.28L55.57,42a1.38,1.38,0,0,1-.66-1C54.91,40.58,55.2,40.45,55.57,40.67Z" transform="translate(0 -4.63)"/><path class="cls-10" d="M55.57,45.69l8.91,5.15a1.31,1.31,0,0,1,.65,1c0,.36-.28.5-.65.29L55.57,47a1.36,1.36,0,0,1-.66-1C54.91,45.6,55.2,45.48,55.57,45.69Z" transform="translate(0 -4.63)"/><path class="cls-10" d="M57.54,44.31l6.91,4a1.37,1.37,0,0,1,.68,1c0,.36-.3.49-.68.27l-6.91-4a1.44,1.44,0,0,1-.7-1.06C56.84,44.2,57.15,44.09,57.54,44.31Z" transform="translate(0 -4.63)"/><path class="cls-10" d="M55.54,50.92a1.34,1.34,0,0,1,.65,1c0,.35-.29.49-.65.28a1.39,1.39,0,0,1-.67-1C54.87,50.83,55.17,50.7,55.54,50.92Z" transform="translate(0 -4.63)"/><path class="cls-10" d="M55.57,48.43l8.91,5.14a1.33,1.33,0,0,1,.65,1c0,.36-.28.49-.65.28l-8.91-5.14a1.39,1.39,0,0,1-.66-1C54.91,48.33,55.2,48.21,55.57,48.43Z" transform="translate(0 -4.63)"/><path class="cls-10" d="M55.57,53.45l8.91,5.14a1.33,1.33,0,0,1,.65,1c0,.36-.28.49-.65.28l-8.91-5.14a1.38,1.38,0,0,1-.66-1C54.91,53.36,55.2,53.23,55.57,53.45Z" transform="translate(0 -4.63)"/><path class="cls-10" d="M57.54,52.07l6.91,4a1.39,1.39,0,0,1,.68,1c0,.36-.3.48-.68.26l-6.91-4a1.41,1.41,0,0,1-.7-1.05C56.84,52,57.15,51.85,57.54,52.07Z" transform="translate(0 -4.63)"/><path class="cls-13" d="M66.89,64.32a.5.5,0,0,0-.21-.29L39.34,48.32l0,19.95a.46.46,0,0,0,.21.29L66.91,84.28Z" transform="translate(0 -4.63)"/><path class="cls-8" d="M40.7,66.42V53.91A.9.9,0,0,1,42,53.13l9.58,5.5a.9.9,0,0,1,.45.78V71.92a.9.9,0,0,1-1.35.79L41.16,67.2A.91.91,0,0,1,40.7,66.42Z" transform="translate(0 -4.63)"/><path class="cls-10" d="M55.54,63.67a1.34,1.34,0,0,1,.65,1c0,.35-.29.49-.65.28a1.39,1.39,0,0,1-.67-1C54.87,63.58,55.17,63.45,55.54,63.67Z" transform="translate(0 -4.63)"/><path class="cls-15" d="M55.57,61.18l8.91,5.14a1.33,1.33,0,0,1,.65,1c0,.36-.28.49-.65.28l-8.91-5.14a1.39,1.39,0,0,1-.66-1C54.91,61.08,55.2,61,55.57,61.18Z" transform="translate(0 -4.63)"/><path class="cls-17" d="M55.57,66.2l8.91,5.14a1.33,1.33,0,0,1,.65,1c0,.36-.28.49-.65.28l-8.91-5.14a1.38,1.38,0,0,1-.66-1C54.91,66.1,55.2,66,55.57,66.2Z" transform="translate(0 -4.63)"/><path class="cls-10" d="M57.54,64.82l6.91,4a1.39,1.39,0,0,1,.68,1c0,.36-.3.48-.68.26l-6.91-4a1.41,1.41,0,0,1-.7-1C56.84,64.71,57.15,64.6,57.54,64.82Z" transform="translate(0 -4.63)"/><path class="cls-17" d="M55.54,71.42a1.36,1.36,0,0,1,.65,1c0,.36-.29.5-.65.29a1.41,1.41,0,0,1-.67-1C54.87,71.33,55.17,71.21,55.54,71.42Z" transform="translate(0 -4.63)"/><path class="cls-17" d="M55.57,68.93l8.91,5.15a1.31,1.31,0,0,1,.65,1c0,.35-.28.49-.65.28l-8.91-5.15a1.36,1.36,0,0,1-.66-1C54.91,68.84,55.2,68.72,55.57,68.93Z" transform="translate(0 -4.63)"/><path class="cls-17" d="M55.57,74l8.91,5.15a1.31,1.31,0,0,1,.65,1c0,.35-.28.49-.65.28l-8.91-5.15a1.36,1.36,0,0,1-.66-1C54.91,73.86,55.2,73.74,55.57,74Z" transform="translate(0 -4.63)"/><path class="cls-17" d="M57.54,72.58l6.91,4a1.37,1.37,0,0,1,.68,1.05c0,.35-.3.48-.68.26l-6.91-4a1.42,1.42,0,0,1-.7-1.06C56.84,72.47,57.15,72.35,57.54,72.58Z" transform="translate(0 -4.63)"/><path class="cls-18" d="M77.54,90a7.29,7.29,0,0,1,1-2.56A20.26,20.26,0,0,0,79.62,85c.13-.05,3.14,0,3.14,0a15,15,0,0,1,0,1.5v.37l-.55.82H82a3.66,3.66,0,0,0-.19,1c-.07,1.08-2.26,2.11-3.29,1.82S77.51,90,77.54,90Z" transform="translate(0 -4.63)"/><path class="cls-18" d="M77.5,83.08a10.53,10.53,0,0,1-1.82.51l-.13-.25a1.9,1.9,0,0,0-1.56.54,3.54,3.54,0,0,1-4.11,1s-1.08-.21-.27-.79,4.33-3,4.36-2.92,3.13,0,3.13,0S77.66,81.61,77.5,83.08Z" transform="translate(0 -4.63)"/><polygon class="cls-18" points="79.66 59.72 79.66 59.72 79.66 59.72 79.66 59.72"/><path class="cls-13" d="M67.81,52.88a.54.54,0,0,1-.28.53h0l-.7.4c-.07,0-1.41-1.82-1.41-1.82l-.1-.33.77-.44h0a.74.74,0,0,1,.74.09A2.05,2.05,0,0,1,67.81,52.88Z" transform="translate(0 -4.63)"/><path class="cls-19" d="M67.07,53.3a.5.5,0,0,1-.64.55.42.42,0,0,1-.15,0l-.2-.09a2.06,2.06,0,0,1-1-1.57,1,1,0,0,1,0-.19.47.47,0,0,1,.11-.21.49.49,0,0,1,.54-.14,1.31,1.31,0,0,1,.29.11l0,0A2.17,2.17,0,0,1,67,53l0,.17A1.1,1.1,0,0,1,67.07,53.3Z" transform="translate(0 -4.63)"/><path class="cls-20" d="M68.59,56.82c0,.08,0,.35.06.6a2.27,2.27,0,0,1-.22,1.31,2.21,2.21,0,0,1-.28.45,19.83,19.83,0,0,1-1.47,1.6l-1.34-.6.31-1.5.76-1.09L67,56.52Z" transform="translate(0 -4.63)"/><path class="cls-20" d="M69.56,51.55c0-.89-.17-2.62-.06-3.42s.19-1.44.29-2.12.13-1.1.18-1.48v0A4.92,4.92,0,0,1,70.75,42a1,1,0,0,1,.12-.16,1.92,1.92,0,0,1,.46-.48,3.5,3.5,0,0,1,.88-.32.88.88,0,0,1,.33.06l.16.09a1.37,1.37,0,0,1,.56.67,2.8,2.8,0,0,1,.24.69c0,.14,0,.27.06.41s0,.27,0,.41h0a7.75,7.75,0,0,1,.07.79c0,.12,0,.23,0,.37s0,.27,0,.43,0,.31,0,.49,0,.35,0,.54c0,0,0,0,0,.05a61,61,0,0,1-1.14,7.14s-2.61,3-3.9,4.43c-.64-.23-.9-.62-1.66-1C68.31,54.42,69.54,52.18,69.56,51.55Z" transform="translate(0 -4.63)"/><path class="cls-21" d="M75.78,67.18a10.35,10.35,0,0,0-.25,1.6c-.18,1.58-.33,4-.46,6.54L69.34,72l0-.17c-.27-1.38.24-8.35.55-12.3.13-1.62.23-2.73.23-2.73h0c.43.12,3.56,1,3.66,1.11A31.88,31.88,0,0,1,75,61.44C75.58,63.55,76.12,66,75.78,67.18Z" transform="translate(0 -4.63)"/><path class="cls-22" d="M69.4,48.39a.71.71,0,0,0,0,.14.42.42,0,0,0,0,.15h0a1.17,1.17,0,0,0,.64.69,3.71,3.71,0,0,0,2.75.25,2.7,2.7,0,0,0,.6-.25,1.34,1.34,0,0,0,.47-.39.91.91,0,0,0-.18-1.34,1.27,1.27,0,0,0-.29-.21,2.51,2.51,0,0,0-.58-.23l.06-4.88L70,40.69C68.76,41.56,69.29,46.22,69.4,48.39Z" transform="translate(0 -4.63)"/><path class="cls-23" d="M78.48,36a7,7,0,0,0-.66,2.08,13.17,13.17,0,0,1-.39-1.56A11.42,11.42,0,0,0,78.48,36Z" transform="translate(0 -4.63)"/><path class="cls-24" d="M72.94,52.64c4.43-2.14,5.9-13,5.9-13-.94-.67-1.33-3.09-1.33-3.09-1.92-.31-2.43,1.42-3.28,2.24-.55.54-1.09,1-1.09,1C72.33,42.53,72.94,52.64,72.94,52.64Z" transform="translate(0 -4.63)"/><path class="cls-25" d="M81.78,63.74v0s0,0,0-.08Z" transform="translate(0 -4.63)"/><path class="cls-25" d="M79.75,46.12a1.61,1.61,0,0,0,.14.66c-.06-.38-.11-.67-.13-.83A1,1,0,0,0,79.75,46.12Z" transform="translate(0 -4.63)"/><path class="cls-25" d="M81.8,63.24c0-.12,0-.25,0-.4C81.8,63,81.8,63.12,81.8,63.24Z" transform="translate(0 -4.63)"/><path class="cls-26" d="M80.34,49.66c.08.51.16,1,.21,1.3v0s0,.08,0,.12h0v0h0a9,9,0,0,1,.23-2.71c0-.17.43-1.31.53-1.6a.43.43,0,0,1,0,0c0-.13.49-1,.53-1.14-.08.1-.17.21-.25.33A10.71,10.71,0,0,0,80.34,49.66Z" transform="translate(0 -4.63)"/><path class="cls-24" d="M71.58,41.84v4.52L77,47.88V44.39a2.11,2.11,0,0,1,0-.25,5.27,5.27,0,0,1,2.36-3.54,3.2,3.2,0,0,1,.65-.31l.2-.06s-.24,0-.2,0L78.29,39s-2.69,3.7-2.83,3.7-2.53-.38-2.53-.38l-.12-.07a15.57,15.57,0,0,1,.25-2.09,2.77,2.77,0,0,1-.54-.6l-.09,0,0,.08C71.73,40,71.58,41.37,71.58,41.84Z" transform="translate(0 -4.63)"/><path class="cls-27" d="M69.85,50.25c0,.06,0,.11,0,.17v0c.09,1.05.34,5.59.29,8.13,0,.15.4-.45.4-.33V59l1.25.53,2.89,1.74,2.68,1.46L80,61.94l.38-.11L81.8,60.3v-.25h0l0-.64a2.41,2.41,0,0,0,.4-1c.07-.4-.14-2.81-.32-4.74a2.3,2.3,0,0,0,0-.26c0-.14,0-.28,0-.4,0-.46-.07-.78-.08-.91-.07-.57-.1-.92-.1-.92l-1-1.57a19.25,19.25,0,0,1,.47-2.28c0-.17.08-.33.13-.5,0,0,0,0,0,0l0-.12c0-.1.06-.19.1-.28l.15-.41A12.47,12.47,0,0,1,83,43.17l.07-.13.41-.55s-.65-.44-1.82-1.28l-1.35-1h0l-.11,0-.2.06a3.2,3.2,0,0,0-.65.31A5.27,5.27,0,0,0,77,44.14a2.11,2.11,0,0,0,0,.25v3.49l-5.41-1.52V41.84c0-.47.15-1.85.89-2.16l0-.08-1.89.84a3.72,3.72,0,0,0-.5.25l-.07.08a2,2,0,0,0-.22.46l0,.17C69.07,43.61,69.78,48.79,69.85,50.25Z" transform="translate(0 -4.63)"/><path class="cls-20" d="M73.19,40.28a2.17,2.17,0,0,0,0,.36,4.5,4.5,0,0,0,2.5-.9,4.4,4.4,0,0,0,1-1.65,3.71,3.71,0,0,1-1.26,1.38C74.54,39.92,73.49,40.48,73.19,40.28Z" transform="translate(0 -4.63)"/><path class="cls-27" d="M70.35,45.14s1.09,2.72,1.17,2.74L74.79,49l2.43-.12.34-2.23.36-3.17,1.29-1.92,1.12-1.32-2-1.21s-2.13,3.76-4.17,3.48c0,0-.94.05-.93-2.2l-.11-.09,0,0a2.77,2.77,0,0,1-.54-.6h0l-1,.45Z" transform="translate(0 -4.63)"/><path class="cls-28" d="M83.11,79.94l-4.46-2.56,0,0h0l-.94-.83a15.11,15.11,0,0,1-1.25-3.35c-.07-.26-.14-.53-.2-.8a1,1,0,0,1,0-.17c-.27-1.13-.48-2.31-.66-3.42h0c-.12-.72-.21-1.41-.29-2-.2-.07-1.06-.36-1.21-.89s-.44-3.7-.44-3.7a7.06,7.06,0,0,1-.82-.23,6.28,6.28,0,0,1-1.24-.54,4.35,4.35,0,0,1-1.35-1.2l-.32-.63h0l0,0s0-.32,0-.85c0-.12,0-.26,0-.41,0-.62,0-1.35,0-2.1,0-2.3,0-4.88,0-5.67v0c0-.06,0-.11,0-.17s0-.14,0-.21a5.18,5.18,0,0,1,0-.81,6,6,0,0,1,.18-1.12,10.34,10.34,0,0,0,.3-2.66v-3.6a5.7,5.7,0,0,1,.09-.94,4.4,4.4,0,0,1,.1-.47l.41-.18c.35-.17.72-.35,1.19-.56L72,40a1.62,1.62,0,0,0-.06.22s0,0,0,0c-.08.25-.18.6-.25.93,0,.15-.06.29-.08.41a.13.13,0,0,1,0,.06c0,.08,0,.15,0,.21v4.52l1.15.32.15,0,.69.2,3.1.87.31.09V44.39a1.07,1.07,0,0,1,0-.25,4.55,4.55,0,0,1,.5-1.51,3.9,3.9,0,0,1,.48-.74,4.57,4.57,0,0,1,.58-.66h0a4.58,4.58,0,0,1,.79-.62,3.27,3.27,0,0,1,.66-.31l.19-.06s.06,0,.1,0h0l1.35,1a2.57,2.57,0,0,0-1.7.44,4,4,0,0,0-1.79,2.74V49.5a6.52,6.52,0,0,0,1.52,2.19,2,2,0,0,0,.87.46A1.56,1.56,0,0,0,81.76,52s0,.05,0,.14,0,.23,0,.4,0,.24,0,.38,0,.27,0,.42v.09c.2,1.87.51,5.07.5,6.42,0,.19,0,.56,0,1.06s0,.77,0,1.24v.19c0,.77-.06,1.65-.09,2.59s-.07,2.13-.1,3.19v.11c-.11,3-.2,5.61-.2,5.61l.35.2a16.24,16.24,0,0,0,.34,2.41c.09.35.16.74.23,1.16q0,.22.06.48c0,.2,0,.41.07.62l.06.65C83.09,79.55,83.1,79.75,83.11,79.94Z" transform="translate(0 -4.63)"/><path class="cls-21" d="M76.48,49.89c-.11,2-.17,4-.25,5.94l.06-.06a12.84,12.84,0,0,1-2.63-.07,5.18,5.18,0,0,1-2.42-1,6.88,6.88,0,0,0,1.13.7,4.36,4.36,0,0,0,1.28.36,13.7,13.7,0,0,0,2.64.11h.06v-.06C76.4,53.85,76.47,51.87,76.48,49.89Z" transform="translate(0 -4.63)"/><polygon class="cls-21" points="76.48 45.26 71.45 43.94 71.45 45.05 76.42 46.38 76.48 45.26"/><path class="cls-23" d="M71,33.09A5.58,5.58,0,0,0,71.36,35c.28.32.22-2.28.22-2.28Z" transform="translate(0 -4.63)"/><path class="cls-24" d="M71.23,35.18a4,4,0,0,1,.28,1.32,6.77,6.77,0,0,0,1,3.06s.06.07.06.07a2.41,2.41,0,0,0,.52.56.15.15,0,0,0,.07.07l.07,0s.06,0,.07,0c.29.19,1.33-.4,2.27-.84a3.69,3.69,0,0,0,1.27-1.39,10.3,10.3,0,0,0,.63-1.21c.68-.45.13-.81,1.56-2.84-.55-4.67-4-4.14-4-4.14C70.88,30.05,71.23,35.18,71.23,35.18Z" transform="translate(0 -4.63)"/><path class="cls-23" d="M71,33.09a.59.59,0,0,1,.62.07c.18.13.32.31.51.44a2,2,0,0,0,1.74.1c.65-.18,1.53-.63,2.33-.27a.71.71,0,0,1,.27.45c.09.49,0,1,.12,1.5a3.59,3.59,0,0,1,.08.73l.66-.41.82.95A16.34,16.34,0,0,0,79.25,34,4.28,4.28,0,0,0,78,30.62a4.12,4.12,0,0,0-3.07-1,3.69,3.69,0,0,0-3.85,3.05C71.08,32.74,71.06,32.9,71,33.09Z" transform="translate(0 -4.63)"/><path class="cls-24" d="M77,36.31a5.2,5.2,0,0,0,.1-.78c0-.34.14-.94.8-.89.91.07.19,2.06-.11,2.26s-.79-.59-.79-.59Z" transform="translate(0 -4.63)"/><path class="cls-28" d="M78.62,77.36l-1.67-1c-.26-1.72-.53-3-.72-4a1,1,0,0,1,0-.17c1.63-1.07,4.15-5.45,5.94-6.57,0,.42,0,1.37,0,2.49v.11c0,2.24.1,5.12.15,5.81a16.24,16.24,0,0,0,.34,2.41c.09.35.16.74.23,1.16,0,.15,0,.32.06.48s0,.41.07.62l.06.65c0,.18,0,.38,0,.57l-4.46-2.56,0,0Z" transform="translate(0 -4.63)"/><path class="cls-24" d="M79.53,65.6c.18,1,.55.21.55.21A4.43,4.43,0,0,1,80.66,64c.24-.25.67.15.67.21a4.64,4.64,0,0,1-.14.55l-.09.07a1.67,1.67,0,0,0-.6.79l.36,0h0c.13-.07,1.77-.91,2-1.08a2.2,2.2,0,0,0,.63-1.22A12.88,12.88,0,0,0,83,60.94L83,60.75a1.44,1.44,0,0,1-.41.15,2.64,2.64,0,0,1-.93,0A1.91,1.91,0,0,1,81,60.7a1,1,0,0,1-.27-.22,6,6,0,0,0-.46,1.16C80.2,61.91,79.35,64.63,79.53,65.6Z" transform="translate(0 -4.63)"/><polygon class="cls-29" points="80.12 65.82 81 65.31 81 64.22 80.12 64.72 80.12 65.82"/><path class="cls-30" d="M70.53,33.11c1.33.42,3.15,1.23,4.56,1.14h0a3.4,3.4,0,0,0,.65-.13,7,7,0,0,0,1.87-1,.78.78,0,0,1,.48-.16.91.91,0,0,1,.25.15,3.09,3.09,0,0,1,.53,1.62s.25,0,.32-.17a12.2,12.2,0,0,0,0-2.22,4.93,4.93,0,0,0,0-.55s0,0,0-.06a4.09,4.09,0,0,0-2.93-3.55l-.1,0a4.81,4.81,0,0,0-2.56,0c-2,.57-2.62,3-2.75,3.66a3.09,3.09,0,0,1-.36.64C70.34,32.7,70.19,33,70.53,33.11Z" transform="translate(0 -4.63)"/><path class="cls-31" d="M75.14,34.25a3.4,3.4,0,0,0,.65-.13,7,7,0,0,0,1.87-1,.78.78,0,0,1,.48-.16.91.91,0,0,1,.25.15,3.09,3.09,0,0,1,.53,1.62s.25,0,.32-.17a12.2,12.2,0,0,0,0-2.22,4.93,4.93,0,0,0,0-.55s0,0,0-.06a4.09,4.09,0,0,0-2.93-3.55,2.67,2.67,0,0,1,.83,1.09,4.16,4.16,0,0,1-.7,3.65A3.71,3.71,0,0,1,75.14,34.25Z" transform="translate(0 -4.63)"/><path class="cls-24" d="M80.41,46c.11.16.09,3.55.11,4,.23,5.93.2,10.53.2,10.53l-.34.78,1.28,1.49,1.58-.91L83,60.75s0-4.14.27-5.46.37-4.14.43-5.09-.11-4.36-.11-4.36Z" transform="translate(0 -4.63)"/><path class="cls-32" d="M79.51,49.61a1.19,1.19,0,0,0,.06.31,1.27,1.27,0,0,0,.64.69,3.69,3.69,0,0,0,3.36,0,1.31,1.31,0,0,0,.46-.4.9.9,0,0,0-.17-1.33,1.34,1.34,0,0,0-.3-.21,3.73,3.73,0,0,0-3.35,0A1.24,1.24,0,0,0,79.51,49.61Z" transform="translate(0 -4.63)"/><path class="cls-32" d="M79.52,49.66s4.73,0,4.73,0l-.24-6a1.25,1.25,0,0,0-.49-1.07,1.24,1.24,0,0,0-1-.1h0a3,3,0,0,0-.67.3C79.24,44,79.5,49.65,79.52,49.66Z" transform="translate(0 -4.63)"/><path class="cls-20" d="M65.93,59.76c.15,0,.3-.46.32-.76s0-.77,0-.77,1-.24,1.11-1c0,0-.16-.26-.16-.3,0-.85-1-.05-1-.05l-.08.08c-.23.22-.83.84-.78,1.15S65.77,59.77,65.93,59.76Z" transform="translate(0 -4.63)"/></g><path class="cls-33" d="M74.12,103.48a3.07,3.07,0,0,1-1.3,2.35,5.16,5.16,0,0,1-.77.52,8.65,8.65,0,0,1-2.74,1,11.81,11.81,0,0,1-2.24.21,10.11,10.11,0,0,1-5-1.19A3.49,3.49,0,0,1,60,103.48a2.46,2.46,0,0,1,.33-1.22,2.48,2.48,0,0,1,.26-.4,4.59,4.59,0,0,1,1.48-1.26,11,11,0,0,1,10,0A3.49,3.49,0,0,1,74.12,103.48Z" transform="translate(0 -4.63)"/><path class="cls-6" d="M73.87,90.39V102.8a4.53,4.53,0,0,1-1.19,2.68,3.06,3.06,0,0,1-.44.4s-.36.26-.57.38a7.51,7.51,0,0,1-2.18.8,9.9,9.9,0,0,1-2,.2,9.09,9.09,0,0,1-3.52-.65l-.15-.07a4.18,4.18,0,0,1-.56-.28l-.32-.2-.25-.18,0,0a4.56,4.56,0,0,1-1.56-2.63,2.93,2.93,0,0,1,0-.41V90.39h4.27a9.71,9.71,0,0,1,4.29,0Z" transform="translate(0 -4.63)"/><path class="cls-10" d="M73.87,90.39v0a2.83,2.83,0,0,1-1.18,2.1A4.2,4.2,0,0,1,72,93a8.19,8.19,0,0,1-2.49.9,10.71,10.71,0,0,1-2,.19,10.21,10.21,0,0,1-3.52-.6,7,7,0,0,1-1-.49A3.17,3.17,0,0,1,61,90.39a2.32,2.32,0,0,1,.3-1.12,2,2,0,0,1,.23-.36,4.29,4.29,0,0,1,1.34-1.15,9.28,9.28,0,0,1,4.55-1.08A9.18,9.18,0,0,1,72,87.76,3.2,3.2,0,0,1,73.87,90.39Z" transform="translate(0 -4.63)"/><path class="cls-6" d="M73.55,90.38c0,.1,0,.21,0,.32l-.06.23h0a1.83,1.83,0,0,1-.26.57,3.59,3.59,0,0,1-.25.33,4.35,4.35,0,0,1-1.12.89,8.88,8.88,0,0,1-4.39,1,9.59,9.59,0,0,1-3.66-.68,6,6,0,0,1-.72-.36,5.18,5.18,0,0,1-.73-.5,5,5,0,0,1-.4-.39,2.72,2.72,0,0,1-.41-.63,1.39,1.39,0,0,1-.1-.26,1.14,1.14,0,0,1-.06-.25,1.82,1.82,0,0,1,0-.32,2.47,2.47,0,0,1,1-1.85,6.19,6.19,0,0,1,.73-.5,7.9,7.9,0,0,1,2.48-.87,10.57,10.57,0,0,1,1.9-.17,9,9,0,0,1,4.39,1A2.91,2.91,0,0,1,73.55,90.38Z" transform="translate(0 -4.63)"/><path class="cls-5" d="M73.46,90.93h0a1.17,1.17,0,0,1-.09.24.36.36,0,0,1,0,.09.08.08,0,0,1,0,0,.41.41,0,0,1,0,.09.6.6,0,0,1-.06.11,3.59,3.59,0,0,1-.25.33,4.53,4.53,0,0,1-1.12.89,8.66,8.66,0,0,1-4,1h-.37a9.4,9.4,0,0,1-3.66-.68,7.08,7.08,0,0,1-.73-.36,5.06,5.06,0,0,1-.72-.5,3.71,3.71,0,0,1-.4-.39,2.72,2.72,0,0,1-.41-.63,1.34,1.34,0,0,1-.07-.18,2.8,2.8,0,0,1,.88-1.26,4.86,4.86,0,0,1,.76-.53,7.8,7.8,0,0,1,2.45-.87,10.14,10.14,0,0,1,1.94-.18,9,9,0,0,1,4.35,1l0,0A3.38,3.38,0,0,1,73.46,90.93Z" transform="translate(0 -4.63)"/><path class="cls-8" d="M73.55,90.38c0,.1,0,.21,0,.32l-.06.23a3.41,3.41,0,0,0-1.61-1.69l0,0V88A2.9,2.9,0,0,1,73.55,90.38Z" transform="translate(0 -4.63)"/><path class="cls-34" d="M65.54,87.16v1.21a7.8,7.8,0,0,0-2.45.87,4.86,4.86,0,0,0-.76.53V88.53a6.19,6.19,0,0,1,.73-.5A7.9,7.9,0,0,1,65.54,87.16Z" transform="translate(0 -4.63)"/><path class="cls-13" d="M73.44,91.72a4.11,4.11,0,0,1-1.18,1.17,6.78,6.78,0,0,1-1.51.73,9.06,9.06,0,0,1-3.31.47,13.14,13.14,0,0,0,1.66-.16,9.74,9.74,0,0,0,1.61-.41,7.06,7.06,0,0,0,1.5-.7,4.6,4.6,0,0,0,.67-.49A4.05,4.05,0,0,0,73.44,91.72Z" transform="translate(0 -4.63)"/><path class="cls-13" d="M61.84,89a3.66,3.66,0,0,1,1-1,6.05,6.05,0,0,1,1.28-.62,7.88,7.88,0,0,1,1.37-.36A9.57,9.57,0,0,1,67,87a12.92,12.92,0,0,0-1.39.2,9.11,9.11,0,0,0-1.36.37,6.66,6.66,0,0,0-1.27.59A4.39,4.39,0,0,0,61.84,89Z" transform="translate(0 -4.63)"/><path class="cls-8" d="M63.92,93.49v13.12l-.15-.07a4.18,4.18,0,0,1-.56-.28l-.32-.2-.25-.18,0,0a4.56,4.56,0,0,1-1.56-2.63,2.93,2.93,0,0,1,0-.41V90.39h0A3.17,3.17,0,0,0,62.89,93,7,7,0,0,0,63.92,93.49Z" transform="translate(0 -4.63)"/><polygon class="cls-10" points="61.17 100.5 59.93 99.78 62.57 98.26 63.81 98.98 61.17 100.5"/><path class="cls-10" d="M60.6,105.19l-1.24-.72a.58.58,0,0,0,.57-.06l1.24.72A.58.58,0,0,1,60.6,105.19Z" transform="translate(0 -4.63)"/><path class="cls-8" d="M60.24,105.79,59,105.07a.89.89,0,0,1-.38-.84l1.24.72A.89.89,0,0,0,60.24,105.79Z" transform="translate(0 -4.63)"/><polygon class="cls-8" points="59.86 100.33 58.62 99.61 58.6 92.71 59.84 93.43 59.86 100.33"/><polygon class="cls-10" points="61.14 91.24 59.9 90.52 62.61 88.96 63.78 89.64 61.14 91.24"/><path class="cls-10" d="M59.84,98.13l-1.24-.72a2.85,2.85,0,0,1,1.3-2.26l1.24.72A2.87,2.87,0,0,0,59.84,98.13Z" transform="translate(0 -4.63)"/><path class="cls-6" d="M63.79,94.27v.57l-2.64,1.53a1.76,1.76,0,0,0-.81,1.4l0,6.89c0,.52.36.73.81.47l2.64-1.53v.58l-2.64,1.52c-.72.42-1.31.09-1.31-.75l0-6.89a2.89,2.89,0,0,1,1.3-2.27Z" transform="translate(0 -4.63)"/><path class="cls-13" d="M62.45,95l-.9.55c-.15.1-.31.18-.45.28a2.13,2.13,0,0,0-.4.33,2.69,2.69,0,0,0-.86,1.86A2.29,2.29,0,0,1,60,97a2.84,2.84,0,0,1,.61-.88,3.39,3.39,0,0,1,.42-.33c.15-.1.3-.18.46-.27Z" transform="translate(0 -4.63)"/><path class="cls-13" d="M60.34,97.77c0,1.59,0,3.19,0,4.79v2.1a.71.71,0,0,0,.06.28.38.38,0,0,0,.43.28,2,2,0,0,0,.54-.24l1.05-.57-1,.6a1.85,1.85,0,0,1-.55.26.39.39,0,0,1-.3-.06.58.58,0,0,1-.19-.25,1.09,1.09,0,0,1-.07-.3v-2.1C60.31,101,60.31,99.36,60.34,97.77Z" transform="translate(0 -4.63)"/><path class="cls-13" d="M97.75,36.28C96.23,44.14,94.6,52,93,59.83s-3.22,15.69-4.91,23.51c1.52-7.86,3.14-15.7,4.71-23.55S96.06,44.11,97.75,36.28Z" transform="translate(0 -4.63)"/></g></g></g></svg>