<svg xmlns="http://www.w3.org/2000/svg" viewBox="0 0 121.44 194.56"><defs><style>.cls-1{isolation:isolate;}.cls-2{fill:#ffbaa5;}.cls-3{fill:#ffcabf;}.cls-4{fill:#111525;}.cls-5{fill:#191b45;}.cls-6{fill:#3d4180;}.cls-7{fill:#66d0ff;}.cls-8{fill:#00a8f2;}.cls-9{fill:#fff;}.cls-10{fill:#ffd9cc;}.cls-11{fill:#3e4057;}.cls-12{fill:#e4eef7;}.cls-13{fill:#c8d9e8;}.cls-14{fill:#f6f7fa;}.cls-15{fill:#f99b79;}.cls-16{fill:#ebc89f;}.cls-17{fill:#070e18;}.cls-18{fill:#faab8b;}.cls-19{fill:#3b3e53;}.cls-20{fill:#9da0bf;opacity:0.18;mix-blend-mode:color-burn;}.cls-21{fill:#f8dab8;}.cls-22{fill:#354067;}.cls-23{fill:#202842;}.cls-24{fill:#f2bd5b;}.cls-25{fill:#eca91b;}.cls-26{fill:#fbe8c5;}.cls-27{fill:#d3e3f0;}</style></defs><title>15</title><g class="cls-1"><g id="Capa_2" data-name="Capa 2"><g id="Capa_1-2" data-name="Capa 1"><path class="cls-2" d="M.68,131.42S0,135.64.28,136.3s1.62,4,2.63,4.62a5.49,5.49,0,0,0,2.56.52l1.44-1.25v-8.11l-2.82-2.55-2.69.83Z"/><path class="cls-3" d="M10.83,87.31a5.61,5.61,0,0,1-.33,2.21l8.61,5.08s.24-3.84.37-5.07c.05-.46.68-.82.68-.82a9.78,9.78,0,0,0,1.54,0A18.4,18.4,0,0,0,24.37,80c0-.32,0-.64,0-.94-.15-4.59-3-7.59-8.24-7.59-4.7,0-6.67,4.55-7.28,7.6s.92,4.56,1.64,6.6A5.31,5.31,0,0,1,10.83,87.31Z"/><path class="cls-4" d="M5,178.85a34.63,34.63,0,0,0,0,5.25s.76,2.16,3.43,1.37c0,0,2.28-1.61,2.4-1.79a9,9,0,0,0,.22-1.21s1-.18,3-.78,5.5-2.93,5.33-3.38a3.92,3.92,0,0,0-2.56-1.51H9.85Z"/><path class="cls-4" d="M32.85,189c.07.21-.78,2-3,3.28a8.35,8.35,0,0,1-5.13.94,13,13,0,0,0-3.18,0,3.26,3.26,0,0,1-.1.85c-.09.14-4.46,1-5.85-.1s-.36-6.25.11-6.49c1.16-.6,5.3-1.32,6.35-.57s6.62,1.46,9,1.09S32.85,189,32.85,189Z"/><path class="cls-5" d="M4.1,162.44a19.76,19.76,0,0,1,.45-4.2,72.14,72.14,0,0,0,1.51-14.13c0-6.68.85-8.8.85-8.8l8.16-2.46s4.15,7.62,0,20-2.15,25.51-2.15,25.51a2.19,2.19,0,0,1-1.3,1.8,6.91,6.91,0,0,1-6.23,0,2.21,2.21,0,0,1-1.3-1.8S4.19,166.85,4.1,162.44Z"/><path class="cls-6" d="M15.07,158.93c-.1-3.69-1.16-17.38-1.07-17.51l12.1-6.55c2.11,9,.87,15-1.56,23.88s-.65,28.79-.65,28.79h0a2.17,2.17,0,0,1-1.29,1.8,6.86,6.86,0,0,1-6.24,0,2.17,2.17,0,0,1-1.27-1.75h0c0,.21-.45-8.4-1.08-15.52S15.17,162.62,15.07,158.93Z"/><path class="cls-7" d="M.85,129.87a1.25,1.25,0,0,0,0,2.37,4.51,4.51,0,0,0,4.11,0,1.25,1.25,0,0,0,0-2.37A4.58,4.58,0,0,0,.85,129.87Z"/><path class="cls-7" d="M5.48,90.32a5.16,5.16,0,0,0-4.36,5.22C.87,100.54,0,131.06,0,131.06H5.81s1.1-25.36,1.1-30.66A39.77,39.77,0,0,0,5.48,90.32Z"/><path class="cls-8" d="M3.14,102.23c.79,5.14,2.61,20,2.35,23.19-.26,3,0,10.42.09,10.83,0,0,0,.74,0,.74,0,1.55,1.09,3.09,3.13,4.27,3.71,2.13,9.44,2.38,13.61.74a12.45,12.45,0,0,0,1.56-.74,7.52,7.52,0,0,0,2.18-1.83h0a4.79,4.79,0,0,0,.58-.91.58.58,0,0,0,.06-.17,2.38,2.38,0,0,0,.17-.49.83.83,0,0,0,.06-.21,3.4,3.4,0,0,0,.08-.64h0s.39-11,.67-20.52c.17-5.6.3-10.69.3-12.78,0-3.72-6.34-8.16-6.34-8.16L18.27,94,8.91,90s-3.66,0-5.08.93S2.62,98.82,3.14,102.23Z"/><path class="cls-4" d="M8,77.44a24.66,24.66,0,0,0,2.81,9.49,11.26,11.26,0,0,0,4.66.89,2.71,2.71,0,0,0,.41,0,4.8,4.8,0,0,0,1.54-.45,7.23,7.23,0,0,0,.84-.51,22.5,22.5,0,0,0,1.11-4.68C19,80.67,19.23,79.38,21,79.2s1.06,3.07,1.06,3.07l1.46-.15.12-1.92A5.45,5.45,0,0,1,25,77.13a1.37,1.37,0,0,0,.22-.62,13,13,0,0,0-.86-4,.15.15,0,0,0-.05-.07c-1-1.72-3.22-3.38-7.77-3.45a11.25,11.25,0,0,0-4.92.84C7.42,71.71,8,76.27,8,77.44Z"/><path class="cls-9" d="M10.14,88.3s.33-.6.41-.6,8.7,2.58,9.55,6.5l-9-4.64Z"/><path class="cls-10" d="M32.59,143a7.54,7.54,0,0,1,1,4.38,9.88,9.88,0,0,1-1,3.87s-2.36,1.45-2.71,1.21a10.45,10.45,0,0,0-1.84-.6V151a2.23,2.23,0,0,0,1.54-1.3c.3-1-1.3-3.61-.59-6S32.59,143,32.59,143Z"/><path class="cls-11" d="M19.48,109.3a3.06,3.06,0,0,0,.28,1.35C19.58,109.8,19.48,109.3,19.48,109.3Z"/><path class="cls-7" d="M19.48,109.3s.1.5.28,1.35c.66,3.24,2.16,11.85,3.76,17,1.15,3.75,2.48,7.57,3.4,10.15A37.8,37.8,0,0,1,28.07,143v0a1.65,1.65,0,0,0,.81.94,4.53,4.53,0,0,0,4.12,0,1.46,1.46,0,0,0,.85-1.19,1.26,1.26,0,0,0,0-.27c-.35-2.08-3.19-15.55-4.11-20.87-1-5.68-1.62-17.26-1.62-17.26a3.22,3.22,0,0,0-.05-.63A2,2,0,0,0,26.66,102a3.65,3.65,0,0,0-2.87.55C21.41,103.88,19.48,106.92,19.48,109.3Z"/><path class="cls-7" d="M8.91,90s.93-1.87,1.13-1.87a18.68,18.68,0,0,1,6.13,2.56c4.28,3,5.53,4.9,5.53,4.9a62.4,62.4,0,0,1-10-2.66C8.25,91.41,8.91,90,8.91,90Z"/><path class="cls-6" d="M116.39,35.58a8.17,8.17,0,0,1,2,1.64A12.38,12.38,0,0,1,121,41.75a8.12,8.12,0,0,1,.42,2.56V165.38a6.13,6.13,0,0,1-.07.94,3.71,3.71,0,0,1-.72,1.7,2.25,2.25,0,0,1-.69.62q-2.44,1.4-4.87,2.81a3.15,3.15,0,0,0,1.15-1.42,5,5,0,0,0,.3-1.83V47.14a8.17,8.17,0,0,0-.41-2.57,12.42,12.42,0,0,0-2.61-4.52,8.46,8.46,0,0,0-2-1.64Z"/><path class="cls-5" d="M111.51,38.41a8.46,8.46,0,0,1,2,1.64,12.42,12.42,0,0,1,2.61,4.52,8.17,8.17,0,0,1,.41,2.57V168.2a5,5,0,0,1-.3,1.83,3.15,3.15,0,0,1-1.15,1.42h0a2,2,0,0,1-.53.24,4.15,4.15,0,0,1-3-.59L51,136.2a8.31,8.31,0,0,1-2-1.64A12.42,12.42,0,0,1,46.41,130a8.13,8.13,0,0,1-.41-2.57V6.41a4.77,4.77,0,0,1,.31-1.83,3,3,0,0,1,1.17-1.43A2,2,0,0,1,48,2.91a4.18,4.18,0,0,1,3,.59Zm0,8.3a5,5,0,0,0-.12-1.45,2.7,2.7,0,0,0-.27-.66,2.73,2.73,0,0,0-.4-.6,3.39,3.39,0,0,0-.71-.65c-.32-.22-1-.59-1-.59L52.23,10a1.29,1.29,0,0,0-.48,0,1,1,0,0,0-.33.13,1,1,0,0,0-.23.28,1.86,1.86,0,0,0-.14.45s0,75.74,0,112.35c0,0,0,.5,0,.73a3.38,3.38,0,0,0,.11.72,3.48,3.48,0,0,0,.27.67,3.4,3.4,0,0,0,.4.59,5.89,5.89,0,0,0,.71.65l57,32.9a3.83,3.83,0,0,0,.74.4,1,1,0,0,0,.48,0,.66.66,0,0,0,.33-.12.85.85,0,0,0,.23-.27,1.23,1.23,0,0,0,.14-.46,3.93,3.93,0,0,0,0-.84Z"/><path class="cls-12" d="M111.39,45.26a5,5,0,0,1,.12,1.45l0,111.51a3.93,3.93,0,0,1,0,.84,1.23,1.23,0,0,1-.14.46.85.85,0,0,1-.23.27.66.66,0,0,1-.33.12,1,1,0,0,1-.48,0,3.83,3.83,0,0,1-.74-.4l-57-32.9a5.89,5.89,0,0,1-.71-.65,3.4,3.4,0,0,1-.4-.59,3.48,3.48,0,0,1-.27-.67,3.38,3.38,0,0,1-.11-.72c0-.23,0-.73,0-.73,0-36.61,0-112.35,0-112.35a1.86,1.86,0,0,1,.14-.45,1,1,0,0,1,.23-.28,1,1,0,0,1,.33-.13,1.29,1.29,0,0,1,.48,0L109,42.76s.72.37,1,.59a3.39,3.39,0,0,1,.71.65,2.73,2.73,0,0,1,.4.6A2.7,2.7,0,0,1,111.39,45.26Z"/><path class="cls-5" d="M63.37,7.79h0a3.71,3.71,0,0,1-3.37,0c-.94-.54-.94-1.41,0-1.94a3.71,3.71,0,0,1,3.37,0A1,1,0,0,1,63.37,7.79Z"/><path class="cls-6" d="M47.48,3.15,52.37.32A2.4,2.4,0,0,1,53.25,0a3.61,3.61,0,0,1,1.84.24,5,5,0,0,1,.84.41l60.46,34.9-4.88,2.83L51,3.5a4.18,4.18,0,0,0-3-.59A2,2,0,0,0,47.48,3.15ZM63.36,7.79a1,1,0,0,0,0-1.94,3.71,3.71,0,0,0-3.37,0c-.94.53-.94,1.4,0,1.94A3.71,3.71,0,0,0,63.36,7.79Z"/><path class="cls-5" d="M63.37,7.79h0a3.71,3.71,0,0,1-3.37,0c-.94-.54-.94-1.41,0-1.94a3.71,3.71,0,0,1,3.37,0S63.37,6.82,63.37,7.79Z"/><path class="cls-13" d="M119,74.37a1.24,1.24,0,0,1-.38.14.6.6,0,0,1-.39-.07l0,0-.06,0a.9.9,0,0,1-.21-.62V65.48a1.76,1.76,0,0,1,.09-.55,2.56,2.56,0,0,1,.55-1,1.51,1.51,0,0,1,.44-.36l.94-.55a.93.93,0,0,1,.65-.12l.12.05a.61.61,0,0,1,.24.31.87.87,0,0,1,.07.39V72a1.76,1.76,0,0,1-.09.55,2.55,2.55,0,0,1-.56,1,1.79,1.79,0,0,1-.43.35Z"/><path class="cls-5" d="M117.92,73.75a.9.9,0,0,0,.21.62l.06,0-.52-.3a.65.65,0,0,1-.16-.13.91.91,0,0,1-.15-.37c0-.07,0-.14,0-.2V65.16l.57.32Z"/><path class="cls-5" d="M119.55,62.65c-.45.24-.9.5-1.33.78a2.6,2.6,0,0,0-.8,1.3,2.73,2.73,0,0,0,0,.76v2.33l0,3.1v2.33a1.13,1.13,0,0,0,.16.74,1.07,1.07,0,0,1-.16-.74V70.92l0-3.1V65.49a3.34,3.34,0,0,1,.06-.77,2.64,2.64,0,0,1,.82-1.3c.21-.15.44-.26.66-.4S119.32,62.75,119.55,62.65Z"/><path class="cls-13" d="M119,88.83a1.24,1.24,0,0,1-.38.14.6.6,0,0,1-.39-.07l0,0-.06,0a.9.9,0,0,1-.21-.62V80a1.82,1.82,0,0,1,.09-.56,2.56,2.56,0,0,1,.55-1,1.34,1.34,0,0,1,.44-.35l.94-.55a.89.89,0,0,1,.65-.13l.12,0a.66.66,0,0,1,.24.31.87.87,0,0,1,.07.39v8.26a1.71,1.71,0,0,1-.09.55,2.55,2.55,0,0,1-.56,1,1.79,1.79,0,0,1-.43.35Z"/><path class="cls-5" d="M117.92,88.21a.9.9,0,0,0,.21.62l.06,0-.52-.3a.65.65,0,0,1-.16-.13.85.85,0,0,1-.15-.37c0-.07,0-.14,0-.2V79.62l.57.33Z"/><path class="cls-5" d="M119.55,77.11a15,15,0,0,0-1.33.79,2.53,2.53,0,0,0-.8,1.29,2.78,2.78,0,0,0,0,.76v2.33l0,3.1v2.33a1.13,1.13,0,0,0,.16.74,1.07,1.07,0,0,1-.16-.74V85.38l0-3.1V80a3.34,3.34,0,0,1,.06-.77,2.64,2.64,0,0,1,.82-1.3c.21-.15.44-.26.66-.4S119.32,77.21,119.55,77.11Z"/><polygon class="cls-14" points="116.54 167.58 116.42 107.05 116.54 46.52 116.66 107.05 116.54 167.58"/><path class="cls-5" d="M61,122.85h0c-.91-.52-1.65-.21-1.65.7h0A3.41,3.41,0,0,0,61,126.16h0c.92.53,1.66.22,1.66-.7h0A3.43,3.43,0,0,0,61,122.85Z"/><path class="cls-5" d="M95.43,142.88,67.61,126.67c-.91-.52-1.65-.21-1.65.7h0A3.41,3.41,0,0,0,67.61,130l27.82,16.21c.91.53,1.65.21,1.65-.7h0A3.45,3.45,0,0,0,95.43,142.88Z"/><path class="cls-5" d="M61,116.21h0c-.91-.53-1.65-.21-1.65.7h0A3.45,3.45,0,0,0,61,119.52h0c.92.53,1.66.21,1.66-.7h0A3.43,3.43,0,0,0,61,116.21Z"/><path class="cls-5" d="M95.43,136.24,67.61,120c-.91-.53-1.65-.21-1.65.7h0a3.45,3.45,0,0,0,1.65,2.61l27.82,16.21c.91.52,1.65.21,1.65-.7h0A3.41,3.41,0,0,0,95.43,136.24Z"/><path class="cls-5" d="M61,109.57h0c-.91-.53-1.65-.22-1.65.7h0A3.45,3.45,0,0,0,61,112.88h0c.92.52,1.66.21,1.66-.7h0A3.42,3.42,0,0,0,61,109.57Z"/><path class="cls-5" d="M95.43,129.59l-27.82-16.2c-.91-.53-1.65-.22-1.65.7h0a3.45,3.45,0,0,0,1.65,2.61l27.82,16.2c.91.53,1.65.22,1.65-.7h0A3.45,3.45,0,0,0,95.43,129.59Z"/><path class="cls-13" d="M57.21,84.42l44.71,25.81c.72.42,1.3.17,1.3-.55V46.42a2.68,2.68,0,0,0-1.3-2.05L57.21,18.55c-.72-.41-1.3-.16-1.3.56V82.37A2.68,2.68,0,0,0,57.21,84.42Z"/><path class="cls-9" d="M101.8,52.12a1.38,1.38,0,0,0-.59-.82L57.27,25.93l.06,56.44a1.46,1.46,0,0,0,.59.82l44,25.37Z"/><path class="cls-5" d="M57.26,22a2.23,2.23,0,0,0,1.08,1.71c.6.35,1.09.14,1.09-.46a2.27,2.27,0,0,0-1.09-1.71C57.74,21.16,57.26,21.36,57.26,22Z"/><path class="cls-5" d="M60,23.57a2.24,2.24,0,0,0,1.08,1.71c.6.35,1.09.14,1.09-.46a2.26,2.26,0,0,0-1.09-1.71C60.5,22.77,60,23,60,23.57Z"/><path class="cls-5" d="M62.78,25.18a2.24,2.24,0,0,0,1.09,1.71c.59.35,1.08.14,1.08-.46a2.29,2.29,0,0,0-1.08-1.71C63.27,24.38,62.78,24.58,62.78,25.18Z"/><path class="cls-15" d="M74.38,77.83c0,.28,0,.57,0,.89s0,.64,0,1c0,0,0,.06,0,.08,0,.34-.08.91-.16,1.64,0,.3-.08.64-.13,1h0c-.08.58-.17,1.2-.25,1.86,0,.32-.1.66-.14,1s-.09.55-.13.82l-.18,1.14c-.14.91-.29,1.79-.43,2.58h0c-.09.47-.16.9-.24,1.28l-5.22-3s0,.08,0,.14a1,1,0,0,1,0-.15l-.61-.35c0-1-.12-2.16-.11-3.06h0a8.43,8.43,0,0,1,.06-1.08c.06-.43.12-.89.18-1.34.11-.85.23-1.72.34-2.51.12-1,.24-2,.32-2.69,0,0,0,0,0,0a9.48,9.48,0,0,1,.68-3.24,7.45,7.45,0,0,1,.73-1.4c0-.11.15-.2.2-.3a3.64,3.64,0,0,1,.61-.67h0l.1-.08.13-.1a4.89,4.89,0,0,1,.56-.26.13.13,0,0,1,.08,0h0a3,3,0,0,1,1-.28,1.46,1.46,0,0,1,.6.11l.29.16a2.41,2.41,0,0,1,.35.25,2.85,2.85,0,0,1,.67,1A4.44,4.44,0,0,1,74,73.22a.76.76,0,0,1,.06.2c0,.25.08.49.11.75s0,.48,0,.74h0v0a14.45,14.45,0,0,1,.13,1.45c0,.2,0,.42,0,.66S74.38,77.55,74.38,77.83Z"/><path class="cls-16" d="M66.62,84.09a1.23,1.23,0,0,0,0,.27,1.31,1.31,0,0,0,.06.27l0,0a2.19,2.19,0,0,0,1.16,1.25,6.74,6.74,0,0,0,5,.44A4.44,4.44,0,0,0,74,85.9a2.33,2.33,0,0,0,.84-.72,1.65,1.65,0,0,0-.31-2.43,3.59,3.59,0,0,0-.53-.38,5.48,5.48,0,0,0-1-.42L73,73.1l-5.27-3C65.45,71.69,66.41,80.17,66.62,84.09Z"/><path class="cls-17" d="M83.1,61.58s-1.33,2.89-1.19,3.77a23.43,23.43,0,0,1-.71-2.83A17.71,17.71,0,0,0,83.1,61.58Z"/><path class="cls-18" d="M83.76,68.26s-.15,1.09-.48,2.82v0s0,0,0,0c-.19,1-.42,2.1-.73,3.35-.19.81-.41,1.65-.65,2.52v0a45.63,45.63,0,0,1-1.49,4.56c-.18.49-.37,1-.57,1.46-.29.68-.6,1.36-.93,2-.24.5-.49,1-.76,1.44-.36.61-.73,1.2-1.13,1.75a11.26,11.26,0,0,1-3.51,3.36L73,91.31c0-.34,0-.84-.08-1.47h0c0-.75-.08-1.68-.12-2.73,0-.24,0-.48,0-.73,0-.42,0-.87,0-1.33s0-.73,0-1.11c0-1,0-1.93-.06-2.93,0-2.77,0-5.65.14-8,0-.38,0-.75.1-1.1L73,71.2l0-.33c.07-.64.17-1.21.26-1.7h0c0-.23.1-.43.16-.62,0,0,1-.85,2-1.82,1.44-1.4,2.35-4.23,5.3-4.13a3.14,3.14,0,0,1,.51,0h.14s0,.15.07.4a2.09,2.09,0,0,0,0,.21A16,16,0,0,0,81.91,65h0a10.92,10.92,0,0,0,.85,2h0A3.64,3.64,0,0,0,83.76,68.26Z"/><path class="cls-19" d="M85.42,80a3,3,0,0,0,.25,1.19c-.1-.68-.19-1.21-.24-1.5C85.42,79.77,85.42,79.87,85.42,80Z"/><path class="cls-20" d="M86.49,86.4c.15.94.28,1.78.38,2.36a.28.28,0,0,1,0,.06c0,.06,0,.14,0,.22h0s0,0,0,.06V89h0c.13-2.23-.23-2.59.41-4.92.09-.31.79-2.38,1-2.91a.31.31,0,0,0,0-.08c.08-.25.89-1.83,1-2.07a5.59,5.59,0,0,0-.46.58A19.66,19.66,0,0,0,86.49,86.4Z"/><path class="cls-18" d="M70.58,72.2v8.21l9.81,2.77V76.84a3.89,3.89,0,0,1,0-.47A9.63,9.63,0,0,1,84.72,70a5.81,5.81,0,0,1,1.19-.56l.35-.11c.07,0-.43-.09-.36-.09-.6-.43-3.13-2.13-3.13-2.13s-4.89,6.73-5.14,6.73c-.09-.16-4.59-.69-4.59-.69L72.82,73a27,27,0,0,1,.44-3.79,5.55,5.55,0,0,1-1-1.09l-.16.06.07.14C70.85,68.84,70.58,71.36,70.58,72.2Z"/><path class="cls-21" d="M92.26,73.38l-.73,1a1.59,1.59,0,0,0-.13.22,22.68,22.68,0,0,0-2.55,5,0,0,0,0,0,0,0h0l-.27.73c-.06.17-.11.34-.18.51s0,.15-.06.23a.09.09,0,0,1,0,.08c0,.09-.05.18-.07.26s-.12.43-.18.66c-.17.65-.33,1.3-.46,2h0c-.15.73-.27,1.44-.38,2.16l.08.15,1.48,2.43.16.27s.07.6.15,1.58a.09.09,0,0,1,0,.06.84.84,0,0,1,0,.19c0,.13,0,.28,0,.46l0,.26,0,.33q0,.21,0,.45c0,.22,0,.47.1.74a3.57,3.57,0,0,1,0,.47c0,.18,0,.38,0,.56a5.42,5.42,0,0,1,.06.58c.21,2.31.42,4.77.49,6.25L87.14,99.4l-7.82-4.48-.2-.11-5.63-3.23L73,91.31l-.32-.19-5.22-3h0v-.06a1.21,1.21,0,0,0,0-.19v-.09c0-.11,0-.21,0-.31,0-.48-.09-1.18-.16-2s-.19-2-.29-3.18c-.3-3.77-.53-8.38.21-10.89,0-.11,0-.22.06-.31a2.86,2.86,0,0,1,.41-.82,1.06,1.06,0,0,0,.1-.17s.36-.17.92-.44h0l.37-.17.38-.16.16-.07.87-.38.26-.12.83-.36.56-.25.06.13a1.34,1.34,0,0,0-.36.22l-.15.13a1.5,1.5,0,0,0-.11.13,1,1,0,0,0-.15.19,3.45,3.45,0,0,0-.2.32h0c-.06.13-.13.27-.18.41a5.54,5.54,0,0,0-.26.88c0,.15-.07.29-.09.43s-.06.5-.08.71v.12a.76.76,0,0,1,0,.15c0,.09,0,.16,0,.23v8.2l2.08.59h0l.26.07h0l1.25.36L79.82,83h0l.56.16V76.84a2.22,2.22,0,0,1,.06-.45v0a5.41,5.41,0,0,1,.12-.66c.05-.23.12-.46.19-.69h0c.08-.23.17-.46.26-.69s.21-.44.33-.67a0,0,0,0,0,0,0c.08-.14.15-.29.24-.43a3.45,3.45,0,0,1,.25-.41,1.15,1.15,0,0,1,.14-.19,2.43,2.43,0,0,1,.24-.32l.23-.3a2,2,0,0,1,.18-.23h0l.06-.06.11-.13.45-.45h0a2.2,2.2,0,0,1,.27-.26,3.9,3.9,0,0,1,.38-.33,8.54,8.54,0,0,1,.78-.56l.31-.17a3.86,3.86,0,0,1,.59-.27,1.82,1.82,0,0,1,.3-.11h0l.33-.11h0l.1,0a.18.18,0,0,1,.1,0v0s0,0,0,0h0L89,71.06h0c1.85,1.32,3,2.09,3.24,2.28Z"/><path class="cls-15" d="M73.51,69.37a4.68,4.68,0,0,0,0,.65,8.11,8.11,0,0,0,4.55-1.64,8.05,8.05,0,0,0,1.9-3,6.65,6.65,0,0,1-2.29,2.51C76,68.71,74,69.73,73.51,69.37Z"/><path class="cls-21" d="M68.35,78.2s2,4.93,2.12,5l5.94,2,4.41-.22.63-4.06.64-5.76,2.34-3.47,2-2.41-3.7-2.19s-3.86,6.83-7.56,6.31c0,0-1.72.09-1.69-4a.66.66,0,0,1-.2-.16l0,0a5.55,5.55,0,0,1-1-1.09,0,0,0,0,0,0,0l-1.79.82Z"/><path class="cls-22" d="M90.07,101.07,90,101,87.14,99.4l-7.82-4.48-.2-.11-5.63-3.23L73,91.31l-.32-.19-5.22-3s0,.08,0,.14a1,1,0,0,1,0-.15v-.06a1.21,1.21,0,0,0,0-.19v-.09c0-.11,0-.21,0-.31s0-.25,0-.38a9.63,9.63,0,0,1,0-1.46h0a11.74,11.74,0,0,1,.33-2,19,19,0,0,0,.54-4.83V72.22a10.48,10.48,0,0,1,.16-1.69v0c0-.27.11-.56.19-.85l.37-.17.38-.16.16-.07c.58-.29,1.21-.59,2-.94l0,.05v0l-.24.47a2.35,2.35,0,0,0-.11.4s0,0,0,0A17.29,17.29,0,0,0,70.77,71h0c-.06.27-.11.53-.15.75a.49.49,0,0,1,0,.11.76.76,0,0,1,0,.15c0,.09,0,.16,0,.23v8.2l2.08.59h0l.26.07h0l1.25.36L79.82,83h0l.56.16V76.84a2.22,2.22,0,0,1,.06-.45v0a5.41,5.41,0,0,1,.12-.66c.05-.23.12-.46.19-.69h0a12.42,12.42,0,0,1,.59-1.36,0,0,0,0,0,0,0c.08-.14.15-.29.24-.43a3.45,3.45,0,0,1,.25-.41,1.15,1.15,0,0,1,.14-.19,2.43,2.43,0,0,1,.24-.32l.23-.3a2,2,0,0,1,.18-.23h0l.06-.06.11-.13.45-.45h0v0a3.08,3.08,0,0,1,.27-.24,3.9,3.9,0,0,1,.38-.33,8.54,8.54,0,0,1,.78-.56l.31-.17a3.86,3.86,0,0,1,.59-.27,1.82,1.82,0,0,1,.3-.11h0l.33-.11h0l.1,0a.11.11,0,0,1,.08,0h0v0l0,0h0L89,71.06a4.74,4.74,0,0,0-3.09.8,7.33,7.33,0,0,0-3.24,5v9.28a11.72,11.72,0,0,0,2.76,4,3.54,3.54,0,0,0,1.57.84h0a2.83,2.83,0,0,0,2.1-.25.09.09,0,0,1,0,.06.84.84,0,0,1,0,.19c0,.13,0,.28,0,.46l0,.26,0,.33c0,.12,0,.24,0,.37s0,.49.09.76v.16c0,.29.06.61.09.93a5.42,5.42,0,0,1,.06.58C89.7,96.71,89.92,99,90.07,101.07Z"/><path class="cls-23" d="M79.48,86.82c0,2.71-.1,5.4-.16,8.1l-.2-.11c.08-2,.16-4,.25-6Z"/><polygon class="cls-23" points="79.48 86.83 70.35 84.42 70.35 86.43 79.37 88.86 79.48 86.83"/><path class="cls-17" d="M69.6,56.31s.09,2.83.59,3.41.4-4.15.4-4.15Z"/><path class="cls-18" d="M69.94,60.12a7.09,7.09,0,0,1,.51,2.38,12.2,12.2,0,0,0,1.81,5.56s.1.13.1.13a4.59,4.59,0,0,0,1,1,.25.25,0,0,0,.13.12.42.42,0,0,1,.11.07s.11,0,.13,0c.54.35,2.41-.72,4.13-1.52a6.7,6.7,0,0,0,2.3-2.52,21.53,21.53,0,0,0,1.16-2.21c1.22-.8.22-1.47,2.83-5.15-1-8.48-7.32-7.52-7.32-7.52C69.31,50.79,69.94,60.12,69.94,60.12Z"/><path class="cls-17" d="M69.6,56.31a1.07,1.07,0,0,1,1.13.14c.33.23.58.55.91.78a3.76,3.76,0,0,0,3.17.2c1.18-.34,2.77-1.16,4.23-.5a1.37,1.37,0,0,1,.5.82c.16.89,0,1.82.2,2.71a6.28,6.28,0,0,1,.15,1.33l1.2-.73,1.5,1.72A29.76,29.76,0,0,0,84.51,58a7.68,7.68,0,0,0-2.26-6.18A7.34,7.34,0,0,0,76.68,50c-3.43.13-6.45,1.92-7,5.55C69.68,55.68,69.64,56,69.6,56.31Z"/><path class="cls-18" d="M80.37,62.16a9.71,9.71,0,0,0,.18-1.41c0-.63.26-1.71,1.45-1.62,1.65.13.35,3.73-.2,4.1s-1.43-1.07-1.43-1.07Z"/><path class="cls-24" d="M68.68,56.35c2.41.76,5.71,2.24,8.28,2.08a.12.12,0,0,0,.08,0,4.66,4.66,0,0,0,1.19-.24,12.11,12.11,0,0,0,3.39-1.76,1.42,1.42,0,0,1,.87-.3,1.4,1.4,0,0,1,.45.28,5.53,5.53,0,0,1,1,2.94s.47,0,.58-.31.08-.7.08-4c0-.33,0-.66,0-1,0,0,0-.06,0-.1a7.47,7.47,0,0,0-5.32-6.45l-.2,0a8.66,8.66,0,0,0-4.64-.06c-3.54,1-4.75,5.51-5,6.65a5.08,5.08,0,0,1-.65,1.16C68.32,55.6,68.06,56.16,68.68,56.35Z"/><path class="cls-25" d="M77,58.41a4.66,4.66,0,0,0,1.19-.24,12.11,12.11,0,0,0,3.39-1.76,1.42,1.42,0,0,1,.87-.3,1.4,1.4,0,0,1,.45.28,5.53,5.53,0,0,1,1,2.94s.47,0,.58-.31.08-.7.08-4c0-.33,0-.66,0-1,0,0,0-.06,0-.1a7.47,7.47,0,0,0-5.32-6.45,4.83,4.83,0,0,1,1.49,2c.94,2.39-.14,4.79-1.27,6.62A6.54,6.54,0,0,1,77,58.41Z"/><path class="cls-18" d="M92.55,86.34c0,.43,0,.79,0,1s0,.4,0,.66c-.14,2.16-.42,6.62-.75,8.58-.18,1.08-.3,3.18-.38,5.18l-1.28-.74L90,101,87.14,99.4c0-2.38-.08-5.26-.18-8.47,0-.69,0-1.38-.08-2.09a0,0,0,0,0,0,0c0-.13,0-.26,0-.4,0-.49,0-1-.05-1.49,0-.1,0-.28,0-.53s0-.86,0-1.42v-.64a41.29,41.29,0,0,0-.18-4.66l2.23-.07H89l3.28-.12s.15,2.85.21,5.23C92.55,85.29,92.55,85.86,92.55,86.34Z"/><path class="cls-26" d="M85,86.32a2.07,2.07,0,0,0,.11.56,2.19,2.19,0,0,0,1.16,1.25,6.67,6.67,0,0,0,6.09,0,2.17,2.17,0,0,0,.84-.72A1.65,1.65,0,0,0,92.88,85a3.13,3.13,0,0,0-.53-.38,6.8,6.8,0,0,0-6.09,0A2.2,2.2,0,0,0,85,86.32Z"/><path class="cls-26" d="M85,86.41s8.6-.1,8.6-.1l-.44-11a2.25,2.25,0,0,0-.89-1.94,2.22,2.22,0,0,0-1.8-.17h0a6.45,6.45,0,0,0-1.22.53C84.5,76.11,85,86.39,85,86.41Z"/><path class="cls-5" d="M102.91,118.09,61.23,94.36c-1.36-.78-3.83,1.9-3.83,3.26l0-.32a5.09,5.09,0,0,0,2.46,3.88l41.44,24.14c1.36.79,3.72-.94,3.72-2.3v-1.78A3.53,3.53,0,0,0,102.91,118.09Z"/><path class="cls-27" d="M61.18,99.59a2.54,2.54,0,0,0,.76.68c.48.26.84.19,1-.13s0-.59-.46-1-.8-1-.64-1.45.78-.62,1.48-.23A2.68,2.68,0,0,1,64,98l-.25.27a2.07,2.07,0,0,0-.64-.54c-.49-.28-.77-.12-.85.1s.07.58.51,1,.76,1,.59,1.47-.74.7-1.59.22a2.73,2.73,0,0,1-.85-.72Z"/><path class="cls-27" d="M67.38,101.69a1.43,1.43,0,0,1-2.27.77,2.12,2.12,0,0,1-1.06-2.56,1.45,1.45,0,0,1,2.27-.76A2.1,2.1,0,0,1,67.38,101.69Zm-2.83-1.52a1.62,1.62,0,0,0,.7,2,1.07,1.07,0,0,0,1.63-.7,1.62,1.62,0,0,0-.7-2A1.07,1.07,0,0,0,64.55,100.17Z"/><path class="cls-27" d="M68.07,104.05l.47-1.37-.49-2.51.53.3.2,1.18c0,.32.09.58.13.87h0a6.63,6.63,0,0,1,.6-.47l.83-.6.53.3L69,102.94l-.48,1.38Z"/><path class="cls-27" d="M73.71,105.4l-1.41-.79-.4,1.17,1.56.88-.12.35-2-1.14,1.12-3.24,2,1.09-.13.35-1.48-.83-.36,1,1.41.79Z"/><path class="cls-27" d="M74.06,106.8a2.47,2.47,0,0,0,.77.68c.47.27.83.2,1-.13s0-.58-.46-1-.8-1-.64-1.46.77-.62,1.48-.22a2.47,2.47,0,0,1,.74.6l-.25.27A2.15,2.15,0,0,0,76,105c-.49-.27-.78-.11-.85.11s.06.57.5,1,.76,1,.6,1.47-.74.7-1.6.22a2.86,2.86,0,0,1-.85-.72Z"/><path class="cls-27" d="M77.71,105.63a7.13,7.13,0,0,1,.92.44,2.3,2.3,0,0,1,.92.83,1.08,1.08,0,0,1,.08.86.78.78,0,0,1-.52.54,1.72,1.72,0,0,1-1.23-.27,2.15,2.15,0,0,1-.37-.24l-.45,1.3-.46-.26Zm-.08,1.82a2.78,2.78,0,0,0,.38.25c.56.32,1,.26,1.15-.18s-.12-.83-.64-1.12a3,3,0,0,0-.45-.21Z"/><path class="cls-27" d="M81.86,110l-1.41-.79L80,110.34l1.57.88-.12.35-2-1.14,1.13-3.24,2,1.09-.12.35-1.49-.83-.35,1,1.41.78Z"/><path class="cls-27" d="M84.66,113.22a3,3,0,0,1-1-.38,2.21,2.21,0,0,1-1.22-2.64c.36-1,1.36-1.27,2.49-.65a3.12,3.12,0,0,1,.81.63l-.24.28a2.49,2.49,0,0,0-.68-.55c-.85-.47-1.58-.3-1.88.55a1.7,1.7,0,0,0,.94,2.08,2.63,2.63,0,0,0,.81.3Z"/><path class="cls-27" d="M86.8,110.67l-1.12,3.25-.47-.27,1.13-3.24Z"/><path class="cls-27" d="M87.44,113.68l-.73.81-.49-.27,2.36-2.55.56.31.11,3.94-.5-.28,0-1.24Zm1.3.34,0-1.13c0-.26,0-.48,0-.7h0c-.12.17-.25.33-.38.49l-.68.74Z"/><path class="cls-27" d="M90.91,113l.46.26-1,2.9,1.55.86-.12.35-2-1.13Z"/><path class="cls-27" d="M93.91,114.65l-1.12,3.25-.47-.27,1.12-3.24Z"/><path class="cls-27" d="M93.71,117.81a2.59,2.59,0,0,0,.77.68c.48.27.84.2,1-.13s0-.58-.46-1-.8-1-.64-1.45.77-.62,1.48-.23a2.47,2.47,0,0,1,.74.61l-.24.27a2.39,2.39,0,0,0-.64-.54c-.49-.28-.77-.12-.85.11s.07.57.5,1,.76,1,.6,1.47-.74.71-1.59.23a2.92,2.92,0,0,1-.86-.73Z"/><path class="cls-27" d="M97.94,117.34l-1.1-.62.12-.36,2.68,1.5-.12.36-1.11-.62-1,2.89-.47-.27Z"/><path class="cls-27" d="M99.46,120.41l-.73.81-.49-.27,2.36-2.55.56.32.11,3.93-.5-.28,0-1.24Zm1.3.34,0-1.13c0-.26,0-.48,0-.7h0l-.38.48-.68.74Z"/></g></g></g></svg>