<svg xmlns="http://www.w3.org/2000/svg" viewBox="0 0 128.59 140.9"><defs><style>.cls-1{fill:#3d4180;}.cls-2{fill:#2f3361;}.cls-21,.cls-3{fill:#191b45;}.cls-4{fill:#fff;}.cls-5{fill:#232844;}.cls-6{fill:#aba8ff;}.cls-7{fill:#c8d9e8;}.cls-8{fill:#e35d20;}.cls-9{fill:#96a7d9;}.cls-10{fill:#f99b79;}.cls-11{fill:#ebc89f;}.cls-12{fill:#070e18;}.cls-13{fill:#faab8b;}.cls-14{fill:#f8dab8;}.cls-15{fill:#354067;}.cls-16{fill:#f2bd5b;}.cls-17{fill:#eca91b;}.cls-18{fill:#fbe8c5;}.cls-19{fill:#d3e3f0;}.cls-20{fill:#36c1ff;}.cls-21{font-size:4.84px;font-family:Ayuthaya;}</style></defs><title>6_1</title><g id="Capa_2" data-name="Capa 2"><g id="Capa_1-2" data-name="Capa 1"><path class="cls-1" d="M34.76,126.2l19-11a.59.59,0,0,0,.2.23L35,126.43A.73.73,0,0,1,34.76,126.2Z"/><path class="cls-1" d="M34.71,125.92l18.94-11a.45.45,0,0,0,.06.28l-19,11A.54.54,0,0,1,34.71,125.92Z"/><polygon class="cls-2" points="34.97 126.43 53.91 115.42 74.97 127.58 56.02 138.58 34.97 126.43"/><path class="cls-1" d="M75.64,129.83l-18.94,11a.66.66,0,0,0,.27-.61,2.09,2.09,0,0,0-.95-1.65l18.95-11a2.07,2.07,0,0,1,.94,1.64A.66.66,0,0,1,75.64,129.83Z"/><polygon class="cls-2" points="38.54 98.22 57.48 87.22 53.65 114.91 34.71 125.92 38.54 98.22"/><path class="cls-3" d="M37.6,96.42l.14.1a2,2,0,0,1,.8,1.7l-3.83,27.7a.54.54,0,0,0,0,.28.73.73,0,0,0,.21.23L56,138.58a2.09,2.09,0,0,1,.95,1.65c0,.61-.43.84-.95.54L35,128.62a4.69,4.69,0,0,1-1.64-1.81,4.06,4.06,0,0,1-.5-2.3l3.83-27.68C36.72,96.32,37.14,96.16,37.6,96.42Z"/><path class="cls-2" d="M89.18,13.15a.71.71,0,0,0-.26-.05.83.83,0,0,0-.54.15L3.66,59.84a2.76,2.76,0,0,0-.93,1.49,3.63,3.63,0,0,0-.24,1.16l.2,72.68a1.23,1.23,0,0,0,.05.35.69.69,0,0,0,.12.26.61.61,0,0,0,.17.15L.52,134.47a.83.83,0,0,1-.33-.76L0,61.06a3.73,3.73,0,0,1,.24-1.19,2.84,2.84,0,0,1,.93-1.49L85.89,11.8a.81.81,0,0,1,.85-.07Z"/><path class="cls-1" d="M89.77,84.89a2.61,2.61,0,0,1-1.17,2L4,135.76l-.13.08a.83.83,0,0,1-.83.09.83.83,0,0,1-.17-.15.69.69,0,0,1-.12-.26,1.23,1.23,0,0,1-.05-.35l-.2-72.68a3.63,3.63,0,0,1,.24-1.16,2.76,2.76,0,0,1,.93-1.49L88.38,13.25a.83.83,0,0,1,.54-.15.8.8,0,0,1,.26.05.82.82,0,0,1,.39.76Z"/><path class="cls-4" d="M3.66,59.84c14.05-7.9,28.18-15.63,42.28-23.45S74.19,20.88,88.38,13.25c-14,7.9-28.19,15.63-42.28,23.44S17.85,52.2,3.66,59.84Z"/><path class="cls-5" d="M4.82,64.19s.06-2.37.08-2.39L87.24,16.6l.19,63.63S5,127.81,5,127.81Z"/><path class="cls-3" d="M3,135.93.52,134.47a.83.83,0,0,1-.33-.76L0,61.06a3.73,3.73,0,0,1,.24-1.19l2.49,1.37v.09a3.63,3.63,0,0,0-.24,1.16l.2,72.68a1.23,1.23,0,0,0,.05.35.69.69,0,0,0,.12.26A.83.83,0,0,0,3,135.93Z"/><path class="cls-6" d="M2.49,62.56c.17,12.11.13,24.23.2,36.34s.17,24.15,0,36.27c-.17-12.12-.33-24.16-.4-36.27S2.32,74.67,2.49,62.56Z"/><path class="cls-7" d="M79.86,78.31,13.62,116.63c-.58.33-1.06.13-1.06-.45v-76a2.22,2.22,0,0,1,1.06-1.67L79.86.16c.59-.33,1.06-.13,1.06.45v76A2.19,2.19,0,0,1,79.86,78.31Z"/><path class="cls-4" d="M13.72,44.78a1.07,1.07,0,0,1,.48-.67l65.61-38,0,70.49a1.14,1.14,0,0,1-.47.67l-65.63,38Z"/><path class="cls-5" d="M79.83,2.93A1.84,1.84,0,0,1,79,4.32c-.49.28-.88.11-.88-.37A1.81,1.81,0,0,1,79,2.56C79.43,2.28,79.83,2.44,79.83,2.93Z"/><path class="cls-5" d="M77.58,4.24a1.81,1.81,0,0,1-.88,1.38c-.48.28-.88.12-.88-.37a1.85,1.85,0,0,1,.88-1.39C77.19,3.58,77.58,3.75,77.58,4.24Z"/><polygon class="cls-8" points="73.75 18.44 19.74 49.62 19.74 45.08 73.75 13.9 73.75 18.44"/><ellipse class="cls-9" cx="115.46" cy="23.89" rx="9.87" ry="17.45" transform="translate(8.83 74.2) rotate(-36.95)"/><path class="cls-4" d="M122,37.82A12.29,12.29,0,0,1,116.08,36c-6.9-4-12.52-12.79-12.52-19.64,0-4,2-6.35,5.34-6.35a12.33,12.33,0,0,1,5.94,1.87c6.9,4,12.51,12.79,12.51,19.64a7.06,7.06,0,0,1-1.5,4.79A5,5,0,0,1,122,37.82Z"/><path class="cls-10" d="M114.76,34.47v.12a11.51,11.51,0,0,1-1.12-.75,2.43,2.43,0,0,1-.28-.2c-.46-.34-.9-.72-1.33-1.1-.14-.12-.26-.24-.4-.38a10,10,0,0,1-.82-.78c-.12-.12-.24-.24-.34-.36s.06-.08.08-.1a4.2,4.2,0,0,1,.48-.54l.12-.08a.24.24,0,0,1,.1-.1s.2-.1.46-.2h0a.07.07,0,0,1,0,0,2.22,2.22,0,0,1,.81-.26,1.38,1.38,0,0,1,.5.08,2.11,2.11,0,0,1,.22.14,2,2,0,0,1,.3.2v0a2.17,2.17,0,0,1,.56.8,3.66,3.66,0,0,1,.32.9s0,.1,0,.16.08.4.1.6,0,.42,0,.62v0A8.7,8.7,0,0,1,114.76,34.47Z"/><path class="cls-11" d="M113.66,31.74l0,2.1a2.43,2.43,0,0,1-.28-.2c-.46-.34-.9-.72-1.33-1.1-.14-.12-.26-.24-.4-.38a10,10,0,0,1-.82-.78c-.12-.12-.24-.24-.34-.36a7.6,7.6,0,0,1-.66-.74c-.26-.26-.46-.52-.68-.78l-.06-.06a1,1,0,0,1,.22-.2l.62.34,1.16.68.08,0,.5.3h0l1.81,1Z"/><path class="cls-12" d="M122.06,22.14s-1.11,2.4-1,3.14a21.42,21.42,0,0,1-.59-2.36A15.73,15.73,0,0,0,122.06,22.14Z"/><path class="cls-13" d="M122.6,27.71s-.12.92-.39,2.35c-.1.54-.24,1.14-.38,1.82-.08.3-.14.62-.22,1-.18.7-.36,1.43-.58,2.19-.16.56-.34,1.16-.54,1.76-.22,0-.44,0-.68-.08l-.14,0A13.5,13.5,0,0,1,115.46,35c-.24-.14-.48-.28-.7-.44a11.51,11.51,0,0,1-1.12-.75,2.43,2.43,0,0,1-.28-.2c0-.7.06-1.38.12-2v0c0-.52.08-1,.12-1.46v0c0-.1,0-.18,0-.26a11.94,11.94,0,0,1,.2-1.41v0c0-.18.1-.34.14-.5,0,0,.82-.7,1.66-1.52,1.2-1.16,2-3.51,4.39-3.45h0a3,3,0,0,1,.42,0l.12,0s0,.14.06.34v0s0,.1,0,.14a12.6,12.6,0,0,0,.4,1.47v0a8.21,8.21,0,0,0,.68,1.68l0,0A3,3,0,0,0,122.6,27.71Z"/><path class="cls-13" d="M124.68,28.57l-.3.08a4.89,4.89,0,0,0-.48.2,4.08,4.08,0,0,0-.5.27,1.67,1.67,0,0,0-.24.16,2.73,2.73,0,0,0-.42.3,5.75,5.75,0,0,0-.53.48,1.53,1.53,0,0,0-.18.18,3.09,3.09,0,0,0-.48.54,2.79,2.79,0,0,0-.42.54,8,8,0,0,0-.54.88c-.12.24-.24.48-.34.72l-.06.16a3.45,3.45,0,0,0-.14.42s0,.06,0,.1a1.47,1.47,0,0,1-.08.28,5.58,5.58,0,0,0-.1.59,2.42,2.42,0,0,0,0,.38v1.86l-.14,0A13.5,13.5,0,0,1,115.46,35c-.24-.14-.48-.28-.7-.44a11.51,11.51,0,0,1-1.12-.75,2.43,2.43,0,0,1-.28-.2c-.46-.34-.9-.72-1.33-1.1-.14-.12-.26-.24-.4-.38V31a1.83,1.83,0,0,1,0-.32V30.6c0-.12,0-.24,0-.36s0-.16,0-.24h0a3.39,3.39,0,0,1,.12-.62c.06-.2.12-.4.19-.59,0,0,0,0,0-.06s0-.06,0-.08.12-.22.18-.32l.24-.3a.48.48,0,0,1,.16-.12.84.84,0,0,1,.28-.18l-.06-.12.14-.06.06.1a5.05,5.05,0,0,0,.74.8v0h0c-.08.4-.16.87-.22,1.41,0,.08,0,.16,0,.26v0c0,.46-.08.94-.12,1.46l.18.12.82.12a21.08,21.08,0,0,1,3,.46,22,22,0,0,0,2-2.48c.88-1.15,1.78-2.39,2.16-2.89a1.36,1.36,0,0,0,.12-.18.25.25,0,0,1,0-.06l0,0,.08,0c.4.28,2.07,1.4,2.51,1.72A1.67,1.67,0,0,1,124.68,28.57Z"/><path class="cls-14" d="M113,27.73a.84.84,0,0,0-.28.18.48.48,0,0,0-.16.12l-.24.3c-.06.1-.12.2-.18.32s0,.06,0,.08,0,0,0,.06c-.07.19-.13.39-.19.59a3.39,3.39,0,0,0-.12.62c0,.08,0,.16,0,.24s0,.24,0,.36v.08a1.83,1.83,0,0,0,0,.32v1.16a10,10,0,0,1-.82-.78c-.12-.12-.24-.24-.34-.36a7.6,7.6,0,0,1-.66-.74c-.26-.26-.46-.52-.68-.78l.06-.12c0-.06.08-.1.1-.14s.3-.14.76-.37l.54-.22a.15.15,0,0,1,.08,0l.86-.38.61-.28.32-.14,0,0,.42-.18Z"/><path class="cls-14" d="M127,30.1v.06a3.1,3.1,0,0,1,0,.44,8.1,8.1,0,0,1-.08,1,4.8,4.8,0,0,1-.2,1,5.51,5.51,0,0,1-2.24,3.35,4.67,4.67,0,0,1-.94.5,6,6,0,0,1-1.85.4h0a1.72,1.72,0,0,1-.32,0,4.18,4.18,0,0,1-.5,0,2.06,2.06,0,0,1-.34,0c-.22,0-.44,0-.68-.08V34.85a2.42,2.42,0,0,1,0-.38,5.58,5.58,0,0,1,.1-.59,1.47,1.47,0,0,0,.08-.28s0-.06,0-.1a3.45,3.45,0,0,1,.14-.42l.06-.16c.1-.24.22-.48.34-.72a8,8,0,0,1,.54-.88,2.79,2.79,0,0,1,.42-.54,3.09,3.09,0,0,1,.48-.54l.18-.18a5.75,5.75,0,0,1,.53-.48,2.73,2.73,0,0,1,.42-.3,1.67,1.67,0,0,1,.24-.16,4.08,4.08,0,0,1,.5-.27,4.89,4.89,0,0,1,.48-.2l.3-.08a.58.58,0,0,1,.18,0,0,0,0,0,0,0,0l0,0c.2.14.4.3.6.43h0c.42.32.82.6,1.18.88a1.67,1.67,0,0,1,.24.16Z"/><path class="cls-10" d="M114.06,28.63c0,.17,0,.37,0,.54a6.69,6.69,0,0,0,3.79-1.37,6.61,6.61,0,0,0,1.59-2.49,5.6,5.6,0,0,1-1.91,2.09C116.11,28.08,114.51,28.92,114.06,28.63Z"/><path class="cls-14" d="M124.86,28.53l-1.12,1.31-.58.68-.42.62-1.13,1.7-.4.58L121,35l-.2,1.78a2.06,2.06,0,0,1-.34,0c-.22,0-.44,0-.68-.08l-.14,0A13.5,13.5,0,0,1,115.46,35c-.24-.14-.48-.28-.7-.44a11.51,11.51,0,0,1-1.12-.75,2.43,2.43,0,0,1-.28-.2c-.46-.34-.9-.72-1.33-1.1-.14-.12-.26-.24-.4-.38a10,10,0,0,1-.82-.78l.22-1,0-.12.46-2,.61-.28.32-.14,0,0v0l.54-.24a0,0,0,0,1,0,0l.06.1a5.05,5.05,0,0,0,.74.8v0h0l0,0s0,0,0,0,0,.06.08.08l.06,0v.08a3.1,3.1,0,0,0,0,.45v0c.12,2.7,1.28,2.78,1.4,2.78,1.4.2,2.83-.9,4-2.12A16.4,16.4,0,0,0,121.61,27a1.36,1.36,0,0,0,.12-.18.25.25,0,0,1,0-.06l0,0,.08,0Z"/><path class="cls-15" d="M112.48,27.77v0l0,0-.22.4c0,.1-.08.26-.14.44,0,0,0,.06,0,.08-.09.35-.21.83-.31,1.25,0,.22-.08.44-.1.62,0,0,0,0,0,.08a1.83,1.83,0,0,0,0,.32v1.16a10,10,0,0,1-.82-.78c-.12-.12-.24-.24-.34-.36a7.6,7.6,0,0,1-.66-.74,5.34,5.34,0,0,1,.1-.7,4.45,4.45,0,0,1,.14-.69l.54-.24a.15.15,0,0,1,.08,0C111.19,28.35,111.77,28.09,112.48,27.77Z"/><path class="cls-15" d="M126.94,30c-.12,0-.34,0-.64,0h0a3.14,3.14,0,0,0-1.92.66,6.31,6.31,0,0,0-1.08.88,6,6,0,0,0-1.63,3.25v2a1.72,1.72,0,0,1-.32,0,4.18,4.18,0,0,1-.5,0,2.06,2.06,0,0,1-.34,0c-.22,0-.44,0-.68-.08V34.85a2.42,2.42,0,0,1,0-.38,5.58,5.58,0,0,1,.1-.59,1.47,1.47,0,0,0,.08-.28s0-.06,0-.1a3.45,3.45,0,0,1,.14-.42l.06-.16c.1-.24.22-.48.34-.72a8,8,0,0,1,.54-.88,2.79,2.79,0,0,1,.42-.54,3.09,3.09,0,0,1,.48-.54l.18-.18a5.75,5.75,0,0,1,.53-.48,2.73,2.73,0,0,1,.42-.3,1.88,1.88,0,0,1,.24-.18,3.89,3.89,0,0,1,.5-.25,4.89,4.89,0,0,1,.48-.2l.3-.08a.58.58,0,0,1,.18,0,0,0,0,0,0,0,0l0,0c.2.14.4.3.6.43h0c.42.32.82.6,1.18.88A1.67,1.67,0,0,1,126.94,30Z"/><path class="cls-12" d="M110.81,17.74s.07,2.36.49,2.84.33-3.45.33-3.45Z"/><path class="cls-13" d="M111.09,20.92a5.84,5.84,0,0,1,.43,2,10.21,10.21,0,0,0,1.5,4.63s.08.11.08.11a4,4,0,0,0,.8.86.21.21,0,0,0,.11.09c.07,0,0,0,.09.06s.09,0,.11,0c.45.3,2-.59,3.44-1.26a5.64,5.64,0,0,0,1.91-2.1,17.3,17.3,0,0,0,1-1.84c1-.67.18-1.23,2.36-4.29-.84-7.06-6.1-6.26-6.1-6.26C110.57,13.15,111.09,20.92,111.09,20.92Z"/><path class="cls-12" d="M110.81,17.74a.9.9,0,0,1,.94.12c.27.19.49.46.76.66a3.14,3.14,0,0,0,2.64.15c1-.27,2.31-1,3.52-.41a1.16,1.16,0,0,1,.42.68c.13.75,0,1.52.17,2.27a5,5,0,0,1,.12,1.1l1-.61,1.25,1.43a24.83,24.83,0,0,0,1.6-4A6.41,6.41,0,0,0,121.35,14a6.16,6.16,0,0,0-4.64-1.51c-2.86.11-5.37,1.6-5.82,4.62C110.88,17.22,110.84,17.45,110.81,17.74Z"/><path class="cls-13" d="M119.78,22.62a9.28,9.28,0,0,0,.15-1.18c0-.52.22-1.42,1.21-1.34,1.38.11.29,3.1-.17,3.41s-1.19-.89-1.19-.89Z"/><path class="cls-16" d="M110,17.78c2,.63,4.76,1.86,6.9,1.73H117a4.57,4.57,0,0,0,1-.2,10.13,10.13,0,0,0,2.82-1.48,1.18,1.18,0,0,1,.72-.24,1,1,0,0,1,.39.24,4.59,4.59,0,0,1,.79,2.44s.39,0,.49-.26a17.77,17.77,0,0,0,.07-3.36,7.55,7.55,0,0,0,0-.83s0-.06,0-.09a6.2,6.2,0,0,0-4.43-5.37l-.16,0a7.33,7.33,0,0,0-3.87,0c-3,.86-4,4.59-4.17,5.54a4,4,0,0,1-.54,1C109.74,17.15,109.53,17.62,110,17.78Z"/><path class="cls-17" d="M117,19.5a4.57,4.57,0,0,0,1-.2,10.13,10.13,0,0,0,2.82-1.48,1.18,1.18,0,0,1,.72-.24,1,1,0,0,1,.39.24,4.59,4.59,0,0,1,.79,2.44s.39,0,.49-.26a17.77,17.77,0,0,0,.07-3.36,7.55,7.55,0,0,0,0-.83s0-.06,0-.09a6.2,6.2,0,0,0-4.43-5.37A3.94,3.94,0,0,1,120,12c.78,2-.11,4-1.06,5.51A5.47,5.47,0,0,1,117,19.5Z"/><path class="cls-18" d="M126.72,32.56a5.51,5.51,0,0,1-2.24,3.35A6.14,6.14,0,0,1,126.72,32.56Z"/><ellipse class="cls-9" cx="115.46" cy="58.87" rx="9.87" ry="17.45" transform="matrix(0.8, -0.6, 0.6, 0.8, -12.2, 81.23)"/><path class="cls-4" d="M122,72.8a12.29,12.29,0,0,1-5.93-1.87c-6.9-4-12.52-12.79-12.52-19.64,0-4,2-6.35,5.34-6.35a12.33,12.33,0,0,1,5.94,1.87c6.9,4,12.51,12.8,12.51,19.64a7.06,7.06,0,0,1-1.5,4.79A5,5,0,0,1,122,72.8Z"/><path class="cls-10" d="M114.76,69.46v.12a10,10,0,0,1-1.12-.76,2.43,2.43,0,0,1-.28-.2c-.46-.34-.9-.72-1.33-1.1-.14-.12-.26-.24-.4-.38a10,10,0,0,1-.82-.78c-.12-.12-.24-.24-.34-.36s.06-.08.08-.1a4.2,4.2,0,0,1,.48-.54l.12-.08a.24.24,0,0,1,.1-.1s.2-.1.46-.2h0a.07.07,0,0,1,0,0,2.16,2.16,0,0,1,.81-.25,1.63,1.63,0,0,1,.5.07,2.11,2.11,0,0,1,.22.14,2,2,0,0,1,.3.2v0a2.17,2.17,0,0,1,.56.8,3.66,3.66,0,0,1,.32.9s0,.1,0,.16.08.4.1.6,0,.42,0,.62v0A8.75,8.75,0,0,1,114.76,69.46Z"/><path class="cls-11" d="M113.66,66.72l0,2.1a2.43,2.43,0,0,1-.28-.2c-.46-.34-.9-.72-1.33-1.1-.14-.12-.26-.24-.4-.38a10,10,0,0,1-.82-.78c-.12-.12-.24-.24-.34-.36a7.6,7.6,0,0,1-.66-.74c-.26-.26-.46-.51-.68-.77l-.06-.06a1,1,0,0,1,.22-.2l.62.34,1.16.67.08,0,.5.3h0l1.81,1Z"/><path class="cls-12" d="M122.06,57.12s-1.11,2.41-1,3.14a21.42,21.42,0,0,1-.59-2.36A13.87,13.87,0,0,0,122.06,57.12Z"/><path class="cls-13" d="M122.6,62.69s-.12.92-.39,2.35c-.1.54-.24,1.14-.38,1.82-.08.3-.14.62-.22,1-.18.7-.36,1.44-.58,2.19-.16.56-.34,1.16-.54,1.76-.22,0-.44,0-.68-.08l-.14,0A13.5,13.5,0,0,1,115.46,70a6.25,6.25,0,0,1-.7-.43,10,10,0,0,1-1.12-.76,2.43,2.43,0,0,1-.28-.2c0-.7.06-1.38.12-2v0c0-.52.08-1,.12-1.46v0c0-.1,0-.18,0-.26a12.25,12.25,0,0,1,.2-1.41v0c0-.18.1-.34.14-.5,0,0,.82-.7,1.66-1.52,1.2-1.16,2-3.51,4.39-3.45h0a3,3,0,0,1,.42,0l.12,0s0,.14.06.34v0s0,.1,0,.14a11.62,11.62,0,0,0,.4,1.47v0a8.21,8.21,0,0,0,.68,1.68l0,0A3,3,0,0,0,122.6,62.69Z"/><path class="cls-13" d="M124.68,63.55l-.3.08a4.89,4.89,0,0,0-.48.2c-.16.08-.34.18-.5.28a1.67,1.67,0,0,0-.24.16,2.73,2.73,0,0,0-.42.3,5.59,5.59,0,0,0-.53.47,1.53,1.53,0,0,0-.18.18,3.09,3.09,0,0,0-.48.54,2.79,2.79,0,0,0-.42.54,8,8,0,0,0-.54.88c-.12.24-.24.48-.34.72l-.06.16a3.45,3.45,0,0,0-.14.42s0,.06,0,.1a1.47,1.47,0,0,1-.08.28c0,.2-.08.4-.1.6a2.42,2.42,0,0,0,0,.38v1.85l-.14,0A13.5,13.5,0,0,1,115.46,70a6.25,6.25,0,0,1-.7-.43,10,10,0,0,1-1.12-.76,2.43,2.43,0,0,1-.28-.2c-.46-.34-.9-.72-1.33-1.1-.14-.12-.26-.24-.4-.38V66a1.83,1.83,0,0,1,0-.32v-.08c0-.12,0-.24,0-.36s0-.16,0-.24h0a3.29,3.29,0,0,1,.12-.61c.06-.2.12-.4.19-.6,0,0,0,0,0-.06s0-.06,0-.08.12-.22.18-.32l.24-.3a.48.48,0,0,1,.16-.12.84.84,0,0,1,.28-.18l-.06-.12.14-.06.06.1a5.05,5.05,0,0,0,.74.8v0h0c-.08.4-.16.88-.22,1.41,0,.08,0,.16,0,.26v0c0,.46-.08.94-.12,1.46l.18.12.82.12a21.08,21.08,0,0,1,3,.46,22,22,0,0,0,2-2.48c.88-1.15,1.78-2.39,2.16-2.89l.12-.18,0-.06,0,0,.08,0c.4.28,2.07,1.4,2.51,1.72A1.67,1.67,0,0,1,124.68,63.55Z"/><path class="cls-14" d="M113,62.71a.84.84,0,0,0-.28.18.48.48,0,0,0-.16.12l-.24.3c-.06.1-.12.2-.18.32s0,.06,0,.08,0,0,0,.06c-.07.2-.13.4-.19.6a3.29,3.29,0,0,0-.12.61c0,.08,0,.16,0,.24s0,.24,0,.36v.08a1.83,1.83,0,0,0,0,.32v1.16a10,10,0,0,1-.82-.78c-.12-.12-.24-.24-.34-.36a7.6,7.6,0,0,1-.66-.74c-.26-.26-.46-.51-.68-.77l.06-.12c0-.06.08-.1.1-.14s.3-.14.76-.38l.54-.22a.15.15,0,0,1,.08,0l.86-.38.61-.28.32-.14,0,0,.42-.18Z"/><path class="cls-14" d="M127,65.08v.06a3.1,3.1,0,0,1,0,.44,8.1,8.1,0,0,1-.08,1,4.8,4.8,0,0,1-.2,1,5.51,5.51,0,0,1-2.24,3.35,4.67,4.67,0,0,1-.94.5,6,6,0,0,1-1.85.4h0a1.72,1.72,0,0,1-.32,0,4.18,4.18,0,0,1-.5,0,2.06,2.06,0,0,1-.34,0c-.22,0-.44,0-.68-.08V69.84a2.42,2.42,0,0,1,0-.38c0-.2.06-.4.1-.6a1.47,1.47,0,0,0,.08-.28s0-.06,0-.1a3.45,3.45,0,0,1,.14-.42l.06-.16c.1-.24.22-.48.34-.72a8,8,0,0,1,.54-.88,2.79,2.79,0,0,1,.42-.54,3.09,3.09,0,0,1,.48-.54l.18-.18a5.59,5.59,0,0,1,.53-.47,2.73,2.73,0,0,1,.42-.3,1.67,1.67,0,0,1,.24-.16c.16-.1.34-.2.5-.28a4.89,4.89,0,0,1,.48-.2l.3-.08a.58.58,0,0,1,.18,0,0,0,0,0,0,0,0l0,0,.6.44h0c.42.32.82.6,1.18.87a1.67,1.67,0,0,1,.24.16Z"/><path class="cls-10" d="M114.06,63.61c0,.17,0,.37,0,.54a6.69,6.69,0,0,0,3.79-1.37,6.61,6.61,0,0,0,1.59-2.49,5.6,5.6,0,0,1-1.91,2.09C116.11,63.06,114.51,63.91,114.06,63.61Z"/><path class="cls-14" d="M124.86,63.51l-1.12,1.31-.58.68-.42.62-1.13,1.7-.4.58L121,70l-.2,1.78a2.06,2.06,0,0,1-.34,0c-.22,0-.44,0-.68-.08l-.14,0A13.5,13.5,0,0,1,115.46,70a6.25,6.25,0,0,1-.7-.43,10,10,0,0,1-1.12-.76,2.43,2.43,0,0,1-.28-.2c-.46-.34-.9-.72-1.33-1.1-.14-.12-.26-.24-.4-.38a10,10,0,0,1-.82-.78l.22-1,0-.12.46-2,.61-.28.32-.14,0,0v0l.54-.24a0,0,0,0,1,0,0l.06.1a5.05,5.05,0,0,0,.74.8v0h0l0,0s0,0,0,0,0,.06.08.08l.06,0v.08a3.24,3.24,0,0,0,0,.46v0c.12,2.69,1.28,2.77,1.4,2.77,1.4.2,2.83-.9,4-2.12a16.4,16.4,0,0,0,2.16-2.89l.12-.18,0-.06,0,0,.08,0Z"/><path class="cls-15" d="M112.48,62.75v0l0,0-.22.4c0,.1-.08.26-.14.44,0,0,0,.06,0,.08L111.77,65c0,.22-.08.44-.1.62,0,0,0,0,0,.08a1.83,1.83,0,0,0,0,.32v1.16a10,10,0,0,1-.82-.78c-.12-.12-.24-.24-.34-.36a7.6,7.6,0,0,1-.66-.74,5,5,0,0,1,.1-.69,4.81,4.81,0,0,1,.14-.7l.54-.24a.15.15,0,0,1,.08,0C111.19,63.33,111.77,63.07,112.48,62.75Z"/><path class="cls-15" d="M126.94,65c-.12,0-.34,0-.64,0h0a3.14,3.14,0,0,0-1.92.66,6.31,6.31,0,0,0-1.08.88,6,6,0,0,0-1.63,3.26v2a1.72,1.72,0,0,1-.32,0,4.18,4.18,0,0,1-.5,0,2.06,2.06,0,0,1-.34,0c-.22,0-.44,0-.68-.08V69.84a2.42,2.42,0,0,1,0-.38c0-.2.06-.4.1-.6a1.47,1.47,0,0,0,.08-.28s0-.06,0-.1a3.45,3.45,0,0,1,.14-.42l.06-.16c.1-.24.22-.48.34-.72a8,8,0,0,1,.54-.88,2.79,2.79,0,0,1,.42-.54,3.09,3.09,0,0,1,.48-.54l.18-.18a5.59,5.59,0,0,1,.53-.47,2.73,2.73,0,0,1,.42-.3,1.88,1.88,0,0,1,.24-.18c.16-.1.34-.18.5-.26a4.89,4.89,0,0,1,.48-.2l.3-.08a.58.58,0,0,1,.18,0,0,0,0,0,0,0,0l0,0,.6.44h0c.42.32.82.6,1.18.87A1.67,1.67,0,0,1,126.94,65Z"/><path class="cls-12" d="M110.81,52.73s.07,2.35.49,2.83.33-3.45.33-3.45Z"/><path class="cls-13" d="M111.09,55.9a5.83,5.83,0,0,1,.43,2,10.2,10.2,0,0,0,1.5,4.62s.08.11.08.11a4,4,0,0,0,.8.86s0,.05.11.09,0,0,.09.06.09,0,.11,0c.45.29,2-.6,3.44-1.27a5.49,5.49,0,0,0,1.91-2.1,17.3,17.3,0,0,0,1-1.84c1-.67.18-1.22,2.36-4.29-.84-7.06-6.1-6.26-6.1-6.26C110.57,48.13,111.09,55.9,111.09,55.9Z"/><path class="cls-12" d="M110.81,52.73a.88.88,0,0,1,.94.11c.27.19.49.46.76.66a3.18,3.18,0,0,0,2.64.16c1-.28,2.31-1,3.52-.42a1.16,1.16,0,0,1,.42.68c.13.75,0,1.52.17,2.27a5,5,0,0,1,.12,1.1l1-.61,1.25,1.43a24.83,24.83,0,0,0,1.6-4A6.42,6.42,0,0,0,121.35,49a6.16,6.16,0,0,0-4.64-1.51c-2.86.11-5.37,1.6-5.82,4.62C110.88,52.2,110.84,52.44,110.81,52.73Z"/><path class="cls-13" d="M119.78,57.6a9.28,9.28,0,0,0,.15-1.18c0-.52.22-1.42,1.21-1.34,1.38.11.29,3.11-.17,3.41s-1.19-.89-1.19-.89Z"/><path class="cls-16" d="M110,52.76c2,.64,4.76,1.86,6.9,1.73H117a4,4,0,0,0,1-.2,10,10,0,0,0,2.82-1.47,1.2,1.2,0,0,1,.72-.25,1.14,1.14,0,0,1,.39.24,4.59,4.59,0,0,1,.79,2.44s.39,0,.49-.26a17.67,17.67,0,0,0,.07-3.36,7.7,7.7,0,0,0,0-.83s0-.06,0-.08a6.23,6.23,0,0,0-4.43-5.38l-.16,0a7.23,7.23,0,0,0-3.87,0c-3,.86-4,4.59-4.17,5.54a4,4,0,0,1-.54,1C109.74,52.13,109.53,52.6,110,52.76Z"/><path class="cls-17" d="M117,54.48a4,4,0,0,0,1-.2,10,10,0,0,0,2.82-1.47,1.2,1.2,0,0,1,.72-.25,1.14,1.14,0,0,1,.39.24,4.59,4.59,0,0,1,.79,2.44s.39,0,.49-.26a17.67,17.67,0,0,0,.07-3.36,7.7,7.7,0,0,0,0-.83s0-.06,0-.08a6.23,6.23,0,0,0-4.43-5.38A3.94,3.94,0,0,1,120,47c.78,2-.11,4-1.06,5.51A5.39,5.39,0,0,1,117,54.48Z"/><path class="cls-18" d="M126.72,67.54a5.51,5.51,0,0,1-2.24,3.35A6.18,6.18,0,0,1,126.72,67.54Z"/><ellipse class="cls-9" cx="115.46" cy="93.85" rx="9.87" ry="17.45" transform="translate(-33.23 88.25) rotate(-36.95)"/><path class="cls-4" d="M122,107.78a12.19,12.19,0,0,1-5.93-1.87c-6.9-4-12.52-12.79-12.52-19.63,0-4,2-6.35,5.34-6.35a12.22,12.22,0,0,1,5.94,1.87c6.9,4,12.51,12.79,12.51,19.63a7.11,7.11,0,0,1-1.5,4.8,5,5,0,0,1-3.84,1.55Z"/><path class="cls-10" d="M114.76,104.44v.12a10,10,0,0,1-1.12-.76,2.43,2.43,0,0,1-.28-.2c-.46-.34-.9-.72-1.33-1.1-.14-.12-.26-.24-.4-.38a10,10,0,0,1-.82-.78c-.12-.12-.24-.24-.34-.36a.57.57,0,0,0,.08-.09,4.2,4.2,0,0,1,.48-.54l.12-.08a.24.24,0,0,1,.1-.1s.2-.1.46-.2h0a.07.07,0,0,1,0,0,2.22,2.22,0,0,1,.81-.26,1.38,1.38,0,0,1,.5.08,2.11,2.11,0,0,1,.22.14,2,2,0,0,1,.3.2v0a2.17,2.17,0,0,1,.56.8,3.44,3.44,0,0,1,.32.89s0,.1,0,.16.08.4.1.6,0,.42,0,.62v0A8.75,8.75,0,0,1,114.76,104.44Z"/><path class="cls-11" d="M113.66,101.7l0,2.1a2.43,2.43,0,0,1-.28-.2c-.46-.34-.9-.72-1.33-1.1-.14-.12-.26-.24-.4-.38a10,10,0,0,1-.82-.78c-.12-.12-.24-.24-.34-.36a6.49,6.49,0,0,1-.66-.73c-.26-.26-.46-.52-.68-.78l-.06-.06a1,1,0,0,1,.22-.2l.62.34,1.16.68.08,0,.5.3h0l1.81,1Z"/><path class="cls-12" d="M122.06,92.1s-1.11,2.41-1,3.14a21.83,21.83,0,0,1-.59-2.35A15.71,15.71,0,0,0,122.06,92.1Z"/><path class="cls-13" d="M122.6,97.67s-.12.92-.39,2.36c-.1.54-.24,1.13-.38,1.81-.08.3-.14.62-.22,1-.18.7-.36,1.44-.58,2.2-.16.56-.34,1.16-.54,1.75-.22,0-.44,0-.68-.08l-.14,0a13.46,13.46,0,0,1-4.21-1.63c-.24-.14-.48-.28-.7-.44a10,10,0,0,1-1.12-.76,2.43,2.43,0,0,1-.28-.2c0-.7.06-1.38.12-2v0c0-.52.08-1,.12-1.45v0c0-.1,0-.18,0-.26a12.13,12.13,0,0,1,.2-1.42v0c0-.18.1-.34.14-.5,0,0,.82-.7,1.66-1.52,1.2-1.15,2-3.51,4.39-3.45h0a3,3,0,0,1,.42,0l.12,0s0,.14.06.34v0s0,.1,0,.14a12.17,12.17,0,0,0,.4,1.48v0a8.13,8.13,0,0,0,.68,1.67l0,0A3,3,0,0,0,122.6,97.67Z"/><path class="cls-13" d="M124.68,98.53l-.3.08a4.89,4.89,0,0,0-.48.2c-.16.08-.34.18-.5.28a1.67,1.67,0,0,0-.24.16,2.73,2.73,0,0,0-.42.3,5.75,5.75,0,0,0-.53.48,1.53,1.53,0,0,0-.18.18,3.09,3.09,0,0,0-.48.54,2.72,2.72,0,0,0-.42.53,8,8,0,0,0-.54.88c-.12.24-.24.48-.34.72l-.06.16a3.45,3.45,0,0,0-.14.42s0,.06,0,.1a1.47,1.47,0,0,1-.08.28c0,.2-.08.4-.1.6a2.42,2.42,0,0,0,0,.38v1.85l-.14,0a13.46,13.46,0,0,1-4.21-1.63c-.24-.14-.48-.28-.7-.44a10,10,0,0,1-1.12-.76,2.43,2.43,0,0,1-.28-.2c-.46-.34-.9-.72-1.33-1.1-.14-.12-.26-.24-.4-.38V101a1.83,1.83,0,0,1,0-.32v-.08c0-.12,0-.24,0-.36s0-.16,0-.24h0a3.39,3.39,0,0,1,.12-.62c.06-.2.12-.4.19-.6,0,0,0,0,0-.06s0-.06,0-.08.12-.22.18-.32l.24-.3a.48.48,0,0,1,.16-.12.84.84,0,0,1,.28-.18l-.06-.12.14-.06.06.1a5.05,5.05,0,0,0,.74.8v0h0c-.08.4-.16.88-.22,1.42,0,.08,0,.16,0,.26v0c0,.46-.08.93-.12,1.45l.18.12.82.12a21.08,21.08,0,0,1,3,.46,22.39,22.39,0,0,0,2-2.47c.88-1.16,1.78-2.4,2.16-2.9a1.36,1.36,0,0,0,.12-.18.25.25,0,0,1,0-.06l0,0,.08,0c.4.28,2.07,1.4,2.51,1.72A1.67,1.67,0,0,1,124.68,98.53Z"/><path class="cls-14" d="M113,97.69a.84.84,0,0,0-.28.18.48.48,0,0,0-.16.12l-.24.3c-.06.1-.12.2-.18.32s0,.06,0,.08,0,0,0,.06c-.07.2-.13.4-.19.6a3.39,3.39,0,0,0-.12.62c0,.08,0,.16,0,.24s0,.24,0,.36v.08a1.83,1.83,0,0,0,0,.32v1.15a10,10,0,0,1-.82-.78c-.12-.12-.24-.24-.34-.36a6.49,6.49,0,0,1-.66-.73c-.26-.26-.46-.52-.68-.78l.06-.12c0-.06.08-.1.1-.14s.3-.14.76-.38l.54-.22a.15.15,0,0,1,.08,0l.86-.38.61-.28.32-.14,0,0,.42-.18Z"/><path class="cls-14" d="M127,100.07v.06a3.1,3.1,0,0,1,0,.44,7.93,7.93,0,0,1-.08,1,4.8,4.8,0,0,1-.2,1,5.53,5.53,0,0,1-2.24,3.36,4.64,4.64,0,0,1-.94.49,6,6,0,0,1-1.85.4h0a1.72,1.72,0,0,1-.32,0,4.18,4.18,0,0,1-.5,0,2.06,2.06,0,0,1-.34,0c-.22,0-.44,0-.68-.08v-1.85a2.42,2.42,0,0,1,0-.38c0-.2.06-.4.1-.6a1.47,1.47,0,0,0,.08-.28s0-.06,0-.1a3.45,3.45,0,0,1,.14-.42l.06-.16c.1-.24.22-.48.34-.72a8,8,0,0,1,.54-.88,2.72,2.72,0,0,1,.42-.53,3.09,3.09,0,0,1,.48-.54l.18-.18a5.75,5.75,0,0,1,.53-.48,2.73,2.73,0,0,1,.42-.3,1.67,1.67,0,0,1,.24-.16c.16-.1.34-.2.5-.28a4.89,4.89,0,0,1,.48-.2l.3-.08a.58.58,0,0,1,.18,0,0,0,0,0,0,0,0l0,0,.6.44h0c.42.32.82.6,1.18.88a1.67,1.67,0,0,1,.24.16Z"/><path class="cls-10" d="M114.06,98.59c0,.17,0,.38,0,.54a5.4,5.4,0,0,0,5.38-3.86,5.53,5.53,0,0,1-1.91,2.09C116.11,98,114.51,98.89,114.06,98.59Z"/><path class="cls-14" d="M124.86,98.49l-1.12,1.32-.58.68-.42.61-1.13,1.7-.4.58L121,105l-.2,1.77a2.06,2.06,0,0,1-.34,0c-.22,0-.44,0-.68-.08l-.14,0a13.46,13.46,0,0,1-4.21-1.63c-.24-.14-.48-.28-.7-.44a10,10,0,0,1-1.12-.76,2.43,2.43,0,0,1-.28-.2c-.46-.34-.9-.72-1.33-1.1-.14-.12-.26-.24-.4-.38a10,10,0,0,1-.82-.78l.22-1,0-.12.46-2,.61-.28.32-.14,0,0v0l.54-.24a0,0,0,0,1,0,0l.06.1a5.05,5.05,0,0,0,.74.8v0h0l0,0s0,0,0,0,0,.06.08.08l.06,0v.08a3.24,3.24,0,0,0,0,.46v0c.12,2.69,1.28,2.77,1.4,2.77,1.4.2,2.83-.9,4-2.11a16.76,16.76,0,0,0,2.16-2.9,1.36,1.36,0,0,0,.12-.18.25.25,0,0,1,0-.06l0,0,.08,0Z"/><path class="cls-15" d="M112.48,97.73v0l0,0-.22.4c0,.1-.08.26-.14.44,0,0,0,.06,0,.08-.09.36-.21.84-.31,1.26,0,.22-.08.44-.1.62,0,0,0,0,0,.08a1.83,1.83,0,0,0,0,.32v1.15a10,10,0,0,1-.82-.78c-.12-.12-.24-.24-.34-.36a6.49,6.49,0,0,1-.66-.73,5.34,5.34,0,0,1,.1-.7,4.81,4.81,0,0,1,.14-.7l.54-.24a.15.15,0,0,1,.08,0C111.19,98.31,111.77,98.05,112.48,97.73Z"/><path class="cls-15" d="M126.94,100c-.12,0-.34,0-.64,0h0a3.14,3.14,0,0,0-1.92.66,6.24,6.24,0,0,0-1.08.87,6,6,0,0,0-1.63,3.26v2a1.72,1.72,0,0,1-.32,0,4.18,4.18,0,0,1-.5,0,2.06,2.06,0,0,1-.34,0c-.22,0-.44,0-.68-.08v-1.85a2.42,2.42,0,0,1,0-.38c0-.2.06-.4.1-.6a1.47,1.47,0,0,0,.08-.28s0-.06,0-.1a3.45,3.45,0,0,1,.14-.42l.06-.16c.1-.24.22-.48.34-.72a8,8,0,0,1,.54-.88,2.72,2.72,0,0,1,.42-.53,3.09,3.09,0,0,1,.48-.54l.18-.18a5.75,5.75,0,0,1,.53-.48,2.73,2.73,0,0,1,.42-.3,1.88,1.88,0,0,1,.24-.18c.16-.1.34-.18.5-.26a4.89,4.89,0,0,1,.48-.2l.3-.08a.58.58,0,0,1,.18,0,0,0,0,0,0,0,0l0,0,.6.44h0c.42.32.82.6,1.18.88A1.67,1.67,0,0,1,126.94,100Z"/><path class="cls-12" d="M110.81,87.71s.07,2.35.49,2.84.33-3.45.33-3.45Z"/><path class="cls-13" d="M111.09,90.88a5.83,5.83,0,0,1,.43,2,10.2,10.2,0,0,0,1.5,4.62s.08.11.08.11a4,4,0,0,0,.8.86s0,.06.11.09l.09.06s.09,0,.11,0c.45.29,2-.6,3.44-1.27a5.49,5.49,0,0,0,1.91-2.1,16.66,16.66,0,0,0,1-1.83c1-.67.18-1.23,2.36-4.3-.84-7.06-6.1-6.26-6.1-6.26C110.57,83.11,111.09,90.88,111.09,90.88Z"/><path class="cls-12" d="M110.81,87.71a.88.88,0,0,1,.94.11c.27.2.49.47.76.66a3.11,3.11,0,0,0,2.64.16c1-.28,2.31-1,3.52-.41a1.1,1.1,0,0,1,.42.68c.13.74,0,1.51.17,2.26a5,5,0,0,1,.12,1.1l1-.61,1.25,1.44a24.83,24.83,0,0,0,1.6-4A6.43,6.43,0,0,0,121.35,84a6.2,6.2,0,0,0-4.64-1.51c-2.86.11-5.37,1.6-5.82,4.63C110.88,87.18,110.84,87.42,110.81,87.71Z"/><path class="cls-13" d="M119.78,92.58a9.36,9.36,0,0,0,.15-1.17c0-.52.22-1.43,1.21-1.35,1.38.11.29,3.11-.17,3.41s-1.19-.89-1.19-.89Z"/><path class="cls-16" d="M110,87.74c2,.64,4.76,1.87,6.9,1.73H117a4,4,0,0,0,1-.2,10,10,0,0,0,2.82-1.47,1.2,1.2,0,0,1,.72-.25,1.14,1.14,0,0,1,.39.24,4.59,4.59,0,0,1,.79,2.44s.39,0,.49-.25a17.85,17.85,0,0,0,.07-3.37,7.7,7.7,0,0,0,0-.83s0,0,0-.08a6.2,6.2,0,0,0-4.43-5.37l-.16,0a7.23,7.23,0,0,0-3.87,0c-3,.87-4,4.59-4.17,5.54a3.77,3.77,0,0,1-.54,1C109.74,87.11,109.53,87.58,110,87.74Z"/><path class="cls-17" d="M117,89.46a4,4,0,0,0,1-.2,10,10,0,0,0,2.82-1.47,1.2,1.2,0,0,1,.72-.25,1.14,1.14,0,0,1,.39.24,4.59,4.59,0,0,1,.79,2.44s.39,0,.49-.25a17.85,17.85,0,0,0,.07-3.37,7.7,7.7,0,0,0,0-.83s0,0,0-.08a6.2,6.2,0,0,0-4.43-5.37A3.9,3.9,0,0,1,120,82c.78,2-.11,4-1.06,5.52A5.44,5.44,0,0,1,117,89.46Z"/><path class="cls-18" d="M126.72,102.52a5.53,5.53,0,0,1-2.24,3.36A6.17,6.17,0,0,1,126.72,102.52Z"/><path class="cls-7" d="M32.55,74.56V60.47A1,1,0,0,0,31,59.59l-10.78,6.2a1,1,0,0,0-.51.87V80.75a1,1,0,0,0,1.52.88L32,75.44A1.05,1.05,0,0,0,32.55,74.56Z"/><path class="cls-19" d="M45.42,55.78a1.51,1.51,0,0,0-.73,1.16c0,.4.32.55.73.31a1.53,1.53,0,0,0,.75-1.16C46.17,55.68,45.84,55.54,45.42,55.78Z"/><path class="cls-8" d="M45.39,53l-10,5.79a1.51,1.51,0,0,0-.73,1.16c0,.4.32.56.73.32l10-5.79a1.56,1.56,0,0,0,.74-1.17C46.13,52.87,45.8,52.73,45.39,53Z"/><path class="cls-19" d="M45.39,58.62l-10,5.79a1.51,1.51,0,0,0-.73,1.16c0,.4.32.56.73.32l10-5.79a1.56,1.56,0,0,0,.74-1.17C46.13,58.52,45.8,58.38,45.39,58.62Z"/><path class="cls-19" d="M43.17,57.08l-7.78,4.49a1.55,1.55,0,0,0-.76,1.18c0,.4.33.54.76.29l7.78-4.49A1.58,1.58,0,0,0,44,57.36C44,57,43.61,56.82,43.17,57.08Z"/><path class="cls-19" d="M45.42,64.51a1.5,1.5,0,0,0-.73,1.16c0,.4.32.55.73.31a1.53,1.53,0,0,0,.75-1.17C46.17,64.41,45.84,64.27,45.42,64.51Z"/><path class="cls-19" d="M45.39,61.7l-10,5.79a1.51,1.51,0,0,0-.73,1.16c0,.4.32.55.73.32l10-5.79A1.56,1.56,0,0,0,46.13,62C46.13,61.6,45.8,61.46,45.39,61.7Z"/><path class="cls-19" d="M45.39,67.35l-10,5.79a1.51,1.51,0,0,0-.73,1.16c0,.4.32.56.73.32l10-5.79a1.56,1.56,0,0,0,.74-1.17C46.13,67.25,45.8,67.11,45.39,67.35Z"/><path class="cls-19" d="M43.17,65.81,35.39,70.3a1.55,1.55,0,0,0-.76,1.18c0,.4.33.54.76.29l7.78-4.49A1.58,1.58,0,0,0,44,66.09C44,65.68,43.61,65.55,43.17,65.81Z"/><path class="cls-7" d="M61.5,59.36l0-14.08A1,1,0,0,0,60,44.4L49.22,50.59a1,1,0,0,0-.51.88V65.55a1,1,0,0,0,1.52.88L61,60.24A1,1,0,0,0,61.5,59.36Z"/><path class="cls-19" d="M74.38,40.58a1.51,1.51,0,0,0-.73,1.16c0,.4.32.55.73.32a1.54,1.54,0,0,0,.75-1.17C75.13,40.48,74.8,40.34,74.38,40.58Z"/><path class="cls-20" d="M74.34,37.78l-10,5.79a1.48,1.48,0,0,0-.72,1.16c0,.4.31.55.72.31l10-5.79a1.53,1.53,0,0,0,.75-1.17C75.09,37.68,74.76,37.54,74.34,37.78Z"/><path class="cls-19" d="M74.34,43.43l-10,5.79a1.48,1.48,0,0,0-.72,1.16c0,.4.31.55.72.31l10-5.79a1.53,1.53,0,0,0,.75-1.17C75.09,43.33,74.76,43.19,74.34,43.43Z"/><path class="cls-19" d="M72.13,41.88l-7.78,4.49a1.55,1.55,0,0,0-.76,1.18c0,.4.33.55.76.3l7.78-4.49a1.59,1.59,0,0,0,.78-1.19C72.91,41.76,72.57,41.63,72.13,41.88Z"/><path class="cls-19" d="M74.38,49.31a1.51,1.51,0,0,0-.73,1.16c0,.4.32.55.73.32a1.56,1.56,0,0,0,.75-1.17C75.13,49.21,74.8,49.07,74.38,49.31Z"/><path class="cls-19" d="M74.34,46.51l-10,5.79a1.48,1.48,0,0,0-.72,1.16c0,.4.31.55.72.31l10-5.79a1.54,1.54,0,0,0,.75-1.17C75.09,46.4,74.76,46.27,74.34,46.51Z"/><path class="cls-19" d="M74.34,52.16,64.31,58a1.48,1.48,0,0,0-.72,1.16c0,.4.31.55.72.31l10-5.79a1.54,1.54,0,0,0,.75-1.17C75.09,52.05,74.76,51.92,74.34,52.16Z"/><path class="cls-19" d="M72.13,50.61,64.35,55.1a1.55,1.55,0,0,0-.76,1.18c0,.4.33.54.76.3l7.78-4.5a1.56,1.56,0,0,0,.78-1.18C72.91,50.49,72.57,50.36,72.13,50.61Z"/><path class="cls-7" d="M32.55,95.16V81.08A1,1,0,0,0,31,80.2L20.26,86.39a1,1,0,0,0-.51.88v14.08a1,1,0,0,0,1.52.88L32,96A1.05,1.05,0,0,0,32.55,95.16Z"/><path class="cls-19" d="M45.42,76.38a1.51,1.51,0,0,0-.73,1.16c0,.4.32.55.73.32a1.56,1.56,0,0,0,.75-1.17C46.17,76.28,45.84,76.14,45.42,76.38Z"/><path class="cls-20" d="M45.39,73.58l-10,5.79a1.5,1.5,0,0,0-.73,1.16c0,.4.32.55.73.31l10-5.79a1.56,1.56,0,0,0,.74-1.17C46.13,73.47,45.8,73.34,45.39,73.58Z"/><path class="cls-19" d="M45.39,79.23,35.36,85a1.5,1.5,0,0,0-.73,1.16c0,.4.32.55.73.31l10-5.79a1.56,1.56,0,0,0,.74-1.17C46.13,79.12,45.8,79,45.39,79.23Z"/><path class="cls-19" d="M43.17,77.68l-7.78,4.49a1.55,1.55,0,0,0-.76,1.18c0,.4.33.54.76.3l7.78-4.5A1.56,1.56,0,0,0,44,78C44,77.56,43.61,77.43,43.17,77.68Z"/><path class="cls-19" d="M45.42,85.11a1.51,1.51,0,0,0-.73,1.16c0,.4.32.55.73.32a1.56,1.56,0,0,0,.75-1.17C46.17,85,45.84,84.87,45.42,85.11Z"/><path class="cls-19" d="M45.39,82.31l-10,5.79a1.48,1.48,0,0,0-.73,1.15c0,.4.32.56.73.32l10-5.79a1.56,1.56,0,0,0,.74-1.17C46.13,82.2,45.8,82.06,45.39,82.31Z"/><path class="cls-19" d="M45.39,88l-10,5.79a1.48,1.48,0,0,0-.73,1.15c0,.41.32.56.73.32l10-5.79a1.56,1.56,0,0,0,.74-1.17C46.13,87.85,45.8,87.71,45.39,88Z"/><path class="cls-19" d="M43.17,86.41,35.39,90.9a1.55,1.55,0,0,0-.76,1.18c0,.4.33.54.76.3l7.78-4.5A1.56,1.56,0,0,0,44,86.69C44,86.28,43.61,86.15,43.17,86.41Z"/><path class="cls-7" d="M61.5,80l0-14.08A1,1,0,0,0,60,65L49.22,71.19a1,1,0,0,0-.51.88V86.16a1,1,0,0,0,1.52.88L61,80.84A1,1,0,0,0,61.5,80Z"/><path class="cls-19" d="M74.38,61.19a1.48,1.48,0,0,0-.73,1.15c0,.4.32.56.73.32a1.54,1.54,0,0,0,.75-1.17C75.13,61.08,74.8,60.94,74.38,61.19Z"/><path class="cls-8" d="M74.34,58.38l-10,5.79a1.5,1.5,0,0,0-.72,1.16c0,.4.31.55.72.32l10-5.79a1.56,1.56,0,0,0,.75-1.17C75.09,58.28,74.76,58.14,74.34,58.38Z"/><path class="cls-19" d="M74.34,64l-10,5.79A1.5,1.5,0,0,0,63.59,71c0,.4.31.55.72.32l10-5.79a1.56,1.56,0,0,0,.75-1.17C75.09,63.93,74.76,63.79,74.34,64Z"/><path class="cls-19" d="M72.13,62.48,64.35,67a1.51,1.51,0,0,0-.76,1.17c0,.4.33.55.76.3L72.13,64a1.59,1.59,0,0,0,.78-1.19C72.91,62.36,72.57,62.23,72.13,62.48Z"/><path class="cls-19" d="M74.38,69.91a1.51,1.51,0,0,0-.73,1.16c0,.4.32.56.73.32a1.54,1.54,0,0,0,.75-1.17C75.13,69.81,74.8,69.67,74.38,69.91Z"/><path class="cls-19" d="M74.34,67.11l-10,5.79a1.5,1.5,0,0,0-.72,1.16c0,.4.31.55.72.31l10-5.79a1.53,1.53,0,0,0,.75-1.16C75.09,67,74.76,66.87,74.34,67.11Z"/><path class="cls-19" d="M74.34,72.76l-10,5.79a1.5,1.5,0,0,0-.72,1.16c0,.4.31.55.72.31l10-5.79a1.53,1.53,0,0,0,.75-1.16C75.09,72.66,74.76,72.52,74.34,72.76Z"/><path class="cls-19" d="M72.13,71.21,64.35,75.7a1.55,1.55,0,0,0-.76,1.18c0,.4.33.55.76.3l7.78-4.49a1.59,1.59,0,0,0,.78-1.19C72.91,71.09,72.57,71,72.13,71.21Z"/><text class="cls-21" transform="matrix(1.04, -0.61, 0.37, 0.93, 35.28, 47.86)">TRABAJOS</text><polygon class="cls-2" points="31.46 56.45 65.92 36.56 65.92 35.36 31.46 55.26 31.46 56.45"/><polygon class="cls-19" points="31.46 53.86 65.92 33.96 65.92 32.76 31.46 52.66 31.46 53.86"/></g></g></svg>