<svg xmlns="http://www.w3.org/2000/svg" viewBox="0 0 122.41 186.47"><defs><style>.cls-1{isolation:isolate;}.cls-2{fill:#111525;}.cls-3{fill:#2f3361;}.cls-4{fill:#191b45;}.cls-5{fill:#477ebe;}.cls-6{fill:#2ea000;}.cls-7{fill:#1e5273;}.cls-8{fill:#15374f;}.cls-9{fill:#1a4764;}.cls-10{fill:#ffb800;}.cls-11{fill:#3d4180;}.cls-12{fill:#232844;}.cls-13{fill:#ff2e38;}.cls-14{fill:#ed2231;}.cls-15{fill:#fff;}.cls-16{fill:#7ea700;}.cls-17{fill:#ffb400;}.cls-18{fill:#a9e8ff;}.cls-19{fill:#c8d9e8;}.cls-20{fill:#d3e3f0;}.cls-21{fill:#e4eef7;}.cls-22{fill:#ffb2a4;}.cls-23{fill:#ffcabf;}.cls-24{fill:#db571a;}.cls-25{fill:#00a8f2;}.cls-26{fill:#a4b2e1;}.cls-27{fill:#4dc8ff;}.cls-28{fill:#0e1730;}.cls-29{fill:#c24911;}.cls-30{fill:#e35d20;}.cls-31{fill:#d3e1ed;}.cls-32{fill:#738dd0;opacity:0.2;}.cls-32,.cls-39{mix-blend-mode:color-burn;}.cls-33{fill:#f4f4f4;}.cls-34{fill:#f99b79;}.cls-35{fill:#ebc89f;}.cls-36{fill:#070e18;}.cls-37{fill:#faab8b;}.cls-38{fill:#3b3e53;}.cls-39{fill:#9da0bf;opacity:0.18;}.cls-40{fill:#f8dab8;}.cls-41{fill:#354067;}.cls-42{fill:#202842;}.cls-43{fill:#f2bd5b;}.cls-44{fill:#eca91b;}.cls-45{fill:#fbe8c5;}</style></defs><title>7</title><g class="cls-1"><g id="Capa_2" data-name="Capa 2"><g id="Capa_1-2" data-name="Capa 1"><path class="cls-2" d="M63.8,163.38c.08.21-.79,2.05-3.08,3.35a8.61,8.61,0,0,1-5.27,1,13.79,13.79,0,0,0-3.28,0,3.51,3.51,0,0,1-.1.88c-.09.13-4.57,1-6-.11s-.37-6.41.11-6.66c1.19-.61,5.44-1.35,6.52-.58s6.79,1.49,9.29,1.11S63.8,163.38,63.8,163.38Z"/><path class="cls-3" d="M90.38,146.14v14.4l9.9,5.7V140.42l-6.38,3.69.14.08a4.7,4.7,0,0,1,.44.34,5.4,5.4,0,0,1,.41.42,4.57,4.57,0,0,1,.38.49l.22.34.2.36c.06.12.12.25.17.37s.1.26.14.38.08.25.11.37.06.25.08.37,0,.24.06.35,0,.24,0,.35a1.82,1.82,0,0,1,0,.33,2.72,2.72,0,0,1,0,.3,2.45,2.45,0,0,1-.08.29,1.36,1.36,0,0,1-.11.25,1,1,0,0,1-.14.21,1.3,1.3,0,0,1-.15.18h0a.85.85,0,0,1-.19.14l-.22.1a.93.93,0,0,1-.24.05,1,1,0,0,1-.25,0,1.26,1.26,0,0,1-.27,0,1.29,1.29,0,0,1-.28-.08l-.29-.13-.29-.17-.29-.22-.28-.25a3.71,3.71,0,0,1-.27-.29,3.4,3.4,0,0,1-.25-.31c-.08-.11-.17-.23-.24-.34l-.21-.36c-.06-.11-.13-.24-.18-.36s-.11-.26-.16-.37-.09-.26-.12-.38a2.54,2.54,0,0,1-.1-.37c0-.11,0-.25-.07-.36s0-.24,0-.35a2.81,2.81,0,0,1,0-.29h0Zm4.22,14.23a.15.15,0,0,1,0-.11.16.16,0,0,1,.08-.06.2.2,0,0,1,.11,0l.12.08a.65.65,0,0,1,.1.15.55.55,0,0,1,.06.18.32.32,0,0,1,0,.14.16.16,0,0,1-.09.07.12.12,0,0,1-.1,0,.36.36,0,0,1-.12-.08.42.42,0,0,1-.11-.15.48.48,0,0,1-.05-.17Zm0-1.14a.2.2,0,0,1,0-.11s0-.06.08-.06a.14.14,0,0,1,.11,0l.12.08a.65.65,0,0,1,.1.15.55.55,0,0,1,.06.18.34.34,0,0,1,0,.14.16.16,0,0,1-.09.07.15.15,0,0,1-.11,0l-.11-.08a.72.72,0,0,1-.11-.15.48.48,0,0,1-.05-.17S94.6,159.24,94.59,159.23Zm0-1.14a.2.2,0,0,1,0-.11.18.18,0,0,1,.08-.07.15.15,0,0,1,.11,0l.12.08a.65.65,0,0,1,.1.15.49.49,0,0,1,.06.17.39.39,0,0,1,0,.15.11.11,0,0,1-.09.06.22.22,0,0,1-.11,0l-.11-.08a.72.72,0,0,1-.11-.15.37.37,0,0,1-.05-.18A0,0,0,0,0,94.59,158.09Zm-.51,2.54a.2.2,0,0,1,0-.11.16.16,0,0,1,.08-.06.21.21,0,0,1,.11,0l.12.08a.65.65,0,0,1,.1.15.55.55,0,0,1,.06.18.34.34,0,0,1,0,.14.16.16,0,0,1-.09.07.15.15,0,0,1-.11,0l-.11-.08a.53.53,0,0,1-.11-.15.34.34,0,0,1,0-.17Zm0-1.14a.2.2,0,0,1,0-.11.18.18,0,0,1,.08-.07.22.22,0,0,1,.11,0l.12.08a.65.65,0,0,1,.1.15.34.34,0,0,1,0,.17.25.25,0,0,1,0,.15.11.11,0,0,1-.09.06.22.22,0,0,1-.11,0l-.11-.08a.72.72,0,0,1-.11-.15.37.37,0,0,1,0-.18Zm0-1.14a.2.2,0,0,1,0-.11.14.14,0,0,1,.08-.07.15.15,0,0,1,.11,0l.12.08a.78.78,0,0,1,.1.15.34.34,0,0,1,0,.17.2.2,0,0,1,0,.15.1.1,0,0,1-.08.06.22.22,0,0,1-.11,0l-.11-.08a.72.72,0,0,1-.11-.15.37.37,0,0,1,0-.18S94.08,158.36,94.08,158.35Zm0-1.15a.19.19,0,0,1,0-.1.14.14,0,0,1,.08-.07.15.15,0,0,1,.11,0,.42.42,0,0,1,.12.08.56.56,0,0,1,.1.15.34.34,0,0,1,0,.17.17.17,0,0,1,0,.14.11.11,0,0,1-.08.07.22.22,0,0,1-.11,0l-.12-.09a.71.71,0,0,1-.1-.14.41.41,0,0,1,0-.18S94.08,157.22,94.08,157.2Zm-.5,2.59a.2.2,0,0,1,0-.11.18.18,0,0,1,.08-.07.14.14,0,0,1,.11,0,.36.36,0,0,1,.12.08.83.83,0,0,1,.11.15.84.84,0,0,1,0,.17.39.39,0,0,1,0,.15.15.15,0,0,1-.09.06.17.17,0,0,1-.1,0,.36.36,0,0,1-.12-.08l-.11-.15a1,1,0,0,1,0-.18Zm0-1.15a.18.18,0,0,1,0-.1.18.18,0,0,1,.08-.07.14.14,0,0,1,.11,0,.36.36,0,0,1,.12.08.58.58,0,0,1,.11.15.84.84,0,0,1,0,.17.39.39,0,0,1,0,.15.15.15,0,0,1-.09.06.17.17,0,0,1-.1,0,.27.27,0,0,1-.12-.09.76.76,0,0,1-.11-.14,1.21,1.21,0,0,1,0-.18Zm0-1.14a.18.18,0,0,1,0-.1.18.18,0,0,1,.08-.07.2.2,0,0,1,.11,0,.34.34,0,0,1,.12.09.4.4,0,0,1,.1.15.49.49,0,0,1,.06.17.32.32,0,0,1,0,.14A.13.13,0,0,1,94,158a.17.17,0,0,1-.1,0,.27.27,0,0,1-.12-.09.58.58,0,0,1-.11-.15.84.84,0,0,1,0-.17ZM93.06,160a.43.43,0,0,1,0-.11.15.15,0,0,1,.09-.06.22.22,0,0,1,.11,0l.11.08a.72.72,0,0,1,.11.15.41.41,0,0,1,0,.18.17.17,0,0,1,0,.14.14.14,0,0,1-.08.07.15.15,0,0,1-.11,0l-.12-.08a.56.56,0,0,1-.1-.15.34.34,0,0,1-.05-.17A.06.06,0,0,1,93.06,160Zm0-1.14a.36.36,0,0,1,0-.11.11.11,0,0,1,.09-.06.22.22,0,0,1,.11,0l.11.08a.72.72,0,0,1,.11.15.37.37,0,0,1,0,.18.18.18,0,0,1,0,.14.18.18,0,0,1-.08.07.22.22,0,0,1-.11,0l-.12-.08a.65.65,0,0,1-.1-.15.49.49,0,0,1-.06-.17Zm0-1.14a.36.36,0,0,1,0-.11.16.16,0,0,1,.09-.07.23.23,0,0,1,.11,0l.11.08a.72.72,0,0,1,.11.15.48.48,0,0,1,0,.17.19.19,0,0,1,0,.15s0,.06-.08.06a.21.21,0,0,1-.11,0l-.12-.08a.65.65,0,0,1-.1-.15.55.55,0,0,1-.06-.18Zm-.51,1.44a.43.43,0,0,1,0-.11.15.15,0,0,1,.09-.06.17.17,0,0,1,.1,0,.36.36,0,0,1,.12.08.72.72,0,0,1,.11.15.61.61,0,0,1,.05.18.17.17,0,0,1,0,.14.18.18,0,0,1-.08.07.15.15,0,0,1-.11,0l-.12-.08a.4.4,0,0,1-.1-.15.49.49,0,0,1-.06-.17Zm0-1.16a.36.36,0,0,1,0-.11.16.16,0,0,1,.09-.07.18.18,0,0,1,.1,0,.36.36,0,0,1,.12.08.72.72,0,0,1,.11.15.55.55,0,0,1,.05.17.19.19,0,0,1,0,.15.18.18,0,0,1-.08.07.2.2,0,0,1-.11,0,.5.5,0,0,1-.12-.08.65.65,0,0,1-.1-.15.58.58,0,0,1-.06-.17ZM92,159.48a.2.2,0,0,1,0-.11s.05-.06.08-.06a.14.14,0,0,1,.11,0l.12.08a.65.65,0,0,1,.1.15.55.55,0,0,1,.06.18.34.34,0,0,1,0,.14.16.16,0,0,1-.09.07.23.23,0,0,1-.11,0l-.11-.08a.72.72,0,0,1-.11-.15.55.55,0,0,1,0-.17S92.05,159.49,92,159.48Zm0-1.14a.2.2,0,0,1,0-.11.18.18,0,0,1,.08-.07.15.15,0,0,1,.11,0l.12.08a.49.49,0,0,1,.1.15.34.34,0,0,1,0,.17.26.26,0,0,1,0,.15.15.15,0,0,1-.09.06.22.22,0,0,1-.11,0l-.11-.08a.72.72,0,0,1-.11-.15.37.37,0,0,1,0-.18A0,0,0,0,0,92,158.34Zm-.51.25a.22.22,0,0,1,0-.11.15.15,0,0,1,.09-.06.17.17,0,0,1,.1,0,.27.27,0,0,1,.12.09.76.76,0,0,1,.11.14,1.21,1.21,0,0,1,0,.18.22.22,0,0,1,0,.14.18.18,0,0,1-.08.07.14.14,0,0,1-.11,0,.36.36,0,0,1-.12-.08.58.58,0,0,1-.11-.15.84.84,0,0,1,0-.17Z"/><polygon class="cls-4" points="90.35 151.54 95.53 154.58 95.53 153.48 90.35 150.45 90.35 151.54"/><polygon class="cls-4" points="90.35 153.21 95.53 156.24 95.53 154.87 90.35 151.83 90.35 153.21"/><path class="cls-3" d="M74.48,169.73v11.42l25.8-14.91-9.9-5.7Z"/><path class="cls-5" d="M74.47,156.32v13.41l15.9-9.19v-14.4l-15,8.69a1.54,1.54,0,0,0-.34.28,2,2,0,0,0-.45.78A1.29,1.29,0,0,0,74.47,156.32Z"/><path class="cls-3" d="M91.46,145.51h0a2.81,2.81,0,0,0,0,.29c0,.11,0,.23,0,.35s0,.25.07.36a2.54,2.54,0,0,0,.1.37c0,.12.08.26.12.38l.16.37c.05.12.12.25.18.36l.21.36c.07.11.16.23.24.34a3.4,3.4,0,0,0,.25.31,3.71,3.71,0,0,0,.27.29l.28.25.29.22.29.17.29.13a1.29,1.29,0,0,0,.28.08,1.26,1.26,0,0,0,.27,0,1,1,0,0,0,.25,0,.93.93,0,0,0,.24-.05l.22-.1a.85.85,0,0,0,.19-.14h0l-.23.05h-.25a.84.84,0,0,1-.27,0,1.29,1.29,0,0,1-.28-.08,1.85,1.85,0,0,1-.29-.13l-.29-.17-.29-.22a3.15,3.15,0,0,1-.28-.25,3.71,3.71,0,0,1-.27-.29,3.4,3.4,0,0,1-.25-.31c-.08-.11-.17-.23-.24-.34l-.21-.35c-.06-.12-.13-.25-.18-.37s-.11-.25-.16-.37-.09-.26-.12-.38a2.24,2.24,0,0,1-.1-.37c0-.11-.05-.24-.07-.36s0-.24,0-.35,0-.23,0-.3Z"/><polygon class="cls-6" points="77.01 149.66 77.02 167.53 89.92 160.08 89.91 142.2 77.01 149.66"/><path class="cls-7" d="M80.57,150.64a2.89,2.89,0,0,0,0,.5,1.83,1.83,0,0,0,.38.91,1.28,1.28,0,0,0,.37.33l1.74,1a1.64,1.64,0,0,1-.56-.58,2.22,2.22,0,0,1-.25-1.16c0-.14,0-.28,0-.41a5.82,5.82,0,0,1,.57-1.9,6.52,6.52,0,0,1,1.16-1.63,4.1,4.1,0,0,1,1.3-.92,1.91,1.91,0,0,1,1.17-.16,1.09,1.09,0,0,1,.27.11c-.53-.31-1.08-.65-1.61-.95a2,2,0,0,0-1.84.15,4.4,4.4,0,0,0-1.76,1.74A5.72,5.72,0,0,0,80.57,150.64Z"/><path class="cls-8" d="M82.55,151.48a2,2,0,0,0,.22,1.05,1.67,1.67,0,0,0,.44.48h0l.13,0,.14,0h.29l.15,0,.16,0,.16,0,.16-.06.17-.08.16-.09.16-.1a.91.91,0,0,0,.16-.11l.16-.12a1.07,1.07,0,0,0,.16-.14l.16-.14.15-.16.15-.16.14-.17.14-.18c0-.06.09-.12.13-.19l.12-.19.12-.2.11-.2a4015754034917.92,4015754034917.92,0,0,1,.2-.42,1.8,1.8,0,0,0,.08-.21l.08-.21.06-.21a8025832476488.77,8025832476488.77,0,0,1,.1-.42l0-.2a1.49,1.49,0,0,0,0-.21,1.21,1.21,0,0,0,0-.19,1.28,1.28,0,0,0,0-.19c0-.06,0-.12,0-.18a.88.88,0,0,0,0-.17l0-.17a.94.94,0,0,0,0-.16c0-.05,0-.1,0-.14a.61.61,0,0,0-.07-.14.54.54,0,0,0-.07-.13,1,1,0,0,0-.08-.11l-.15-.17h0a1.53,1.53,0,0,0-.27-.11,1.7,1.7,0,0,0-1.06.14,3.81,3.81,0,0,0-1.18.83,5.94,5.94,0,0,0-1,1.48,5.35,5.35,0,0,0-.51,1.72A2.31,2.31,0,0,0,82.55,151.48Z"/><path class="cls-7" d="M83.21,153a1.2,1.2,0,0,0,.4.18,1.71,1.71,0,0,0,1.06-.14,3.72,3.72,0,0,0,1.17-.83,5.88,5.88,0,0,0,1-1.47,5.36,5.36,0,0,0,.52-1.72,2.36,2.36,0,0,0-.2-1.42,1.5,1.5,0,0,0-.56-.56l.15.17a1,1,0,0,1,.08.11.54.54,0,0,1,.07.13.61.61,0,0,1,.07.14s0,.09,0,.14a.94.94,0,0,1,0,.16l0,.17a.88.88,0,0,1,0,.17c0,.06,0,.12,0,.18a1.28,1.28,0,0,1,0,.19,1.21,1.21,0,0,1,0,.19,1.49,1.49,0,0,1,0,.21l0,.2a8025832476488.77,8025832476488.77,0,0,0-.1.42l-.06.21-.08.21a1.8,1.8,0,0,1-.08.21,4015754034917.92,4015754034917.92,0,0,0-.2.42l-.11.2-.12.2-.12.19c0,.07-.09.13-.13.19l-.14.18-.14.17-.15.16-.15.16-.16.14a1.07,1.07,0,0,1-.16.14l-.16.12a.91.91,0,0,1-.16.11l-.16.1-.16.09-.17.08-.16.06-.16,0-.16,0-.15,0h-.29l-.14,0-.13,0Z"/><path class="cls-9" d="M83.13,149.74l-.69,1.41,1.47-.85v.06s0,.07,0,.11a.11.11,0,0,1,0,.05l-1,.87.13,1.2,1-1.79,0,0a.16.16,0,0,0,.09,0h0l-.49,1.29.87.29v-1.69l.06,0,.1-.08,0,0,.26,1,1.1-.78-1-.61,0-.07a.61.61,0,0,0,.07-.14l0-.07.88.07.68-1.41-1.46.85v-.06s0-.07,0-.11a.09.09,0,0,0,0-.05l1-.87-.12-1.2-1,1.79,0,0-.08,0h0l.5-1.3-.88-.29V149l-.05,0-.1.08,0,0-.27-1-1.1.78,1,.61,0,.07-.07.14a.25.25,0,0,1,0,.07Z"/><path class="cls-8" d="M82.32,151.22a5.82,5.82,0,0,1,.57-1.9,6.52,6.52,0,0,1,1.16-1.63,4.1,4.1,0,0,1,1.3-.92,1.91,1.91,0,0,1,1.17-.16,1.09,1.09,0,0,1,.27.11l.13.07h0a1.67,1.67,0,0,1,.53.56,2.61,2.61,0,0,1,.21,1.57,5.66,5.66,0,0,1-.57,1.9,6.45,6.45,0,0,1-1.16,1.63,4,4,0,0,1-1.3.92,1.91,1.91,0,0,1-1.17.15,1.25,1.25,0,0,1-.3-.12h0l-.05,0a1.64,1.64,0,0,1-.56-.58,2.22,2.22,0,0,1-.25-1.16C82.29,151.49,82.31,151.35,82.32,151.22Zm.89,1.79a1.2,1.2,0,0,0,.4.18,1.71,1.71,0,0,0,1.06-.14,3.72,3.72,0,0,0,1.17-.83,5.88,5.88,0,0,0,1-1.47,5.36,5.36,0,0,0,.52-1.72,2.36,2.36,0,0,0-.2-1.42,1.5,1.5,0,0,0-.56-.56h0a1.53,1.53,0,0,0-.27-.11,1.7,1.7,0,0,0-1.06.14,3.81,3.81,0,0,0-1.18.83,5.94,5.94,0,0,0-1,1.48,5.35,5.35,0,0,0-.51,1.72,2.31,2.31,0,0,0,0,.37,2,2,0,0,0,.22,1.05A1.67,1.67,0,0,0,83.21,153Z"/><path class="cls-7" d="M78.47,159.11v1.1l.43.25,3.66,2.11.34.2v-1.1Z"/><polygon class="cls-9" points="78.47 159.11 82.91 161.67 95 154.68 90.56 152.12 78.47 159.11"/><path class="cls-8" d="M82.91,161.67v1.1l.43.25,11.23-6.49.43-.75v-1.1Z"/><polygon class="cls-4" points="79.81 147.09 79.82 154.72 81.1 155.47 81.1 147.83 79.81 147.09"/><polygon class="cls-3" points="81.1 147.83 81.1 155.47 81.48 155.25 81.48 147.61 81.1 147.83"/><polygon class="cls-4" points="79.13 147.51 79.14 155.15 80.42 155.89 80.42 148.26 79.13 147.51"/><polygon class="cls-3" points="80.42 148.26 80.42 155.89 80.8 155.68 80.79 148.04 80.42 148.26"/><polygon class="cls-9" points="90.02 142.76 95.6 145.98 96.65 145.37 91.07 142.16 90.02 142.76"/><path class="cls-9" d="M94.92,150.18a1,1,0,0,1-.24,0l-.27-.06a1.57,1.57,0,0,1-.28-.1,2,2,0,0,1-.29-.15,1.87,1.87,0,0,1-.29-.2l-.29-.23a2.37,2.37,0,0,1-.28-.27,3.73,3.73,0,0,1-.26-.3,3.92,3.92,0,0,1-.25-.32l-.22-.35c-.07-.12-.14-.24-.2-.36s-.12-.25-.17-.37-.1-.25-.14-.38-.09-.24-.12-.37-.06-.24-.08-.36,0-.24-.05-.36a2.61,2.61,0,0,1,0-.39,2.69,2.69,0,0,1,.08-.72,2.18,2.18,0,0,1,.2-.49h-.09a1.32,1.32,0,0,0-.52.16,1.28,1.28,0,0,0-.39.38,1.91,1.91,0,0,0-.25.56,2.79,2.79,0,0,0-.08.72,2.75,2.75,0,0,0,0,.4c0,.11,0,.23,0,.36s.05.24.08.36.08.25.12.37.09.26.14.38.11.25.17.37.13.24.2.36.15.23.22.34a2.85,2.85,0,0,0,.25.33,2.55,2.55,0,0,0,.26.3,2.37,2.37,0,0,0,.28.27,2.09,2.09,0,0,0,.29.23l.29.2.28.15.29.1a1.31,1.31,0,0,0,.27.06,1.22,1.22,0,0,0,.27,0l.24,0,.23-.08a.82.82,0,0,0,.2-.12l.18-.16.15-.2S94.91,150.19,94.92,150.18Z"/><polygon class="cls-8" points="95.6 145.98 95.6 152.42 96.65 151.82 96.65 145.37 95.6 145.98"/><path class="cls-8" d="M90.62,146.07l1.55.9V147c0,.05,0,.09,0,.14l0,.06-1-.27.13,1.42,1.1-.61a.16.16,0,0,1,0,.07,1.13,1.13,0,0,0,.1.13l0,.06-.53.77.93,1.37v-1.78l.05,0,.11.05,0,0,.28,1.34,1.17.52-1.09-1.89,0,0a.23.23,0,0,0,.07-.07l0,0,.93,1.13.72-.65-1.54-.89a.13.13,0,0,0,0-.06.66.66,0,0,0,0-.14s0,0,0-.06l1,.27-.13-1.43-1.1.62a.43.43,0,0,1,0-.07l-.09-.13,0-.06.52-.77L93,144.71v1.78l0,0-.11,0-.06,0-.28-1.35-1.17-.52,1.09,1.9,0,0-.07.06,0,0-.93-1.13Z"/><path class="cls-7" d="M95.6,146v6.44L90,149.21v-6.45Zm-5.11,1c0,.12.05.24.08.36s.08.25.12.37.09.26.14.38.11.25.17.37.13.24.2.36.15.23.22.34a2.85,2.85,0,0,0,.25.33,2.55,2.55,0,0,0,.26.3,2.37,2.37,0,0,0,.28.27,2.09,2.09,0,0,0,.29.23l.29.2.28.15.29.1a1.31,1.31,0,0,0,.27.06,1.22,1.22,0,0,0,.27,0l.24,0,.23-.08a.82.82,0,0,0,.2-.12l.18-.16.15-.2s0,0,0,0A1.36,1.36,0,0,0,95,150a1.07,1.07,0,0,0,.09-.27,1.36,1.36,0,0,0,.06-.29c0-.11,0-.22,0-.32s0-.23,0-.34,0-.23,0-.35,0-.24-.07-.36-.06-.25-.1-.37-.08-.25-.13-.38-.1-.25-.16-.37-.12-.24-.18-.37l-.21-.35a4.15,4.15,0,0,0-.24-.34l-.25-.31a3.63,3.63,0,0,0-.27-.28,3.32,3.32,0,0,0-.28-.26l-.3-.21-.29-.17a2.47,2.47,0,0,0-.42-.17,1.57,1.57,0,0,0-.51-.07h-.09a1.32,1.32,0,0,0-.52.16,1.28,1.28,0,0,0-.39.38,1.91,1.91,0,0,0-.25.56,2.79,2.79,0,0,0-.08.72,2.75,2.75,0,0,0,0,.4C90.45,146.72,90.47,146.84,90.49,147Z"/><polygon class="cls-4" points="81.88 139.61 81.89 146.01 88.2 149.66 88.2 143.25 81.88 139.61"/><polygon class="cls-3" points="88.2 143.25 88.2 149.66 96.69 144.75 96.69 138.34 88.2 143.25"/><path class="cls-10" d="M75.51,153l1.25.38a8.74,8.74,0,0,1,1.63-.75,1.59,1.59,0,0,1,.81-.06L78,152.16l-.11,0A4.27,4.27,0,0,0,75.51,153Z"/><path class="cls-4" d="M77.47,160v13.9l-3.44,2V162Z"/><path class="cls-3" d="M74.7,169.78l2.11-1.23a.84.84,0,0,0,.41-.64h0c0-.23-.18-.31-.41-.18L74.7,169a.9.9,0,0,0-.41.65h0C74.29,169.83,74.48,169.91,74.7,169.78Z"/><path class="cls-3" d="M74.7,167.27l2.11-1.22a.84.84,0,0,0,.41-.65h0c0-.22-.18-.3-.41-.17l-2.11,1.22a.84.84,0,0,0-.41.65h0C74.29,167.33,74.47,167.4,74.7,167.27Z"/><path class="cls-3" d="M74.7,172.28l2.12-1.22a.87.87,0,0,0,.41-.65h0c0-.23-.19-.3-.41-.17l-2.12,1.22a.87.87,0,0,0-.41.64h0C74.29,172.33,74.48,172.41,74.7,172.28Z"/><path class="cls-11" d="M74.7,164.77l2.11-1.22a.84.84,0,0,0,.41-.65h0c0-.22-.18-.3-.41-.17L74.7,164a.84.84,0,0,0-.41.65h0C74.29,164.82,74.47,164.9,74.7,164.77Z"/><path class="cls-3" d="M74.7,174.78l2.12-1.22a.87.87,0,0,0,.41-.65h0c0-.22-.19-.3-.41-.17L74.7,174a.87.87,0,0,0-.41.65h0C74.29,174.83,74.48,174.91,74.7,174.78Z"/><polygon class="cls-12" points="80.35 156.72 80.35 157.37 84.79 159.92 84.79 159.28 80.35 156.72"/><polygon class="cls-13" points="80.35 156.72 84.79 159.28 95 153.38 90.56 150.82 80.35 156.72"/><polygon class="cls-7" points="87.36 154.27 88.78 155.09 90.19 154.27 88.78 153.45 87.36 154.27"/><polygon class="cls-7" points="92.18 153.34 92.82 153.71 93.46 153.34 92.82 152.97 92.18 153.34"/><polygon class="cls-5" points="84.23 158.16 84.87 158.53 85.5 158.16 84.86 157.79 84.23 158.16"/><path class="cls-5" d="M89.66,152.14c-.2.11-.2.3,0,.42a.85.85,0,0,0,.73,0c.2-.12.2-.31,0-.42A.79.79,0,0,0,89.66,152.14Z"/><path class="cls-7" d="M84.32,156a.23.23,0,0,0,0,.43.85.85,0,0,0,.73,0,.23.23,0,0,0,0-.43A.85.85,0,0,0,84.32,156Z"/><ellipse class="cls-11" cx="86.92" cy="156.52" rx="0.26" ry="0.15"/><ellipse class="cls-5" cx="85.87" cy="154.28" rx="0.26" ry="0.15"/><polygon class="cls-14" points="84.79 159.28 84.79 159.92 95 154.02 95 153.38 84.79 159.28"/><path class="cls-14" d="M77.58,165.56l1,.6v.8a1.85,1.85,0,0,0,.77-1c.15-.37.24-.81.46-1.31a4.43,4.43,0,0,1,.47-.83,6.43,6.43,0,0,1,1.93-1.69l.28-.16-1.56-.9-.28.16a6.06,6.06,0,0,0-1.93,1.69,3.7,3.7,0,0,0-.47.83c-.22.49-.31.94-.46,1.31A3.21,3.21,0,0,1,77.58,165.56Z"/><path class="cls-10" d="M80.26,156.61a.88.88,0,0,0,.41.4l.08,0h0c.72.22,1.94-.51,2.56-1.53a7.45,7.45,0,0,0,.65-3.75,13.05,13.05,0,0,1,.24-3.53,4.19,4.19,0,0,1,1.92-2.78L85,144.88a4.46,4.46,0,0,0-2,2.9,13.42,13.42,0,0,0-.32,3.59,7.25,7.25,0,0,1-.65,3.75A3.5,3.5,0,0,1,80.26,156.61Z"/><path class="cls-10" d="M78.65,162.5l1,.6v.81a1.9,1.9,0,0,0,.78-1c.14-.36.24-.81.45-1.31a5.53,5.53,0,0,1,.47-.83,6.36,6.36,0,0,1,1.94-1.69l.27-.16L82,158l-.27.16a6.36,6.36,0,0,0-1.94,1.69,4.77,4.77,0,0,0-.47.83c-.21.5-.31,1-.46,1.31A2.49,2.49,0,0,1,78.65,162.5Z"/><path class="cls-10" d="M78.39,152.6a3.8,3.8,0,0,1,.15,1.08c.07,1.26.18,2.63.88,2.94l.09,0,1.24.39-.08,0a.88.88,0,0,1-.41-.4,6.29,6.29,0,0,1-.47-2.54c0-.7-.06-1.36-.58-1.52h0A1.59,1.59,0,0,0,78.39,152.6Z"/><polygon class="cls-3" points="77.48 161.82 77.48 164.38 79.69 163.1 78.65 162.5 77.48 161.82"/><path class="cls-4" d="M79.2,149.13v13.68l-7.74,4.48V153.6Z"/><path class="cls-11" d="M72.27,165l6-3.46a.94.94,0,0,0,.46-.73h0c0-.25-.21-.34-.46-.19l-6,3.46a1,1,0,0,0-.46.73h0C71.81,165,72,165.11,72.27,165Z"/><path class="cls-11" d="M72.27,162.23l6-3.46a1,1,0,0,0,.46-.73h0c0-.25-.21-.34-.46-.19l-6,3.46a1,1,0,0,0-.46.73h0C71.81,162.29,72,162.38,72.27,162.23Z"/><path class="cls-11" d="M72.27,159.53l6-3.47a1,1,0,0,0,.46-.72h0c0-.26-.21-.35-.46-.2l-6,3.47a1,1,0,0,0-.46.72h0C71.81,159.59,72,159.67,72.27,159.53Z"/><path class="cls-11" d="M72.27,156.63l6-3.46a1,1,0,0,0,.46-.73h0c0-.26-.21-.34-.46-.2l-6,3.47a1,1,0,0,0-.46.73h0C71.81,156.69,72,156.78,72.27,156.63Z"/><polygon class="cls-4" points="77.48 164.38 77.48 165.98 78.9 165.17 79.69 164.71 79.69 163.91 79.69 163.1 77.48 164.38"/><polygon class="cls-3" points="77.48 165.98 77.48 166.91 79.7 165.63 78.9 165.17 77.48 165.98"/><polygon class="cls-4" points="77.48 166.91 77.48 168.51 79.7 167.23 79.7 166.72 79.7 166.44 79.7 165.63 77.48 166.91"/><polygon class="cls-3" points="77.48 164.48 77.48 165.87 78.7 165.16 79.39 164.76 79.39 164.08 79.39 163.38 77.48 164.48"/><polygon class="cls-3" points="77.48 167.03 77.48 168.41 79.39 167.31 79.39 166.86 79.39 166.62 79.39 165.93 77.48 167.03"/><path class="cls-4" d="M74,156.08V181.9l-10.32-6V150.12Zm-.7,9v-2.23l-8.91-5.14v2.23Zm0-2.74v-2.23L64.43,155v2.23Zm0-2.85v-2.23l-8.9-5.13v2.22Zm-5.47,14.65a2.29,2.29,0,0,0,.22.73,2.42,2.42,0,0,0,.44.62,1.74,1.74,0,0,0,.5.35.78.78,0,0,0,.45.06.64.64,0,0,0,.35-.28,1,1,0,0,0,.08-.6,2.29,2.29,0,0,0-.22-.73,2.26,2.26,0,0,0-.44-.62,1.56,1.56,0,0,0-.5-.35.7.7,0,0,0-.45-.06.64.64,0,0,0-.35.28.75.75,0,0,0-.09.44A.81.81,0,0,0,67.87,174.11Zm.68-2.89a.68.68,0,0,0,.08.24.66.66,0,0,0,.14.2.61.61,0,0,0,.16.12.26.26,0,0,0,.15,0,.18.18,0,0,0,.11-.1.24.24,0,0,0,0-.19.67.67,0,0,0-.07-.24,1,1,0,0,0-.15-.2.4.4,0,0,0-.16-.12.23.23,0,0,0-.14,0,.23.23,0,0,0-.12.1.32.32,0,0,0,0,.14Zm0-1.19a.68.68,0,0,0,.08.24.66.66,0,0,0,.14.2.61.61,0,0,0,.16.12.26.26,0,0,0,.15,0,.18.18,0,0,0,.11-.1.25.25,0,0,0,0-.19.61.61,0,0,0-.07-.24,1,1,0,0,0-.15-.2.4.4,0,0,0-.16-.12.23.23,0,0,0-.14,0,.23.23,0,0,0-.12.1.32.32,0,0,0,0,.14Z"/><path class="cls-4" d="M63.72,150.12l10.32,6a1.62,1.62,0,0,1,.07-.44,2.06,2.06,0,0,1,.45-.77,1.3,1.3,0,0,1,.34-.28l-10.32-6a1.87,1.87,0,0,0-.35.28,2.16,2.16,0,0,0-.44.78A1.29,1.29,0,0,0,63.72,150.12Z"/><polygon class="cls-3" points="64.43 157.68 64.43 159.91 73.34 165.05 73.34 162.82 64.43 157.68"/><polygon class="cls-3" points="64.43 154.95 64.43 157.18 73.34 162.31 73.33 160.09 64.43 154.95"/><polygon class="cls-3" points="64.43 152.09 64.43 154.32 73.33 159.46 73.33 157.23 64.43 152.09"/><polygon class="cls-3" points="64.58 148.63 74.9 154.59 100.69 139.68 90.37 133.73 64.58 148.63"/><path class="cls-11" d="M68,173.51a.75.75,0,0,0-.09.44.81.81,0,0,0,0,.16,2.29,2.29,0,0,0,.22.73,2.42,2.42,0,0,0,.44.62,1.74,1.74,0,0,0,.5.35.78.78,0,0,0,.45.06.64.64,0,0,0,.35-.28,1,1,0,0,0,.08-.6,2.29,2.29,0,0,0-.22-.73,2.26,2.26,0,0,0-.44-.62,1.56,1.56,0,0,0-.5-.35.7.7,0,0,0-.45-.06A.64.64,0,0,0,68,173.51Z"/><path class="cls-15" d="M69.91,175a2.33,2.33,0,0,0-.21-.74,2.26,2.26,0,0,0-.44-.62,1.36,1.36,0,0,0-.65-.41.44.44,0,0,0-.2,0,.43.43,0,0,0-.19,0,.64.64,0,0,0-.27.27h0a.86.86,0,0,1,.13-.14.49.49,0,0,1,.15-.1.5.5,0,0,1,.37,0,1.34,1.34,0,0,1,.63.39,2.67,2.67,0,0,1,.45.61,2.3,2.3,0,0,1,.23.73Z"/><path class="cls-16" d="M69,171.8h0a.22.22,0,0,0,.12-.09.32.32,0,0,0,0-.2.68.68,0,0,0-.08-.24.6.6,0,0,0-.14-.21.45.45,0,0,0-.17-.11.18.18,0,0,0-.1,0h0a.19.19,0,0,0-.12.09.33.33,0,0,0,0,.15v.05a.73.73,0,0,0,.07.24.62.62,0,0,0,.15.2.36.36,0,0,0,.16.12A.23.23,0,0,0,69,171.8Z"/><path class="cls-17" d="M68.58,171a.32.32,0,0,0,0,.14v.05a.68.68,0,0,0,.08.24.66.66,0,0,0,.14.2.61.61,0,0,0,.16.12.26.26,0,0,0,.15,0,.18.18,0,0,0,.11-.1.24.24,0,0,0,0-.19.67.67,0,0,0-.07-.24,1,1,0,0,0-.15-.2.4.4,0,0,0-.16-.12.23.23,0,0,0-.14,0A.23.23,0,0,0,68.58,171Z"/><path class="cls-12" d="M69,170.61h0a.22.22,0,0,0,.12-.09.32.32,0,0,0,0-.2.48.48,0,0,0-.07-.24.6.6,0,0,0-.14-.21.55.55,0,0,0-.17-.11.19.19,0,0,0-.1,0h0a.19.19,0,0,0-.11.09.19.19,0,0,0,0,.15V170a.73.73,0,0,0,.07.24.62.62,0,0,0,.15.2.36.36,0,0,0,.16.12A.23.23,0,0,0,69,170.61Z"/><path class="cls-12" d="M68.58,169.84a.32.32,0,0,0,0,.14V170a.68.68,0,0,0,.08.24.66.66,0,0,0,.14.2.61.61,0,0,0,.16.12.26.26,0,0,0,.15,0,.18.18,0,0,0,.11-.1.25.25,0,0,0,0-.19.61.61,0,0,0-.07-.24,1,1,0,0,0-.15-.2.4.4,0,0,0-.16-.12.23.23,0,0,0-.14,0A.23.23,0,0,0,68.58,169.84Z"/><path class="cls-11" d="M74.11,155.64a2.06,2.06,0,0,1,.45-.77,1.3,1.3,0,0,1,.34-.28l25.8-14.91v26.81L74.05,181.9V156.08A1.62,1.62,0,0,1,74.11,155.64Z"/><path class="cls-3" d="M75,156.08a.35.35,0,0,1,0-.14,1.1,1.1,0,0,1,.24-.42.31.31,0,0,1,.11-.09l24.34-14.07v24.57L75,180.22Zm24.42-14.2L75.54,155.69s0,0,0,0a.87.87,0,0,0-.18.31.11.11,0,0,0,0,.05V179.7l24.12-13.94Z"/><polygon class="cls-15" points="74.04 156.08 72.76 155.32 71.47 154.58 68.89 153.08 66.31 151.6 65.01 150.86 63.72 150.12 65 150.88 66.29 151.63 68.87 153.12 71.45 154.6 72.75 155.34 74.04 156.08"/><polygon class="cls-15" points="73.33 159.46 72.23 158.81 71.12 158.16 68.89 156.88 66.66 155.59 65.55 154.96 64.43 154.32 65.54 154.97 66.65 155.62 68.87 156.91 71.1 158.19 72.22 158.83 73.33 159.46"/><polygon class="cls-15" points="73.34 162.32 72.23 161.67 71.12 161.02 68.89 159.74 66.67 158.46 65.55 157.82 64.43 157.19 65.54 157.84 66.65 158.48 68.87 159.77 71.1 161.05 72.22 161.69 73.34 162.32"/><polygon class="cls-15" points="73.34 165.05 72.23 164.4 71.12 163.75 68.89 162.47 66.67 161.19 65.55 160.55 64.43 159.91 65.54 160.56 66.65 161.21 68.87 162.5 71.1 163.78 72.22 164.42 73.34 165.05"/><path class="cls-18" d="M9.64,104v43.57l16.72-11.2,1.85-1.07,2.07-1.2L42,127.33V83.75c0-.11,0-.22,0-.34a1.83,1.83,0,0,0-.32.14L11.32,101.09a2.93,2.93,0,0,0-.67.55,4,4,0,0,0-.88,1.51A2.63,2.63,0,0,0,9.64,104Z"/><path class="cls-3" d="M9.64,104v43.57l18-10.42,1.87-1.07,2.07-1.2,11.73-6.79,0-43.58a1.38,1.38,0,0,0-.33-1,.64.64,0,0,0-.16-.11,1.07,1.07,0,0,0-.61-.1,1.25,1.25,0,0,0-.26.07,1.83,1.83,0,0,0-.32.14L11.32,101.09a2.93,2.93,0,0,0-.67.55,4,4,0,0,0-.88,1.51A2.63,2.63,0,0,0,9.64,104Z"/><path class="cls-3" d="M8.3,103.23v4.67l14,8,55.32,31.61v-4.19L111,122.43,41.68,82.77l-.16-.11a1.08,1.08,0,0,0-.61-.1,1.7,1.7,0,0,0-.58.22L10,100.31h0a3.17,3.17,0,0,0-.67.55,4.23,4.23,0,0,0-.87,1.51h0v0c0,.1,0,.19-.07.29a.64.64,0,0,1,0,.07v0A2,2,0,0,0,8.3,103.23Z"/><path class="cls-9" d="M8.43,102.4c0,.1,0,.2-.07.29C8.38,102.59,8.4,102.5,8.43,102.4Z"/><polygon class="cls-4" points="76.35 142.14 76.37 185.7 77.69 186.47 77.67 142.9 76.35 142.14"/><path class="cls-3" d="M76.35,142.11v0l1.32.76,0,43.57L94.4,175.28l1.85-1.08,2.08-1.2,11.74-6.78,0-43.58c0-.12,0-.23,0-.34a1.2,1.2,0,0,0-.31-.65l-.17-.1a1.06,1.06,0,0,0-.61-.11,2,2,0,0,0-.57.22L78,139.2a0,0,0,0,0,0,0,2.79,2.79,0,0,0-.67.53,4.62,4.62,0,0,0-.88,1.52A3.12,3.12,0,0,0,76.35,142.11Z"/><path class="cls-11" d="M77.67,142.9l0,43.57,18-10.42L97.59,175l2.07-1.2L111.4,167l0-43.59a1.34,1.34,0,0,0-.34-1,.58.58,0,0,0-.15-.11,1,1,0,0,0-.61-.1,1,1,0,0,0-.25.07,1.63,1.63,0,0,0-.34.14L79.35,140a2.44,2.44,0,0,0-.66.54,4,4,0,0,0-.88,1.52A3.16,3.16,0,0,0,77.67,142.9Z"/><path class="cls-3" d="M8.3,103.22l1.34.77a2.46,2.46,0,0,1,.13-.84,4,4,0,0,1,.88-1.51,2.93,2.93,0,0,1,.67-.55h0L41.66,83.55a1.83,1.83,0,0,1,.32-.14,1.11,1.11,0,0,0-.31-.64.53.53,0,0,0-.15-.11,1.06,1.06,0,0,0-.61-.09,1.72,1.72,0,0,0-.59.2L10,100.31a2.49,2.49,0,0,0-.67.55,4,4,0,0,0-.87,1.51A2.85,2.85,0,0,0,8.3,103.22Z"/><path class="cls-4" d="M8.3,103.22l0,43.59,1.33.78V104Z"/><path class="cls-7" d="M9.31,100.86a4,4,0,0,0-.87,1.51,4.23,4.23,0,0,1,.87-1.51,3.17,3.17,0,0,1,.67-.55h0A2.49,2.49,0,0,0,9.31,100.86Z"/><path class="cls-7" d="M8.3,103.22h0a2,2,0,0,1,0-.43A2,2,0,0,0,8.3,103.22Z"/><polygon class="cls-4" points="77.67 142.9 8.3 103.23 8.87 108.22 76.35 146.81 77.67 142.9"/><polygon class="cls-19" points="65.55 119.43 40.31 112.87 40.31 113.32 58.25 123.64 65.55 119.43"/><polygon class="cls-20" points="65.55 118.97 47.61 108.65 40.31 112.87 58.25 123.19 65.55 118.97"/><polygon class="cls-3" points="46.64 109.78 47.72 110.41 48.73 109.82 47.65 109.2 46.64 109.78"/><polygon class="cls-3" points="48.07 110.61 49.15 111.24 50.16 110.65 49.08 110.02 48.07 110.61"/><polygon class="cls-3" points="49.5 111.44 50.58 112.06 51.59 111.48 50.51 110.85 49.5 111.44"/><polygon class="cls-3" points="50.92 112.27 52.01 112.89 53.02 112.31 51.94 111.68 50.92 112.27"/><polygon class="cls-3" points="52.35 113.09 53.43 113.72 54.44 113.14 53.36 112.51 52.35 113.09"/><polygon class="cls-3" points="53.78 113.92 54.86 114.55 55.87 113.97 54.79 113.34 53.78 113.92"/><polygon class="cls-3" points="55.21 114.75 56.29 115.38 57.3 114.8 56.22 114.17 55.21 114.75"/><polygon class="cls-3" points="56.63 115.58 57.72 116.21 58.73 115.62 57.65 115 56.63 115.58"/><polygon class="cls-3" points="58.04 116.38 59.12 117.01 60.13 116.43 59.05 115.8 58.04 116.38"/><polygon class="cls-3" points="59.47 117.21 60.55 117.84 61.55 117.26 60.48 116.63 59.47 117.21"/><polygon class="cls-3" points="60.89 118.04 61.97 118.67 62.98 118.08 61.9 117.46 60.89 118.04"/><polygon class="cls-3" points="62.32 118.87 63.4 119.5 64.41 118.91 63.33 118.29 62.32 118.87"/><polygon class="cls-3" points="45.41 110.53 47.3 111.62 48.3 111.04 46.42 109.94 45.41 110.53"/><polygon class="cls-3" points="47.51 111.74 48.59 112.37 49.6 111.79 48.52 111.16 47.51 111.74"/><polygon class="cls-3" points="48.94 112.57 50.02 113.2 51.02 112.62 49.94 111.99 48.94 112.57"/><polygon class="cls-3" points="50.36 113.4 51.44 114.03 52.45 113.44 51.37 112.82 50.36 113.4"/><polygon class="cls-3" points="51.79 114.23 52.87 114.86 53.88 114.27 52.8 113.65 51.79 114.23"/><polygon class="cls-3" points="53.22 115.06 54.3 115.68 55.3 115.1 54.23 114.47 53.22 115.06"/><polygon class="cls-3" points="54.64 115.89 55.72 116.51 56.73 115.93 55.65 115.3 54.64 115.89"/><polygon class="cls-3" points="56.07 116.72 57.15 117.34 58.16 116.76 57.08 116.13 56.07 116.72"/><polygon class="cls-3" points="57.5 117.54 58.58 118.17 59.59 117.59 58.51 116.96 57.5 117.54"/><polygon class="cls-3" points="58.93 118.37 60.01 119 61.02 118.42 59.94 117.79 58.93 118.37"/><polygon class="cls-3" points="45.55 112.06 46.63 112.69 47.64 112.11 46.56 111.48 45.55 112.06"/><polygon class="cls-3" points="42.75 112.03 44.67 113.14 45.68 112.56 44.84 112.07 46.21 111.28 45.13 110.65 42.75 112.03"/><polygon class="cls-3" points="41.46 112.78 42.54 113.4 43.55 112.82 42.47 112.19 41.46 112.78"/><polygon class="cls-3" points="44.88 113.26 45.96 113.89 46.97 113.31 45.89 112.68 44.88 113.26"/><polygon class="cls-3" points="42.88 113.61 43.97 114.23 44.97 113.65 43.89 113.02 42.88 113.61"/><polygon class="cls-3" points="46.98 112.89 48.06 113.52 49.06 112.94 47.98 112.31 46.98 112.89"/><polygon class="cls-3" points="46.31 114.09 47.39 114.72 48.4 114.13 47.32 113.51 46.31 114.09"/><polygon class="cls-3" points="44.31 114.43 45.39 115.06 46.4 114.48 45.32 113.85 44.31 114.43"/><polygon class="cls-3" points="48.4 113.72 49.48 114.35 50.49 113.77 49.41 113.14 48.4 113.72"/><polygon class="cls-3" points="47.73 114.92 48.81 115.55 49.82 114.96 48.74 114.34 47.73 114.92"/><polygon class="cls-3" points="45.74 115.26 46.82 115.89 47.83 115.31 46.75 114.68 45.74 115.26"/><polygon class="cls-3" points="49.83 114.55 50.91 115.18 51.92 114.6 50.84 113.97 49.83 114.55"/><polygon class="cls-3" points="51.26 115.38 52.34 116.01 53.35 115.42 52.27 114.8 51.26 115.38"/><polygon class="cls-3" points="52.69 116.21 53.77 116.84 54.78 116.25 53.69 115.63 52.69 116.21"/><polygon class="cls-3" points="54.11 117.04 55.19 117.66 56.2 117.08 55.12 116.45 54.11 117.04"/><polygon class="cls-3" points="55.54 117.87 56.62 118.49 57.63 117.91 56.55 117.28 55.54 117.87"/><polygon class="cls-3" points="49.16 115.75 50.24 116.38 51.25 115.79 50.17 115.16 49.16 115.75"/><polygon class="cls-3" points="50.59 116.58 51.67 117.2 52.68 116.62 51.6 115.99 50.59 116.58"/><polygon class="cls-3" points="52.02 117.41 53.1 118.03 54.1 117.45 53.02 116.82 52.02 117.41"/><polygon class="cls-3" points="53.44 118.23 54.52 118.86 55.53 118.28 54.45 117.65 53.44 118.23"/><polygon class="cls-3" points="54.87 119.06 55.95 119.69 56.96 119.11 55.88 118.48 54.87 119.06"/><polygon class="cls-3" points="47.17 116.09 53.96 120.03 54.97 119.45 48.18 115.51 47.17 116.09"/><polygon class="cls-3" points="56.97 118.69 58.05 119.32 59.06 118.74 57.98 118.11 56.97 118.69"/><polygon class="cls-3" points="56.3 119.89 57.38 120.52 58.39 119.94 57.31 119.31 56.3 119.89"/><polygon class="cls-3" points="54.3 120.23 55.38 120.86 56.39 120.28 55.31 119.65 54.3 120.23"/><polygon class="cls-3" points="58.37 119.5 60.88 120.95 61.89 120.37 59.38 118.92 58.37 119.5"/><polygon class="cls-3" points="57.71 120.7 59.51 121.75 60.52 121.16 58.73 120.12 57.71 120.7"/><polygon class="cls-3" points="55.73 121.06 56.81 121.69 57.82 121.11 56.74 120.48 55.73 121.06"/><polygon class="cls-3" points="57.13 121.87 58.22 122.5 59.22 121.91 58.14 121.28 57.13 121.87"/><polygon class="cls-3" points="60.34 119.16 62.14 120.2 63.15 119.62 61.35 118.57 60.34 119.16"/><polygon class="cls-21" points="58.25 123.64 58.25 123.19 65.55 118.97 65.55 119.43 58.25 123.64"/><path class="cls-22" d="M36.76,113.8l.42,1.66,2.14.28s1.62.25,2.29.4a2.52,2.52,0,0,0,1.22-.33,10.14,10.14,0,0,1,2.42-.75,5,5,0,0,0,2.91-1.57l.37-.41-2.14.12Z"/><path class="cls-23" d="M36.59,112.8l.31,1.26.42,1.66,2.14.28s1.13-1.06,1.82-1.08a3.59,3.59,0,0,0,2.78-1.47.53.53,0,0,1,.48-.21l1.86.24a4.22,4.22,0,0,0,1.23,0,1.41,1.41,0,0,0,1-.56l.06-.07s-.08-.94-1.92-1.42a19.74,19.74,0,0,0-5.06-.24l-2.28.48Z"/><path class="cls-23" d="M40.79,115.15a17.2,17.2,0,0,0,2.52-.28c1.55-.45,2.06-.14,3.31-.74s.37-1.06.37-1.06l-3.09-.21a3.77,3.77,0,0,0-3.14.51A11.73,11.73,0,0,1,40.79,115.15Z"/><path class="cls-24" d="M12.27,103.64c1.09-7.51,4.54-6,4.54-6,1.54,1.39,3.1,3,3.57,4.72l.06.19,3.23,9.13a1.4,1.4,0,0,0,1.44.94l11.17-1.43.95-.15a2.68,2.68,0,0,1,1.7.42A6,6,0,0,1,41.82,116a1.53,1.53,0,0,1-.88,1.57L20.52,121.5a3.87,3.87,0,0,1-3.81-1.64C14.18,116.18,11.55,108.59,12.27,103.64Z"/><path class="cls-2" d="M35.83,153.94a34.24,34.24,0,0,0,.06,5.39s.78,2.22,3.51,1.4c0,0,2.35-1.65,2.47-1.83a9.59,9.59,0,0,0,.23-1.24s1-.19,3.09-.8,5.64-3,5.47-3.48A4.05,4.05,0,0,0,48,151.83H40.78Z"/><path class="cls-25" d="M36.2,151.41c-1.77,1-1.77,2.68,0,3.7a7.08,7.08,0,0,0,6.4,0c1.77-1,1.77-2.67,0-3.69A7.08,7.08,0,0,0,36.2,151.41Z"/><path class="cls-25" d="M43.93,153.39A65,65,0,0,1,45,131c.21-.89.46-1.8.74-2.7,0-1.18-.7-2.18-2.77-2.47a24.47,24.47,0,0,0-6.68.88q-.37,3.06-1,6.08a20.2,20.2,0,0,0-.46,4.31c0,.62,0,1.37,0,2.21,0,5.31,0,14.07,0,14.07Z"/><path class="cls-3" d="M41.18,144,23.49,133.31a20.15,20.15,0,0,0-5.77,4.93l-4.58-2.76-7.38,4.07-.92-9.07-1.46-.89L4.6,141.46,23,152.54l-.19-1.78c1.5,1.16,2.66,1.9,2.66,1.9Z"/><path class="cls-3" d="M23.37,132.07q9.69,5.85,19.4,11.7h0l-.09,0a1.34,1.34,0,0,0-.77,0,2.34,2.34,0,0,0-.72.28L23.49,133.31Z"/><polygon class="cls-4" points="39.14 148.3 41.42 170.74 40.23 170.01 38.08 148.88 39.14 148.3"/><path class="cls-11" d="M43.36,145l-3,1.65L40.3,146l-14.65,8.1-.06,0-.15-1.48L41.16,144a2.4,2.4,0,0,1,.73-.28,1.35,1.35,0,0,1,.77,0l.08,0a1.14,1.14,0,0,1,.48.49A1.76,1.76,0,0,1,43.36,145Z"/><polygon class="cls-11" points="40.39 146.67 40.32 146.01 25.66 154.1 25.61 154.13 24.32 154.84 24.22 155.6 20.75 182.15 22.12 181.39 25.43 155.87 38.08 148.88 39.14 148.3 41.42 170.74 42.79 169.98 40.39 146.67"/><polygon class="cls-4" points="22.88 154.8 21.35 153.88 20.16 153.16 5.81 144.51 4.66 143.81 4.76 143.04 4.6 141.46 22.97 152.54 23.13 154.12 23.03 154.89 22.88 154.8"/><polygon class="cls-26" points="22.55 158.53 21.86 158.91 21.35 153.85 22.88 154.78 22.95 155.46 22.55 158.53"/><polygon class="cls-4" points="21.35 153.88 21.86 158.93 20.67 158.22 20.16 153.16 21.35 153.88"/><polygon class="cls-11" points="5.81 144.51 2.56 169.59 1.19 170.35 4.66 143.81 5.81 144.51"/><polygon class="cls-3" points="2.42 117.62 3.61 118.34 2.3 119.06 1.11 118.35 2.42 117.62"/><path class="cls-4" d="M3.38,129.59,2.3,119.06l-1.19-.71S3.57,142.4,3.57,142.4,0,168.81,0,169.63l1.19.72c0-.84,3.57-27.23,3.57-27.23Z"/><path class="cls-11" d="M5.88,140.75l-1.29.71-.16-1.57-1-10.3,1.45.88.89,8.73v.08Z"/><path class="cls-25" d="M20.08,132c1.1.73,11.4,7.7,11.4,7.7l3.57-.51,7.81-3.88,1.27-2.46c.07-.21,1.94-3.25,1.94-3.25a11.15,11.15,0,0,0-.14-1.42c-.17-1.16-.69-2.18-2.77-2.47a24.51,24.51,0,0,0-6.68.88C29.19,128.26,19.29,131.52,20.08,132Z"/><path class="cls-23" d="M16.25,92.91A5.16,5.16,0,0,1,15.94,95l8.3,4.89s.23-3.7.36-4.88c0-.45.64-.79.64-.79a9.33,9.33,0,0,0,1.49,0,17.72,17.72,0,0,0,2.57-8.4c0-.31,0-.61,0-.91-.15-4.42-2.92-7.31-7.95-7.3-4.52,0-6.42,4.38-7,7.32s.89,4.4,1.59,6.36A5.18,5.18,0,0,1,16.25,92.91Z"/><path class="cls-27" d="M48.1,159.49c-3.39,1-3.39,3.71,0,4.71a6.85,6.85,0,0,0,4,0c3.4-1,3.4-3.71,0-4.71A6.85,6.85,0,0,0,48.1,159.49Z"/><path class="cls-27" d="M44.45,145.84c.63,7.11,1.08,15.65,1.11,15.93a40.59,40.59,0,0,1,5.11-.1c2,0,3.8,0,3.93,0h0a.55.55,0,0,1,0-.12.13.13,0,0,0,0-.06c-.15-1.84-1.36-16.81,0-26.14a0,0,0,0,0,0,0,.59.59,0,0,1,0-.13,6.78,6.78,0,0,0-1.16-4.94l-.19-.23a6.39,6.39,0,0,0-.44-.48c-.09-.08-.18-.17-.27-.24A5.19,5.19,0,0,0,52,129a3.83,3.83,0,0,0-2.52-.59c-.75.08-3,.46-4.86.61.09,1.52.91,2.56.94,3.37.06,2.42-.67,4.27-1,7.17A28.69,28.69,0,0,0,44.45,145.84Z"/><path class="cls-28" d="M13.52,83.4a23.69,23.69,0,0,0,2.71,9.14,10.7,10.7,0,0,0,4.49.86,2.58,2.58,0,0,0,.39,0,4.56,4.56,0,0,0,1.49-.43,7.12,7.12,0,0,0,.8-.49,21.36,21.36,0,0,0,1.07-4.51c-.36-1.42-.12-2.66,1.61-2.83s1,3,1,3l1.41-.15.12-1.84a5.39,5.39,0,0,1,1.29-3,1.06,1.06,0,0,0,.21-.59,11.94,11.94,0,0,0-.83-3.86s0,0,0-.08c-1-1.65-3.11-3.25-7.49-3.32a11,11,0,0,0-4.74.81C13,77.88,13.52,82.27,13.52,83.4Z"/><path class="cls-27" d="M19.69,142.55c3.63,2,9.09,2.84,17.56-.79q2.32-1,4.35-1.81c2.41-1,4.48-1.75,6.13-2.4a29.91,29.91,0,0,0,4-1.72.59.59,0,0,1,0-.13,6.78,6.78,0,0,0-1.16-4.94l-.19-.23c-.13-.16-.29-.32-.44-.48s-.18-.17-.27-.24l-.57-.42a3.89,3.89,0,0,0-2.52-.59c-.75.08-2.21.2-4.11.35-8.83.7-27,2-26,2.26C16.43,131.41,16.05,140.54,19.69,142.55Z"/><path class="cls-29" d="M9.05,107.3c.76,5,2.52,19.27,2.27,22.35s.06,8.85.09,9.25c0,0,0,.71.05.71,0,1.49,1,3,3,4.11A16.27,16.27,0,0,0,26,145a12.68,12.68,0,0,0,1.65-.52,11.37,11.37,0,0,0,1.49-.71A7.3,7.3,0,0,0,31.2,142h0a5.21,5.21,0,0,0,.56-.88l.06-.16a2.6,2.6,0,0,0,.16-.47.76.76,0,0,0,.06-.2,4.36,4.36,0,0,0,.07-.62h0s.37-9.4.64-18.59c0-1.4.08-2.78.12-4.07.1-3.67.17-6.73.16-8.22v0a4.37,4.37,0,0,0-.44-1.81l0,0c0-.09-.08-.18-.13-.27l-.08-.15c-1.59-2.9-5.44-5.6-5.44-5.6l-3.3-1.44-9-4s-3.53.06-4.89.91S8.55,104,9.05,107.3Z"/><path class="cls-30" d="M14.41,95.45s.9-1.8,1.09-1.8a18.1,18.1,0,0,1,5.9,2.46c4.13,2.94,5.33,4.73,5.33,4.73a60.91,60.91,0,0,1-9.63-2.56C13.77,96.86,14.41,95.45,14.41,95.45Z"/><path class="cls-11" d="M24.18,140.84l-.69-7.53-.12-1.24-.2-1.93-1.31.72,1.08,10.53,1.22,11.87.16,1.58,1.29-.71C25.56,153.64,24.18,140.84,24.18,140.84Z"/><path class="cls-4" d="M21.86,130.86l-1.19-.72h0l2.3,22.4.16,1.58s-.41,3.28-.58,4.44l-3,22.87,1.19.72,3.47-26.55.1-.76Z"/><polygon class="cls-4" points="21.75 140.67 13.14 135.48 4.84 130.48 4.83 130.47 3.38 129.59 2.3 119.06 3.76 119.95 20.67 130.14 21.75 140.67"/><polygon class="cls-3" points="21.98 129.42 23.17 130.14 21.86 130.86 20.67 130.15 21.98 129.42"/><polygon class="cls-3" points="21.98 129.42 20.67 130.15 20.67 130.14 2.3 119.06 3.61 118.34 21.98 129.42"/><path class="cls-10" d="M24.46,112.65a4,4,0,0,0,.05.62,1.62,1.62,0,0,1,0,.19c.39,1.6,2,2,4,.91,2.24-1.3,4.06-4.17,4.05-6.4a3.07,3.07,0,0,0-.18-1.11,1.69,1.69,0,0,0-.13-.27,1,1,0,0,0-.09-.15c-.65-1-2.05-1.12-3.66-.19A8.4,8.4,0,0,0,24.46,112.65Z"/><path class="cls-23" d="M60.65,121.7c-.23.4-1.08.33-2.2,1.22a5.79,5.79,0,0,1-3.62,1.5l-.07,0-.27,0c-.77.14-2,.41-3,.6a.65.65,0,0,1-.11-.12A6,6,0,0,1,50,121.27c0-.11,0-.22,0-.32v0h0a9.09,9.09,0,0,0,2.48-1.78l0,0a3.91,3.91,0,0,0,.37-.44,4.89,4.89,0,0,1,4.57-1.81,3.86,3.86,0,0,1,2.08.89S61.22,120.66,60.65,121.7Z"/><polygon class="cls-4" points="63.71 139.58 40.32 126.22 41.4 123.14 54.69 129.85 63.71 139.58"/><path class="cls-30" d="M24.16,110.6c1.09-7.51,6.81-5.72,6.81-5.72,1.53,1.4,3.1,3,3.57,4.72l.06.19,3.22,9.14a1.42,1.42,0,0,0,1.44.93l10.41-.81h0a2.44,2.44,0,0,1,1.94.36,6,6,0,0,1,2.9,4.57,1.51,1.51,0,0,1-.89,1.56l-19,3.2a3.86,3.86,0,0,1-3.82-1.63C28.33,123.42,23.44,115.55,24.16,110.6Z"/><path class="cls-21" d="M79.24,91.26v23.28l1.17-.67V90.58Z"/><path class="cls-21" d="M47.57,73.69V95.58l.61-.35V74Z"/><path class="cls-20" d="M47.58,95.58,78.65,113.5v-.7L48.19,95.23Z"/><path class="cls-11" d="M48.18,74V95.23L78.65,112.8V91.61Z"/><path class="cls-21" d="M58.46,103.83v.86a2.32,2.32,0,0,0,1,1.52,16.83,16.83,0,0,0,1.87,1.5,29.51,29.51,0,0,0,2.64,1.55,15.59,15.59,0,0,0,2.78,1.23c.68.21,1.39.33,2.08.49A2.1,2.1,0,0,0,70,111c.3-.09.63-.3.63-.58v-.86a.56.56,0,0,1-.24.44,1,1,0,0,1-.65.16,5.76,5.76,0,0,1-1.18-.09,11.56,11.56,0,0,1-2.31-.7A31.15,31.15,0,0,1,63.12,108a16.77,16.77,0,0,1-2.59-1.63A14.47,14.47,0,0,1,59,104.93a2.06,2.06,0,0,1-.47-.69,1.16,1.16,0,0,1-.09-.41Z"/><path class="cls-20" d="M61.83,104.49v1.23a.35.35,0,0,0,.16.18l3.92,2.26a.62.62,0,0,0,.19.07.86.86,0,0,0,.39,0,.62.62,0,0,0,.19-.07v-.87Z"/><path class="cls-19" d="M66.68,108.16a.62.62,0,0,1-.19.07.86.86,0,0,1-.39,0,.62.62,0,0,1-.19-.07L62,105.9a.35.35,0,0,1-.16-.18v-1.23l-2.24-1.29h0a2.42,2.42,0,0,0-.46,0,.89.89,0,0,0-.6.32.5.5,0,0,0-.07.27,1.16,1.16,0,0,0,.09.41,2.06,2.06,0,0,0,.47.69,14.47,14.47,0,0,0,1.51,1.41A16.77,16.77,0,0,0,63.12,108a31.15,31.15,0,0,0,3.09,1.44,11.56,11.56,0,0,0,2.31.7,5.76,5.76,0,0,0,1.18.09,1,1,0,0,0,.65-.16.56.56,0,0,0,.24-.44l0,0-3.56-2v.43Z"/><polygon class="cls-15" points="66.68 107.29 66.68 108.16 67.06 107.94 67.06 107.51 66.68 107.29"/><path class="cls-19" d="M59.59,103.2,47,95.93V72.64L79.24,91.26v23.28l-8.63-5-3.56-2-.38-.22-4.85-2.8Zm19.06,10.3V91.61L48.18,74l-.61-.35V95.58Z"/><polygon class="cls-15" points="78.65 113.5 63.12 104.53 47.58 95.58 63.11 104.55 78.65 113.5"/><polygon class="cls-15" points="79.25 91.26 63.11 81.94 46.97 72.64 63.1 81.96 79.25 91.26"/><path class="cls-15" d="M68.52,110.11a9.91,9.91,0,0,1-1.42-.38c-.47-.16-.93-.34-1.38-.53-.91-.38-1.79-.81-2.66-1.27a17.72,17.72,0,0,1-2.49-1.57c-.39-.31-.76-.64-1.11-1l-.51-.53a1.9,1.9,0,0,1-.4-.61,1.75,1.75,0,0,0,.4.61l.5.54c.35.34.72.67,1.11,1A16.91,16.91,0,0,0,63.05,108c.87.46,1.75.89,2.66,1.27A13.91,13.91,0,0,0,68.52,110.11Z"/><path class="cls-20" d="M47,72.64,79.24,91.26l1.17-.68C75.67,86,56.1,74.7,48.13,72Z"/><polygon class="cls-21" points="67.12 89.73 52.54 81.33 52.54 80.53 67.12 88.94 67.12 89.73"/><polygon class="cls-21" points="72.58 94.11 52.53 82.55 52.53 81.75 72.58 93.31 72.58 94.11"/><polygon class="cls-20" points="74.28 96.33 52.54 83.79 52.54 83 74.28 95.54 74.28 96.33"/><polygon class="cls-21" points="67.11 93.42 52.53 85.01 52.53 84.22 67.11 92.63 67.11 93.42"/><polygon class="cls-20" points="67.12 94.67 52.54 86.26 52.54 85.47 67.12 93.87 67.12 94.67"/><polygon class="cls-31" points="67.12 98.92 52.55 90.51 52.54 89.71 67.12 98.12 67.12 98.92"/><polygon class="cls-31" points="72.59 103.3 52.55 91.74 52.55 90.94 72.59 102.51 72.59 103.3"/><polygon class="cls-31" points="74.29 105.51 52.55 92.97 52.55 92.18 74.29 104.72 74.29 105.51"/><polygon class="cls-20" points="67.12 102.62 52.55 94.21 52.55 93.41 67.12 101.82 67.12 102.62"/><polygon class="cls-20" points="67.13 103.85 52.55 95.44 52.55 94.64 67.12 103.05 67.13 103.85"/><polygon class="cls-25" points="60.37 93.17 52.54 88.66 52.54 87.87 60.37 92.38 60.37 93.17"/><polygon class="cls-25" points="60.36 84 52.54 79.48 52.54 78.69 60.36 83.2 60.36 84"/><polygon class="cls-32" points="69.43 133 73.64 135.43 73.83 132.86 75.36 131.98 77.33 133.02 76.44 133.69 76.44 137.03 77.38 137.57 92.36 128.93 84.41 124.36 69.43 133"/><polygon class="cls-24" points="69.43 129.58 77.05 133.98 91.22 125.79 83.6 121.39 69.43 129.58"/><path class="cls-24" d="M69.43,132.52l7.62,4.4h0l0,0h.17l0,0a.05.05,0,0,0,0,0,.05.05,0,0,0,0,0,.43.43,0,0,0,0-.05v0L70,132.52v-.32Z"/><path class="cls-33" d="M70,130.23v2.29l7.33,4.23v-2a.07.07,0,0,1,0-.05.64.64,0,0,1,0-.07l0-.06,0-.06a.1.1,0,0,0,0-.05l0-.06,0,0-.05,0h0Z"/><path class="cls-32" d="M70,130.23v.34l7.34,4.23v-.06a.07.07,0,0,1,0-.05.64.64,0,0,1,0-.07l0-.06,0-.06a.1.1,0,0,0,0-.05l0-.06,0,0-.05,0h0Z"/><path class="cls-29" d="M77.25,136.93h-.17l0,0h0l-7.62-4.4v.33l7.62,4.39a.46.46,0,0,0,.19.08.31.31,0,0,0,.21,0h0l0,0a.49.49,0,0,0,.11-.33v-2a1,1,0,0,0,0-.29,1.34,1.34,0,0,0-.3-.5A.83.83,0,0,0,77,134l-7.61-4.39v.32l.56.33L77,134.3h0l.05,0,0,0,0,.06a.1.1,0,0,1,0,.05l0,.06,0,.06a.64.64,0,0,0,0,.07.07.07,0,0,0,0,.05v0h0v2a.43.43,0,0,1,0,.05.05.05,0,0,1,0,0,.05.05,0,0,1,0,0Z"/><path class="cls-30" d="M77.47,137.27c4.71-2.72,9.41-5.46,14.13-8.17h0s0,0,.07-.06a.32.32,0,0,0,.08-.2.34.34,0,0,0,0-.1v-2l-12.12,7-2,1.18v2a.49.49,0,0,1-.11.33Z"/><path class="cls-30" d="M77,134a.83.83,0,0,1,.23.19,1.34,1.34,0,0,1,.3.5,1,1,0,0,1,0,.29l2-1.18,12.12-7a.9.9,0,0,0,0-.28,1.38,1.38,0,0,0-.3-.51.63.63,0,0,0-.22-.18h0Z"/><path class="cls-15" d="M69.43,129.58c1.25.76,2.52,1.48,3.79,2.22l3.06,1.74v0c-1.07-.64-2-1.14-3-1.77C72,131,70.71,130.29,69.43,129.58Z"/><path class="cls-32" d="M74.34,128.45a1.62,1.62,0,0,1,.42-.67,4.25,4.25,0,0,1,.89-.69,9,9,0,0,1,1.22-.57,11.15,11.15,0,0,1,2.64-.6,8.71,8.71,0,0,1,1.35,0,5.9,5.9,0,0,1,1.26.19l.35-.21a.7.7,0,0,1,.71,0l2.31,1.33a.7.7,0,0,1,0,1.22h0a.7.7,0,0,1-.71,0,17.48,17.48,0,0,1-3.18-1.82c0-.12.17-.32.17-.32a4.81,4.81,0,0,0-1.13-.16,8.15,8.15,0,0,0-1.21,0,11.82,11.82,0,0,0-1.19.2,7.75,7.75,0,0,0-1.16.35,6.45,6.45,0,0,0-1.1.51,3.34,3.34,0,0,0-.79.61,1.37,1.37,0,0,0-.38.6.78.78,0,0,0,0,.4.69.69,0,0,0,.18.35l0,0a1.26,1.26,0,0,0,.37.27,2.53,2.53,0,0,0,.56.23l.4-.25a.71.71,0,0,1,.72,0l2.31,1.33a.71.71,0,0,1,0,1.22h0a.71.71,0,0,1-.72,0,28.88,28.88,0,0,1-3.23-1.84c-.08-.13.17-.27.17-.27h0a2.85,2.85,0,0,1-.63-.25,1.48,1.48,0,0,1-.44-.35,1,1,0,0,1-.21-.39v0A.85.85,0,0,1,74.34,128.45Z"/><path class="cls-20" d="M74.85,127.05a.9.9,0,0,1,0-.4,1.51,1.51,0,0,1,.37-.6,3.94,3.94,0,0,1,.8-.61,7.32,7.32,0,0,1,1.1-.51,8.67,8.67,0,0,1,1.16-.35,9.51,9.51,0,0,1,1.19-.19,8.16,8.16,0,0,1,1.21,0,5.35,5.35,0,0,1,1.2.18l.59.17a1.79,1.79,0,0,1,0-.24s0,0,0-.06l-.27-.07a5.57,5.57,0,0,0-1.34-.2,8.67,8.67,0,0,0-1.35,0,11.15,11.15,0,0,0-2.64.6,8,8,0,0,0-1.22.58,4.2,4.2,0,0,0-.89.68,1.76,1.76,0,0,0-.42.67.86.86,0,0,0,0,.42v0a1,1,0,0,0,.21.39,1.48,1.48,0,0,0,.44.35,2.85,2.85,0,0,0,.63.25l.59.17a1.79,1.79,0,0,1,0-.24.43.43,0,0,1,0,0l-.27-.08a3.11,3.11,0,0,1-.56-.22,1.5,1.5,0,0,1-.37-.28l0,0A.9.9,0,0,1,74.85,127.05Z"/><path class="cls-21" d="M75,127.41l0,0h0a2.05,2.05,0,0,1,.59-.75,5.56,5.56,0,0,1,1.09-.66,9.09,9.09,0,0,1,1.52-.52,9.35,9.35,0,0,1,1.57-.26,7.82,7.82,0,0,1,1.28,0,6.08,6.08,0,0,1,.95.16l.55.16a1.67,1.67,0,0,1-.05-.18l0-.14c0-.09,0-.19,0-.27s0-.19,0-.27h0l-.59-.17a5.35,5.35,0,0,0-1.2-.18,8.16,8.16,0,0,0-1.21,0,9.51,9.51,0,0,0-1.19.19,8.67,8.67,0,0,0-1.16.35,7.32,7.32,0,0,0-1.1.51,3.94,3.94,0,0,0-.8.61,1.51,1.51,0,0,0-.37.6.76.76,0,0,0,.17.76Z"/><path class="cls-19" d="M76.27,129.05a.59.59,0,0,1,0-.14s0-.09,0-.13a.57.57,0,0,1,0-.13v-.08c0-.08,0-.18,0-.25h0l-.59-.17a2.85,2.85,0,0,1-.63-.25,1.48,1.48,0,0,1-.44-.35,1,1,0,0,1-.21-.39c.06.27.11.54.16.82v0a.8.8,0,0,0,.17.36,1.35,1.35,0,0,0,.44.38,3.27,3.27,0,0,0,.67.28l.46.13S76.27,129.08,76.27,129.05Z"/><path class="cls-19" d="M76.32,128.49a1.47,1.47,0,0,0,0,.47,2.37,2.37,0,0,0,.19.74,2.86,2.86,0,0,0,.37.66,2.52,2.52,0,0,0,.53.55,1.59,1.59,0,0,0,.5.26.79.79,0,0,0,.48,0,.61.61,0,0,0,.3-.22.89.89,0,0,0,.16-.34,1.55,1.55,0,0,0,0-.48,2.6,2.6,0,0,0-.18-.73,3.4,3.4,0,0,0-.38-.67,2.71,2.71,0,0,0-.53-.54,1.51,1.51,0,0,0-.5-.27h0a1,1,0,0,0-.48,0,.65.65,0,0,0-.3.22A.86.86,0,0,0,76.32,128.49Z"/><path class="cls-19" d="M78.26,131.45l.11,0,.12,0,.11,0h.32a.72.72,0,0,0,.21-.05l.06,0h.07a.79.79,0,0,0,.22-.19,1.13,1.13,0,0,0,.21-.39,2.1,2.1,0,0,0,.07-.56,3,3,0,0,0-.09-.67,3.73,3.73,0,0,0-.32-.84,4.08,4.08,0,0,0-.5-.75,3.14,3.14,0,0,0-.65-.61,2,2,0,0,0-.6-.3l-.2,0a1,1,0,0,0-.42,0,.77.77,0,0,0-.19.08l0,0,0,0a.39.39,0,0,0-.1.08,1,1,0,0,0-.14.15,1.14,1.14,0,0,0-.1.19,1.31,1.31,0,0,0-.08.21,1,1,0,0,0,0,.18.43.43,0,0,0,0,0,1.79,1.79,0,0,0,0,.24h0c0,.07,0,.17,0,.25v0a.43.43,0,0,1,0-.12v0a1.61,1.61,0,0,1,.06-.44,1,1,0,0,1,.24-.44.79.79,0,0,1,.43-.23,1.2,1.2,0,0,1,.5,0,2.3,2.3,0,0,1,.69.37,3.67,3.67,0,0,1,.7.77,3.87,3.87,0,0,1,.47.93,3,3,0,0,1,.17,1,1.5,1.5,0,0,1-.15.63.91.91,0,0,1-.37.36.88.88,0,0,1-.51.08,1.5,1.5,0,0,1-.57-.2l-.1,0-.09,0,0,0,.11.07.12.06.11.06Z"/><path class="cls-21" d="M79.74,131.14h0a.83.83,0,0,0,.22-.2,1,1,0,0,0,.21-.39,1.77,1.77,0,0,0,.08-.56,3.85,3.85,0,0,0-.09-.67,4.6,4.6,0,0,0-.32-.83,4.34,4.34,0,0,0-.5-.76,3.41,3.41,0,0,0-.65-.61,2,2,0,0,0-.61-.3l-.21,0a1,1,0,0,0-.42,0l-.1,0,0,0h0l-.49.29a.77.77,0,0,1,.19-.08,1,1,0,0,1,.42,0l.2,0a2,2,0,0,1,.6.3,3.14,3.14,0,0,1,.65.61,4.08,4.08,0,0,1,.5.75,3.73,3.73,0,0,1,.32.84,3,3,0,0,1,.09.67,2.1,2.1,0,0,1-.07.56,1.13,1.13,0,0,1-.21.39.79.79,0,0,1-.22.19Z"/><path class="cls-20" d="M78.36,131.18a.61.61,0,0,0,.3-.22.89.89,0,0,0,.16-.34,1.55,1.55,0,0,0,0-.48,2.6,2.6,0,0,0-.18-.73,3.4,3.4,0,0,0-.38-.67,2.71,2.71,0,0,0-.53-.54,1.51,1.51,0,0,0-.5-.27h0a1,1,0,0,0-.48,0,.65.65,0,0,0-.3.22.86.86,0,0,0-.16.35,1.47,1.47,0,0,0,0,.47,2.37,2.37,0,0,0,.19.74,2.86,2.86,0,0,0,.37.66,2.52,2.52,0,0,0,.53.55,1.59,1.59,0,0,0,.5.26A.79.79,0,0,0,78.36,131.18Zm-1.07-.3-.11-.1-.1-.1-.11-.11-.18-.25c-.06-.09-.12-.18-.17-.27s-.1-.19-.14-.28a.94.94,0,0,1-.06-.15.78.78,0,0,1,0-.14s0-.1-.05-.15l0-.14v0h0s0-.07,0-.1a.59.59,0,0,1,0-.14s0-.09,0-.13a.57.57,0,0,1,0-.13v-.12a.43.43,0,0,1,0-.12v0a.31.31,0,0,1,0-.08l0-.1a.47.47,0,0,1,.05-.1l.06-.09a.27.27,0,0,1,.07-.08.58.58,0,0,1,.12-.1l0,0a.47.47,0,0,1,.15-.06.74.74,0,0,1,.33,0,1,1,0,0,1,.17,0,1.8,1.8,0,0,1,.48.24,2.42,2.42,0,0,1,.52.49,3.91,3.91,0,0,1,.4.6,2.87,2.87,0,0,1,.25.67,2,2,0,0,1,.07.54,1.14,1.14,0,0,1-.08.52.83.83,0,0,1-.32.39h0l0,0h0l-.1,0-.1,0-.11,0h-.11l-.11,0-.12,0h0l-.1,0-.09,0,0,0-.12-.06-.11-.06L77.4,131Z"/><path class="cls-20" d="M78.66,131.19h0l0,0h0l-.1,0-.1,0-.11,0h-.11l-.11,0-.12,0h0a1.5,1.5,0,0,0,.57.2.88.88,0,0,0,.51-.08.91.91,0,0,0,.37-.36,1.5,1.5,0,0,0,.15-.63,3,3,0,0,0-.17-1,3.87,3.87,0,0,0-.47-.93,3.67,3.67,0,0,0-.7-.77,2.3,2.3,0,0,0-.69-.37,1.2,1.2,0,0,0-.5,0,.79.79,0,0,0-.43.23,1,1,0,0,0-.24.44,1.61,1.61,0,0,0-.06.44.31.31,0,0,1,0-.08l0-.1a.47.47,0,0,1,.05-.1l.06-.09a.27.27,0,0,1,.07-.08.58.58,0,0,1,.12-.1l0,0a.47.47,0,0,1,.15-.06.74.74,0,0,1,.33,0,1,1,0,0,1,.17,0,1.8,1.8,0,0,1,.48.24,2.42,2.42,0,0,1,.52.49,3.91,3.91,0,0,1,.4.6,2.87,2.87,0,0,1,.25.67,2,2,0,0,1,.07.54,1.14,1.14,0,0,1-.08.52A.83.83,0,0,1,78.66,131.19Z"/><path class="cls-20" d="M79.34,127.73a4.34,4.34,0,0,1,.5.76,4.6,4.6,0,0,1,.32.83,3.85,3.85,0,0,1,.09.67,1.77,1.77,0,0,1-.08.56,1,1,0,0,1-.21.39.83.83,0,0,1-.22.2l.08,0L80,131a1,1,0,0,0,.12-.17.31.31,0,0,0,0-.1l0-.1,0-.11,0-.11s0-.08,0-.12a.57.57,0,0,0,0-.13.53.53,0,0,0,0-.13v-.13a.66.66,0,0,1,0-.14,1.37,1.37,0,0,0,0-.28,1.4,1.4,0,0,0-.06-.28c0-.1-.06-.18-.1-.28a1.39,1.39,0,0,0-.12-.28,2.44,2.44,0,0,0-.14-.28c0-.09-.1-.18-.16-.27l-.18-.25-.2-.23c-.06-.07-.15-.15-.21-.21l-.22-.18-.12-.08-.11-.08-.12-.06-.11,0-.12-.05-.11,0h-.06l-.22,0h-.21l-.2,0-.11,0,.1,0a1,1,0,0,1,.42,0l.21,0a2,2,0,0,1,.61.3A3.41,3.41,0,0,1,79.34,127.73Z"/><path class="cls-19" d="M83.23,126.79l-.18-.26-.15-.28c-.05-.09-.1-.19-.14-.28l-.11-.3,0-.11a1.67,1.67,0,0,1-.05-.18l0-.14c0-.09,0-.19,0-.27s0-.19,0-.27h0a1.79,1.79,0,0,1,0-.24s0,0,0-.06a.85.85,0,0,1,0-.17c0-.07,0-.16.07-.21l.11-.19.14-.16a.6.6,0,0,1,.13-.09l0,0h0l.15-.07a1.06,1.06,0,0,1,.43,0l.22,0a2,2,0,0,1,.6.3,3.47,3.47,0,0,1,.66.61,4.29,4.29,0,0,1,.49.76,3.48,3.48,0,0,1,.32.83,3.08,3.08,0,0,1,.09.67,2.1,2.1,0,0,1-.07.56,1.53,1.53,0,0,1-.21.4,1.71,1.71,0,0,1-.26.21l-.1,0-.2,0h-.43l-.12,0-.11,0-.11,0-.11-.05-.12-.06-.11-.07-.11-.08-.11-.09a1.9,1.9,0,0,1-.21-.19l-.21-.22A2.23,2.23,0,0,1,83.23,126.79Zm2.33.74a1.11,1.11,0,0,0,.2-.44,2,2,0,0,0,0-.6,3,3,0,0,0-.23-.93,3.57,3.57,0,0,0-.48-.85,3.13,3.13,0,0,0-.67-.69,1.88,1.88,0,0,0-.64-.34h0a1.11,1.11,0,0,0-.6,0,.79.79,0,0,0-.39.28,1.11,1.11,0,0,0-.2.44,2,2,0,0,0,0,.6,3.71,3.71,0,0,0,.11.58,3.62,3.62,0,0,0,.13.35,3.92,3.92,0,0,0,.47.85,3.38,3.38,0,0,0,.67.69,2.08,2.08,0,0,0,.64.34,1.15,1.15,0,0,0,.61,0A.83.83,0,0,0,85.56,127.53Z"/><path class="cls-21" d="M86,127.53l0,0,0,0a1,1,0,0,0,.15-.14,1.1,1.1,0,0,0,.21-.4,1.77,1.77,0,0,0,.08-.56,3.85,3.85,0,0,0-.09-.67,4.6,4.6,0,0,0-.32-.83,4.34,4.34,0,0,0-.5-.76,3.41,3.41,0,0,0-.65-.61,2,2,0,0,0-.61-.3l-.21,0a1,1,0,0,0-.42,0l-.1,0a.05.05,0,0,0,0,0h0l-.48.28.15-.07a1.06,1.06,0,0,1,.43,0l.22,0a2,2,0,0,1,.6.3,3.47,3.47,0,0,1,.66.61,4.29,4.29,0,0,1,.49.76,3.48,3.48,0,0,1,.32.83,3.08,3.08,0,0,1,.09.67,2.1,2.1,0,0,1-.07.56,1.53,1.53,0,0,1-.21.4,1.71,1.71,0,0,1-.26.21l0,0Z"/><path class="cls-19" d="M83.78,124.26a.68.68,0,0,0-.27.37,1.19,1.19,0,0,0,0,.46,2.11,2.11,0,0,0,.1.45,2.71,2.71,0,0,0,.2.42,2.16,2.16,0,0,0,.27.38,1.72,1.72,0,0,0,.34.32,1,1,0,0,0,.41.2.63.63,0,0,0,.45,0h0a.08.08,0,0,0,0,0s0,0,0,0l0,0,0-.06a.24.24,0,0,1,0-.08s0-.07,0-.1v-.22s0-.08,0-.12l0-.14,0-.14s0-.09,0-.14l-.06-.14a.94.94,0,0,0-.06-.15,2.34,2.34,0,0,0-.15-.27,2.93,2.93,0,0,0-.18-.26l-.1-.11-.1-.11-.1-.09-.1-.09-.1-.07-.1-.06-.09,0-.09,0h-.22Z"/><path class="cls-20" d="M82.54,125a2,2,0,0,1,0-.6,1.11,1.11,0,0,1,.2-.44.79.79,0,0,1,.39-.28,1.11,1.11,0,0,1,.6,0h0a1.88,1.88,0,0,1,.64.34,3.13,3.13,0,0,1,.67.69,3.57,3.57,0,0,1,.48.85,3,3,0,0,1,.23.93,2,2,0,0,1,0,.6,1.11,1.11,0,0,1-.2.44.83.83,0,0,1-.39.28,1.15,1.15,0,0,1-.61,0,2.08,2.08,0,0,1-.64-.34,3.38,3.38,0,0,1-.67-.69,3.92,3.92,0,0,1-.47-.85,3.62,3.62,0,0,1-.13-.35A3.71,3.71,0,0,1,82.54,125Zm2.72,1.82a.08.08,0,0,0,0,0s0,0,0,0l0,0,0-.06a.24.24,0,0,1,0-.08s0-.07,0-.1v-.22s0-.08,0-.12l0-.14,0-.14s0-.09,0-.14l-.06-.14a.94.94,0,0,0-.06-.15,2.34,2.34,0,0,0-.15-.27,2.93,2.93,0,0,0-.18-.26l-.1-.11-.1-.11-.1-.09-.1-.09-.1-.07-.1-.06-.09,0-.09,0h-.22l-.06,0a.68.68,0,0,0-.27.37,1.19,1.19,0,0,0,0,.46,2.11,2.11,0,0,0,.1.45,2.71,2.71,0,0,0,.2.42,2.16,2.16,0,0,0,.27.38,1.72,1.72,0,0,0,.34.32,1,1,0,0,0,.41.2.63.63,0,0,0,.45,0Z"/><path class="cls-20" d="M86,124.55l-.18-.26a2.23,2.23,0,0,0-.19-.24,2.18,2.18,0,0,0-.21-.22,1.9,1.9,0,0,0-.21-.19l-.11-.09-.11-.08-.11-.07-.12-.06-.11,0-.11-.05-.11,0h0l-.06,0-.22,0a.74.74,0,0,0-.21,0l-.2,0-.11,0,.1,0a1,1,0,0,1,.42,0l.21,0a2,2,0,0,1,.61.3,3.41,3.41,0,0,1,.65.61,4.34,4.34,0,0,1,.5.76,4.6,4.6,0,0,1,.32.83,3.85,3.85,0,0,1,.09.67,1.77,1.77,0,0,1-.08.56,1.1,1.1,0,0,1-.21.4,1,1,0,0,1-.15.14,1,1,0,0,0,.23-.23,1.18,1.18,0,0,0,.11-.19c0-.06,0-.14.07-.21a1.32,1.32,0,0,0,0-.23,2,2,0,0,0,0-.25,2.44,2.44,0,0,0,0-.26c0-.08,0-.18,0-.27l0-.14c0-.09,0-.2-.08-.29l-.11-.3c0-.09-.09-.19-.14-.28Z"/><path class="cls-19" d="M81.55,89.05,121.26,112c.64.36,1.15.14,1.15-.49l0-56.18a2.41,2.41,0,0,0-1.16-1.82l-39.7-22.9c-.64-.37-1.16-.15-1.16.49l0,56.17A2.42,2.42,0,0,0,81.55,89.05Z"/><path class="cls-15" d="M121.13,60.35a1.23,1.23,0,0,0-.53-.73l-39-22.5.07,50.11a1.28,1.28,0,0,0,.52.73l39,22.51Z"/><path class="cls-3" d="M81.57,33.6a2,2,0,0,0,1,1.51c.53.31,1,.13,1-.4a2,2,0,0,0-1-1.52C82,32.88,81.57,33.06,81.57,33.6Z"/><path class="cls-3" d="M84,35a2,2,0,0,0,1,1.52c.53.31,1,.12,1-.41a2,2,0,0,0-1-1.52C84.45,34.31,84,34.49,84,35Z"/><path class="cls-3" d="M86.48,36.45a2,2,0,0,0,1,1.52c.53.31,1,.12,1-.41a2,2,0,0,0-1-1.51C86.91,35.74,86.48,35.92,86.48,36.45Z"/><path class="cls-19" d="M28.66,58.66l39.71,22.9c.64.37,1.16.15,1.15-.48l0-56.18a2.41,2.41,0,0,0-1.16-1.82L28.64.18C28-.19,27.48,0,27.48.67l0,56.17A2.38,2.38,0,0,0,28.66,58.66Z"/><path class="cls-15" d="M68.24,30a1.23,1.23,0,0,0-.53-.73l-39-22.5.07,50.11a1.28,1.28,0,0,0,.52.73l39,22.51Z"/><path class="cls-3" d="M28.68,3.2a2,2,0,0,0,1,1.52c.54.31,1,.13,1-.4a2,2,0,0,0-1-1.52C29.11,2.49,28.68,2.67,28.68,3.2Z"/><path class="cls-3" d="M31.13,4.63a2,2,0,0,0,1,1.52c.53.31,1,.12,1-.41a2,2,0,0,0-1-1.52C31.56,3.92,31.13,4.1,31.13,4.63Z"/><path class="cls-3" d="M33.59,6.06a2,2,0,0,0,1,1.52c.53.31,1,.12,1-.41a2,2,0,0,0-1-1.52C34,5.35,33.59,5.53,33.59,6.06Z"/><path class="cls-15" d="M79.35,140c5-3.07,10.17-6,15.26-9s10.23-5.87,15.42-8.69c-5,3.07-10.17,6-15.26,9S84.54,137.16,79.35,140Z"/><path class="cls-34" d="M42.53,51.43c0,.26,0,.53,0,.82s0,.59,0,.91c0,0,0,.06,0,.08,0,.31-.07.84-.15,1.51,0,.28-.07.59-.12.92h0L42,57.39c0,.3-.09.61-.13.92l-.12.75c0,.35-.11.7-.16,1-.13.84-.27,1.65-.4,2.38h0c-.08.43-.15.83-.22,1.18l-4.81-2.75s0,.08,0,.13a.78.78,0,0,1,0-.14l-.56-.32c-.05-1-.11-2-.1-2.82h0a7.16,7.16,0,0,1,0-1c.06-.4.11-.82.17-1.24.1-.78.21-1.58.31-2.31.11-1,.22-1.84.3-2.48,0,0,0,0,0,0a8.73,8.73,0,0,1,.63-3,7.16,7.16,0,0,1,.67-1.29c0-.11.14-.19.19-.28a3.41,3.41,0,0,1,.56-.62h0l.09-.07.12-.09a4.21,4.21,0,0,1,.52-.24.11.11,0,0,1,.07,0h0a2.67,2.67,0,0,1,.88-.26,1.42,1.42,0,0,1,.55.1l.27.15a2,2,0,0,1,.32.23,2.72,2.72,0,0,1,.62.89,4.63,4.63,0,0,1,.35,1,1.33,1.33,0,0,1,.05.19c0,.23.08.45.1.69s0,.44,0,.68h0a0,0,0,0,1,0,0c0,.12.08.57.12,1.33,0,.19,0,.39,0,.61S42.53,51.17,42.53,51.43Z"/><path class="cls-35" d="M35.37,57.2a1,1,0,0,0,0,.25,1.29,1.29,0,0,0,.06.25l0,0a2,2,0,0,0,1.07,1.15,6.22,6.22,0,0,0,4.6.41,4.11,4.11,0,0,0,1-.41,2.08,2.08,0,0,0,.78-.66A1.52,1.52,0,0,0,42.64,56a2.67,2.67,0,0,0-.49-.35,4.68,4.68,0,0,0-1-.39l.11-8.16-4.85-2.75C34.3,45.78,35.18,53.59,35.37,57.2Z"/><path class="cls-36" d="M50.56,36.46s-1.23,2.66-1.1,3.47a22,22,0,0,1-.65-2.6A17.84,17.84,0,0,0,50.56,36.46Z"/><path class="cls-37" d="M51.17,42.61s-.14,1-.44,2.6v0s0,0,0,0c-.17.88-.39,1.93-.67,3.09-.18.74-.38,1.52-.6,2.32v0a43.62,43.62,0,0,1-1.37,4.2c-.17.45-.34.9-.53,1.34-.27.63-.55,1.26-.86,1.86s-.45.9-.7,1.32a18.71,18.71,0,0,1-1,1.62,10.48,10.48,0,0,1-3.23,3.09l-.44-.25c0-.31,0-.77-.07-1.35h0c0-.69-.07-1.55-.11-2.52,0-.22,0-.44,0-.67,0-.39,0-.8,0-1.22s0-.68,0-1c0-.87,0-1.78-.06-2.7,0-2.55,0-5.2.13-7.4,0-.35,0-.69.09-1l.06-.62,0-.3c.06-.59.15-1.12.24-1.57h0c0-.21.09-.4.14-.57,0,0,.9-.78,1.82-1.68,1.33-1.29,2.16-3.9,4.88-3.8a2.56,2.56,0,0,1,.47,0h.13s0,.14.07.37a1.62,1.62,0,0,0,0,.19,14.89,14.89,0,0,0,.42,1.59h0a10.15,10.15,0,0,0,.78,1.89h0A3.37,3.37,0,0,0,51.17,42.61Z"/><path class="cls-38" d="M52.7,53.41a2.75,2.75,0,0,0,.23,1.1l-.22-1.38A2.62,2.62,0,0,0,52.7,53.41Z"/><path class="cls-39" d="M53.68,59.33c.14.87.26,1.64.36,2.17v.06c0,.06,0,.13,0,.2h0s0,.05,0,.06v-.06h0c.12-2-.21-2.38.38-4.53.08-.29.72-2.19.88-2.68a.31.31,0,0,0,0-.08c.07-.22.82-1.68.89-1.91q-.21.25-.42.54A18.1,18.1,0,0,0,53.68,59.33Z"/><path class="cls-37" d="M39,46.25v7.56l9,2.55V50.52a3.13,3.13,0,0,1,0-.43,8.84,8.84,0,0,1,4-5.92,4.86,4.86,0,0,1,1.09-.51l.32-.11c.07,0-.39-.08-.33-.08l-2.89-2s-4.5,6.21-4.73,6.21-4.23-.64-4.23-.64L41.08,47a26.66,26.66,0,0,1,.41-3.5,5.22,5.22,0,0,1-.9-1l-.15.06.07.12C39.27,43.14,39,45.47,39,46.25Z"/><path class="cls-40" d="M59,47.33l-.68.93-.12.2a21.32,21.32,0,0,0-2.35,4.61,0,0,0,0,0,0,0h0l-.24.67-.17.47c0,.06,0,.14-.06.21a.12.12,0,0,1,0,.08c0,.08-.05.16-.07.24s-.11.39-.16.6c-.16.6-.31,1.2-.43,1.8h0c-.14.67-.25,1.33-.35,2l.08.14,1.36,2.24.15.25s.06.55.14,1.45a.15.15,0,0,1,0,.06.72.72,0,0,1,0,.17c0,.12,0,.26,0,.43l0,.24,0,.3q0,.19,0,.42c0,.2.05.43.09.68a3,3,0,0,1,0,.43c0,.17,0,.35,0,.52s0,.35.05.53c.2,2.13.39,4.4.45,5.76l-2.62-1.5-7.21-4.13-.18-.1-5.19-3-.44-.25L41,63.68l-4.81-2.75h0v-.05a1.09,1.09,0,0,0,0-.18v-.08c0-.1,0-.19,0-.29,0-.44-.08-1.08-.15-1.85s-.17-1.85-.26-2.93c-.28-3.47-.49-7.72.19-10,0-.11,0-.21.06-.29a2.83,2.83,0,0,1,.37-.76,1,1,0,0,0,.1-.15s.33-.16.84-.41h0l.34-.15L38,43.6l.15-.07.8-.35.24-.11.77-.33.51-.23.06.12a1.38,1.38,0,0,0-.33.2L40,43l-.1.12a.86.86,0,0,0-.14.18,2.82,2.82,0,0,0-.18.29h0c-.06.12-.12.25-.17.38a5.78,5.78,0,0,0-.24.81c0,.14-.06.27-.08.4s-.06.46-.08.65v.11A.66.66,0,0,1,39,46c0,.08,0,.15,0,.21v7.56l1.91.54h0l.24.07h0l1.15.33,5.18,1.46h0l.52.15V50.52a1.93,1.93,0,0,1,0-.42h0c0-.2.06-.41.11-.61s.11-.43.18-.64h0q.11-.31.24-.63c.09-.21.19-.41.3-.62h0c.07-.13.14-.27.22-.4s.15-.25.23-.37l.13-.18a3.15,3.15,0,0,1,.22-.29l.21-.28.17-.21h0l.05-.06.11-.12c.14-.14.27-.28.41-.41h0A1.88,1.88,0,0,1,51,45a3.27,3.27,0,0,1,.35-.3,7.3,7.3,0,0,1,.72-.52l.28-.16a4.46,4.46,0,0,1,.55-.25l.27-.1h0l.31-.1h0l.09,0h.14L56,45.19a0,0,0,0,0,0,0c1.71,1.22,2.75,1.93,3,2.1Z"/><path class="cls-34" d="M41.72,43.64a4,4,0,0,0,0,.6,7.53,7.53,0,0,0,4.19-1.51A7.44,7.44,0,0,0,47.68,40a6.14,6.14,0,0,1-2.11,2.31C44,43,42.21,44,41.72,43.64Z"/><path class="cls-40" d="M37,51.78s1.81,4.54,2,4.58l5.47,1.83L48.46,58,49,54.24l.59-5.3,2.16-3.21,1.87-2.22-3.41-2s-3.56,6.29-7,5.82c0,0-1.58.08-1.56-3.68a.72.72,0,0,1-.19-.15l0,0a5.22,5.22,0,0,1-.9-1s0,0,0,0l-1.65.77Z"/><path class="cls-41" d="M57,72.85l-.08,0-2.62-1.5-7.21-4.13-.18-.1-5.19-3-.44-.25L41,63.68l-4.81-2.75s0,.08,0,.13a.78.78,0,0,1,0-.14v-.05a1.09,1.09,0,0,0,0-.18v-.08c0-.1,0-.19,0-.29s0-.23,0-.35a8.12,8.12,0,0,1,.05-1.34h0a10.28,10.28,0,0,1,.3-1.88,17.46,17.46,0,0,0,.5-4.45v-6a9.58,9.58,0,0,1,.15-1.56h0c0-.25.1-.52.17-.79l.34-.15L38,43.6l.15-.07c.54-.26,1.12-.54,1.84-.86l0,0v0l-.22.43a1.73,1.73,0,0,0-.1.37s0,0,0,0c-.14.42-.3,1-.42,1.55h0l-.14.69a.38.38,0,0,1,0,.1A.66.66,0,0,1,39,46c0,.08,0,.15,0,.21v7.56l1.91.54h0l.24.07h0l1.15.33,5.18,1.46h0l.52.15V50.52a1.93,1.93,0,0,1,0-.42h0c0-.2.06-.41.11-.61s.11-.43.18-.64h0A10.48,10.48,0,0,1,49,47.58h0c.07-.13.14-.27.22-.4s.15-.25.23-.37l.13-.18a3.15,3.15,0,0,1,.22-.29l.21-.28.17-.21h0l.05-.06.11-.12c.14-.14.27-.28.41-.41h0v0L51,45a3.27,3.27,0,0,1,.35-.3,7.3,7.3,0,0,1,.72-.52l.28-.16a4.46,4.46,0,0,1,.55-.25l.27-.1h0l.31-.1h0l.09,0,.07,0h0l0,0h0L56,45.19a4.35,4.35,0,0,0-2.84.74,6.72,6.72,0,0,0-3,4.59v8.55a10.87,10.87,0,0,0,2.54,3.66,3.3,3.3,0,0,0,1.45.77h0a2.6,2.6,0,0,0,1.94-.23.15.15,0,0,1,0,.06.72.72,0,0,1,0,.17c0,.12,0,.26,0,.43l0,.24,0,.3c0,.11,0,.22,0,.34s0,.45.08.7v.15c0,.27.06.56.09.86s0,.35.05.53C56.65,68.83,56.85,71,57,72.85Z"/><path class="cls-42" d="M47.23,59.72c0,2.49-.09,5-.15,7.46l-.18-.1c.07-1.83.14-3.65.23-5.48Z"/><polygon class="cls-42" points="47.23 59.72 38.81 57.5 38.81 59.36 47.12 61.6 47.23 59.72"/><path class="cls-36" d="M38.12,31.6s.08,2.6.54,3.14.37-3.82.37-3.82Z"/><path class="cls-37" d="M38.43,35.11a6.55,6.55,0,0,1,.47,2.2,11.21,11.21,0,0,0,1.67,5.11s.09.12.09.12a4.42,4.42,0,0,0,.87,1,.3.3,0,0,0,.13.11.64.64,0,0,1,.1.06s.1,0,.12,0c.5.33,2.22-.66,3.8-1.4A6.11,6.11,0,0,0,47.8,40a18.82,18.82,0,0,0,1.07-2c1.13-.74.21-1.35,2.61-4.75-.93-7.81-6.74-6.92-6.74-6.92C37.85,26.52,38.43,35.11,38.43,35.11Z"/><path class="cls-36" d="M38.12,31.6a1,1,0,0,1,1,.13c.3.21.54.51.84.72a3.49,3.49,0,0,0,2.92.18c1.08-.31,2.55-1.07,3.9-.46a1.27,1.27,0,0,1,.46.75c.14.83,0,1.68.19,2.51a5.85,5.85,0,0,1,.13,1.22L48.71,36l1.38,1.59a27.31,27.31,0,0,0,1.77-4.39,7.09,7.09,0,0,0-2.08-5.69,6.79,6.79,0,0,0-5.14-1.67c-3.15.12-5.94,1.77-6.43,5.11C38.19,31,38.16,31.28,38.12,31.6Z"/><path class="cls-37" d="M48,37a8.12,8.12,0,0,0,.17-1.3c0-.57.24-1.58,1.33-1.49,1.53.12.32,3.44-.18,3.77S48,37,48,37Z"/><path class="cls-43" d="M37.27,31.64c2.23.7,5.27,2.06,7.63,1.91H45a4.79,4.79,0,0,0,1.09-.22,11.12,11.12,0,0,0,3.12-1.63,1.33,1.33,0,0,1,.8-.28,1.39,1.39,0,0,1,.43.27,5.17,5.17,0,0,1,.88,2.7s.43,0,.54-.28.07-.64.07-3.73c0-.3,0-.61,0-.91,0,0,0-.07,0-.1a6.88,6.88,0,0,0-4.91-5.94l-.18-.05a7.94,7.94,0,0,0-4.28-.05c-3.26.95-4.37,5.08-4.6,6.13a4.82,4.82,0,0,1-.6,1.06C36.94,30.94,36.7,31.46,37.27,31.64Z"/><path class="cls-44" d="M45,33.54a4.79,4.79,0,0,0,1.09-.22,11.12,11.12,0,0,0,3.12-1.63,1.33,1.33,0,0,1,.8-.28,1.39,1.39,0,0,1,.43.27,5.17,5.17,0,0,1,.88,2.7s.43,0,.54-.28.07-.64.07-3.73c0-.3,0-.61,0-.91,0,0,0-.07,0-.1a6.88,6.88,0,0,0-4.91-5.94,4.32,4.32,0,0,1,1.38,1.83c.87,2.2-.13,4.42-1.17,6.1A6.15,6.15,0,0,1,45,33.54Z"/><path class="cls-37" d="M59.27,59.27c0,.4,0,.73,0,1s0,.37,0,.61c-.13,2-.39,6.1-.69,7.91a46.3,46.3,0,0,0-.35,4.77L57,72.85l-.08,0-2.62-1.5c0-2.19-.08-4.85-.17-7.81,0-.63,0-1.27-.07-1.92a0,0,0,0,0,0,0c0-.12,0-.24,0-.37,0-.45,0-.91,0-1.37,0-.09,0-.26,0-.49s0-.79,0-1.31v-.59a36.72,36.72,0,0,0-.16-4.29l2-.07H56l3-.11s.14,2.63.19,4.82C59.27,58.31,59.27,58.83,59.27,59.27Z"/><path class="cls-45" d="M52.3,59.26a1.87,1.87,0,0,0,.1.51,2,2,0,0,0,1.07,1.15,6.11,6.11,0,0,0,5.61,0,2,2,0,0,0,.78-.66A1.52,1.52,0,0,0,59.57,58a3.25,3.25,0,0,0-.49-.35,6.29,6.29,0,0,0-5.61,0A2,2,0,0,0,52.3,59.26Z"/><path class="cls-45" d="M52.3,59.34s7.93-.09,7.93-.09l-.4-10.13a1.84,1.84,0,0,0-2.49-1.95h0a5.86,5.86,0,0,0-1.13.49C51.85,49.84,52.28,59.32,52.3,59.34Z"/><path class="cls-34" d="M97,82.81c0,.26,0,.53,0,.82s0,.59,0,.91c0,0,0,.06,0,.08,0,.31-.07.84-.15,1.51,0,.28-.07.59-.12.92h0l-.23,1.71c0,.3-.09.61-.13.92l-.12.75c0,.35-.11.7-.16,1-.13.84-.27,1.65-.4,2.38h0c-.08.43-.15.83-.22,1.18l-4.81-2.75s0,.08,0,.13a.78.78,0,0,1,0-.14L90.05,92c0-1-.11-2-.1-2.82h0a7.16,7.16,0,0,1,0-1c.06-.4.11-.82.17-1.24.1-.78.21-1.58.31-2.31.11-1,.22-1.84.3-2.48,0,0,0,0,0,0a8.73,8.73,0,0,1,.63-3,7.16,7.16,0,0,1,.67-1.29c0-.11.14-.19.19-.28a3.41,3.41,0,0,1,.56-.62h0l.09-.07.12-.09a4.21,4.21,0,0,1,.52-.24.11.11,0,0,1,.07,0h0a2.67,2.67,0,0,1,.88-.26,1.42,1.42,0,0,1,.55.1l.27.15a2,2,0,0,1,.32.23,2.72,2.72,0,0,1,.62.89,4.63,4.63,0,0,1,.35,1,1.33,1.33,0,0,1,0,.19c0,.23.08.45.1.69s0,.44,0,.68h0a0,0,0,0,1,0,0c0,.12.08.57.12,1.33,0,.19,0,.39,0,.61S97,82.55,97,82.81Z"/><path class="cls-35" d="M89.82,88.59a1,1,0,0,0,0,.24,1.14,1.14,0,0,0,.06.25l0,0A2.09,2.09,0,0,0,91,90.25a6.25,6.25,0,0,0,4.61.41,3.56,3.56,0,0,0,1-.41,2,2,0,0,0,.78-.66,1.52,1.52,0,0,0-.28-2.24,4,4,0,0,0-.5-.35,4.93,4.93,0,0,0-1-.39l.1-8.16L90.89,75.7C88.75,77.16,89.64,85,89.82,88.59Z"/><path class="cls-36" d="M105,67.84s-1.23,2.66-1.11,3.48a21.62,21.62,0,0,1-.65-2.61A18.06,18.06,0,0,0,105,67.84Z"/><path class="cls-37" d="M105.62,74s-.14,1-.44,2.6v0s0,0,0,0c-.17.88-.39,1.93-.67,3.09-.18.74-.38,1.52-.6,2.32v0a43.62,43.62,0,0,1-1.37,4.2c-.17.45-.34.9-.53,1.34-.27.63-.55,1.26-.86,1.86s-.45.9-.7,1.32a18.71,18.71,0,0,1-1,1.62,10.48,10.48,0,0,1-3.23,3.09l-.44-.25c0-.31,0-.77-.07-1.35h0c0-.69-.07-1.55-.11-2.52,0-.22,0-.44,0-.67,0-.39,0-.8,0-1.22s0-.68,0-1c0-.87,0-1.78-.06-2.7,0-2.55,0-5.2.13-7.4,0-.35,0-.69.09-1l.06-.62,0-.3c.06-.59.15-1.12.24-1.57h0c0-.21.09-.4.14-.57,0,0,.9-.78,1.82-1.68,1.33-1.29,2.16-3.9,4.88-3.8a2.56,2.56,0,0,1,.47,0h.13s0,.14.07.37a1.62,1.62,0,0,0,0,.19,14.89,14.89,0,0,0,.42,1.59h0a10.15,10.15,0,0,0,.78,1.89h0A3.37,3.37,0,0,0,105.62,74Z"/><path class="cls-38" d="M107.15,84.8a2.66,2.66,0,0,0,.23,1.09c-.09-.62-.18-1.12-.22-1.38A2.81,2.81,0,0,0,107.15,84.8Z"/><path class="cls-39" d="M108.14,90.71c.14.87.26,1.65.35,2.18a.18.18,0,0,1,0,0l0,.2h0a.13.13,0,0,1,0,.06v-.06h0c.12-2-.21-2.38.38-4.52.08-.29.73-2.2.88-2.69a.24.24,0,0,1,0-.07c.07-.23.81-1.69.89-1.91a5.83,5.83,0,0,0-.43.53A17.9,17.9,0,0,0,108.14,90.71Z"/><path class="cls-37" d="M93.48,77.63v7.56l9,2.55V81.91a3.27,3.27,0,0,1,0-.44,8.89,8.89,0,0,1,4-5.92A5.34,5.34,0,0,1,107.6,75l.33-.1c.06,0-.4-.09-.34-.09-.55-.39-2.89-2-2.89-2s-4.5,6.2-4.73,6.2c-.08-.14-4.23-.64-4.23-.64l-.21-.12a28.06,28.06,0,0,1,.41-3.49,5.67,5.67,0,0,1-.9-1l-.14.06L95,74C93.73,74.53,93.48,76.85,93.48,77.63Z"/><path class="cls-40" d="M113.46,78.71l-.68.93-.12.2a21.32,21.32,0,0,0-2.35,4.61,0,0,0,0,0,0,0h0l-.24.67-.17.47-.06.21a.12.12,0,0,1,0,.08c0,.08,0,.16-.07.24s-.11.39-.16.6c-.16.6-.31,1.2-.43,1.8h0c-.14.67-.25,1.33-.35,2l.08.14L110.23,93l.15.25s.06.55.14,1.45a.15.15,0,0,1,0,.06.72.72,0,0,1,0,.17c0,.12,0,.26,0,.43l0,.24,0,.3,0,.42c0,.2,0,.43.09.68a3,3,0,0,1,0,.43c0,.17,0,.35,0,.52s0,.35,0,.53c.2,2.13.39,4.4.45,5.76l-2.62-1.5-7.21-4.13-.18-.1-5.19-3-.44-.25-.29-.17-4.81-2.75h0v0a1.09,1.09,0,0,0,0-.18V92c0-.1,0-.19,0-.29,0-.44-.08-1.08-.15-1.85s-.17-1.85-.26-2.93c-.28-3.47-.49-7.72.19-10,0-.11,0-.21.06-.29a2.83,2.83,0,0,1,.37-.76,1,1,0,0,0,.1-.15s.33-.16.84-.41h0l.34-.15.35-.15.15-.07.8-.35.24-.11.77-.33.51-.23L95,74a1.38,1.38,0,0,0-.33.2l-.14.12-.1.12a.86.86,0,0,0-.14.18,2.82,2.82,0,0,0-.18.29h0c-.06.12-.12.25-.17.38a5.78,5.78,0,0,0-.24.81c0,.14-.06.27-.08.4s-.06.46-.08.65v.11a.66.66,0,0,1,0,.14c0,.08,0,.15,0,.21v7.56l1.91.54h0l.24.07h0l1.15.33L102,87.59h0l.52.15V81.9a1.93,1.93,0,0,1,0-.42h0c0-.2.06-.41.11-.61s.11-.43.18-.64h0q.11-.31.24-.63c.09-.21.19-.41.3-.62h0c.07-.13.14-.27.22-.4s.15-.25.23-.37L104,78a3.15,3.15,0,0,1,.22-.29l.21-.28.17-.21h0l.05-.06.11-.12c.14-.14.27-.28.41-.41h0a1.88,1.88,0,0,1,.25-.24,3.27,3.27,0,0,1,.35-.3,7.3,7.3,0,0,1,.72-.52l.28-.16a4.46,4.46,0,0,1,.55-.25l.27-.1h0l.31-.1h0l.09,0h.14l2.25,1.64a0,0,0,0,0,0,0c1.71,1.22,2.75,1.93,3,2.1Z"/><path class="cls-34" d="M96.17,75a6,6,0,0,0,0,.6,6,6,0,0,0,5.95-4.27A6.14,6.14,0,0,1,100,73.66C98.43,74.41,96.66,75.35,96.17,75Z"/><path class="cls-40" d="M91.42,83.16s1.81,4.54,2,4.58l5.46,1.83,4.07-.2.58-3.74.59-5.31,2.16-3.2,1.87-2.22-3.41-2s-3.55,6.29-7,5.82c0,0-1.58.08-1.56-3.68a.89.89,0,0,1-.18-.14l0,0a5.67,5.67,0,0,1-.9-1,0,0,0,0,0,0,0l-1.64.76Z"/><path class="cls-41" d="M111.44,104.23l-.08,0-2.62-1.5-7.21-4.13-.18-.1-5.19-3-.44-.25-.29-.17-4.81-2.75s0,.08,0,.13a.78.78,0,0,1,0-.14v0a1.09,1.09,0,0,0,0-.18V92c0-.1,0-.19,0-.29s0-.23,0-.35A8.12,8.12,0,0,1,90.62,90h0a10.28,10.28,0,0,1,.3-1.88,17.46,17.46,0,0,0,.5-4.45v-6a9.58,9.58,0,0,1,.15-1.56h0c0-.25.1-.52.17-.79l.34-.15.35-.15.15-.07c.54-.26,1.12-.54,1.84-.86l0,0v0l-.22.43a1.73,1.73,0,0,0-.1.37s0,0,0,0c-.14.42-.3,1-.42,1.55h0l-.14.69a.38.38,0,0,1,0,.1.66.66,0,0,1,0,.14c0,.08,0,.15,0,.21v7.56l1.91.54h0l.24.07h0l1.15.33L102,87.59h0l.52.15V81.9a1.93,1.93,0,0,1,0-.42h0c0-.2.06-.41.11-.61s.11-.43.18-.64h0A10.48,10.48,0,0,1,103.4,79h0c.07-.13.14-.27.22-.4s.15-.25.23-.37L104,78a3.15,3.15,0,0,1,.22-.29l.21-.28.17-.21h0l.05-.06.11-.12c.14-.14.27-.28.41-.41h0v0l.25-.22a3.27,3.27,0,0,1,.35-.3,7.3,7.3,0,0,1,.72-.52l.28-.16a4.46,4.46,0,0,1,.55-.25l.27-.1h0l.31-.1h0l.09,0,.07,0h0l0,0h0l2.25,1.64a4.35,4.35,0,0,0-2.84.74,6.72,6.72,0,0,0-3,4.59v8.55a10.87,10.87,0,0,0,2.54,3.66,3.3,3.3,0,0,0,1.45.77h0a2.6,2.6,0,0,0,1.94-.23.15.15,0,0,1,0,.06.72.72,0,0,1,0,.17c0,.12,0,.26,0,.43l0,.24,0,.3c0,.11,0,.22,0,.34s0,.45.08.7V97c0,.27.06.56.09.86s0,.35,0,.53C111.1,100.21,111.3,102.36,111.44,104.23Z"/><path class="cls-42" d="M101.68,91.1c0,2.49-.09,5-.15,7.46l-.18-.1c.07-1.83.14-3.65.23-5.48Z"/><polygon class="cls-42" points="101.68 91.11 93.26 88.89 93.26 90.74 101.58 92.98 101.68 91.11"/><path class="cls-36" d="M92.57,63s.08,2.61.54,3.14.37-3.81.37-3.81Z"/><path class="cls-37" d="M92.88,66.49a6.55,6.55,0,0,1,.47,2.2A11.26,11.26,0,0,0,95,73.81s.09.12.09.12a4.66,4.66,0,0,0,.88.95.25.25,0,0,0,.12.1l.1.06s.1,0,.13,0c.49.33,2.22-.66,3.8-1.4a6.1,6.1,0,0,0,2.11-2.32,19.26,19.26,0,0,0,1.07-2c1.13-.74.21-1.36,2.61-4.75-.92-7.81-6.74-6.93-6.74-6.93C92.31,57.9,92.88,66.49,92.88,66.49Z"/><path class="cls-36" d="M92.57,63a1,1,0,0,1,1,.13c.3.21.54.51.84.73a3.45,3.45,0,0,0,2.92.17c1.09-.31,2.56-1.06,3.9-.45a1.27,1.27,0,0,1,.46.75c.15.82,0,1.67.19,2.5a5.08,5.08,0,0,1,.13,1.22l1.11-.67,1.39,1.58a27.52,27.52,0,0,0,1.76-4.39,7.06,7.06,0,0,0-2.08-5.69,6.82,6.82,0,0,0-5.13-1.67c-3.16.12-5.95,1.77-6.44,5.12C92.64,62.4,92.61,62.66,92.57,63Z"/><path class="cls-37" d="M102.5,68.38a9.56,9.56,0,0,0,.16-1.31c0-.57.24-1.57,1.34-1.49,1.52.12.32,3.44-.19,3.78s-1.31-1-1.31-1Z"/><path class="cls-43" d="M91.72,63c2.23.7,5.27,2.06,7.64,1.91h.07a4.22,4.22,0,0,0,1.09-.22,10.85,10.85,0,0,0,3.13-1.63,1.29,1.29,0,0,1,.8-.27,1.32,1.32,0,0,1,.42.26,5.07,5.07,0,0,1,.88,2.7s.43,0,.54-.28.07-.64.07-3.72c0-.31,0-.61,0-.92,0,0,0-.06,0-.09a6.87,6.87,0,0,0-4.9-6l-.18,0a8,8,0,0,0-4.28,0c-3.27,1-4.38,5.08-4.61,6.13a4.6,4.6,0,0,1-.6,1.06C91.39,62.33,91.15,62.84,91.72,63Z"/><path class="cls-44" d="M99.43,64.92a4.22,4.22,0,0,0,1.09-.22,10.85,10.85,0,0,0,3.13-1.63,1.29,1.29,0,0,1,.8-.27,1.32,1.32,0,0,1,.42.26,5.07,5.07,0,0,1,.88,2.7s.43,0,.54-.28.07-.64.07-3.72c0-.31,0-.61,0-.92,0,0,0-.06,0-.09a6.87,6.87,0,0,0-4.9-6,4.43,4.43,0,0,1,1.37,1.83c.87,2.2-.13,4.42-1.17,6.11A6,6,0,0,1,99.43,64.92Z"/><path class="cls-37" d="M113.72,90.65c0,.4,0,.73,0,1s0,.37,0,.61c-.13,2-.39,6.1-.69,7.91a46.3,46.3,0,0,0-.35,4.77l-1.18-.68-.08,0-2.62-1.5c0-2.19-.08-4.85-.17-7.81,0-.63,0-1.27-.07-1.92a0,0,0,0,0,0,0c0-.12,0-.24,0-.37,0-.45,0-.91,0-1.37,0-.09,0-.26,0-.49s0-.79,0-1.31v-.59a36.72,36.72,0,0,0-.16-4.29l2-.07h.18l3-.11s.14,2.63.19,4.82C113.72,89.69,113.72,90.21,113.72,90.65Z"/><path class="cls-45" d="M106.75,90.64a1.87,1.87,0,0,0,.1.51,2,2,0,0,0,1.07,1.15,6.11,6.11,0,0,0,5.61,0,2.19,2.19,0,0,0,.79-.65,1.53,1.53,0,0,0-.29-2.24,2.62,2.62,0,0,0-.5-.35,6.23,6.23,0,0,0-5.61,0A2,2,0,0,0,106.75,90.64Z"/><path class="cls-45" d="M106.76,90.72s7.92-.09,7.92-.09l-.4-10.12a1.84,1.84,0,0,0-2.49-2h0a6,6,0,0,0-1.13.5C106.3,81.23,106.74,90.7,106.76,90.72Z"/></g></g></g></svg>